{
 "cells": [
  {
   "cell_type": "code",
   "execution_count": 1,
   "metadata": {},
   "outputs": [],
   "source": [
    "# Creating a markov Chain\n",
    "\n",
    "from collections import Counter, defaultdict, namedtuple\n",
    "import random\n",
    "import mido\n",
    "Note = namedtuple('Note', ['note', 'duration'])"
   ]
  },
  {
   "cell_type": "code",
   "execution_count": 65,
   "metadata": {},
   "outputs": [],
   "source": [
    "from collections import defaultdict\n",
    "import random\n",
    "\n",
    "class SecondOrderMarkovChain:\n",
    "    '''\n",
    "    Second order Markov chain for generating music.\n",
    "    '''\n",
    "    def __init__(self):\n",
    "        self.chain = defaultdict(lambda: defaultdict(int))  # Adjusted initialization\n",
    "        self.sums = defaultdict(int)\n",
    "\n",
    "    def create_from_dict(self, dict):\n",
    "        '''\n",
    "        Assume to_note depend on from_notes only. If no such dependency exist then empty will bw generated.\n",
    "        Then HMM will be required.\n",
    "        '''\n",
    "        m = SecondOrderMarkovChain()\n",
    "        for (prev_note1, prev_note2), to_notes in dict.items():\n",
    "            for k, v in to_notes.items():\n",
    "                m.add((prev_note1, prev_note2), k, v)\n",
    "        return m\n",
    "    \n",
    "    def _serialize(self, note, duration):\n",
    "        return Note(note, duration)\n",
    "\n",
    "    def add(self, prev_notes, to_note, duration):\n",
    "        self.chain[prev_notes][self._serialize(to_note, duration)] += 1\n",
    "        self.sums[prev_notes] += 1\n",
    "\n",
    "    def get_next(self, prev_notes):\n",
    "        \"\"\"\n",
    "        From given previous notes, next note is selected in two ways either previous notes are not part\n",
    "        of the chain, in that case return a random note. Otherwise, select a node that first\n",
    "        matches or greater than its frequency while iterating through chain. \n",
    "        \"\"\"\n",
    "        if prev_notes is None or prev_notes not in self.chain:\n",
    "            try:\n",
    "                random_chain = self.chain[random.choice(list(self.chain.keys()))]\n",
    "                return random.choice(list(random_chain.keys()))\n",
    "            except:\n",
    "                print('File not compatible with current implementation !!')\n",
    "            \n",
    "        next_note_counter = random.randint(0, self.sums[prev_notes])\n",
    "        for note, frequency in self.chain[prev_notes].items():\n",
    "            next_note_counter -= frequency\n",
    "            if next_note_counter <= 0:\n",
    "                return note\n",
    "\n",
    "    def merge(self, other):\n",
    "        \"\"\"\n",
    "            Merge the chain with another SecondOrderMarkovChain instance.\n",
    "        \"\"\"\n",
    "        assert isinstance(other, SecondOrderMarkovChain)\n",
    "        for prev_notes, to_notes in other.chain.items():\n",
    "            for from_note, freq in to_notes.items():\n",
    "                self.chain[prev_notes][from_note] += freq  # Update frequency directly\n",
    "                self.sums[prev_notes] += freq  \n",
    "\n",
    "    def get_chain(self):\n",
    "        \"\"\"\n",
    "        It returns a set of chain keys which are notes & its values in dictionary form\n",
    "        which are to_notes and their durations.\n",
    "        \"\"\"\n",
    "        return {(k1, k2): dict(v) for (k1, k2), v in self.chain.items()}\n",
    "    \n",
    "    def print_as_matrix(self, limit=10):\n",
    "        columns = []\n",
    "        for prev_notes, to_notes in self.chain.items():\n",
    "            for note in to_notes:\n",
    "                if note not in columns:\n",
    "                    columns.append(note)\n",
    "        _col = lambda string: '{:<8}'.format(string)\n",
    "        _note = lambda note: '{}:{}'.format(note.note, note.duration)\n",
    "        out = _col('')\n",
    "        out += ''.join([_col(_note(note)) for note in columns[:limit]]) + '\\n'\n",
    "        for prev_notes, to_notes in self.chain.items():\n",
    "            out += _col(','.join(map(str, prev_notes)))\n",
    "            for note in columns[:limit]:\n",
    "                out += _col(to_notes[note])\n",
    "            out += '\\n'\n",
    "        print(out)\n"
   ]
  },
  {
   "cell_type": "code",
   "execution_count": 66,
   "metadata": {},
   "outputs": [
    {
     "name": "stdout",
     "output_type": "stream",
     "text": [
      "{(14, 12): {Note(note=14, duration=225): 1, Note(note=25, duration=240): 1}, (12, 14): {Note(note=15, duration=210): 1}, (10, 12): {Note(note=14, duration=226): 1, Note(note=14, duration=210): 1}, (14, 10): {Note(note=13, duration=101): 1}}\n",
      "        14:225  25:240  15:210  14:226  14:210  13:101  \n",
      "14,12   1       1       0       0       0       0       \n",
      "12,14   0       0       1       0       0       0       \n",
      "10,12   0       0       0       1       1       0       \n",
      "14,10   0       0       0       0       0       1       \n",
      "\n"
     ]
    }
   ],
   "source": [
    "m = SecondOrderMarkovChain()\n",
    "m.add((14, 12), 14, 225)\n",
    "m.add((12, 14), 15, 210)\n",
    "m.add((14, 12), 25, 240)\n",
    "m.add((10, 12), 14, 226)\n",
    "\n",
    "n = SecondOrderMarkovChain()\n",
    "n.add((14, 10), 13, 101)\n",
    "n.add((10, 12), 14, 210)\n",
    "\n",
    "m.merge(n)\n",
    "print(m.get_chain())\n",
    "m.print_as_matrix()"
   ]
  },
  {
   "cell_type": "code",
   "execution_count": 67,
   "metadata": {},
   "outputs": [
    {
     "name": "stdout",
     "output_type": "stream",
     "text": [
      "Track 0:\n",
      "MetaMessage('copyright', text='Copyright © 2003 by Mr Chatterjee', time=0)\n",
      "MetaMessage('text', text='Mr Chatterjee', time=0)\n",
      "MetaMessage('time_signature', numerator=4, denominator=4, clocks_per_click=24, notated_32nd_notes_per_beat=8, time=0)\n",
      "MetaMessage('key_signature', key='C', time=0)\n",
      "MetaMessage('set_tempo', tempo=600000, time=0)\n",
      "note_on channel=0 note=61 velocity=31 time=3790\n",
      "note_on channel=0 note=61 velocity=31 time=0\n",
      "note_on channel=0 note=64 velocity=27 time=4686\n",
      "note_on channel=0 note=64 velocity=27 time=0\n",
      "note_on channel=0 note=61 velocity=0 time=699\n",
      "note_on channel=0 note=61 velocity=0 time=0\n",
      "note_on channel=0 note=66 velocity=36 time=1853\n",
      "note_on channel=0 note=66 velocity=36 time=0\n",
      "note_on channel=0 note=64 velocity=0 time=216\n",
      "note_on channel=0 note=64 velocity=0 time=0\n",
      "note_on channel=0 note=70 velocity=7 time=2362\n",
      "note_on channel=0 note=70 velocity=7 time=0\n",
      "note_on channel=0 note=66 velocity=0 time=425\n",
      "note_on channel=0 note=66 velocity=0 time=0\n",
      "note_on channel=0 note=70 velocity=0 time=5560\n",
      "note_on channel=0 note=70 velocity=0 time=0\n",
      "pitchwheel channel=0 pitch=392 time=276\n",
      "pitchwheel channel=0 pitch=392 time=0\n",
      "pitchwheel channel=0 pitch=1219 time=25\n",
      "pitchwheel channel=0 pitch=1219 time=0\n",
      "pitchwheel channel=0 pitch=2026 time=26\n",
      "pitchwheel channel=0 pitch=2026 time=0\n",
      "pitchwheel channel=0 pitch=2936 time=27\n",
      "pitchwheel channel=0 pitch=2936 time=0\n",
      "pitchwheel channel=0 pitch=3763 time=25\n",
      "pitchwheel channel=0 pitch=3763 time=0\n",
      "pitchwheel channel=0 pitch=4921 time=24\n",
      "pitchwheel channel=0 pitch=4921 time=0\n",
      "pitchwheel channel=0 pitch=6204 time=26\n",
      "pitchwheel channel=0 pitch=6204 time=0\n",
      "note_on channel=0 note=71 velocity=36 time=19\n",
      "note_on channel=0 note=71 velocity=36 time=0\n",
      "pitchwheel channel=0 pitch=7445 time=11\n",
      "pitchwheel channel=0 pitch=7445 time=0\n",
      "pitchwheel channel=0 pitch=8191 time=21\n",
      "pitchwheel channel=0 pitch=8191 time=0\n",
      "pitchwheel channel=0 pitch=7838 time=359\n",
      "pitchwheel channel=0 pitch=7838 time=0\n",
      "pitchwheel channel=0 pitch=6886 time=25\n",
      "pitchwheel channel=0 pitch=6886 time=0\n",
      "pitchwheel channel=0 pitch=6059 time=24\n",
      "pitchwheel channel=0 pitch=6059 time=0\n",
      "pitchwheel channel=0 pitch=5480 time=28\n",
      "pitchwheel channel=0 pitch=5480 time=0\n",
      "pitchwheel channel=0 pitch=5128 time=25\n",
      "pitchwheel channel=0 pitch=5128 time=0\n",
      "pitchwheel channel=0 pitch=4983 time=26\n",
      "pitchwheel channel=0 pitch=4983 time=0\n",
      "pitchwheel channel=0 pitch=4839 time=26\n",
      "pitchwheel channel=0 pitch=4839 time=0\n",
      "pitchwheel channel=0 pitch=4632 time=27\n",
      "pitchwheel channel=0 pitch=4632 time=0\n",
      "pitchwheel channel=0 pitch=4342 time=25\n",
      "pitchwheel channel=0 pitch=4342 time=0\n",
      "pitchwheel channel=0 pitch=3866 time=26\n",
      "pitchwheel channel=0 pitch=3866 time=0\n",
      "pitchwheel channel=0 pitch=3536 time=24\n",
      "pitchwheel channel=0 pitch=3536 time=0\n",
      "pitchwheel channel=0 pitch=3287 time=25\n",
      "pitchwheel channel=0 pitch=3287 time=0\n",
      "pitchwheel channel=0 pitch=3101 time=26\n",
      "pitchwheel channel=0 pitch=3101 time=0\n",
      "pitchwheel channel=0 pitch=3018 time=25\n",
      "pitchwheel channel=0 pitch=3018 time=0\n",
      "pitchwheel channel=0 pitch=2812 time=26\n",
      "pitchwheel channel=0 pitch=2812 time=0\n",
      "pitchwheel channel=0 pitch=2625 time=26\n",
      "pitchwheel channel=0 pitch=2625 time=0\n",
      "pitchwheel channel=0 pitch=2398 time=25\n",
      "pitchwheel channel=0 pitch=2398 time=0\n",
      "pitchwheel channel=0 pitch=2191 time=26\n",
      "pitchwheel channel=0 pitch=2191 time=0\n",
      "pitchwheel channel=0 pitch=1901 time=25\n",
      "pitchwheel channel=0 pitch=1901 time=0\n",
      "pitchwheel channel=0 pitch=1591 time=26\n",
      "pitchwheel channel=0 pitch=1591 time=0\n",
      "pitchwheel channel=0 pitch=1302 time=24\n",
      "pitchwheel channel=0 pitch=1302 time=0\n",
      "pitchwheel channel=0 pitch=1157 time=26\n",
      "pitchwheel channel=0 pitch=1157 time=0\n",
      "pitchwheel channel=0 pitch=1033 time=26\n",
      "pitchwheel channel=0 pitch=1033 time=0\n",
      "pitchwheel channel=0 pitch=847 time=25\n",
      "pitchwheel channel=0 pitch=847 time=0\n",
      "pitchwheel channel=0 pitch=660 time=26\n",
      "pitchwheel channel=0 pitch=660 time=0\n",
      "pitchwheel channel=0 pitch=474 time=25\n",
      "pitchwheel channel=0 pitch=474 time=0\n",
      "pitchwheel channel=0 pitch=288 time=28\n",
      "pitchwheel channel=0 pitch=288 time=0\n",
      "pitchwheel channel=0 pitch=0 time=25\n",
      "pitchwheel channel=0 pitch=0 time=0\n",
      "pitchwheel channel=0 pitch=123 time=1945\n",
      "pitchwheel channel=0 pitch=123 time=0\n",
      "pitchwheel channel=0 pitch=288 time=53\n",
      "pitchwheel channel=0 pitch=288 time=0\n",
      "pitchwheel channel=0 pitch=495 time=51\n",
      "pitchwheel channel=0 pitch=495 time=0\n",
      "pitchwheel channel=0 pitch=805 time=24\n",
      "pitchwheel channel=0 pitch=805 time=0\n",
      "pitchwheel channel=0 pitch=1198 time=26\n",
      "pitchwheel channel=0 pitch=1198 time=0\n",
      "pitchwheel channel=0 pitch=1633 time=26\n",
      "pitchwheel channel=0 pitch=1633 time=0\n",
      "pitchwheel channel=0 pitch=1984 time=25\n",
      "pitchwheel channel=0 pitch=1984 time=0\n",
      "pitchwheel channel=0 pitch=2294 time=26\n",
      "pitchwheel channel=0 pitch=2294 time=0\n",
      "pitchwheel channel=0 pitch=2501 time=25\n",
      "pitchwheel channel=0 pitch=2501 time=0\n",
      "pitchwheel channel=0 pitch=2770 time=26\n",
      "pitchwheel channel=0 pitch=2770 time=0\n",
      "pitchwheel channel=0 pitch=3184 time=26\n",
      "pitchwheel channel=0 pitch=3184 time=0\n",
      "pitchwheel channel=0 pitch=3515 time=24\n",
      "pitchwheel channel=0 pitch=3515 time=0\n",
      "pitchwheel channel=0 pitch=3742 time=25\n",
      "pitchwheel channel=0 pitch=3742 time=0\n",
      "pitchwheel channel=0 pitch=4115 time=26\n",
      "pitchwheel channel=0 pitch=4115 time=0\n",
      "pitchwheel channel=0 pitch=4342 time=25\n",
      "pitchwheel channel=0 pitch=4342 time=0\n",
      "pitchwheel channel=0 pitch=4487 time=26\n",
      "pitchwheel channel=0 pitch=4487 time=0\n",
      "pitchwheel channel=0 pitch=4632 time=52\n",
      "pitchwheel channel=0 pitch=4632 time=0\n",
      "pitchwheel channel=0 pitch=4715 time=25\n",
      "pitchwheel channel=0 pitch=4715 time=0\n",
      "pitchwheel channel=0 pitch=4880 time=27\n",
      "pitchwheel channel=0 pitch=4880 time=0\n",
      "pitchwheel channel=0 pitch=5108 time=26\n",
      "pitchwheel channel=0 pitch=5108 time=0\n",
      "pitchwheel channel=0 pitch=5356 time=26\n",
      "pitchwheel channel=0 pitch=5356 time=0\n",
      "pitchwheel channel=0 pitch=5645 time=25\n",
      "pitchwheel channel=0 pitch=5645 time=0\n",
      "pitchwheel channel=0 pitch=5873 time=26\n",
      "pitchwheel channel=0 pitch=5873 time=0\n",
      "pitchwheel channel=0 pitch=6080 time=25\n",
      "pitchwheel channel=0 pitch=6080 time=0\n",
      "pitchwheel channel=0 pitch=6369 time=26\n",
      "pitchwheel channel=0 pitch=6369 time=0\n",
      "pitchwheel channel=0 pitch=6535 time=26\n",
      "pitchwheel channel=0 pitch=6535 time=0\n",
      "pitchwheel channel=0 pitch=6783 time=25\n",
      "pitchwheel channel=0 pitch=6783 time=0\n",
      "pitchwheel channel=0 pitch=7052 time=26\n",
      "pitchwheel channel=0 pitch=7052 time=0\n",
      "pitchwheel channel=0 pitch=7259 time=24\n",
      "pitchwheel channel=0 pitch=7259 time=0\n",
      "pitchwheel channel=0 pitch=7383 time=25\n",
      "pitchwheel channel=0 pitch=7383 time=0\n",
      "pitchwheel channel=0 pitch=7569 time=26\n",
      "pitchwheel channel=0 pitch=7569 time=0\n",
      "pitchwheel channel=0 pitch=7755 time=26\n",
      "pitchwheel channel=0 pitch=7755 time=0\n",
      "pitchwheel channel=0 pitch=7900 time=26\n",
      "pitchwheel channel=0 pitch=7900 time=0\n",
      "pitchwheel channel=0 pitch=8065 time=26\n",
      "pitchwheel channel=0 pitch=8065 time=0\n",
      "pitchwheel channel=0 pitch=8191 time=26\n",
      "pitchwheel channel=0 pitch=8191 time=0\n",
      "pitchwheel channel=0 pitch=7155 time=5324\n",
      "pitchwheel channel=0 pitch=7155 time=0\n",
      "pitchwheel channel=0 pitch=5397 time=26\n",
      "pitchwheel channel=0 pitch=5397 time=0\n",
      "pitchwheel channel=0 pitch=3618 time=26\n",
      "pitchwheel channel=0 pitch=3618 time=0\n",
      "pitchwheel channel=0 pitch=2129 time=25\n",
      "pitchwheel channel=0 pitch=2129 time=0\n",
      "pitchwheel channel=0 pitch=226 time=26\n",
      "pitchwheel channel=0 pitch=226 time=0\n",
      "pitchwheel channel=0 pitch=0 time=25\n",
      "pitchwheel channel=0 pitch=0 time=0\n",
      "note_on channel=0 note=71 velocity=0 time=12\n",
      "note_on channel=0 note=71 velocity=0 time=0\n",
      "note_on channel=0 note=71 velocity=84 time=422\n",
      "note_on channel=0 note=71 velocity=84 time=0\n",
      "pitchwheel channel=0 pitch=102 time=232\n",
      "pitchwheel channel=0 pitch=102 time=0\n",
      "pitchwheel channel=0 pitch=371 time=26\n",
      "pitchwheel channel=0 pitch=371 time=0\n",
      "pitchwheel channel=0 pitch=722 time=25\n",
      "pitchwheel channel=0 pitch=722 time=0\n",
      "pitchwheel channel=0 pitch=1260 time=26\n",
      "pitchwheel channel=0 pitch=1260 time=0\n",
      "pitchwheel channel=0 pitch=2026 time=25\n",
      "pitchwheel channel=0 pitch=2026 time=0\n",
      "pitchwheel channel=0 pitch=2791 time=26\n",
      "pitchwheel channel=0 pitch=2791 time=0\n",
      "pitchwheel channel=0 pitch=3577 time=26\n",
      "pitchwheel channel=0 pitch=3577 time=0\n",
      "pitchwheel channel=0 pitch=4322 time=25\n",
      "pitchwheel channel=0 pitch=4322 time=0\n",
      "pitchwheel channel=0 pitch=4859 time=25\n",
      "pitchwheel channel=0 pitch=4859 time=0\n",
      "pitchwheel channel=0 pitch=5314 time=25\n",
      "pitchwheel channel=0 pitch=5314 time=0\n",
      "pitchwheel channel=0 pitch=5728 time=26\n",
      "pitchwheel channel=0 pitch=5728 time=0\n",
      "pitchwheel channel=0 pitch=6245 time=25\n",
      "pitchwheel channel=0 pitch=6245 time=0\n",
      "pitchwheel channel=0 pitch=6680 time=26\n",
      "pitchwheel channel=0 pitch=6680 time=0\n",
      "pitchwheel channel=0 pitch=7238 time=26\n",
      "pitchwheel channel=0 pitch=7238 time=0\n",
      "pitchwheel channel=0 pitch=7734 time=27\n",
      "pitchwheel channel=0 pitch=7734 time=0\n",
      "pitchwheel channel=0 pitch=8169 time=25\n",
      "pitchwheel channel=0 pitch=8169 time=0\n",
      "pitchwheel channel=0 pitch=8191 time=26\n",
      "pitchwheel channel=0 pitch=8191 time=0\n",
      "pitchwheel channel=0 pitch=8107 time=6066\n",
      "pitchwheel channel=0 pitch=8107 time=0\n",
      "pitchwheel channel=0 pitch=7755 time=25\n",
      "pitchwheel channel=0 pitch=7755 time=0\n",
      "pitchwheel channel=0 pitch=7383 time=27\n",
      "pitchwheel channel=0 pitch=7383 time=0\n",
      "pitchwheel channel=0 pitch=7238 time=26\n",
      "pitchwheel channel=0 pitch=7238 time=0\n",
      "pitchwheel channel=0 pitch=7093 time=26\n",
      "pitchwheel channel=0 pitch=7093 time=0\n",
      "pitchwheel channel=0 pitch=6948 time=24\n",
      "pitchwheel channel=0 pitch=6948 time=0\n",
      "pitchwheel channel=0 pitch=6804 time=25\n",
      "pitchwheel channel=0 pitch=6804 time=0\n",
      "pitchwheel channel=0 pitch=6680 time=26\n",
      "pitchwheel channel=0 pitch=6680 time=0\n",
      "pitchwheel channel=0 pitch=6535 time=25\n",
      "pitchwheel channel=0 pitch=6535 time=0\n",
      "pitchwheel channel=0 pitch=6431 time=26\n",
      "pitchwheel channel=0 pitch=6431 time=0\n",
      "pitchwheel channel=0 pitch=6328 time=26\n",
      "pitchwheel channel=0 pitch=6328 time=0\n",
      "pitchwheel channel=0 pitch=6183 time=26\n",
      "pitchwheel channel=0 pitch=6183 time=0\n",
      "pitchwheel channel=0 pitch=5935 time=26\n",
      "pitchwheel channel=0 pitch=5935 time=0\n",
      "pitchwheel channel=0 pitch=5790 time=24\n",
      "pitchwheel channel=0 pitch=5790 time=0\n",
      "pitchwheel channel=0 pitch=5687 time=51\n",
      "pitchwheel channel=0 pitch=5687 time=0\n",
      "pitchwheel channel=0 pitch=5583 time=102\n",
      "pitchwheel channel=0 pitch=5583 time=0\n",
      "pitchwheel channel=0 pitch=5376 time=26\n",
      "pitchwheel channel=0 pitch=5376 time=0\n",
      "pitchwheel channel=0 pitch=4921 time=27\n",
      "pitchwheel channel=0 pitch=4921 time=0\n",
      "pitchwheel channel=0 pitch=4425 time=26\n",
      "pitchwheel channel=0 pitch=4425 time=0\n",
      "pitchwheel channel=0 pitch=4239 time=26\n",
      "pitchwheel channel=0 pitch=4239 time=0\n",
      "pitchwheel channel=0 pitch=4135 time=25\n",
      "pitchwheel channel=0 pitch=4135 time=0\n",
      "pitchwheel channel=0 pitch=4011 time=77\n",
      "pitchwheel channel=0 pitch=4011 time=0\n",
      "pitchwheel channel=0 pitch=3887 time=25\n",
      "pitchwheel channel=0 pitch=3887 time=0\n",
      "pitchwheel channel=0 pitch=3722 time=26\n",
      "pitchwheel channel=0 pitch=3722 time=0\n",
      "pitchwheel channel=0 pitch=3639 time=26\n",
      "pitchwheel channel=0 pitch=3639 time=0\n",
      "pitchwheel channel=0 pitch=3556 time=126\n",
      "pitchwheel channel=0 pitch=3556 time=0\n",
      "pitchwheel channel=0 pitch=3473 time=26\n",
      "pitchwheel channel=0 pitch=3473 time=0\n",
      "pitchwheel channel=0 pitch=3205 time=25\n",
      "pitchwheel channel=0 pitch=3205 time=0\n",
      "pitchwheel channel=0 pitch=2770 time=26\n",
      "pitchwheel channel=0 pitch=2770 time=0\n",
      "pitchwheel channel=0 pitch=2439 time=26\n",
      "pitchwheel channel=0 pitch=2439 time=0\n",
      "pitchwheel channel=0 pitch=2357 time=308\n",
      "pitchwheel channel=0 pitch=2357 time=0\n",
      "pitchwheel channel=0 pitch=2129 time=76\n",
      "pitchwheel channel=0 pitch=2129 time=0\n",
      "pitchwheel channel=0 pitch=1653 time=25\n",
      "pitchwheel channel=0 pitch=1653 time=0\n",
      "pitchwheel channel=0 pitch=971 time=26\n",
      "pitchwheel channel=0 pitch=971 time=0\n",
      "pitchwheel channel=0 pitch=185 time=25\n",
      "pitchwheel channel=0 pitch=185 time=0\n",
      "pitchwheel channel=0 pitch=0 time=26\n",
      "pitchwheel channel=0 pitch=0 time=0\n",
      "pitchwheel channel=0 pitch=102 time=128\n",
      "pitchwheel channel=0 pitch=102 time=0\n",
      "pitchwheel channel=0 pitch=247 time=128\n",
      "pitchwheel channel=0 pitch=247 time=0\n",
      "pitchwheel channel=0 pitch=495 time=27\n",
      "pitchwheel channel=0 pitch=495 time=0\n",
      "pitchwheel channel=0 pitch=722 time=24\n",
      "pitchwheel channel=0 pitch=722 time=0\n",
      "pitchwheel channel=0 pitch=929 time=27\n",
      "pitchwheel channel=0 pitch=929 time=0\n",
      "pitchwheel channel=0 pitch=1033 time=24\n",
      "pitchwheel channel=0 pitch=1033 time=0\n",
      "pitchwheel channel=0 pitch=950 time=796\n",
      "pitchwheel channel=0 pitch=950 time=0\n",
      "pitchwheel channel=0 pitch=847 time=460\n",
      "pitchwheel channel=0 pitch=847 time=0\n",
      "pitchwheel channel=0 pitch=764 time=229\n",
      "pitchwheel channel=0 pitch=764 time=0\n",
      "pitchwheel channel=0 pitch=681 time=205\n",
      "pitchwheel channel=0 pitch=681 time=0\n",
      "note_on channel=0 note=71 velocity=0 time=72\n",
      "note_on channel=0 note=71 velocity=0 time=0\n",
      "pitchwheel channel=0 pitch=598 time=32\n",
      "pitchwheel channel=0 pitch=598 time=0\n",
      "pitchwheel channel=0 pitch=350 time=26\n",
      "pitchwheel channel=0 pitch=350 time=0\n",
      "pitchwheel channel=0 pitch=0 time=26\n",
      "pitchwheel channel=0 pitch=0 time=0\n",
      "note_on channel=0 note=70 velocity=55 time=193\n",
      "note_on channel=0 note=70 velocity=55 time=0\n",
      "note_on channel=0 note=68 velocity=61 time=2202\n",
      "note_on channel=0 note=68 velocity=61 time=0\n",
      "note_on channel=0 note=66 velocity=66 time=115\n",
      "note_on channel=0 note=66 velocity=66 time=0\n",
      "note_on channel=0 note=70 velocity=0 time=8\n",
      "note_on channel=0 note=70 velocity=0 time=0\n",
      "note_on channel=0 note=68 velocity=0 time=224\n",
      "note_on channel=0 note=68 velocity=0 time=0\n",
      "note_on channel=0 note=66 velocity=0 time=3348\n",
      "note_on channel=0 note=66 velocity=0 time=0\n",
      "note_on channel=0 note=66 velocity=59 time=322\n",
      "note_on channel=0 note=66 velocity=59 time=0\n",
      "note_on channel=0 note=70 velocity=68 time=700\n",
      "note_on channel=0 note=70 velocity=68 time=0\n",
      "note_on channel=0 note=68 velocity=70 time=103\n",
      "note_on channel=0 note=68 velocity=70 time=0\n",
      "note_on channel=0 note=66 velocity=0 time=1\n",
      "note_on channel=0 note=66 velocity=0 time=0\n",
      "note_on channel=0 note=70 velocity=0 time=211\n",
      "note_on channel=0 note=70 velocity=0 time=0\n",
      "note_on channel=0 note=70 velocity=62 time=689\n",
      "note_on channel=0 note=70 velocity=62 time=0\n",
      "note_on channel=0 note=68 velocity=0 time=139\n",
      "note_on channel=0 note=68 velocity=0 time=0\n",
      "note_on channel=0 note=70 velocity=0 time=692\n",
      "note_on channel=0 note=70 velocity=0 time=0\n",
      "note_on channel=0 note=66 velocity=32 time=721\n",
      "note_on channel=0 note=66 velocity=32 time=0\n",
      "pitchwheel channel=0 pitch=-290 time=1467\n",
      "pitchwheel channel=0 pitch=-290 time=0\n",
      "pitchwheel channel=0 pitch=-771 time=25\n",
      "pitchwheel channel=0 pitch=-771 time=0\n",
      "pitchwheel channel=0 pitch=-1157 time=26\n",
      "pitchwheel channel=0 pitch=-1157 time=0\n",
      "pitchwheel channel=0 pitch=-1663 time=25\n",
      "pitchwheel channel=0 pitch=-1663 time=0\n",
      "pitchwheel channel=0 pitch=-1976 time=26\n",
      "pitchwheel channel=0 pitch=-1976 time=0\n",
      "pitchwheel channel=0 pitch=-2410 time=26\n",
      "pitchwheel channel=0 pitch=-2410 time=0\n",
      "pitchwheel channel=0 pitch=-2626 time=25\n",
      "pitchwheel channel=0 pitch=-2626 time=0\n",
      "pitchwheel channel=0 pitch=-2843 time=26\n",
      "pitchwheel channel=0 pitch=-2843 time=0\n",
      "pitchwheel channel=0 pitch=-3156 time=25\n",
      "pitchwheel channel=0 pitch=-3156 time=0\n",
      "pitchwheel channel=0 pitch=-3397 time=24\n",
      "pitchwheel channel=0 pitch=-3397 time=0\n",
      "pitchwheel channel=0 pitch=-3614 time=26\n",
      "pitchwheel channel=0 pitch=-3614 time=0\n",
      "pitchwheel channel=0 pitch=-3927 time=29\n",
      "pitchwheel channel=0 pitch=-3927 time=0\n",
      "pitchwheel channel=0 pitch=-4120 time=24\n",
      "pitchwheel channel=0 pitch=-4120 time=0\n",
      "pitchwheel channel=0 pitch=-4385 time=25\n",
      "pitchwheel channel=0 pitch=-4385 time=0\n",
      "pitchwheel channel=0 pitch=-4506 time=52\n",
      "pitchwheel channel=0 pitch=-4506 time=0\n",
      "pitchwheel channel=0 pitch=-4626 time=25\n",
      "pitchwheel channel=0 pitch=-4626 time=0\n",
      "pitchwheel channel=0 pitch=-4746 time=26\n",
      "pitchwheel channel=0 pitch=-4746 time=0\n",
      "pitchwheel channel=0 pitch=-4891 time=24\n",
      "pitchwheel channel=0 pitch=-4891 time=0\n",
      "pitchwheel channel=0 pitch=-5060 time=26\n",
      "pitchwheel channel=0 pitch=-5060 time=0\n",
      "pitchwheel channel=0 pitch=-5156 time=26\n",
      "pitchwheel channel=0 pitch=-5156 time=0\n",
      "pitchwheel channel=0 pitch=-4987 time=25\n",
      "pitchwheel channel=0 pitch=-4987 time=0\n",
      "pitchwheel channel=0 pitch=-5084 time=51\n",
      "pitchwheel channel=0 pitch=-5084 time=0\n",
      "pitchwheel channel=0 pitch=-5252 time=26\n",
      "pitchwheel channel=0 pitch=-5252 time=0\n",
      "pitchwheel channel=0 pitch=-5517 time=51\n",
      "pitchwheel channel=0 pitch=-5517 time=0\n",
      "pitchwheel channel=0 pitch=-5758 time=26\n",
      "pitchwheel channel=0 pitch=-5758 time=0\n",
      "pitchwheel channel=0 pitch=-5951 time=25\n",
      "pitchwheel channel=0 pitch=-5951 time=0\n",
      "pitchwheel channel=0 pitch=-6047 time=24\n",
      "pitchwheel channel=0 pitch=-6047 time=0\n",
      "pitchwheel channel=0 pitch=-6192 time=55\n",
      "pitchwheel channel=0 pitch=-6192 time=0\n",
      "pitchwheel channel=0 pitch=-6481 time=51\n",
      "pitchwheel channel=0 pitch=-6481 time=0\n",
      "pitchwheel channel=0 pitch=-6746 time=51\n",
      "pitchwheel channel=0 pitch=-6746 time=0\n",
      "pitchwheel channel=0 pitch=-6939 time=26\n",
      "pitchwheel channel=0 pitch=-6939 time=0\n",
      "pitchwheel channel=0 pitch=-7204 time=77\n",
      "pitchwheel channel=0 pitch=-7204 time=0\n",
      "pitchwheel channel=0 pitch=-7348 time=75\n",
      "pitchwheel channel=0 pitch=-7348 time=0\n",
      "pitchwheel channel=0 pitch=-7445 time=51\n",
      "pitchwheel channel=0 pitch=-7445 time=0\n",
      "pitchwheel channel=0 pitch=-7613 time=26\n",
      "pitchwheel channel=0 pitch=-7613 time=0\n",
      "pitchwheel channel=0 pitch=-7493 time=51\n",
      "pitchwheel channel=0 pitch=-7493 time=0\n",
      "pitchwheel channel=0 pitch=-7637 time=24\n",
      "pitchwheel channel=0 pitch=-7637 time=0\n",
      "pitchwheel channel=0 pitch=-7902 time=104\n",
      "pitchwheel channel=0 pitch=-7902 time=0\n",
      "pitchwheel channel=0 pitch=-8047 time=26\n",
      "pitchwheel channel=0 pitch=-8047 time=0\n",
      "pitchwheel channel=0 pitch=-8192 time=102\n",
      "pitchwheel channel=0 pitch=-8192 time=0\n",
      "pitchwheel channel=0 pitch=-7951 time=1408\n",
      "pitchwheel channel=0 pitch=-7951 time=0\n",
      "pitchwheel channel=0 pitch=-7348 time=25\n",
      "pitchwheel channel=0 pitch=-7348 time=0\n",
      "pitchwheel channel=0 pitch=-6770 time=26\n",
      "pitchwheel channel=0 pitch=-6770 time=0\n",
      "pitchwheel channel=0 pitch=-6120 time=26\n",
      "pitchwheel channel=0 pitch=-6120 time=0\n",
      "pitchwheel channel=0 pitch=-5228 time=25\n",
      "pitchwheel channel=0 pitch=-5228 time=0\n",
      "pitchwheel channel=0 pitch=-4433 time=26\n",
      "pitchwheel channel=0 pitch=-4433 time=0\n",
      "note_on channel=0 note=66 velocity=0 time=9\n",
      "note_on channel=0 note=66 velocity=0 time=0\n",
      "pitchwheel channel=0 pitch=-3349 time=16\n",
      "pitchwheel channel=0 pitch=-3349 time=0\n",
      "pitchwheel channel=0 pitch=-1976 time=26\n",
      "pitchwheel channel=0 pitch=-1976 time=0\n",
      "pitchwheel channel=0 pitch=-506 time=26\n",
      "pitchwheel channel=0 pitch=-506 time=0\n",
      "pitchwheel channel=0 pitch=0 time=25\n",
      "pitchwheel channel=0 pitch=0 time=0\n",
      "note_on channel=0 note=66 velocity=61 time=157\n",
      "note_on channel=0 note=66 velocity=61 time=0\n",
      "pitchwheel channel=0 pitch=-25 time=406\n",
      "pitchwheel channel=0 pitch=-25 time=0\n",
      "pitchwheel channel=0 pitch=-555 time=25\n",
      "pitchwheel channel=0 pitch=-555 time=0\n",
      "pitchwheel channel=0 pitch=-916 time=26\n",
      "pitchwheel channel=0 pitch=-916 time=0\n",
      "pitchwheel channel=0 pitch=-1253 time=26\n",
      "pitchwheel channel=0 pitch=-1253 time=0\n",
      "pitchwheel channel=0 pitch=-1663 time=25\n",
      "pitchwheel channel=0 pitch=-1663 time=0\n",
      "pitchwheel channel=0 pitch=-2072 time=27\n",
      "pitchwheel channel=0 pitch=-2072 time=0\n",
      "pitchwheel channel=0 pitch=-2482 time=26\n",
      "pitchwheel channel=0 pitch=-2482 time=0\n",
      "pitchwheel channel=0 pitch=-2771 time=26\n",
      "pitchwheel channel=0 pitch=-2771 time=0\n",
      "pitchwheel channel=0 pitch=-3156 time=25\n",
      "pitchwheel channel=0 pitch=-3156 time=0\n",
      "pitchwheel channel=0 pitch=-3397 time=25\n",
      "pitchwheel channel=0 pitch=-3397 time=0\n",
      "pitchwheel channel=0 pitch=-3735 time=25\n",
      "pitchwheel channel=0 pitch=-3735 time=0\n",
      "pitchwheel channel=0 pitch=-3879 time=26\n",
      "pitchwheel channel=0 pitch=-3879 time=0\n",
      "pitchwheel channel=0 pitch=-4120 time=26\n",
      "pitchwheel channel=0 pitch=-4120 time=0\n",
      "pitchwheel channel=0 pitch=-4337 time=25\n",
      "pitchwheel channel=0 pitch=-4337 time=0\n",
      "pitchwheel channel=0 pitch=-4578 time=26\n",
      "pitchwheel channel=0 pitch=-4578 time=0\n",
      "pitchwheel channel=0 pitch=-4795 time=25\n",
      "pitchwheel channel=0 pitch=-4795 time=0\n",
      "pitchwheel channel=0 pitch=-5156 time=24\n",
      "pitchwheel channel=0 pitch=-5156 time=0\n",
      "pitchwheel channel=0 pitch=-5421 time=52\n",
      "pitchwheel channel=0 pitch=-5421 time=0\n",
      "pitchwheel channel=0 pitch=-5566 time=25\n",
      "pitchwheel channel=0 pitch=-5566 time=0\n",
      "pitchwheel channel=0 pitch=-5734 time=27\n",
      "pitchwheel channel=0 pitch=-5734 time=0\n",
      "pitchwheel channel=0 pitch=-5879 time=25\n",
      "pitchwheel channel=0 pitch=-5879 time=0\n",
      "pitchwheel channel=0 pitch=-6120 time=26\n",
      "pitchwheel channel=0 pitch=-6120 time=0\n",
      "pitchwheel channel=0 pitch=-6288 time=26\n",
      "pitchwheel channel=0 pitch=-6288 time=0\n",
      "pitchwheel channel=0 pitch=-6385 time=27\n",
      "pitchwheel channel=0 pitch=-6385 time=0\n",
      "pitchwheel channel=0 pitch=-6626 time=25\n",
      "pitchwheel channel=0 pitch=-6626 time=0\n",
      "pitchwheel channel=0 pitch=-6794 time=26\n",
      "pitchwheel channel=0 pitch=-6794 time=0\n",
      "pitchwheel channel=0 pitch=-6939 time=26\n",
      "pitchwheel channel=0 pitch=-6939 time=0\n",
      "pitchwheel channel=0 pitch=-7083 time=51\n",
      "pitchwheel channel=0 pitch=-7083 time=0\n",
      "pitchwheel channel=0 pitch=-6963 time=25\n",
      "pitchwheel channel=0 pitch=-6963 time=0\n",
      "pitchwheel channel=0 pitch=-7083 time=25\n",
      "pitchwheel channel=0 pitch=-7083 time=0\n",
      "pitchwheel channel=0 pitch=-7324 time=26\n",
      "pitchwheel channel=0 pitch=-7324 time=0\n",
      "pitchwheel channel=0 pitch=-7445 time=26\n",
      "pitchwheel channel=0 pitch=-7445 time=0\n",
      "pitchwheel channel=0 pitch=-7661 time=24\n",
      "pitchwheel channel=0 pitch=-7661 time=0\n",
      "pitchwheel channel=0 pitch=-7782 time=27\n",
      "pitchwheel channel=0 pitch=-7782 time=0\n",
      "pitchwheel channel=0 pitch=-7951 time=24\n",
      "pitchwheel channel=0 pitch=-7951 time=0\n",
      "pitchwheel channel=0 pitch=-8143 time=52\n",
      "pitchwheel channel=0 pitch=-8143 time=0\n",
      "pitchwheel channel=0 pitch=-8192 time=51\n",
      "pitchwheel channel=0 pitch=-8192 time=0\n",
      "note_on channel=0 note=66 velocity=0 time=3559\n",
      "note_on channel=0 note=66 velocity=0 time=0\n",
      "pitchwheel channel=0 pitch=-7926 time=256\n",
      "pitchwheel channel=0 pitch=-7926 time=0\n",
      "pitchwheel channel=0 pitch=-7421 time=25\n",
      "pitchwheel channel=0 pitch=-7421 time=0\n",
      "pitchwheel channel=0 pitch=-6577 time=26\n",
      "pitchwheel channel=0 pitch=-6577 time=0\n",
      "pitchwheel channel=0 pitch=-5614 time=26\n",
      "pitchwheel channel=0 pitch=-5614 time=0\n",
      "pitchwheel channel=0 pitch=-4409 time=25\n",
      "pitchwheel channel=0 pitch=-4409 time=0\n",
      "pitchwheel channel=0 pitch=-3494 time=26\n",
      "pitchwheel channel=0 pitch=-3494 time=0\n",
      "pitchwheel channel=0 pitch=-2578 time=25\n",
      "pitchwheel channel=0 pitch=-2578 time=0\n",
      "pitchwheel channel=0 pitch=-1928 time=26\n",
      "pitchwheel channel=0 pitch=-1928 time=0\n",
      "pitchwheel channel=0 pitch=-1326 time=25\n",
      "pitchwheel channel=0 pitch=-1326 time=0\n",
      "pitchwheel channel=0 pitch=-844 time=26\n",
      "pitchwheel channel=0 pitch=-844 time=0\n",
      "pitchwheel channel=0 pitch=-386 time=26\n",
      "pitchwheel channel=0 pitch=-386 time=0\n",
      "pitchwheel channel=0 pitch=0 time=25\n",
      "pitchwheel channel=0 pitch=0 time=0\n",
      "note_on channel=0 note=63 velocity=55 time=72\n",
      "note_on channel=0 note=63 velocity=55 time=0\n",
      "note_on channel=0 note=63 velocity=0 time=4263\n",
      "note_on channel=0 note=63 velocity=0 time=0\n",
      "note_on channel=0 note=61 velocity=70 time=453\n",
      "note_on channel=0 note=61 velocity=70 time=0\n",
      "pitchwheel channel=0 pitch=-121 time=102\n",
      "pitchwheel channel=0 pitch=-121 time=0\n",
      "pitchwheel channel=0 pitch=-1061 time=26\n",
      "pitchwheel channel=0 pitch=-1061 time=0\n",
      "pitchwheel channel=0 pitch=-2072 time=25\n",
      "pitchwheel channel=0 pitch=-2072 time=0\n",
      "pitchwheel channel=0 pitch=-3012 time=26\n",
      "pitchwheel channel=0 pitch=-3012 time=0\n",
      "pitchwheel channel=0 pitch=-3807 time=25\n",
      "pitchwheel channel=0 pitch=-3807 time=0\n",
      "pitchwheel channel=0 pitch=-4554 time=26\n",
      "pitchwheel channel=0 pitch=-4554 time=0\n",
      "pitchwheel channel=0 pitch=-5011 time=27\n",
      "pitchwheel channel=0 pitch=-5011 time=0\n",
      "pitchwheel channel=0 pitch=-5541 time=26\n",
      "pitchwheel channel=0 pitch=-5541 time=0\n",
      "pitchwheel channel=0 pitch=-5903 time=25\n",
      "pitchwheel channel=0 pitch=-5903 time=0\n",
      "pitchwheel channel=0 pitch=-6433 time=26\n",
      "pitchwheel channel=0 pitch=-6433 time=0\n",
      "pitchwheel channel=0 pitch=-6601 time=26\n",
      "pitchwheel channel=0 pitch=-6601 time=0\n",
      "pitchwheel channel=0 pitch=-7059 time=24\n",
      "pitchwheel channel=0 pitch=-7059 time=0\n",
      "pitchwheel channel=0 pitch=-7300 time=24\n",
      "pitchwheel channel=0 pitch=-7300 time=0\n",
      "pitchwheel channel=0 pitch=-7710 time=27\n",
      "pitchwheel channel=0 pitch=-7710 time=0\n",
      "pitchwheel channel=0 pitch=-8167 time=24\n",
      "pitchwheel channel=0 pitch=-8167 time=0\n",
      "pitchwheel channel=0 pitch=-8192 time=26\n",
      "pitchwheel channel=0 pitch=-8192 time=0\n",
      "pitchwheel channel=0 pitch=-8023 time=512\n",
      "pitchwheel channel=0 pitch=-8023 time=0\n",
      "pitchwheel channel=0 pitch=-7348 time=26\n",
      "pitchwheel channel=0 pitch=-7348 time=0\n",
      "pitchwheel channel=0 pitch=-6746 time=26\n",
      "pitchwheel channel=0 pitch=-6746 time=0\n",
      "pitchwheel channel=0 pitch=-5710 time=25\n",
      "pitchwheel channel=0 pitch=-5710 time=0\n",
      "pitchwheel channel=0 pitch=-4746 time=26\n",
      "pitchwheel channel=0 pitch=-4746 time=0\n",
      "note_on channel=0 note=61 velocity=0 time=3\n",
      "note_on channel=0 note=61 velocity=0 time=0\n",
      "pitchwheel channel=0 pitch=-3831 time=22\n",
      "pitchwheel channel=0 pitch=-3831 time=0\n",
      "pitchwheel channel=0 pitch=-2578 time=27\n",
      "pitchwheel channel=0 pitch=-2578 time=0\n",
      "pitchwheel channel=0 pitch=-1518 time=26\n",
      "pitchwheel channel=0 pitch=-1518 time=0\n",
      "pitchwheel channel=0 pitch=-771 time=25\n",
      "pitchwheel channel=0 pitch=-771 time=0\n",
      "pitchwheel channel=0 pitch=0 time=26\n",
      "pitchwheel channel=0 pitch=0 time=0\n",
      "note_on channel=0 note=61 velocity=70 time=24\n",
      "note_on channel=0 note=61 velocity=70 time=0\n",
      "pitchwheel channel=0 pitch=-73 time=182\n",
      "pitchwheel channel=0 pitch=-73 time=0\n",
      "pitchwheel channel=0 pitch=-699 time=25\n",
      "pitchwheel channel=0 pitch=-699 time=0\n",
      "pitchwheel channel=0 pitch=-1374 time=26\n",
      "pitchwheel channel=0 pitch=-1374 time=0\n",
      "pitchwheel channel=0 pitch=-2000 time=26\n",
      "pitchwheel channel=0 pitch=-2000 time=0\n",
      "pitchwheel channel=0 pitch=-2771 time=25\n",
      "pitchwheel channel=0 pitch=-2771 time=0\n",
      "pitchwheel channel=0 pitch=-3349 time=24\n",
      "pitchwheel channel=0 pitch=-3349 time=0\n",
      "pitchwheel channel=0 pitch=-3951 time=26\n",
      "pitchwheel channel=0 pitch=-3951 time=0\n",
      "pitchwheel channel=0 pitch=-4361 time=26\n",
      "pitchwheel channel=0 pitch=-4361 time=0\n",
      "pitchwheel channel=0 pitch=-4915 time=25\n",
      "pitchwheel channel=0 pitch=-4915 time=0\n",
      "pitchwheel channel=0 pitch=-5252 time=26\n",
      "pitchwheel channel=0 pitch=-5252 time=0\n",
      "pitchwheel channel=0 pitch=-5421 time=26\n",
      "pitchwheel channel=0 pitch=-5421 time=0\n",
      "pitchwheel channel=0 pitch=-5758 time=25\n",
      "pitchwheel channel=0 pitch=-5758 time=0\n",
      "pitchwheel channel=0 pitch=-6047 time=53\n",
      "pitchwheel channel=0 pitch=-6047 time=0\n",
      "pitchwheel channel=0 pitch=-6288 time=25\n",
      "pitchwheel channel=0 pitch=-6288 time=0\n",
      "pitchwheel channel=0 pitch=-6529 time=26\n",
      "pitchwheel channel=0 pitch=-6529 time=0\n",
      "pitchwheel channel=0 pitch=-6746 time=51\n",
      "pitchwheel channel=0 pitch=-6746 time=0\n",
      "pitchwheel channel=0 pitch=-6939 time=51\n",
      "pitchwheel channel=0 pitch=-6939 time=0\n",
      "pitchwheel channel=0 pitch=-7059 time=26\n",
      "pitchwheel channel=0 pitch=-7059 time=0\n",
      "pitchwheel channel=0 pitch=-7348 time=24\n",
      "pitchwheel channel=0 pitch=-7348 time=0\n",
      "pitchwheel channel=0 pitch=-7541 time=51\n",
      "pitchwheel channel=0 pitch=-7541 time=0\n",
      "pitchwheel channel=0 pitch=-7830 time=26\n",
      "pitchwheel channel=0 pitch=-7830 time=0\n",
      "pitchwheel channel=0 pitch=-8095 time=51\n",
      "pitchwheel channel=0 pitch=-8095 time=0\n",
      "pitchwheel channel=0 pitch=-8192 time=51\n",
      "pitchwheel channel=0 pitch=-8192 time=0\n",
      "pitchwheel channel=0 pitch=-7830 time=306\n",
      "pitchwheel channel=0 pitch=-7830 time=0\n",
      "pitchwheel channel=0 pitch=-7637 time=25\n",
      "pitchwheel channel=0 pitch=-7637 time=0\n",
      "pitchwheel channel=0 pitch=-7252 time=28\n",
      "pitchwheel channel=0 pitch=-7252 time=0\n",
      "pitchwheel channel=0 pitch=-7059 time=25\n",
      "pitchwheel channel=0 pitch=-7059 time=0\n",
      "pitchwheel channel=0 pitch=-6674 time=26\n",
      "pitchwheel channel=0 pitch=-6674 time=0\n",
      "pitchwheel channel=0 pitch=-6288 time=51\n",
      "pitchwheel channel=0 pitch=-6288 time=0\n",
      "pitchwheel channel=0 pitch=-6096 time=26\n",
      "pitchwheel channel=0 pitch=-6096 time=0\n",
      "pitchwheel channel=0 pitch=-5806 time=25\n",
      "pitchwheel channel=0 pitch=-5806 time=0\n",
      "pitchwheel channel=0 pitch=-5590 time=26\n",
      "pitchwheel channel=0 pitch=-5590 time=0\n",
      "pitchwheel channel=0 pitch=-5060 time=24\n",
      "pitchwheel channel=0 pitch=-5060 time=0\n",
      "pitchwheel channel=0 pitch=-4554 time=27\n",
      "pitchwheel channel=0 pitch=-4554 time=0\n",
      "pitchwheel channel=0 pitch=-4192 time=26\n",
      "pitchwheel channel=0 pitch=-4192 time=0\n",
      "pitchwheel channel=0 pitch=-3759 time=24\n",
      "pitchwheel channel=0 pitch=-3759 time=0\n",
      "pitchwheel channel=0 pitch=-3301 time=26\n",
      "pitchwheel channel=0 pitch=-3301 time=0\n",
      "pitchwheel channel=0 pitch=-2675 time=26\n",
      "pitchwheel channel=0 pitch=-2675 time=0\n",
      "pitchwheel channel=0 pitch=-2410 time=25\n",
      "pitchwheel channel=0 pitch=-2410 time=0\n",
      "pitchwheel channel=0 pitch=-1952 time=26\n",
      "pitchwheel channel=0 pitch=-1952 time=0\n",
      "pitchwheel channel=0 pitch=-1735 time=25\n",
      "pitchwheel channel=0 pitch=-1735 time=0\n",
      "pitchwheel channel=0 pitch=-1277 time=27\n",
      "pitchwheel channel=0 pitch=-1277 time=0\n",
      "pitchwheel channel=0 pitch=-940 time=25\n",
      "pitchwheel channel=0 pitch=-940 time=0\n",
      "pitchwheel channel=0 pitch=-410 time=26\n",
      "pitchwheel channel=0 pitch=-410 time=0\n",
      "pitchwheel channel=0 pitch=-73 time=25\n",
      "pitchwheel channel=0 pitch=-73 time=0\n",
      "pitchwheel channel=0 pitch=0 time=26\n",
      "pitchwheel channel=0 pitch=0 time=0\n",
      "note_on channel=0 note=61 velocity=0 time=7311\n",
      "note_on channel=0 note=61 velocity=0 time=0\n",
      "note_on channel=0 note=61 velocity=72 time=2684\n",
      "note_on channel=0 note=61 velocity=72 time=0\n",
      "pitchwheel channel=0 pitch=-386 time=193\n",
      "pitchwheel channel=0 pitch=-386 time=0\n",
      "pitchwheel channel=0 pitch=-1398 time=26\n",
      "pitchwheel channel=0 pitch=-1398 time=0\n",
      "pitchwheel channel=0 pitch=-2410 time=27\n",
      "pitchwheel channel=0 pitch=-2410 time=0\n",
      "pitchwheel channel=0 pitch=-3229 time=26\n",
      "pitchwheel channel=0 pitch=-3229 time=0\n",
      "pitchwheel channel=0 pitch=-3614 time=23\n",
      "pitchwheel channel=0 pitch=-3614 time=0\n",
      "pitchwheel channel=0 pitch=-4000 time=26\n",
      "pitchwheel channel=0 pitch=-4000 time=0\n",
      "pitchwheel channel=0 pitch=-4289 time=25\n",
      "pitchwheel channel=0 pitch=-4289 time=0\n",
      "pitchwheel channel=0 pitch=-4481 time=26\n",
      "pitchwheel channel=0 pitch=-4481 time=0\n",
      "pitchwheel channel=0 pitch=-4771 time=25\n",
      "pitchwheel channel=0 pitch=-4771 time=0\n",
      "pitchwheel channel=0 pitch=-5036 time=26\n",
      "pitchwheel channel=0 pitch=-5036 time=0\n",
      "pitchwheel channel=0 pitch=-5252 time=26\n",
      "pitchwheel channel=0 pitch=-5252 time=0\n",
      "pitchwheel channel=0 pitch=-5566 time=27\n",
      "pitchwheel channel=0 pitch=-5566 time=0\n",
      "pitchwheel channel=0 pitch=-5927 time=25\n",
      "pitchwheel channel=0 pitch=-5927 time=0\n",
      "pitchwheel channel=0 pitch=-6168 time=26\n",
      "pitchwheel channel=0 pitch=-6168 time=0\n",
      "pitchwheel channel=0 pitch=-6361 time=26\n",
      "pitchwheel channel=0 pitch=-6361 time=0\n",
      "pitchwheel channel=0 pitch=-6553 time=25\n",
      "pitchwheel channel=0 pitch=-6553 time=0\n",
      "pitchwheel channel=0 pitch=-6818 time=26\n",
      "pitchwheel channel=0 pitch=-6818 time=0\n",
      "pitchwheel channel=0 pitch=-6987 time=24\n",
      "pitchwheel channel=0 pitch=-6987 time=0\n",
      "pitchwheel channel=0 pitch=-7107 time=25\n",
      "pitchwheel channel=0 pitch=-7107 time=0\n",
      "pitchwheel channel=0 pitch=-7204 time=26\n",
      "pitchwheel channel=0 pitch=-7204 time=0\n",
      "pitchwheel channel=0 pitch=-6939 time=310\n",
      "pitchwheel channel=0 pitch=-6939 time=0\n",
      "pitchwheel channel=0 pitch=-6601 time=26\n",
      "pitchwheel channel=0 pitch=-6601 time=0\n",
      "pitchwheel channel=0 pitch=-6120 time=25\n",
      "pitchwheel channel=0 pitch=-6120 time=0\n",
      "pitchwheel channel=0 pitch=-5156 time=24\n",
      "pitchwheel channel=0 pitch=-5156 time=0\n",
      "pitchwheel channel=0 pitch=-4096 time=24\n",
      "pitchwheel channel=0 pitch=-4096 time=0\n",
      "pitchwheel channel=0 pitch=-3060 time=25\n",
      "pitchwheel channel=0 pitch=-3060 time=0\n",
      "pitchwheel channel=0 pitch=-2121 time=26\n",
      "pitchwheel channel=0 pitch=-2121 time=0\n",
      "pitchwheel channel=0 pitch=-1229 time=25\n",
      "pitchwheel channel=0 pitch=-1229 time=0\n",
      "pitchwheel channel=0 pitch=-386 time=26\n",
      "pitchwheel channel=0 pitch=-386 time=0\n",
      "pitchwheel channel=0 pitch=0 time=26\n",
      "pitchwheel channel=0 pitch=0 time=0\n",
      "note_on channel=0 note=61 velocity=0 time=2243\n",
      "note_on channel=0 note=61 velocity=0 time=0\n",
      "pitchwheel channel=0 pitch=-25 time=447\n",
      "pitchwheel channel=0 pitch=-25 time=0\n",
      "pitchwheel channel=0 pitch=-1109 time=26\n",
      "pitchwheel channel=0 pitch=-1109 time=0\n",
      "pitchwheel channel=0 pitch=-2410 time=24\n",
      "pitchwheel channel=0 pitch=-2410 time=0\n",
      "pitchwheel channel=0 pitch=-3662 time=25\n",
      "pitchwheel channel=0 pitch=-3662 time=0\n",
      "pitchwheel channel=0 pitch=-4481 time=26\n",
      "pitchwheel channel=0 pitch=-4481 time=0\n",
      "pitchwheel channel=0 pitch=-5132 time=26\n",
      "pitchwheel channel=0 pitch=-5132 time=0\n",
      "pitchwheel channel=0 pitch=-5541 time=25\n",
      "pitchwheel channel=0 pitch=-5541 time=0\n",
      "pitchwheel channel=0 pitch=-5879 time=26\n",
      "pitchwheel channel=0 pitch=-5879 time=0\n",
      "pitchwheel channel=0 pitch=-6144 time=25\n",
      "pitchwheel channel=0 pitch=-6144 time=0\n",
      "pitchwheel channel=0 pitch=-6505 time=26\n",
      "pitchwheel channel=0 pitch=-6505 time=0\n",
      "note_on channel=0 note=61 velocity=66 time=13\n",
      "note_on channel=0 note=61 velocity=66 time=0\n",
      "pitchwheel channel=0 pitch=-6746 time=13\n",
      "pitchwheel channel=0 pitch=-6746 time=0\n",
      "pitchwheel channel=0 pitch=-7107 time=25\n",
      "pitchwheel channel=0 pitch=-7107 time=0\n",
      "pitchwheel channel=0 pitch=-7493 time=26\n",
      "pitchwheel channel=0 pitch=-7493 time=0\n",
      "pitchwheel channel=0 pitch=-7926 time=25\n",
      "pitchwheel channel=0 pitch=-7926 time=0\n",
      "pitchwheel channel=0 pitch=-8192 time=28\n",
      "pitchwheel channel=0 pitch=-8192 time=0\n",
      "pitchwheel channel=0 pitch=-7854 time=355\n",
      "pitchwheel channel=0 pitch=-7854 time=0\n",
      "pitchwheel channel=0 pitch=-6409 time=26\n",
      "pitchwheel channel=0 pitch=-6409 time=0\n",
      "pitchwheel channel=0 pitch=-4578 time=26\n",
      "pitchwheel channel=0 pitch=-4578 time=0\n",
      "pitchwheel channel=0 pitch=-2771 time=25\n",
      "pitchwheel channel=0 pitch=-2771 time=0\n",
      "pitchwheel channel=0 pitch=-964 time=26\n",
      "pitchwheel channel=0 pitch=-964 time=0\n",
      "pitchwheel channel=0 pitch=0 time=30\n",
      "pitchwheel channel=0 pitch=0 time=0\n",
      "pitchwheel channel=0 pitch=102 time=458\n",
      "pitchwheel channel=0 pitch=102 time=0\n",
      "pitchwheel channel=0 pitch=474 time=26\n",
      "pitchwheel channel=0 pitch=474 time=0\n",
      "pitchwheel channel=0 pitch=1240 time=27\n",
      "pitchwheel channel=0 pitch=1240 time=0\n",
      "pitchwheel channel=0 pitch=2336 time=24\n",
      "pitchwheel channel=0 pitch=2336 time=0\n",
      "pitchwheel channel=0 pitch=3680 time=26\n",
      "pitchwheel channel=0 pitch=3680 time=0\n",
      "pitchwheel channel=0 pitch=5252 time=25\n",
      "pitchwheel channel=0 pitch=5252 time=0\n",
      "pitchwheel channel=0 pitch=6680 time=26\n",
      "pitchwheel channel=0 pitch=6680 time=0\n",
      "pitchwheel channel=0 pitch=7859 time=26\n",
      "pitchwheel channel=0 pitch=7859 time=0\n",
      "pitchwheel channel=0 pitch=8191 time=25\n",
      "pitchwheel channel=0 pitch=8191 time=0\n",
      "pitchwheel channel=0 pitch=7197 time=1279\n",
      "pitchwheel channel=0 pitch=7197 time=0\n",
      "pitchwheel channel=0 pitch=5914 time=26\n",
      "pitchwheel channel=0 pitch=5914 time=0\n",
      "pitchwheel channel=0 pitch=4632 time=24\n",
      "pitchwheel channel=0 pitch=4632 time=0\n",
      "pitchwheel channel=0 pitch=3515 time=27\n",
      "pitchwheel channel=0 pitch=3515 time=0\n",
      "pitchwheel channel=0 pitch=2377 time=25\n",
      "pitchwheel channel=0 pitch=2377 time=0\n",
      "pitchwheel channel=0 pitch=1302 time=26\n",
      "pitchwheel channel=0 pitch=1302 time=0\n",
      "pitchwheel channel=0 pitch=288 time=26\n",
      "pitchwheel channel=0 pitch=288 time=0\n",
      "pitchwheel channel=0 pitch=0 time=25\n",
      "pitchwheel channel=0 pitch=0 time=0\n",
      "note_on channel=0 note=61 velocity=0 time=1108\n",
      "note_on channel=0 note=61 velocity=0 time=0\n",
      "note_on channel=0 note=59 velocity=80 time=587\n",
      "note_on channel=0 note=59 velocity=80 time=0\n",
      "note_on channel=0 note=58 velocity=82 time=88\n",
      "note_on channel=0 note=58 velocity=82 time=0\n",
      "note_on channel=0 note=59 velocity=0 time=105\n",
      "note_on channel=0 note=59 velocity=0 time=0\n",
      "note_on channel=0 note=59 velocity=61 time=101\n",
      "note_on channel=0 note=59 velocity=61 time=0\n",
      "note_on channel=0 note=58 velocity=0 time=132\n",
      "note_on channel=0 note=58 velocity=0 time=0\n",
      "note_on channel=0 note=61 velocity=46 time=811\n",
      "note_on channel=0 note=61 velocity=46 time=0\n",
      "note_on channel=0 note=58 velocity=74 time=127\n",
      "note_on channel=0 note=58 velocity=74 time=0\n",
      "note_on channel=0 note=59 velocity=0 time=68\n",
      "note_on channel=0 note=59 velocity=0 time=0\n",
      "note_on channel=0 note=61 velocity=0 time=29\n",
      "note_on channel=0 note=61 velocity=0 time=0\n",
      "note_on channel=0 note=58 velocity=0 time=4810\n",
      "note_on channel=0 note=58 velocity=0 time=0\n",
      "pitchwheel channel=0 pitch=454 time=458\n",
      "pitchwheel channel=0 pitch=454 time=0\n",
      "pitchwheel channel=0 pitch=826 time=26\n",
      "pitchwheel channel=0 pitch=826 time=0\n",
      "pitchwheel channel=0 pitch=1198 time=25\n",
      "pitchwheel channel=0 pitch=1198 time=0\n",
      "pitchwheel channel=0 pitch=1695 time=26\n",
      "pitchwheel channel=0 pitch=1695 time=0\n",
      "note_on channel=0 note=59 velocity=74 time=29\n",
      "note_on channel=0 note=59 velocity=74 time=0\n",
      "pitchwheel channel=0 pitch=2522 time=1\n",
      "pitchwheel channel=0 pitch=2522 time=0\n",
      "pitchwheel channel=0 pitch=3639 time=21\n",
      "pitchwheel channel=0 pitch=3639 time=0\n",
      "pitchwheel channel=0 pitch=4839 time=25\n",
      "pitchwheel channel=0 pitch=4839 time=0\n",
      "pitchwheel channel=0 pitch=5852 time=25\n",
      "pitchwheel channel=0 pitch=5852 time=0\n",
      "pitchwheel channel=0 pitch=6721 time=26\n",
      "pitchwheel channel=0 pitch=6721 time=0\n",
      "pitchwheel channel=0 pitch=7300 time=26\n",
      "pitchwheel channel=0 pitch=7300 time=0\n",
      "pitchwheel channel=0 pitch=7528 time=25\n",
      "pitchwheel channel=0 pitch=7528 time=0\n",
      "pitchwheel channel=0 pitch=7403 time=52\n",
      "pitchwheel channel=0 pitch=7403 time=0\n",
      "pitchwheel channel=0 pitch=6845 time=26\n",
      "pitchwheel channel=0 pitch=6845 time=0\n",
      "pitchwheel channel=0 pitch=5811 time=25\n",
      "pitchwheel channel=0 pitch=5811 time=0\n",
      "pitchwheel channel=0 pitch=4446 time=26\n",
      "pitchwheel channel=0 pitch=4446 time=0\n",
      "pitchwheel channel=0 pitch=2874 time=25\n",
      "pitchwheel channel=0 pitch=2874 time=0\n",
      "pitchwheel channel=0 pitch=1550 time=24\n",
      "pitchwheel channel=0 pitch=1550 time=0\n",
      "pitchwheel channel=0 pitch=454 time=26\n",
      "pitchwheel channel=0 pitch=454 time=0\n",
      "pitchwheel channel=0 pitch=0 time=26\n",
      "pitchwheel channel=0 pitch=0 time=0\n",
      "pitchwheel channel=0 pitch=578 time=640\n",
      "pitchwheel channel=0 pitch=578 time=0\n",
      "pitchwheel channel=0 pitch=1488 time=25\n",
      "pitchwheel channel=0 pitch=1488 time=0\n",
      "pitchwheel channel=0 pitch=2170 time=26\n",
      "pitchwheel channel=0 pitch=2170 time=0\n",
      "pitchwheel channel=0 pitch=2853 time=25\n",
      "pitchwheel channel=0 pitch=2853 time=0\n",
      "pitchwheel channel=0 pitch=3680 time=26\n",
      "pitchwheel channel=0 pitch=3680 time=0\n",
      "pitchwheel channel=0 pitch=4632 time=26\n",
      "pitchwheel channel=0 pitch=4632 time=0\n",
      "pitchwheel channel=0 pitch=5666 time=25\n",
      "pitchwheel channel=0 pitch=5666 time=0\n",
      "note_on channel=0 note=59 velocity=0 time=7\n",
      "note_on channel=0 note=59 velocity=0 time=0\n",
      "pitchwheel channel=0 pitch=6535 time=17\n",
      "pitchwheel channel=0 pitch=6535 time=0\n",
      "pitchwheel channel=0 pitch=7155 time=27\n",
      "pitchwheel channel=0 pitch=7155 time=0\n",
      "pitchwheel channel=0 pitch=7383 time=28\n",
      "pitchwheel channel=0 pitch=7383 time=0\n",
      "note_on channel=0 note=59 velocity=82 time=59\n",
      "note_on channel=0 note=59 velocity=82 time=0\n",
      "pitchwheel channel=0 pitch=6742 time=16\n",
      "pitchwheel channel=0 pitch=6742 time=0\n",
      "pitchwheel channel=0 pitch=5749 time=25\n",
      "pitchwheel channel=0 pitch=5749 time=0\n",
      "pitchwheel channel=0 pitch=4466 time=26\n",
      "pitchwheel channel=0 pitch=4466 time=0\n",
      "pitchwheel channel=0 pitch=3039 time=27\n",
      "pitchwheel channel=0 pitch=3039 time=0\n",
      "pitchwheel channel=0 pitch=1860 time=26\n",
      "pitchwheel channel=0 pitch=1860 time=0\n",
      "pitchwheel channel=0 pitch=1053 time=25\n",
      "pitchwheel channel=0 pitch=1053 time=0\n",
      "pitchwheel channel=0 pitch=557 time=26\n",
      "pitchwheel channel=0 pitch=557 time=0\n",
      "pitchwheel channel=0 pitch=329 time=26\n",
      "pitchwheel channel=0 pitch=329 time=0\n",
      "pitchwheel channel=0 pitch=143 time=25\n",
      "pitchwheel channel=0 pitch=143 time=0\n",
      "pitchwheel channel=0 pitch=19 time=26\n",
      "pitchwheel channel=0 pitch=19 time=0\n",
      "pitchwheel channel=0 pitch=0 time=25\n",
      "pitchwheel channel=0 pitch=0 time=0\n",
      "pitchwheel channel=0 pitch=288 time=615\n",
      "pitchwheel channel=0 pitch=288 time=0\n",
      "pitchwheel channel=0 pitch=909 time=25\n",
      "pitchwheel channel=0 pitch=909 time=0\n",
      "pitchwheel channel=0 pitch=1653 time=26\n",
      "pitchwheel channel=0 pitch=1653 time=0\n",
      "pitchwheel channel=0 pitch=2522 time=26\n",
      "pitchwheel channel=0 pitch=2522 time=0\n",
      "pitchwheel channel=0 pitch=3639 time=24\n",
      "pitchwheel channel=0 pitch=3639 time=0\n",
      "pitchwheel channel=0 pitch=4694 time=27\n",
      "pitchwheel channel=0 pitch=4694 time=0\n",
      "pitchwheel channel=0 pitch=5542 time=24\n",
      "pitchwheel channel=0 pitch=5542 time=0\n",
      "pitchwheel channel=0 pitch=5914 time=25\n",
      "pitchwheel channel=0 pitch=5914 time=0\n",
      "pitchwheel channel=0 pitch=5769 time=52\n",
      "pitchwheel channel=0 pitch=5769 time=0\n",
      "pitchwheel channel=0 pitch=5004 time=26\n",
      "pitchwheel channel=0 pitch=5004 time=0\n",
      "pitchwheel channel=0 pitch=4011 time=25\n",
      "pitchwheel channel=0 pitch=4011 time=0\n",
      "pitchwheel channel=0 pitch=2729 time=26\n",
      "pitchwheel channel=0 pitch=2729 time=0\n",
      "pitchwheel channel=0 pitch=1322 time=25\n",
      "pitchwheel channel=0 pitch=1322 time=0\n",
      "pitchwheel channel=0 pitch=0 time=26\n",
      "pitchwheel channel=0 pitch=0 time=0\n",
      "note_on channel=0 note=58 velocity=70 time=1708\n",
      "note_on channel=0 note=58 velocity=70 time=0\n",
      "note_on channel=0 note=59 velocity=0 time=164\n",
      "note_on channel=0 note=59 velocity=0 time=0\n",
      "note_on channel=0 note=58 velocity=0 time=346\n",
      "note_on channel=0 note=58 velocity=0 time=0\n",
      "pitchwheel channel=0 pitch=371 time=546\n",
      "pitchwheel channel=0 pitch=371 time=0\n",
      "pitchwheel channel=0 pitch=1219 time=26\n",
      "pitchwheel channel=0 pitch=1219 time=0\n",
      "pitchwheel channel=0 pitch=2150 time=26\n",
      "pitchwheel channel=0 pitch=2150 time=0\n",
      "pitchwheel channel=0 pitch=3205 time=26\n",
      "pitchwheel channel=0 pitch=3205 time=0\n",
      "note_on channel=0 note=59 velocity=68 time=11\n",
      "note_on channel=0 note=59 velocity=68 time=0\n",
      "pitchwheel channel=0 pitch=4342 time=16\n",
      "pitchwheel channel=0 pitch=4342 time=0\n",
      "pitchwheel channel=0 pitch=5583 time=26\n",
      "pitchwheel channel=0 pitch=5583 time=0\n",
      "pitchwheel channel=0 pitch=6866 time=24\n",
      "pitchwheel channel=0 pitch=6866 time=0\n",
      "pitchwheel channel=0 pitch=7962 time=26\n",
      "pitchwheel channel=0 pitch=7962 time=0\n",
      "pitchwheel channel=0 pitch=8191 time=27\n",
      "pitchwheel channel=0 pitch=8191 time=0\n",
      "pitchwheel channel=0 pitch=7486 time=204\n",
      "pitchwheel channel=0 pitch=7486 time=0\n",
      "pitchwheel channel=0 pitch=6369 time=26\n",
      "pitchwheel channel=0 pitch=6369 time=0\n",
      "pitchwheel channel=0 pitch=5004 time=24\n",
      "pitchwheel channel=0 pitch=5004 time=0\n",
      "pitchwheel channel=0 pitch=3742 time=25\n",
      "pitchwheel channel=0 pitch=3742 time=0\n",
      "pitchwheel channel=0 pitch=2729 time=26\n",
      "pitchwheel channel=0 pitch=2729 time=0\n",
      "pitchwheel channel=0 pitch=2005 time=25\n",
      "pitchwheel channel=0 pitch=2005 time=0\n",
      "pitchwheel channel=0 pitch=1633 time=26\n",
      "pitchwheel channel=0 pitch=1633 time=0\n",
      "pitchwheel channel=0 pitch=1446 time=27\n",
      "pitchwheel channel=0 pitch=1446 time=0\n",
      "pitchwheel channel=0 pitch=1343 time=25\n",
      "pitchwheel channel=0 pitch=1343 time=0\n",
      "pitchwheel channel=0 pitch=1219 time=26\n",
      "pitchwheel channel=0 pitch=1219 time=0\n",
      "pitchwheel channel=0 pitch=1074 time=26\n",
      "pitchwheel channel=0 pitch=1074 time=0\n",
      "pitchwheel channel=0 pitch=681 time=25\n",
      "pitchwheel channel=0 pitch=681 time=0\n",
      "pitchwheel channel=0 pitch=371 time=26\n",
      "pitchwheel channel=0 pitch=371 time=0\n",
      "pitchwheel channel=0 pitch=0 time=25\n",
      "pitchwheel channel=0 pitch=0 time=0\n",
      "pitchwheel channel=0 pitch=433 time=458\n",
      "pitchwheel channel=0 pitch=433 time=0\n",
      "pitchwheel channel=0 pitch=1322 time=26\n",
      "pitchwheel channel=0 pitch=1322 time=0\n",
      "pitchwheel channel=0 pitch=2274 time=26\n",
      "pitchwheel channel=0 pitch=2274 time=0\n",
      "note_on channel=0 note=59 velocity=0 time=4\n",
      "note_on channel=0 note=59 velocity=0 time=0\n",
      "pitchwheel channel=0 pitch=3329 time=21\n",
      "pitchwheel channel=0 pitch=3329 time=0\n",
      "pitchwheel channel=0 pitch=4322 time=26\n",
      "pitchwheel channel=0 pitch=4322 time=0\n",
      "pitchwheel channel=0 pitch=5149 time=25\n",
      "pitchwheel channel=0 pitch=5149 time=0\n",
      "pitchwheel channel=0 pitch=5894 time=26\n",
      "pitchwheel channel=0 pitch=5894 time=0\n",
      "pitchwheel channel=0 pitch=6452 time=26\n",
      "pitchwheel channel=0 pitch=6452 time=0\n",
      "pitchwheel channel=0 pitch=6721 time=27\n",
      "pitchwheel channel=0 pitch=6721 time=0\n",
      "pitchwheel channel=0 pitch=6804 time=25\n",
      "pitchwheel channel=0 pitch=6804 time=0\n",
      "note_on channel=0 note=59 velocity=82 time=45\n",
      "note_on channel=0 note=59 velocity=82 time=0\n",
      "pitchwheel channel=0 pitch=6680 time=7\n",
      "pitchwheel channel=0 pitch=6680 time=0\n",
      "pitchwheel channel=0 pitch=6245 time=25\n",
      "pitchwheel channel=0 pitch=6245 time=0\n",
      "pitchwheel channel=0 pitch=5501 time=27\n",
      "pitchwheel channel=0 pitch=5501 time=0\n",
      "pitchwheel channel=0 pitch=4570 time=26\n",
      "pitchwheel channel=0 pitch=4570 time=0\n",
      "pitchwheel channel=0 pitch=3515 time=27\n",
      "pitchwheel channel=0 pitch=3515 time=0\n",
      "pitchwheel channel=0 pitch=2377 time=25\n",
      "pitchwheel channel=0 pitch=2377 time=0\n",
      "pitchwheel channel=0 pitch=1405 time=26\n",
      "pitchwheel channel=0 pitch=1405 time=0\n",
      "pitchwheel channel=0 pitch=557 time=26\n",
      "pitchwheel channel=0 pitch=557 time=0\n",
      "pitchwheel channel=0 pitch=81 time=25\n",
      "pitchwheel channel=0 pitch=81 time=0\n",
      "pitchwheel channel=0 pitch=0 time=26\n",
      "pitchwheel channel=0 pitch=0 time=0\n",
      "pitchwheel channel=0 pitch=81 time=945\n",
      "pitchwheel channel=0 pitch=81 time=0\n",
      "pitchwheel channel=0 pitch=205 time=26\n",
      "pitchwheel channel=0 pitch=205 time=0\n",
      "pitchwheel channel=0 pitch=288 time=77\n",
      "pitchwheel channel=0 pitch=288 time=0\n",
      "pitchwheel channel=0 pitch=454 time=25\n",
      "pitchwheel channel=0 pitch=454 time=0\n",
      "pitchwheel channel=0 pitch=640 time=26\n",
      "pitchwheel channel=0 pitch=640 time=0\n",
      "pitchwheel channel=0 pitch=1053 time=26\n",
      "pitchwheel channel=0 pitch=1053 time=0\n",
      "pitchwheel channel=0 pitch=1364 time=25\n",
      "pitchwheel channel=0 pitch=1364 time=0\n",
      "pitchwheel channel=0 pitch=1653 time=26\n",
      "pitchwheel channel=0 pitch=1653 time=0\n",
      "pitchwheel channel=0 pitch=1984 time=26\n",
      "pitchwheel channel=0 pitch=1984 time=0\n",
      "pitchwheel channel=0 pitch=2170 time=24\n",
      "pitchwheel channel=0 pitch=2170 time=0\n",
      "pitchwheel channel=0 pitch=2419 time=26\n",
      "pitchwheel channel=0 pitch=2419 time=0\n",
      "pitchwheel channel=0 pitch=2625 time=26\n",
      "pitchwheel channel=0 pitch=2625 time=0\n",
      "pitchwheel channel=0 pitch=3163 time=25\n",
      "pitchwheel channel=0 pitch=3163 time=0\n",
      "pitchwheel channel=0 pitch=3680 time=26\n",
      "pitchwheel channel=0 pitch=3680 time=0\n",
      "pitchwheel channel=0 pitch=4322 time=25\n",
      "pitchwheel channel=0 pitch=4322 time=0\n",
      "pitchwheel channel=0 pitch=4735 time=28\n",
      "pitchwheel channel=0 pitch=4735 time=0\n",
      "pitchwheel channel=0 pitch=5108 time=25\n",
      "pitchwheel channel=0 pitch=5108 time=0\n",
      "pitchwheel channel=0 pitch=5356 time=26\n",
      "pitchwheel channel=0 pitch=5356 time=0\n",
      "pitchwheel channel=0 pitch=5563 time=25\n",
      "pitchwheel channel=0 pitch=5563 time=0\n",
      "pitchwheel channel=0 pitch=5790 time=24\n",
      "pitchwheel channel=0 pitch=5790 time=0\n",
      "pitchwheel channel=0 pitch=6100 time=26\n",
      "pitchwheel channel=0 pitch=6100 time=0\n",
      "pitchwheel channel=0 pitch=6535 time=26\n",
      "pitchwheel channel=0 pitch=6535 time=0\n",
      "pitchwheel channel=0 pitch=6969 time=25\n",
      "pitchwheel channel=0 pitch=6969 time=0\n",
      "pitchwheel channel=0 pitch=7321 time=24\n",
      "pitchwheel channel=0 pitch=7321 time=0\n",
      "pitchwheel channel=0 pitch=7610 time=26\n",
      "pitchwheel channel=0 pitch=7610 time=0\n",
      "pitchwheel channel=0 pitch=7817 time=25\n",
      "pitchwheel channel=0 pitch=7817 time=0\n",
      "pitchwheel channel=0 pitch=7962 time=26\n",
      "pitchwheel channel=0 pitch=7962 time=0\n",
      "pitchwheel channel=0 pitch=8127 time=26\n",
      "pitchwheel channel=0 pitch=8127 time=0\n",
      "pitchwheel channel=0 pitch=8191 time=25\n",
      "pitchwheel channel=0 pitch=8191 time=0\n",
      "pitchwheel channel=0 pitch=7135 time=3866\n",
      "pitchwheel channel=0 pitch=7135 time=0\n",
      "pitchwheel channel=0 pitch=5625 time=26\n",
      "pitchwheel channel=0 pitch=5625 time=0\n",
      "pitchwheel channel=0 pitch=4053 time=26\n",
      "pitchwheel channel=0 pitch=4053 time=0\n",
      "note_on channel=0 note=59 velocity=0 time=16\n",
      "note_on channel=0 note=59 velocity=0 time=0\n",
      "pitchwheel channel=0 pitch=2687 time=10\n",
      "pitchwheel channel=0 pitch=2687 time=0\n",
      "pitchwheel channel=0 pitch=1674 time=25\n",
      "pitchwheel channel=0 pitch=1674 time=0\n",
      "pitchwheel channel=0 pitch=702 time=26\n",
      "pitchwheel channel=0 pitch=702 time=0\n",
      "pitchwheel channel=0 pitch=0 time=25\n",
      "pitchwheel channel=0 pitch=0 time=0\n",
      "note_on channel=0 note=59 velocity=61 time=260\n",
      "note_on channel=0 note=59 velocity=61 time=0\n",
      "pitchwheel channel=0 pitch=19 time=380\n",
      "pitchwheel channel=0 pitch=19 time=0\n",
      "pitchwheel channel=0 pitch=309 time=27\n",
      "pitchwheel channel=0 pitch=309 time=0\n",
      "pitchwheel channel=0 pitch=826 time=26\n",
      "pitchwheel channel=0 pitch=826 time=0\n",
      "pitchwheel channel=0 pitch=1860 time=25\n",
      "pitchwheel channel=0 pitch=1860 time=0\n",
      "pitchwheel channel=0 pitch=3143 time=26\n",
      "pitchwheel channel=0 pitch=3143 time=0\n",
      "pitchwheel channel=0 pitch=4363 time=26\n",
      "pitchwheel channel=0 pitch=4363 time=0\n",
      "pitchwheel channel=0 pitch=5356 time=24\n",
      "pitchwheel channel=0 pitch=5356 time=0\n",
      "pitchwheel channel=0 pitch=5956 time=25\n",
      "pitchwheel channel=0 pitch=5956 time=0\n",
      "pitchwheel channel=0 pitch=6328 time=26\n",
      "pitchwheel channel=0 pitch=6328 time=0\n",
      "pitchwheel channel=0 pitch=6452 time=25\n",
      "pitchwheel channel=0 pitch=6452 time=0\n",
      "pitchwheel channel=0 pitch=6576 time=52\n",
      "pitchwheel channel=0 pitch=6576 time=0\n",
      "pitchwheel channel=0 pitch=6845 time=26\n",
      "pitchwheel channel=0 pitch=6845 time=0\n",
      "pitchwheel channel=0 pitch=7197 time=26\n",
      "pitchwheel channel=0 pitch=7197 time=0\n",
      "pitchwheel channel=0 pitch=7528 time=25\n",
      "pitchwheel channel=0 pitch=7528 time=0\n",
      "pitchwheel channel=0 pitch=7838 time=26\n",
      "pitchwheel channel=0 pitch=7838 time=0\n",
      "pitchwheel channel=0 pitch=8045 time=26\n",
      "pitchwheel channel=0 pitch=8045 time=0\n",
      "pitchwheel channel=0 pitch=8191 time=25\n",
      "pitchwheel channel=0 pitch=8191 time=0\n",
      "note_on channel=0 note=59 velocity=0 time=4021\n",
      "note_on channel=0 note=59 velocity=0 time=0\n",
      "pitchwheel channel=0 pitch=8127 time=229\n",
      "pitchwheel channel=0 pitch=8127 time=0\n",
      "pitchwheel channel=0 pitch=7548 time=25\n",
      "pitchwheel channel=0 pitch=7548 time=0\n",
      "pitchwheel channel=0 pitch=6845 time=26\n",
      "pitchwheel channel=0 pitch=6845 time=0\n",
      "pitchwheel channel=0 pitch=5894 time=25\n",
      "pitchwheel channel=0 pitch=5894 time=0\n",
      "pitchwheel channel=0 pitch=4673 time=26\n",
      "pitchwheel channel=0 pitch=4673 time=0\n",
      "pitchwheel channel=0 pitch=3411 time=25\n",
      "pitchwheel channel=0 pitch=3411 time=0\n",
      "pitchwheel channel=0 pitch=1943 time=26\n",
      "pitchwheel channel=0 pitch=1943 time=0\n",
      "pitchwheel channel=0 pitch=495 time=25\n",
      "pitchwheel channel=0 pitch=495 time=0\n",
      "pitchwheel channel=0 pitch=0 time=24\n",
      "pitchwheel channel=0 pitch=0 time=0\n",
      "pitchwheel channel=0 pitch=164 time=719\n",
      "pitchwheel channel=0 pitch=164 time=0\n",
      "pitchwheel channel=0 pitch=392 time=25\n",
      "pitchwheel channel=0 pitch=392 time=0\n",
      "pitchwheel channel=0 pitch=516 time=26\n",
      "pitchwheel channel=0 pitch=516 time=0\n",
      "pitchwheel channel=0 pitch=867 time=76\n",
      "pitchwheel channel=0 pitch=867 time=0\n",
      "pitchwheel channel=0 pitch=1074 time=26\n",
      "pitchwheel channel=0 pitch=1074 time=0\n",
      "pitchwheel channel=0 pitch=1240 time=26\n",
      "pitchwheel channel=0 pitch=1240 time=0\n",
      "pitchwheel channel=0 pitch=1343 time=25\n",
      "pitchwheel channel=0 pitch=1343 time=0\n",
      "pitchwheel channel=0 pitch=1426 time=26\n",
      "pitchwheel channel=0 pitch=1426 time=0\n",
      "pitchwheel channel=0 pitch=1322 time=152\n",
      "pitchwheel channel=0 pitch=1322 time=0\n",
      "pitchwheel channel=0 pitch=1157 time=25\n",
      "pitchwheel channel=0 pitch=1157 time=0\n",
      "pitchwheel channel=0 pitch=847 time=28\n",
      "pitchwheel channel=0 pitch=847 time=0\n",
      "pitchwheel channel=0 pitch=516 time=25\n",
      "pitchwheel channel=0 pitch=516 time=0\n",
      "pitchwheel channel=0 pitch=329 time=26\n",
      "pitchwheel channel=0 pitch=329 time=0\n",
      "pitchwheel channel=0 pitch=40 time=25\n",
      "pitchwheel channel=0 pitch=40 time=0\n",
      "pitchwheel channel=0 pitch=0 time=26\n",
      "pitchwheel channel=0 pitch=0 time=0\n",
      "pitchwheel channel=0 pitch=164 time=411\n",
      "pitchwheel channel=0 pitch=164 time=0\n",
      "pitchwheel channel=0 pitch=1405 time=25\n",
      "pitchwheel channel=0 pitch=1405 time=0\n",
      "pitchwheel channel=0 pitch=2377 time=26\n",
      "pitchwheel channel=0 pitch=2377 time=0\n",
      "pitchwheel channel=0 pitch=3205 time=25\n",
      "pitchwheel channel=0 pitch=3205 time=0\n",
      "pitchwheel channel=0 pitch=3680 time=26\n",
      "pitchwheel channel=0 pitch=3680 time=0\n",
      "pitchwheel channel=0 pitch=4218 time=26\n",
      "pitchwheel channel=0 pitch=4218 time=0\n",
      "pitchwheel channel=0 pitch=4632 time=25\n",
      "pitchwheel channel=0 pitch=4632 time=0\n",
      "pitchwheel channel=0 pitch=5273 time=25\n",
      "pitchwheel channel=0 pitch=5273 time=0\n",
      "pitchwheel channel=0 pitch=6183 time=24\n",
      "pitchwheel channel=0 pitch=6183 time=0\n",
      "note_on channel=0 note=64 velocity=58 time=29\n",
      "note_on channel=0 note=64 velocity=58 time=0\n",
      "pitchwheel channel=0 pitch=7238 time=2\n",
      "pitchwheel channel=0 pitch=7238 time=0\n",
      "pitchwheel channel=0 pitch=8190 time=20\n",
      "pitchwheel channel=0 pitch=8190 time=0\n",
      "pitchwheel channel=0 pitch=8191 time=28\n",
      "pitchwheel channel=0 pitch=8191 time=0\n",
      "pitchwheel channel=0 pitch=7941 time=510\n",
      "pitchwheel channel=0 pitch=7941 time=0\n",
      "pitchwheel channel=0 pitch=7631 time=27\n",
      "pitchwheel channel=0 pitch=7631 time=0\n",
      "pitchwheel channel=0 pitch=7321 time=24\n",
      "pitchwheel channel=0 pitch=7321 time=0\n",
      "pitchwheel channel=0 pitch=7114 time=25\n",
      "pitchwheel channel=0 pitch=7114 time=0\n",
      "pitchwheel channel=0 pitch=6824 time=27\n",
      "pitchwheel channel=0 pitch=6824 time=0\n",
      "pitchwheel channel=0 pitch=6555 time=26\n",
      "pitchwheel channel=0 pitch=6555 time=0\n",
      "pitchwheel channel=0 pitch=6369 time=25\n",
      "pitchwheel channel=0 pitch=6369 time=0\n",
      "pitchwheel channel=0 pitch=6100 time=26\n",
      "pitchwheel channel=0 pitch=6100 time=0\n",
      "pitchwheel channel=0 pitch=5790 time=27\n",
      "pitchwheel channel=0 pitch=5790 time=0\n",
      "pitchwheel channel=0 pitch=5356 time=26\n",
      "pitchwheel channel=0 pitch=5356 time=0\n",
      "pitchwheel channel=0 pitch=4880 time=24\n",
      "pitchwheel channel=0 pitch=4880 time=0\n",
      "pitchwheel channel=0 pitch=4363 time=26\n",
      "pitchwheel channel=0 pitch=4363 time=0\n",
      "pitchwheel channel=0 pitch=3949 time=25\n",
      "pitchwheel channel=0 pitch=3949 time=0\n",
      "pitchwheel channel=0 pitch=3598 time=26\n",
      "pitchwheel channel=0 pitch=3598 time=0\n",
      "pitchwheel channel=0 pitch=3391 time=26\n",
      "pitchwheel channel=0 pitch=3391 time=0\n",
      "pitchwheel channel=0 pitch=3122 time=25\n",
      "pitchwheel channel=0 pitch=3122 time=0\n",
      "pitchwheel channel=0 pitch=2770 time=26\n",
      "pitchwheel channel=0 pitch=2770 time=0\n",
      "pitchwheel channel=0 pitch=2460 time=25\n",
      "pitchwheel channel=0 pitch=2460 time=0\n",
      "pitchwheel channel=0 pitch=2191 time=26\n",
      "pitchwheel channel=0 pitch=2191 time=0\n",
      "pitchwheel channel=0 pitch=1943 time=24\n",
      "pitchwheel channel=0 pitch=1943 time=0\n",
      "pitchwheel channel=0 pitch=1633 time=26\n",
      "pitchwheel channel=0 pitch=1633 time=0\n",
      "pitchwheel channel=0 pitch=1384 time=26\n",
      "pitchwheel channel=0 pitch=1384 time=0\n",
      "pitchwheel channel=0 pitch=1198 time=26\n",
      "pitchwheel channel=0 pitch=1198 time=0\n",
      "pitchwheel channel=0 pitch=1095 time=25\n",
      "pitchwheel channel=0 pitch=1095 time=0\n",
      "pitchwheel channel=0 pitch=929 time=26\n",
      "pitchwheel channel=0 pitch=929 time=0\n",
      "pitchwheel channel=0 pitch=681 time=26\n",
      "pitchwheel channel=0 pitch=681 time=0\n",
      "pitchwheel channel=0 pitch=392 time=25\n",
      "pitchwheel channel=0 pitch=392 time=0\n",
      "pitchwheel channel=0 pitch=0 time=26\n",
      "pitchwheel channel=0 pitch=0 time=0\n",
      "pitchwheel channel=0 pitch=123 time=434\n",
      "pitchwheel channel=0 pitch=123 time=0\n",
      "pitchwheel channel=0 pitch=743 time=26\n",
      "pitchwheel channel=0 pitch=743 time=0\n",
      "pitchwheel channel=0 pitch=1467 time=25\n",
      "pitchwheel channel=0 pitch=1467 time=0\n",
      "note_on channel=0 note=64 velocity=0 time=11\n",
      "note_on channel=0 note=64 velocity=0 time=0\n",
      "pitchwheel channel=0 pitch=2150 time=16\n",
      "pitchwheel channel=0 pitch=2150 time=0\n",
      "pitchwheel channel=0 pitch=2894 time=26\n",
      "pitchwheel channel=0 pitch=2894 time=0\n",
      "pitchwheel channel=0 pitch=3536 time=26\n",
      "pitchwheel channel=0 pitch=3536 time=0\n",
      "pitchwheel channel=0 pitch=4011 time=26\n",
      "pitchwheel channel=0 pitch=4011 time=0\n",
      "pitchwheel channel=0 pitch=4508 time=26\n",
      "pitchwheel channel=0 pitch=4508 time=0\n",
      "pitchwheel channel=0 pitch=4901 time=25\n",
      "pitchwheel channel=0 pitch=4901 time=0\n",
      "pitchwheel channel=0 pitch=5252 time=26\n",
      "pitchwheel channel=0 pitch=5252 time=0\n",
      "pitchwheel channel=0 pitch=5480 time=26\n",
      "pitchwheel channel=0 pitch=5480 time=0\n",
      "pitchwheel channel=0 pitch=5625 time=25\n",
      "pitchwheel channel=0 pitch=5625 time=0\n",
      "pitchwheel channel=0 pitch=5707 time=24\n",
      "pitchwheel channel=0 pitch=5707 time=0\n",
      "note_on channel=0 note=64 velocity=74 time=10\n",
      "note_on channel=0 note=64 velocity=74 time=0\n",
      "pitchwheel channel=0 pitch=5625 time=119\n",
      "pitchwheel channel=0 pitch=5625 time=0\n",
      "pitchwheel channel=0 pitch=5273 time=24\n",
      "pitchwheel channel=0 pitch=5273 time=0\n",
      "pitchwheel channel=0 pitch=4673 time=25\n",
      "pitchwheel channel=0 pitch=4673 time=0\n",
      "pitchwheel channel=0 pitch=3763 time=26\n",
      "pitchwheel channel=0 pitch=3763 time=0\n",
      "pitchwheel channel=0 pitch=2625 time=26\n",
      "pitchwheel channel=0 pitch=2625 time=0\n",
      "pitchwheel channel=0 pitch=1839 time=25\n",
      "pitchwheel channel=0 pitch=1839 time=0\n",
      "pitchwheel channel=0 pitch=1281 time=26\n",
      "pitchwheel channel=0 pitch=1281 time=0\n",
      "pitchwheel channel=0 pitch=1074 time=26\n",
      "pitchwheel channel=0 pitch=1074 time=0\n",
      "pitchwheel channel=0 pitch=991 time=25\n",
      "pitchwheel channel=0 pitch=991 time=0\n",
      "pitchwheel channel=0 pitch=743 time=52\n",
      "pitchwheel channel=0 pitch=743 time=0\n",
      "pitchwheel channel=0 pitch=598 time=25\n",
      "pitchwheel channel=0 pitch=598 time=0\n",
      "pitchwheel channel=0 pitch=329 time=26\n",
      "pitchwheel channel=0 pitch=329 time=0\n",
      "pitchwheel channel=0 pitch=123 time=25\n",
      "pitchwheel channel=0 pitch=123 time=0\n",
      "pitchwheel channel=0 pitch=0 time=26\n",
      "pitchwheel channel=0 pitch=0 time=0\n",
      "pitchwheel channel=0 pitch=247 time=769\n",
      "pitchwheel channel=0 pitch=247 time=0\n",
      "pitchwheel channel=0 pitch=495 time=27\n",
      "pitchwheel channel=0 pitch=495 time=0\n",
      "pitchwheel channel=0 pitch=702 time=26\n",
      "pitchwheel channel=0 pitch=702 time=0\n",
      "pitchwheel channel=0 pitch=888 time=24\n",
      "pitchwheel channel=0 pitch=888 time=0\n",
      "pitchwheel channel=0 pitch=1115 time=52\n",
      "pitchwheel channel=0 pitch=1115 time=0\n",
      "pitchwheel channel=0 pitch=1550 time=25\n",
      "pitchwheel channel=0 pitch=1550 time=0\n",
      "pitchwheel channel=0 pitch=2026 time=26\n",
      "pitchwheel channel=0 pitch=2026 time=0\n",
      "pitchwheel channel=0 pitch=2481 time=25\n",
      "pitchwheel channel=0 pitch=2481 time=0\n",
      "pitchwheel channel=0 pitch=2812 time=26\n",
      "pitchwheel channel=0 pitch=2812 time=0\n",
      "pitchwheel channel=0 pitch=3101 time=24\n",
      "pitchwheel channel=0 pitch=3101 time=0\n",
      "pitchwheel channel=0 pitch=3205 time=26\n",
      "pitchwheel channel=0 pitch=3205 time=0\n",
      "pitchwheel channel=0 pitch=3308 time=25\n",
      "pitchwheel channel=0 pitch=3308 time=0\n",
      "pitchwheel channel=0 pitch=3515 time=26\n",
      "pitchwheel channel=0 pitch=3515 time=0\n",
      "pitchwheel channel=0 pitch=3846 time=25\n",
      "pitchwheel channel=0 pitch=3846 time=0\n",
      "pitchwheel channel=0 pitch=4446 time=26\n",
      "pitchwheel channel=0 pitch=4446 time=0\n",
      "pitchwheel channel=0 pitch=4921 time=26\n",
      "pitchwheel channel=0 pitch=4921 time=0\n",
      "pitchwheel channel=0 pitch=5376 time=25\n",
      "pitchwheel channel=0 pitch=5376 time=0\n",
      "pitchwheel channel=0 pitch=5769 time=26\n",
      "pitchwheel channel=0 pitch=5769 time=0\n",
      "pitchwheel channel=0 pitch=5976 time=25\n",
      "pitchwheel channel=0 pitch=5976 time=0\n",
      "pitchwheel channel=0 pitch=6204 time=26\n",
      "pitchwheel channel=0 pitch=6204 time=0\n",
      "pitchwheel channel=0 pitch=6287 time=26\n",
      "pitchwheel channel=0 pitch=6287 time=0\n",
      "pitchwheel channel=0 pitch=6452 time=51\n",
      "pitchwheel channel=0 pitch=6452 time=0\n",
      "pitchwheel channel=0 pitch=6597 time=26\n",
      "pitchwheel channel=0 pitch=6597 time=0\n",
      "pitchwheel channel=0 pitch=6804 time=26\n",
      "pitchwheel channel=0 pitch=6804 time=0\n",
      "pitchwheel channel=0 pitch=7031 time=25\n",
      "pitchwheel channel=0 pitch=7031 time=0\n",
      "pitchwheel channel=0 pitch=7176 time=26\n",
      "pitchwheel channel=0 pitch=7176 time=0\n",
      "pitchwheel channel=0 pitch=7279 time=24\n",
      "pitchwheel channel=0 pitch=7279 time=0\n",
      "pitchwheel channel=0 pitch=7403 time=51\n",
      "pitchwheel channel=0 pitch=7403 time=0\n",
      "pitchwheel channel=0 pitch=7590 time=26\n",
      "pitchwheel channel=0 pitch=7590 time=0\n",
      "pitchwheel channel=0 pitch=7817 time=25\n",
      "pitchwheel channel=0 pitch=7817 time=0\n",
      "pitchwheel channel=0 pitch=8045 time=28\n",
      "pitchwheel channel=0 pitch=8045 time=0\n",
      "pitchwheel channel=0 pitch=8191 time=26\n",
      "pitchwheel channel=0 pitch=8191 time=0\n",
      "pitchwheel channel=0 pitch=7383 time=2916\n",
      "pitchwheel channel=0 pitch=7383 time=0\n",
      "pitchwheel channel=0 pitch=6411 time=26\n",
      "pitchwheel channel=0 pitch=6411 time=0\n",
      "pitchwheel channel=0 pitch=5294 time=25\n",
      "pitchwheel channel=0 pitch=5294 time=0\n",
      "pitchwheel channel=0 pitch=4301 time=26\n",
      "pitchwheel channel=0 pitch=4301 time=0\n",
      "pitchwheel channel=0 pitch=3391 time=26\n",
      "pitchwheel channel=0 pitch=3391 time=0\n",
      "pitchwheel channel=0 pitch=2522 time=25\n",
      "pitchwheel channel=0 pitch=2522 time=0\n",
      "note_on channel=0 note=64 velocity=0 time=11\n",
      "note_on channel=0 note=64 velocity=0 time=0\n",
      "pitchwheel channel=0 pitch=1881 time=15\n",
      "pitchwheel channel=0 pitch=1881 time=0\n",
      "pitchwheel channel=0 pitch=1260 time=27\n",
      "pitchwheel channel=0 pitch=1260 time=0\n",
      "pitchwheel channel=0 pitch=681 time=26\n",
      "pitchwheel channel=0 pitch=681 time=0\n",
      "pitchwheel channel=0 pitch=185 time=25\n",
      "pitchwheel channel=0 pitch=185 time=0\n",
      "pitchwheel channel=0 pitch=0 time=27\n",
      "pitchwheel channel=0 pitch=0 time=0\n",
      "note_on channel=0 note=64 velocity=66 time=172\n",
      "note_on channel=0 note=64 velocity=66 time=0\n",
      "pitchwheel channel=0 pitch=412 time=391\n",
      "pitchwheel channel=0 pitch=412 time=0\n",
      "pitchwheel channel=0 pitch=1240 time=25\n",
      "pitchwheel channel=0 pitch=1240 time=0\n",
      "pitchwheel channel=0 pitch=2026 time=26\n",
      "pitchwheel channel=0 pitch=2026 time=0\n",
      "pitchwheel channel=0 pitch=2667 time=25\n",
      "pitchwheel channel=0 pitch=2667 time=0\n",
      "pitchwheel channel=0 pitch=3370 time=27\n",
      "pitchwheel channel=0 pitch=3370 time=0\n",
      "pitchwheel channel=0 pitch=3763 time=26\n",
      "pitchwheel channel=0 pitch=3763 time=0\n",
      "pitchwheel channel=0 pitch=4280 time=25\n",
      "pitchwheel channel=0 pitch=4280 time=0\n",
      "pitchwheel channel=0 pitch=4652 time=26\n",
      "pitchwheel channel=0 pitch=4652 time=0\n",
      "pitchwheel channel=0 pitch=5128 time=25\n",
      "pitchwheel channel=0 pitch=5128 time=0\n",
      "pitchwheel channel=0 pitch=5666 time=24\n",
      "pitchwheel channel=0 pitch=5666 time=0\n",
      "pitchwheel channel=0 pitch=6204 time=28\n",
      "pitchwheel channel=0 pitch=6204 time=0\n",
      "pitchwheel channel=0 pitch=6617 time=24\n",
      "pitchwheel channel=0 pitch=6617 time=0\n",
      "pitchwheel channel=0 pitch=7073 time=25\n",
      "pitchwheel channel=0 pitch=7073 time=0\n",
      "pitchwheel channel=0 pitch=7321 time=26\n",
      "pitchwheel channel=0 pitch=7321 time=0\n",
      "pitchwheel channel=0 pitch=7569 time=25\n",
      "pitchwheel channel=0 pitch=7569 time=0\n",
      "pitchwheel channel=0 pitch=7796 time=26\n",
      "pitchwheel channel=0 pitch=7796 time=0\n",
      "pitchwheel channel=0 pitch=8065 time=26\n",
      "pitchwheel channel=0 pitch=8065 time=0\n",
      "pitchwheel channel=0 pitch=8191 time=27\n",
      "pitchwheel channel=0 pitch=8191 time=0\n",
      "note_on channel=0 note=64 velocity=0 time=3246\n",
      "note_on channel=0 note=64 velocity=0 time=0\n",
      "pitchwheel channel=0 pitch=7962 time=28\n",
      "pitchwheel channel=0 pitch=7962 time=0\n",
      "pitchwheel channel=0 pitch=7176 time=25\n",
      "pitchwheel channel=0 pitch=7176 time=0\n",
      "pitchwheel channel=0 pitch=6535 time=26\n",
      "pitchwheel channel=0 pitch=6535 time=0\n",
      "pitchwheel channel=0 pitch=5997 time=26\n",
      "pitchwheel channel=0 pitch=5997 time=0\n",
      "pitchwheel channel=0 pitch=5604 time=25\n",
      "pitchwheel channel=0 pitch=5604 time=0\n",
      "pitchwheel channel=0 pitch=5149 time=26\n",
      "pitchwheel channel=0 pitch=5149 time=0\n",
      "pitchwheel channel=0 pitch=4673 time=26\n",
      "pitchwheel channel=0 pitch=4673 time=0\n",
      "pitchwheel channel=0 pitch=3887 time=25\n",
      "pitchwheel channel=0 pitch=3887 time=0\n",
      "pitchwheel channel=0 pitch=2274 time=26\n",
      "pitchwheel channel=0 pitch=2274 time=0\n",
      "pitchwheel channel=0 pitch=0 time=27\n",
      "pitchwheel channel=0 pitch=0 time=0\n",
      "note_on channel=0 note=64 velocity=80 time=451\n",
      "note_on channel=0 note=64 velocity=80 time=0\n",
      "note_on channel=0 note=66 velocity=84 time=489\n",
      "note_on channel=0 note=66 velocity=84 time=0\n",
      "note_on channel=0 note=64 velocity=0 time=152\n",
      "note_on channel=0 note=64 velocity=0 time=0\n",
      "note_on channel=0 note=70 velocity=72 time=602\n",
      "note_on channel=0 note=70 velocity=72 time=0\n",
      "note_on channel=0 note=66 velocity=0 time=146\n",
      "note_on channel=0 note=66 velocity=0 time=0\n",
      "note_on channel=0 note=70 velocity=0 time=1974\n",
      "note_on channel=0 note=70 velocity=0 time=0\n",
      "note_on channel=0 note=70 velocity=72 time=218\n",
      "note_on channel=0 note=70 velocity=72 time=0\n",
      "note_on channel=0 note=68 velocity=61 time=3705\n",
      "note_on channel=0 note=68 velocity=61 time=0\n",
      "note_on channel=0 note=70 velocity=0 time=91\n",
      "note_on channel=0 note=70 velocity=0 time=0\n",
      "note_on channel=0 note=68 velocity=0 time=229\n",
      "note_on channel=0 note=68 velocity=0 time=0\n",
      "note_on channel=0 note=70 velocity=78 time=186\n",
      "note_on channel=0 note=70 velocity=78 time=0\n",
      "note_on channel=0 note=70 velocity=0 time=4577\n",
      "note_on channel=0 note=70 velocity=0 time=0\n",
      "pitchwheel channel=0 pitch=640 time=465\n",
      "pitchwheel channel=0 pitch=640 time=0\n",
      "pitchwheel channel=0 pitch=1612 time=25\n",
      "pitchwheel channel=0 pitch=1612 time=0\n",
      "pitchwheel channel=0 pitch=2481 time=26\n",
      "pitchwheel channel=0 pitch=2481 time=0\n",
      "pitchwheel channel=0 pitch=3515 time=26\n",
      "pitchwheel channel=0 pitch=3515 time=0\n",
      "pitchwheel channel=0 pitch=4466 time=25\n",
      "pitchwheel channel=0 pitch=4466 time=0\n",
      "pitchwheel channel=0 pitch=5501 time=26\n",
      "pitchwheel channel=0 pitch=5501 time=0\n",
      "pitchwheel channel=0 pitch=6493 time=25\n",
      "pitchwheel channel=0 pitch=6493 time=0\n",
      "pitchwheel channel=0 pitch=7507 time=26\n",
      "pitchwheel channel=0 pitch=7507 time=0\n",
      "note_on channel=0 note=71 velocity=50 time=29\n",
      "note_on channel=0 note=71 velocity=50 time=0\n",
      "pitchwheel channel=0 pitch=8191 time=1\n",
      "pitchwheel channel=0 pitch=8191 time=0\n",
      "pitchwheel channel=0 pitch=7507 time=278\n",
      "pitchwheel channel=0 pitch=7507 time=0\n",
      "pitchwheel channel=0 pitch=6369 time=24\n",
      "pitchwheel channel=0 pitch=6369 time=0\n",
      "pitchwheel channel=0 pitch=5314 time=27\n",
      "pitchwheel channel=0 pitch=5314 time=0\n",
      "pitchwheel channel=0 pitch=4590 time=24\n",
      "pitchwheel channel=0 pitch=4590 time=0\n",
      "pitchwheel channel=0 pitch=4073 time=26\n",
      "pitchwheel channel=0 pitch=4073 time=0\n",
      "pitchwheel channel=0 pitch=3742 time=26\n",
      "pitchwheel channel=0 pitch=3742 time=0\n",
      "pitchwheel channel=0 pitch=3660 time=25\n",
      "pitchwheel channel=0 pitch=3660 time=0\n",
      "pitchwheel channel=0 pitch=3556 time=51\n",
      "pitchwheel channel=0 pitch=3556 time=0\n",
      "pitchwheel channel=0 pitch=3411 time=28\n",
      "pitchwheel channel=0 pitch=3411 time=0\n",
      "pitchwheel channel=0 pitch=3080 time=25\n",
      "pitchwheel channel=0 pitch=3080 time=0\n",
      "pitchwheel channel=0 pitch=2667 time=28\n",
      "pitchwheel channel=0 pitch=2667 time=0\n",
      "pitchwheel channel=0 pitch=2439 time=25\n",
      "pitchwheel channel=0 pitch=2439 time=0\n",
      "pitchwheel channel=0 pitch=2191 time=26\n",
      "pitchwheel channel=0 pitch=2191 time=0\n",
      "pitchwheel channel=0 pitch=2026 time=25\n",
      "pitchwheel channel=0 pitch=2026 time=0\n",
      "pitchwheel channel=0 pitch=1798 time=24\n",
      "pitchwheel channel=0 pitch=1798 time=0\n",
      "pitchwheel channel=0 pitch=1508 time=26\n",
      "pitchwheel channel=0 pitch=1508 time=0\n",
      "pitchwheel channel=0 pitch=1260 time=25\n",
      "pitchwheel channel=0 pitch=1260 time=0\n",
      "pitchwheel channel=0 pitch=971 time=26\n",
      "pitchwheel channel=0 pitch=971 time=0\n",
      "pitchwheel channel=0 pitch=536 time=25\n",
      "pitchwheel channel=0 pitch=536 time=0\n",
      "pitchwheel channel=0 pitch=309 time=25\n",
      "pitchwheel channel=0 pitch=309 time=0\n",
      "pitchwheel channel=0 pitch=-1 time=26\n",
      "pitchwheel channel=0 pitch=-1 time=0\n",
      "pitchwheel channel=0 pitch=0 time=25\n",
      "pitchwheel channel=0 pitch=0 time=0\n",
      "pitchwheel channel=0 pitch=40 time=332\n",
      "pitchwheel channel=0 pitch=40 time=0\n",
      "pitchwheel channel=0 pitch=950 time=26\n",
      "pitchwheel channel=0 pitch=950 time=0\n",
      "pitchwheel channel=0 pitch=1901 time=26\n",
      "pitchwheel channel=0 pitch=1901 time=0\n",
      "note_on channel=0 note=71 velocity=0 time=16\n",
      "note_on channel=0 note=71 velocity=0 time=0\n",
      "pitchwheel channel=0 pitch=2563 time=8\n",
      "pitchwheel channel=0 pitch=2563 time=0\n",
      "pitchwheel channel=0 pitch=3370 time=27\n",
      "pitchwheel channel=0 pitch=3370 time=0\n",
      "pitchwheel channel=0 pitch=4053 time=26\n",
      "pitchwheel channel=0 pitch=4053 time=0\n",
      "pitchwheel channel=0 pitch=4632 time=25\n",
      "pitchwheel channel=0 pitch=4632 time=0\n",
      "pitchwheel channel=0 pitch=4983 time=26\n",
      "pitchwheel channel=0 pitch=4983 time=0\n",
      "pitchwheel channel=0 pitch=5128 time=25\n",
      "pitchwheel channel=0 pitch=5128 time=0\n",
      "note_on channel=0 note=71 velocity=82 time=39\n",
      "note_on channel=0 note=71 velocity=82 time=0\n",
      "pitchwheel channel=0 pitch=4921 time=38\n",
      "pitchwheel channel=0 pitch=4921 time=0\n",
      "pitchwheel channel=0 pitch=4259 time=26\n",
      "pitchwheel channel=0 pitch=4259 time=0\n",
      "pitchwheel channel=0 pitch=3143 time=25\n",
      "pitchwheel channel=0 pitch=3143 time=0\n",
      "pitchwheel channel=0 pitch=1881 time=28\n",
      "pitchwheel channel=0 pitch=1881 time=0\n",
      "pitchwheel channel=0 pitch=888 time=27\n",
      "pitchwheel channel=0 pitch=888 time=0\n",
      "pitchwheel channel=0 pitch=205 time=26\n",
      "pitchwheel channel=0 pitch=205 time=0\n",
      "pitchwheel channel=0 pitch=0 time=24\n",
      "pitchwheel channel=0 pitch=0 time=0\n",
      "note_on channel=0 note=70 velocity=62 time=2294\n",
      "note_on channel=0 note=70 velocity=62 time=0\n",
      "note_on channel=0 note=71 velocity=0 time=173\n",
      "note_on channel=0 note=71 velocity=0 time=0\n",
      "note_on channel=0 note=70 velocity=0 time=256\n",
      "note_on channel=0 note=70 velocity=0 time=0\n",
      "note_on channel=0 note=70 velocity=76 time=272\n",
      "note_on channel=0 note=70 velocity=76 time=0\n",
      "note_on channel=0 note=68 velocity=32 time=2501\n",
      "note_on channel=0 note=68 velocity=32 time=0\n",
      "note_on channel=0 note=66 velocity=64 time=198\n",
      "note_on channel=0 note=66 velocity=64 time=0\n",
      "note_on channel=0 note=70 velocity=0 time=16\n",
      "note_on channel=0 note=70 velocity=0 time=0\n",
      "note_on channel=0 note=68 velocity=0 time=260\n",
      "note_on channel=0 note=68 velocity=0 time=0\n",
      "note_on channel=0 note=66 velocity=0 time=3887\n",
      "note_on channel=0 note=66 velocity=0 time=0\n",
      "note_on channel=0 note=66 velocity=70 time=297\n",
      "note_on channel=0 note=66 velocity=70 time=0\n",
      "note_on channel=0 note=70 velocity=78 time=512\n",
      "note_on channel=0 note=70 velocity=78 time=0\n",
      "note_on channel=0 note=66 velocity=0 time=84\n",
      "note_on channel=0 note=66 velocity=0 time=0\n",
      "note_on channel=0 note=71 velocity=76 time=427\n",
      "note_on channel=0 note=71 velocity=76 time=0\n",
      "note_on channel=0 note=70 velocity=0 time=95\n",
      "note_on channel=0 note=70 velocity=0 time=0\n",
      "note_on channel=0 note=73 velocity=72 time=380\n",
      "note_on channel=0 note=73 velocity=72 time=0\n",
      "note_on channel=0 note=71 velocity=0 time=96\n",
      "note_on channel=0 note=71 velocity=0 time=0\n",
      "note_on channel=0 note=73 velocity=0 time=385\n",
      "note_on channel=0 note=73 velocity=0 time=0\n",
      "note_on channel=0 note=71 velocity=82 time=162\n",
      "note_on channel=0 note=71 velocity=82 time=0\n",
      "note_on channel=0 note=70 velocity=80 time=139\n",
      "note_on channel=0 note=70 velocity=80 time=0\n",
      "note_on channel=0 note=71 velocity=0 time=72\n",
      "note_on channel=0 note=71 velocity=0 time=0\n",
      "note_on channel=0 note=71 velocity=68 time=190\n",
      "note_on channel=0 note=71 velocity=68 time=0\n",
      "note_on channel=0 note=70 velocity=0 time=78\n",
      "note_on channel=0 note=70 velocity=0 time=0\n",
      "note_on channel=0 note=73 velocity=96 time=99\n",
      "note_on channel=0 note=73 velocity=96 time=0\n",
      "note_on channel=0 note=71 velocity=0 time=61\n",
      "note_on channel=0 note=71 velocity=0 time=0\n",
      "note_on channel=0 note=71 velocity=76 time=179\n",
      "note_on channel=0 note=71 velocity=76 time=0\n",
      "note_on channel=0 note=73 velocity=0 time=85\n",
      "note_on channel=0 note=73 velocity=0 time=0\n",
      "note_on channel=0 note=70 velocity=74 time=69\n",
      "note_on channel=0 note=70 velocity=74 time=0\n",
      "note_on channel=0 note=71 velocity=0 time=65\n",
      "note_on channel=0 note=71 velocity=0 time=0\n",
      "note_on channel=0 note=71 velocity=66 time=172\n",
      "note_on channel=0 note=71 velocity=66 time=0\n",
      "note_on channel=0 note=70 velocity=0 time=43\n",
      "note_on channel=0 note=70 velocity=0 time=0\n",
      "note_on channel=0 note=73 velocity=70 time=760\n",
      "note_on channel=0 note=73 velocity=70 time=0\n",
      "note_on channel=0 note=71 velocity=0 time=54\n",
      "note_on channel=0 note=71 velocity=0 time=0\n",
      "note_on channel=0 note=70 velocity=62 time=93\n",
      "note_on channel=0 note=70 velocity=62 time=0\n",
      "note_on channel=0 note=73 velocity=0 time=101\n",
      "note_on channel=0 note=73 velocity=0 time=0\n",
      "note_on channel=0 note=68 velocity=54 time=1833\n",
      "note_on channel=0 note=68 velocity=54 time=0\n",
      "note_on channel=0 note=66 velocity=66 time=64\n",
      "note_on channel=0 note=66 velocity=66 time=0\n",
      "note_on channel=0 note=70 velocity=0 time=220\n",
      "note_on channel=0 note=70 velocity=0 time=0\n",
      "note_on channel=0 note=68 velocity=0 time=270\n",
      "note_on channel=0 note=68 velocity=0 time=0\n",
      "note_on channel=0 note=66 velocity=0 time=2491\n",
      "note_on channel=0 note=66 velocity=0 time=0\n",
      "note_on channel=0 note=66 velocity=80 time=189\n",
      "note_on channel=0 note=66 velocity=80 time=0\n",
      "note_on channel=0 note=68 velocity=62 time=928\n",
      "note_on channel=0 note=68 velocity=62 time=0\n",
      "note_on channel=0 note=66 velocity=0 time=126\n",
      "note_on channel=0 note=66 velocity=0 time=0\n",
      "pitchwheel channel=0 pitch=371 time=853\n",
      "pitchwheel channel=0 pitch=371 time=0\n",
      "pitchwheel channel=0 pitch=536 time=24\n",
      "pitchwheel channel=0 pitch=536 time=0\n",
      "pitchwheel channel=0 pitch=950 time=26\n",
      "pitchwheel channel=0 pitch=950 time=0\n",
      "pitchwheel channel=0 pitch=1178 time=25\n",
      "pitchwheel channel=0 pitch=1178 time=0\n",
      "pitchwheel channel=0 pitch=1529 time=26\n",
      "pitchwheel channel=0 pitch=1529 time=0\n",
      "pitchwheel channel=0 pitch=1984 time=25\n",
      "pitchwheel channel=0 pitch=1984 time=0\n",
      "pitchwheel channel=0 pitch=2398 time=26\n",
      "pitchwheel channel=0 pitch=2398 time=0\n",
      "pitchwheel channel=0 pitch=2936 time=26\n",
      "pitchwheel channel=0 pitch=2936 time=0\n",
      "pitchwheel channel=0 pitch=3494 time=25\n",
      "pitchwheel channel=0 pitch=3494 time=0\n",
      "pitchwheel channel=0 pitch=3970 time=25\n",
      "pitchwheel channel=0 pitch=3970 time=0\n",
      "pitchwheel channel=0 pitch=4425 time=25\n",
      "pitchwheel channel=0 pitch=4425 time=0\n",
      "pitchwheel channel=0 pitch=4818 time=26\n",
      "pitchwheel channel=0 pitch=4818 time=0\n",
      "pitchwheel channel=0 pitch=5211 time=26\n",
      "pitchwheel channel=0 pitch=5211 time=0\n",
      "pitchwheel channel=0 pitch=5666 time=25\n",
      "pitchwheel channel=0 pitch=5666 time=0\n",
      "pitchwheel channel=0 pitch=6080 time=26\n",
      "pitchwheel channel=0 pitch=6080 time=0\n",
      "pitchwheel channel=0 pitch=6473 time=27\n",
      "pitchwheel channel=0 pitch=6473 time=0\n",
      "pitchwheel channel=0 pitch=6783 time=25\n",
      "pitchwheel channel=0 pitch=6783 time=0\n",
      "pitchwheel channel=0 pitch=7093 time=26\n",
      "pitchwheel channel=0 pitch=7093 time=0\n",
      "pitchwheel channel=0 pitch=7321 time=24\n",
      "pitchwheel channel=0 pitch=7321 time=0\n",
      "pitchwheel channel=0 pitch=7610 time=27\n",
      "pitchwheel channel=0 pitch=7610 time=0\n",
      "pitchwheel channel=0 pitch=7879 time=25\n",
      "pitchwheel channel=0 pitch=7879 time=0\n",
      "pitchwheel channel=0 pitch=8190 time=26\n",
      "pitchwheel channel=0 pitch=8190 time=0\n",
      "note_on channel=0 note=70 velocity=27 time=13\n",
      "note_on channel=0 note=70 velocity=27 time=0\n",
      "pitchwheel channel=0 pitch=8191 time=14\n",
      "pitchwheel channel=0 pitch=8191 time=0\n",
      "note_on channel=0 note=70 velocity=0 time=103\n",
      "note_on channel=0 note=70 velocity=0 time=0\n",
      "pitchwheel channel=0 pitch=7383 time=791\n",
      "pitchwheel channel=0 pitch=7383 time=0\n",
      "pitchwheel channel=0 pitch=6266 time=27\n",
      "pitchwheel channel=0 pitch=6266 time=0\n",
      "pitchwheel channel=0 pitch=4797 time=26\n",
      "pitchwheel channel=0 pitch=4797 time=0\n",
      "pitchwheel channel=0 pitch=3515 time=26\n",
      "pitchwheel channel=0 pitch=3515 time=0\n",
      "note_on channel=0 note=68 velocity=0 time=14\n",
      "note_on channel=0 note=68 velocity=0 time=0\n",
      "pitchwheel channel=0 pitch=2501 time=10\n",
      "pitchwheel channel=0 pitch=2501 time=0\n",
      "pitchwheel channel=0 pitch=1964 time=25\n",
      "pitchwheel channel=0 pitch=1964 time=0\n",
      "pitchwheel channel=0 pitch=1529 time=27\n",
      "pitchwheel channel=0 pitch=1529 time=0\n",
      "pitchwheel channel=0 pitch=1219 time=24\n",
      "pitchwheel channel=0 pitch=1219 time=0\n",
      "pitchwheel channel=0 pitch=929 time=26\n",
      "pitchwheel channel=0 pitch=929 time=0\n",
      "pitchwheel channel=0 pitch=536 time=26\n",
      "pitchwheel channel=0 pitch=536 time=0\n",
      "pitchwheel channel=0 pitch=19 time=26\n",
      "pitchwheel channel=0 pitch=19 time=0\n",
      "pitchwheel channel=0 pitch=0 time=26\n",
      "pitchwheel channel=0 pitch=0 time=0\n",
      "note_on channel=0 note=66 velocity=90 time=109\n",
      "note_on channel=0 note=66 velocity=90 time=0\n",
      "note_on channel=0 note=64 velocity=37 time=455\n",
      "note_on channel=0 note=64 velocity=37 time=0\n",
      "note_on channel=0 note=66 velocity=0 time=750\n",
      "note_on channel=0 note=66 velocity=0 time=0\n",
      "note_on channel=0 note=64 velocity=0 time=2144\n",
      "note_on channel=0 note=64 velocity=0 time=0\n",
      "pitchwheel channel=0 pitch=536 time=175\n",
      "pitchwheel channel=0 pitch=536 time=0\n",
      "pitchwheel channel=0 pitch=1633 time=26\n",
      "pitchwheel channel=0 pitch=1633 time=0\n",
      "pitchwheel channel=0 pitch=2584 time=25\n",
      "pitchwheel channel=0 pitch=2584 time=0\n",
      "pitchwheel channel=0 pitch=3618 time=26\n",
      "pitchwheel channel=0 pitch=3618 time=0\n",
      "pitchwheel channel=0 pitch=4528 time=25\n",
      "pitchwheel channel=0 pitch=4528 time=0\n",
      "note_on channel=0 note=64 velocity=72 time=13\n",
      "note_on channel=0 note=64 velocity=72 time=0\n",
      "pitchwheel channel=0 pitch=5252 time=14\n",
      "pitchwheel channel=0 pitch=5252 time=0\n",
      "pitchwheel channel=0 pitch=5769 time=26\n",
      "pitchwheel channel=0 pitch=5769 time=0\n",
      "pitchwheel channel=0 pitch=6059 time=26\n",
      "pitchwheel channel=0 pitch=6059 time=0\n",
      "pitchwheel channel=0 pitch=6224 time=25\n",
      "pitchwheel channel=0 pitch=6224 time=0\n",
      "pitchwheel channel=0 pitch=6038 time=103\n",
      "pitchwheel channel=0 pitch=6038 time=0\n",
      "pitchwheel channel=0 pitch=5521 time=25\n",
      "pitchwheel channel=0 pitch=5521 time=0\n",
      "pitchwheel channel=0 pitch=4673 time=26\n",
      "pitchwheel channel=0 pitch=4673 time=0\n",
      "pitchwheel channel=0 pitch=3763 time=26\n",
      "pitchwheel channel=0 pitch=3763 time=0\n",
      "pitchwheel channel=0 pitch=2812 time=25\n",
      "pitchwheel channel=0 pitch=2812 time=0\n",
      "pitchwheel channel=0 pitch=2026 time=26\n",
      "pitchwheel channel=0 pitch=2026 time=0\n",
      "pitchwheel channel=0 pitch=1302 time=24\n",
      "pitchwheel channel=0 pitch=1302 time=0\n",
      "pitchwheel channel=0 pitch=785 time=26\n",
      "pitchwheel channel=0 pitch=785 time=0\n",
      "pitchwheel channel=0 pitch=433 time=25\n",
      "pitchwheel channel=0 pitch=433 time=0\n",
      "pitchwheel channel=0 pitch=205 time=26\n",
      "pitchwheel channel=0 pitch=205 time=0\n",
      "pitchwheel channel=0 pitch=61 time=26\n",
      "pitchwheel channel=0 pitch=61 time=0\n",
      "pitchwheel channel=0 pitch=0 time=25\n",
      "pitchwheel channel=0 pitch=0 time=0\n",
      "note_on channel=0 note=64 velocity=0 time=2191\n",
      "note_on channel=0 note=64 velocity=0 time=0\n",
      "pitchwheel channel=0 pitch=-555 time=215\n",
      "pitchwheel channel=0 pitch=-555 time=0\n",
      "pitchwheel channel=0 pitch=-1735 time=26\n",
      "pitchwheel channel=0 pitch=-1735 time=0\n",
      "pitchwheel channel=0 pitch=-2747 time=25\n",
      "pitchwheel channel=0 pitch=-2747 time=0\n",
      "pitchwheel channel=0 pitch=-3566 time=26\n",
      "pitchwheel channel=0 pitch=-3566 time=0\n",
      "pitchwheel channel=0 pitch=-4337 time=26\n",
      "pitchwheel channel=0 pitch=-4337 time=0\n",
      "note_on channel=0 note=61 velocity=59 time=25\n",
      "note_on channel=0 note=61 velocity=59 time=0\n",
      "pitchwheel channel=0 pitch=-5156 time=2\n",
      "pitchwheel channel=0 pitch=-5156 time=0\n",
      "pitchwheel channel=0 pitch=-5831 time=25\n",
      "pitchwheel channel=0 pitch=-5831 time=0\n",
      "pitchwheel channel=0 pitch=-6818 time=25\n",
      "pitchwheel channel=0 pitch=-6818 time=0\n",
      "pitchwheel channel=0 pitch=-7926 time=26\n",
      "pitchwheel channel=0 pitch=-7926 time=0\n",
      "pitchwheel channel=0 pitch=-8192 time=26\n",
      "pitchwheel channel=0 pitch=-8192 time=0\n",
      "pitchwheel channel=0 pitch=-8095 time=282\n",
      "pitchwheel channel=0 pitch=-8095 time=0\n",
      "pitchwheel channel=0 pitch=-6987 time=26\n",
      "pitchwheel channel=0 pitch=-6987 time=0\n",
      "note_on channel=0 note=63 velocity=62 time=25\n",
      "note_on channel=0 note=63 velocity=62 time=0\n",
      "pitchwheel channel=0 pitch=-5782 time=2\n",
      "pitchwheel channel=0 pitch=-5782 time=0\n",
      "pitchwheel channel=0 pitch=-4530 time=22\n",
      "pitchwheel channel=0 pitch=-4530 time=0\n",
      "pitchwheel channel=0 pitch=-3566 time=26\n",
      "pitchwheel channel=0 pitch=-3566 time=0\n",
      "pitchwheel channel=0 pitch=-2265 time=28\n",
      "pitchwheel channel=0 pitch=-2265 time=0\n",
      "pitchwheel channel=0 pitch=-1036 time=24\n",
      "pitchwheel channel=0 pitch=-1036 time=0\n",
      "pitchwheel channel=0 pitch=0 time=28\n",
      "pitchwheel channel=0 pitch=0 time=0\n",
      "note_on channel=0 note=61 velocity=0 time=339\n",
      "note_on channel=0 note=61 velocity=0 time=0\n",
      "note_on channel=0 note=63 velocity=0 time=5469\n",
      "note_on channel=0 note=63 velocity=0 time=0\n",
      "note_on channel=0 note=61 velocity=76 time=397\n",
      "note_on channel=0 note=61 velocity=76 time=0\n",
      "pitchwheel channel=0 pitch=-362 time=295\n",
      "pitchwheel channel=0 pitch=-362 time=0\n",
      "pitchwheel channel=0 pitch=-868 time=26\n",
      "pitchwheel channel=0 pitch=-868 time=0\n",
      "pitchwheel channel=0 pitch=-1157 time=26\n",
      "pitchwheel channel=0 pitch=-1157 time=0\n",
      "pitchwheel channel=0 pitch=-1615 time=25\n",
      "pitchwheel channel=0 pitch=-1615 time=0\n",
      "pitchwheel channel=0 pitch=-1904 time=26\n",
      "pitchwheel channel=0 pitch=-1904 time=0\n",
      "pitchwheel channel=0 pitch=-2410 time=24\n",
      "pitchwheel channel=0 pitch=-2410 time=0\n",
      "pitchwheel channel=0 pitch=-2867 time=25\n",
      "pitchwheel channel=0 pitch=-2867 time=0\n",
      "pitchwheel channel=0 pitch=-3229 time=26\n",
      "pitchwheel channel=0 pitch=-3229 time=0\n",
      "pitchwheel channel=0 pitch=-3494 time=26\n",
      "pitchwheel channel=0 pitch=-3494 time=0\n",
      "pitchwheel channel=0 pitch=-3614 time=25\n",
      "pitchwheel channel=0 pitch=-3614 time=0\n",
      "pitchwheel channel=0 pitch=-3831 time=26\n",
      "pitchwheel channel=0 pitch=-3831 time=0\n",
      "pitchwheel channel=0 pitch=-4000 time=25\n",
      "pitchwheel channel=0 pitch=-4000 time=0\n",
      "pitchwheel channel=0 pitch=-4120 time=24\n",
      "pitchwheel channel=0 pitch=-4120 time=0\n",
      "pitchwheel channel=0 pitch=-4313 time=28\n",
      "pitchwheel channel=0 pitch=-4313 time=0\n",
      "pitchwheel channel=0 pitch=-4578 time=25\n",
      "pitchwheel channel=0 pitch=-4578 time=0\n",
      "pitchwheel channel=0 pitch=-4843 time=24\n",
      "pitchwheel channel=0 pitch=-4843 time=0\n",
      "pitchwheel channel=0 pitch=-5060 time=28\n",
      "pitchwheel channel=0 pitch=-5060 time=0\n",
      "pitchwheel channel=0 pitch=-5204 time=24\n",
      "pitchwheel channel=0 pitch=-5204 time=0\n",
      "pitchwheel channel=0 pitch=-5349 time=25\n",
      "pitchwheel channel=0 pitch=-5349 time=0\n",
      "pitchwheel channel=0 pitch=-5493 time=28\n",
      "pitchwheel channel=0 pitch=-5493 time=0\n",
      "pitchwheel channel=0 pitch=-5614 time=25\n",
      "pitchwheel channel=0 pitch=-5614 time=0\n",
      "pitchwheel channel=0 pitch=-5758 time=26\n",
      "pitchwheel channel=0 pitch=-5758 time=0\n",
      "pitchwheel channel=0 pitch=-5879 time=25\n",
      "pitchwheel channel=0 pitch=-5879 time=0\n",
      "pitchwheel channel=0 pitch=-6071 time=26\n",
      "pitchwheel channel=0 pitch=-6071 time=0\n",
      "pitchwheel channel=0 pitch=-6312 time=51\n",
      "pitchwheel channel=0 pitch=-6312 time=0\n",
      "pitchwheel channel=0 pitch=-6433 time=25\n",
      "pitchwheel channel=0 pitch=-6433 time=0\n",
      "pitchwheel channel=0 pitch=-6650 time=26\n",
      "pitchwheel channel=0 pitch=-6650 time=0\n",
      "pitchwheel channel=0 pitch=-6891 time=24\n",
      "pitchwheel channel=0 pitch=-6891 time=0\n",
      "pitchwheel channel=0 pitch=-7107 time=27\n",
      "pitchwheel channel=0 pitch=-7107 time=0\n",
      "pitchwheel channel=0 pitch=-7445 time=24\n",
      "pitchwheel channel=0 pitch=-7445 time=0\n",
      "pitchwheel channel=0 pitch=-7661 time=27\n",
      "pitchwheel channel=0 pitch=-7661 time=0\n",
      "pitchwheel channel=0 pitch=-7926 time=24\n",
      "pitchwheel channel=0 pitch=-7926 time=0\n",
      "pitchwheel channel=0 pitch=-8047 time=28\n",
      "pitchwheel channel=0 pitch=-8047 time=0\n",
      "pitchwheel channel=0 pitch=-8192 time=25\n",
      "pitchwheel channel=0 pitch=-8192 time=0\n",
      "pitchwheel channel=0 pitch=-8047 time=258\n",
      "pitchwheel channel=0 pitch=-8047 time=0\n",
      "pitchwheel channel=0 pitch=-7782 time=25\n",
      "pitchwheel channel=0 pitch=-7782 time=0\n",
      "pitchwheel channel=0 pitch=-7083 time=25\n",
      "pitchwheel channel=0 pitch=-7083 time=0\n",
      "pitchwheel channel=0 pitch=-6144 time=26\n",
      "pitchwheel channel=0 pitch=-6144 time=0\n",
      "pitchwheel channel=0 pitch=-4867 time=26\n",
      "pitchwheel channel=0 pitch=-4867 time=0\n",
      "note_on channel=0 note=61 velocity=0 time=3\n",
      "note_on channel=0 note=61 velocity=0 time=0\n",
      "pitchwheel channel=0 pitch=-3373 time=22\n",
      "pitchwheel channel=0 pitch=-3373 time=0\n",
      "pitchwheel channel=0 pitch=-1759 time=26\n",
      "pitchwheel channel=0 pitch=-1759 time=0\n",
      "pitchwheel channel=0 pitch=-531 time=26\n",
      "pitchwheel channel=0 pitch=-531 time=0\n",
      "pitchwheel channel=0 pitch=0 time=26\n",
      "pitchwheel channel=0 pitch=0 time=0\n",
      "note_on channel=0 note=61 velocity=78 time=78\n",
      "note_on channel=0 note=61 velocity=78 time=0\n",
      "pitchwheel channel=0 pitch=-1012 time=152\n",
      "pitchwheel channel=0 pitch=-1012 time=0\n",
      "pitchwheel channel=0 pitch=-2289 time=26\n",
      "pitchwheel channel=0 pitch=-2289 time=0\n",
      "pitchwheel channel=0 pitch=-3205 time=24\n",
      "pitchwheel channel=0 pitch=-3205 time=0\n",
      "pitchwheel channel=0 pitch=-3807 time=26\n",
      "pitchwheel channel=0 pitch=-3807 time=0\n",
      "pitchwheel channel=0 pitch=-4120 time=25\n",
      "pitchwheel channel=0 pitch=-4120 time=0\n",
      "pitchwheel channel=0 pitch=-4506 time=26\n",
      "pitchwheel channel=0 pitch=-4506 time=0\n",
      "pitchwheel channel=0 pitch=-4915 time=25\n",
      "pitchwheel channel=0 pitch=-4915 time=0\n",
      "pitchwheel channel=0 pitch=-5276 time=26\n",
      "pitchwheel channel=0 pitch=-5276 time=0\n",
      "pitchwheel channel=0 pitch=-5662 time=25\n",
      "pitchwheel channel=0 pitch=-5662 time=0\n",
      "pitchwheel channel=0 pitch=-6047 time=26\n",
      "pitchwheel channel=0 pitch=-6047 time=0\n",
      "pitchwheel channel=0 pitch=-6433 time=25\n",
      "pitchwheel channel=0 pitch=-6433 time=0\n",
      "pitchwheel channel=0 pitch=-6674 time=26\n",
      "pitchwheel channel=0 pitch=-6674 time=0\n",
      "pitchwheel channel=0 pitch=-6818 time=26\n",
      "pitchwheel channel=0 pitch=-6818 time=0\n",
      "pitchwheel channel=0 pitch=-6963 time=51\n",
      "pitchwheel channel=0 pitch=-6963 time=0\n",
      "pitchwheel channel=0 pitch=-7059 time=25\n",
      "pitchwheel channel=0 pitch=-7059 time=0\n",
      "pitchwheel channel=0 pitch=-7445 time=26\n",
      "pitchwheel channel=0 pitch=-7445 time=0\n",
      "pitchwheel channel=0 pitch=-7541 time=26\n",
      "pitchwheel channel=0 pitch=-7541 time=0\n",
      "pitchwheel channel=0 pitch=-7806 time=25\n",
      "pitchwheel channel=0 pitch=-7806 time=0\n",
      "pitchwheel channel=0 pitch=-7902 time=26\n",
      "pitchwheel channel=0 pitch=-7902 time=0\n",
      "pitchwheel channel=0 pitch=-8119 time=25\n",
      "pitchwheel channel=0 pitch=-8119 time=0\n",
      "pitchwheel channel=0 pitch=-8192 time=26\n",
      "pitchwheel channel=0 pitch=-8192 time=0\n",
      "pitchwheel channel=0 pitch=-7902 time=666\n",
      "pitchwheel channel=0 pitch=-7902 time=0\n",
      "pitchwheel channel=0 pitch=-7252 time=26\n",
      "pitchwheel channel=0 pitch=-7252 time=0\n",
      "pitchwheel channel=0 pitch=-6794 time=26\n",
      "pitchwheel channel=0 pitch=-6794 time=0\n",
      "pitchwheel channel=0 pitch=-6409 time=25\n",
      "pitchwheel channel=0 pitch=-6409 time=0\n",
      "pitchwheel channel=0 pitch=-6144 time=26\n",
      "pitchwheel channel=0 pitch=-6144 time=0\n",
      "pitchwheel channel=0 pitch=-5782 time=26\n",
      "pitchwheel channel=0 pitch=-5782 time=0\n",
      "pitchwheel channel=0 pitch=-5421 time=25\n",
      "pitchwheel channel=0 pitch=-5421 time=0\n",
      "pitchwheel channel=0 pitch=-5132 time=26\n",
      "pitchwheel channel=0 pitch=-5132 time=0\n",
      "pitchwheel channel=0 pitch=-4891 time=24\n",
      "pitchwheel channel=0 pitch=-4891 time=0\n",
      "pitchwheel channel=0 pitch=-4433 time=27\n",
      "pitchwheel channel=0 pitch=-4433 time=0\n",
      "pitchwheel channel=0 pitch=-3903 time=26\n",
      "pitchwheel channel=0 pitch=-3903 time=0\n",
      "pitchwheel channel=0 pitch=-3518 time=25\n",
      "pitchwheel channel=0 pitch=-3518 time=0\n",
      "pitchwheel channel=0 pitch=-2940 time=26\n",
      "pitchwheel channel=0 pitch=-2940 time=0\n",
      "pitchwheel channel=0 pitch=-2506 time=25\n",
      "pitchwheel channel=0 pitch=-2506 time=0\n",
      "pitchwheel channel=0 pitch=-2121 time=26\n",
      "pitchwheel channel=0 pitch=-2121 time=0\n",
      "pitchwheel channel=0 pitch=-1687 time=26\n",
      "pitchwheel channel=0 pitch=-1687 time=0\n",
      "pitchwheel channel=0 pitch=-1229 time=25\n",
      "pitchwheel channel=0 pitch=-1229 time=0\n",
      "pitchwheel channel=0 pitch=-796 time=26\n",
      "pitchwheel channel=0 pitch=-796 time=0\n",
      "pitchwheel channel=0 pitch=-266 time=25\n",
      "pitchwheel channel=0 pitch=-266 time=0\n",
      "pitchwheel channel=0 pitch=0 time=27\n",
      "pitchwheel channel=0 pitch=0 time=0\n",
      "note_on channel=0 note=61 velocity=0 time=5892\n",
      "note_on channel=0 note=61 velocity=0 time=0\n",
      "note_on channel=0 note=61 velocity=78 time=486\n",
      "note_on channel=0 note=61 velocity=78 time=0\n",
      "pitchwheel channel=0 pitch=-892 time=73\n",
      "pitchwheel channel=0 pitch=-892 time=0\n",
      "pitchwheel channel=0 pitch=-2024 time=26\n",
      "pitchwheel channel=0 pitch=-2024 time=0\n",
      "pitchwheel channel=0 pitch=-3181 time=25\n",
      "pitchwheel channel=0 pitch=-3181 time=0\n",
      "pitchwheel channel=0 pitch=-4120 time=24\n",
      "pitchwheel channel=0 pitch=-4120 time=0\n",
      "pitchwheel channel=0 pitch=-5011 time=24\n",
      "pitchwheel channel=0 pitch=-5011 time=0\n",
      "pitchwheel channel=0 pitch=-5590 time=26\n",
      "pitchwheel channel=0 pitch=-5590 time=0\n",
      "pitchwheel channel=0 pitch=-6192 time=26\n",
      "pitchwheel channel=0 pitch=-6192 time=0\n",
      "pitchwheel channel=0 pitch=-6722 time=25\n",
      "pitchwheel channel=0 pitch=-6722 time=0\n",
      "pitchwheel channel=0 pitch=-7131 time=26\n",
      "pitchwheel channel=0 pitch=-7131 time=0\n",
      "pitchwheel channel=0 pitch=-7493 time=27\n",
      "pitchwheel channel=0 pitch=-7493 time=0\n",
      "pitchwheel channel=0 pitch=-7878 time=25\n",
      "pitchwheel channel=0 pitch=-7878 time=0\n",
      "pitchwheel channel=0 pitch=-8023 time=26\n",
      "pitchwheel channel=0 pitch=-8023 time=0\n",
      "pitchwheel channel=0 pitch=-8119 time=27\n",
      "pitchwheel channel=0 pitch=-8119 time=0\n",
      "pitchwheel channel=0 pitch=-8192 time=26\n",
      "pitchwheel channel=0 pitch=-8192 time=0\n",
      "pitchwheel channel=0 pitch=-7637 time=486\n",
      "pitchwheel channel=0 pitch=-7637 time=0\n",
      "pitchwheel channel=0 pitch=-6553 time=26\n",
      "pitchwheel channel=0 pitch=-6553 time=0\n",
      "pitchwheel channel=0 pitch=-5517 time=25\n",
      "pitchwheel channel=0 pitch=-5517 time=0\n",
      "pitchwheel channel=0 pitch=-4265 time=26\n",
      "pitchwheel channel=0 pitch=-4265 time=0\n",
      "pitchwheel channel=0 pitch=-3156 time=25\n",
      "pitchwheel channel=0 pitch=-3156 time=0\n",
      "pitchwheel channel=0 pitch=-1831 time=26\n",
      "pitchwheel channel=0 pitch=-1831 time=0\n",
      "pitchwheel channel=0 pitch=-482 time=26\n",
      "pitchwheel channel=0 pitch=-482 time=0\n",
      "pitchwheel channel=0 pitch=0 time=25\n",
      "pitchwheel channel=0 pitch=0 time=0\n",
      "note_on channel=0 note=61 velocity=0 time=4027\n",
      "note_on channel=0 note=61 velocity=0 time=0\n",
      "pitchwheel channel=0 pitch=309 time=1449\n",
      "pitchwheel channel=0 pitch=309 time=0\n",
      "pitchwheel channel=0 pitch=1074 time=26\n",
      "pitchwheel channel=0 pitch=1074 time=0\n",
      "pitchwheel channel=0 pitch=1860 time=26\n",
      "pitchwheel channel=0 pitch=1860 time=0\n",
      "pitchwheel channel=0 pitch=2439 time=25\n",
      "pitchwheel channel=0 pitch=2439 time=0\n",
      "pitchwheel channel=0 pitch=2977 time=26\n",
      "pitchwheel channel=0 pitch=2977 time=0\n",
      "pitchwheel channel=0 pitch=3411 time=25\n",
      "pitchwheel channel=0 pitch=3411 time=0\n",
      "pitchwheel channel=0 pitch=3908 time=26\n",
      "pitchwheel channel=0 pitch=3908 time=0\n",
      "pitchwheel channel=0 pitch=4673 time=26\n",
      "pitchwheel channel=0 pitch=4673 time=0\n",
      "pitchwheel channel=0 pitch=5459 time=25\n",
      "pitchwheel channel=0 pitch=5459 time=0\n",
      "pitchwheel channel=0 pitch=6266 time=26\n",
      "pitchwheel channel=0 pitch=6266 time=0\n",
      "pitchwheel channel=0 pitch=6928 time=25\n",
      "pitchwheel channel=0 pitch=6928 time=0\n",
      "pitchwheel channel=0 pitch=7383 time=28\n",
      "pitchwheel channel=0 pitch=7383 time=0\n",
      "pitchwheel channel=0 pitch=7838 time=25\n",
      "pitchwheel channel=0 pitch=7838 time=0\n",
      "note_on channel=0 note=64 velocity=61 time=29\n",
      "note_on channel=0 note=64 velocity=61 time=0\n",
      "pitchwheel channel=0 pitch=8191 time=3\n",
      "pitchwheel channel=0 pitch=8191 time=0\n",
      "pitchwheel channel=0 pitch=7796 time=428\n",
      "pitchwheel channel=0 pitch=7796 time=0\n",
      "pitchwheel channel=0 pitch=7321 time=26\n",
      "pitchwheel channel=0 pitch=7321 time=0\n",
      "pitchwheel channel=0 pitch=6824 time=24\n",
      "pitchwheel channel=0 pitch=6824 time=0\n",
      "pitchwheel channel=0 pitch=6431 time=27\n",
      "pitchwheel channel=0 pitch=6431 time=0\n",
      "pitchwheel channel=0 pitch=5914 time=27\n",
      "pitchwheel channel=0 pitch=5914 time=0\n",
      "pitchwheel channel=0 pitch=5397 time=24\n",
      "pitchwheel channel=0 pitch=5397 time=0\n",
      "pitchwheel channel=0 pitch=4777 time=25\n",
      "pitchwheel channel=0 pitch=4777 time=0\n",
      "pitchwheel channel=0 pitch=4156 time=26\n",
      "pitchwheel channel=0 pitch=4156 time=0\n",
      "pitchwheel channel=0 pitch=3370 time=26\n",
      "pitchwheel channel=0 pitch=3370 time=0\n",
      "pitchwheel channel=0 pitch=2501 time=25\n",
      "pitchwheel channel=0 pitch=2501 time=0\n",
      "pitchwheel channel=0 pitch=1819 time=25\n",
      "pitchwheel channel=0 pitch=1819 time=0\n",
      "pitchwheel channel=0 pitch=1157 time=25\n",
      "pitchwheel channel=0 pitch=1157 time=0\n",
      "pitchwheel channel=0 pitch=578 time=26\n",
      "pitchwheel channel=0 pitch=578 time=0\n",
      "pitchwheel channel=0 pitch=267 time=26\n",
      "pitchwheel channel=0 pitch=267 time=0\n",
      "pitchwheel channel=0 pitch=-1 time=25\n",
      "pitchwheel channel=0 pitch=-1 time=0\n",
      "pitchwheel channel=0 pitch=0 time=26\n",
      "pitchwheel channel=0 pitch=0 time=0\n",
      "pitchwheel channel=0 pitch=185 time=462\n",
      "pitchwheel channel=0 pitch=185 time=0\n",
      "note_on channel=0 note=64 velocity=0 time=16\n",
      "note_on channel=0 note=64 velocity=0 time=0\n",
      "pitchwheel channel=0 pitch=991 time=9\n",
      "pitchwheel channel=0 pitch=991 time=0\n",
      "pitchwheel channel=0 pitch=1881 time=26\n",
      "pitchwheel channel=0 pitch=1881 time=0\n",
      "pitchwheel channel=0 pitch=2812 time=25\n",
      "pitchwheel channel=0 pitch=2812 time=0\n",
      "pitchwheel channel=0 pitch=3908 time=26\n",
      "pitchwheel channel=0 pitch=3908 time=0\n",
      "pitchwheel channel=0 pitch=4901 time=26\n",
      "pitchwheel channel=0 pitch=4901 time=0\n",
      "pitchwheel channel=0 pitch=5645 time=26\n",
      "pitchwheel channel=0 pitch=5645 time=0\n",
      "pitchwheel channel=0 pitch=5935 time=24\n",
      "pitchwheel channel=0 pitch=5935 time=0\n",
      "note_on channel=0 note=64 velocity=78 time=17\n",
      "note_on channel=0 note=64 velocity=78 time=0\n",
      "pitchwheel channel=0 pitch=6100 time=13\n",
      "pitchwheel channel=0 pitch=6100 time=0\n",
      "pitchwheel channel=0 pitch=5976 time=74\n",
      "pitchwheel channel=0 pitch=5976 time=0\n",
      "pitchwheel channel=0 pitch=5687 time=25\n",
      "pitchwheel channel=0 pitch=5687 time=0\n",
      "pitchwheel channel=0 pitch=4963 time=26\n",
      "pitchwheel channel=0 pitch=4963 time=0\n",
      "pitchwheel channel=0 pitch=3970 time=26\n",
      "pitchwheel channel=0 pitch=3970 time=0\n",
      "pitchwheel channel=0 pitch=2667 time=25\n",
      "pitchwheel channel=0 pitch=2667 time=0\n",
      "pitchwheel channel=0 pitch=1633 time=26\n",
      "pitchwheel channel=0 pitch=1633 time=0\n",
      "pitchwheel channel=0 pitch=640 time=24\n",
      "pitchwheel channel=0 pitch=640 time=0\n",
      "pitchwheel channel=0 pitch=0 time=25\n",
      "pitchwheel channel=0 pitch=0 time=0\n",
      "note_on channel=0 note=66 velocity=80 time=731\n",
      "note_on channel=0 note=66 velocity=80 time=0\n",
      "note_on channel=0 note=64 velocity=0 time=119\n",
      "note_on channel=0 note=64 velocity=0 time=0\n",
      "note_on channel=0 note=70 velocity=76 time=1160\n",
      "note_on channel=0 note=70 velocity=76 time=0\n",
      "note_on channel=0 note=66 velocity=0 time=102\n",
      "note_on channel=0 note=66 velocity=0 time=0\n",
      "note_on channel=0 note=70 velocity=0 time=3485\n",
      "note_on channel=0 note=70 velocity=0 time=0\n",
      "note_on channel=0 note=66 velocity=72 time=482\n",
      "note_on channel=0 note=66 velocity=72 time=0\n",
      "note_on channel=0 note=70 velocity=78 time=201\n",
      "note_on channel=0 note=70 velocity=78 time=0\n",
      "note_on channel=0 note=66 velocity=0 time=90\n",
      "note_on channel=0 note=66 velocity=0 time=0\n",
      "note_on channel=0 note=71 velocity=78 time=256\n",
      "note_on channel=0 note=71 velocity=78 time=0\n",
      "note_on channel=0 note=70 velocity=0 time=45\n",
      "note_on channel=0 note=70 velocity=0 time=0\n",
      "note_on channel=0 note=73 velocity=80 time=225\n",
      "note_on channel=0 note=73 velocity=80 time=0\n",
      "note_on channel=0 note=71 velocity=0 time=85\n",
      "note_on channel=0 note=71 velocity=0 time=0\n",
      "note_on channel=0 note=71 velocity=80 time=265\n",
      "note_on channel=0 note=71 velocity=80 time=0\n",
      "note_on channel=0 note=73 velocity=0 time=64\n",
      "note_on channel=0 note=73 velocity=0 time=0\n",
      "note_on channel=0 note=70 velocity=78 time=68\n",
      "note_on channel=0 note=70 velocity=78 time=0\n",
      "note_on channel=0 note=71 velocity=0 time=60\n",
      "note_on channel=0 note=71 velocity=0 time=0\n",
      "note_on channel=0 note=71 velocity=76 time=160\n",
      "note_on channel=0 note=71 velocity=76 time=0\n",
      "note_on channel=0 note=70 velocity=0 time=55\n",
      "note_on channel=0 note=70 velocity=0 time=0\n",
      "note_on channel=0 note=70 velocity=72 time=2375\n",
      "note_on channel=0 note=70 velocity=72 time=0\n",
      "note_on channel=0 note=71 velocity=0 time=126\n",
      "note_on channel=0 note=71 velocity=0 time=0\n",
      "note_on channel=0 note=70 velocity=0 time=377\n",
      "note_on channel=0 note=70 velocity=0 time=0\n",
      "note_on channel=0 note=70 velocity=72 time=320\n",
      "note_on channel=0 note=70 velocity=72 time=0\n",
      "note_on channel=0 note=71 velocity=78 time=698\n",
      "note_on channel=0 note=71 velocity=78 time=0\n",
      "note_on channel=0 note=70 velocity=0 time=19\n",
      "note_on channel=0 note=70 velocity=0 time=0\n",
      "note_on channel=0 note=73 velocity=87 time=180\n",
      "note_on channel=0 note=73 velocity=87 time=0\n",
      "note_on channel=0 note=71 velocity=0 time=72\n",
      "note_on channel=0 note=71 velocity=0 time=0\n",
      "note_on channel=0 note=71 velocity=47 time=3001\n",
      "note_on channel=0 note=71 velocity=47 time=0\n",
      "note_on channel=0 note=73 velocity=0 time=62\n",
      "note_on channel=0 note=73 velocity=0 time=0\n",
      "note_on channel=0 note=71 velocity=0 time=421\n",
      "note_on channel=0 note=71 velocity=0 time=0\n",
      "note_on channel=0 note=71 velocity=55 time=335\n",
      "note_on channel=0 note=71 velocity=55 time=0\n",
      "note_on channel=0 note=73 velocity=31 time=488\n",
      "note_on channel=0 note=73 velocity=31 time=0\n",
      "note_on channel=0 note=71 velocity=0 time=79\n",
      "note_on channel=0 note=71 velocity=0 time=0\n",
      "note_on channel=0 note=71 velocity=44 time=734\n",
      "note_on channel=0 note=71 velocity=44 time=0\n",
      "note_on channel=0 note=73 velocity=0 time=52\n",
      "note_on channel=0 note=73 velocity=0 time=0\n",
      "note_on channel=0 note=73 velocity=29 time=462\n",
      "note_on channel=0 note=73 velocity=29 time=0\n",
      "note_on channel=0 note=71 velocity=0 time=21\n",
      "note_on channel=0 note=71 velocity=0 time=0\n",
      "note_on channel=0 note=73 velocity=0 time=646\n",
      "note_on channel=0 note=73 velocity=0 time=0\n",
      "note_on channel=0 note=71 velocity=7 time=220\n",
      "note_on channel=0 note=71 velocity=7 time=0\n",
      "note_on channel=0 note=73 velocity=30 time=766\n",
      "note_on channel=0 note=73 velocity=30 time=0\n",
      "note_on channel=0 note=71 velocity=0 time=75\n",
      "note_on channel=0 note=71 velocity=0 time=0\n",
      "note_on channel=0 note=75 velocity=59 time=434\n",
      "note_on channel=0 note=75 velocity=59 time=0\n",
      "note_on channel=0 note=73 velocity=0 time=122\n",
      "note_on channel=0 note=73 velocity=0 time=0\n",
      "note_on channel=0 note=75 velocity=0 time=221\n",
      "note_on channel=0 note=75 velocity=0 time=0\n",
      "note_on channel=0 note=73 velocity=66 time=191\n",
      "note_on channel=0 note=73 velocity=66 time=0\n",
      "note_on channel=0 note=75 velocity=74 time=162\n",
      "note_on channel=0 note=75 velocity=74 time=0\n",
      "note_on channel=0 note=73 velocity=0 time=48\n",
      "note_on channel=0 note=73 velocity=0 time=0\n",
      "note_on channel=0 note=73 velocity=78 time=132\n",
      "note_on channel=0 note=73 velocity=78 time=0\n",
      "note_on channel=0 note=75 velocity=0 time=46\n",
      "note_on channel=0 note=75 velocity=0 time=0\n",
      "note_on channel=0 note=73 velocity=0 time=195\n",
      "note_on channel=0 note=73 velocity=0 time=0\n",
      "note_on channel=0 note=73 velocity=74 time=284\n",
      "note_on channel=0 note=73 velocity=74 time=0\n",
      "note_on channel=0 note=71 velocity=82 time=188\n",
      "note_on channel=0 note=71 velocity=82 time=0\n",
      "note_on channel=0 note=73 velocity=0 time=88\n",
      "note_on channel=0 note=73 velocity=0 time=0\n",
      "note_on channel=0 note=70 velocity=78 time=72\n",
      "note_on channel=0 note=70 velocity=78 time=0\n",
      "note_on channel=0 note=71 velocity=0 time=86\n",
      "note_on channel=0 note=71 velocity=0 time=0\n",
      "note_on channel=0 note=71 velocity=70 time=156\n",
      "note_on channel=0 note=71 velocity=70 time=0\n",
      "note_on channel=0 note=70 velocity=0 time=40\n",
      "note_on channel=0 note=70 velocity=0 time=0\n",
      "note_on channel=0 note=73 velocity=68 time=167\n",
      "note_on channel=0 note=73 velocity=68 time=0\n",
      "note_on channel=0 note=73 velocity=0 time=163\n",
      "note_on channel=0 note=73 velocity=0 time=0\n",
      "note_on channel=0 note=70 velocity=70 time=173\n",
      "note_on channel=0 note=70 velocity=70 time=0\n",
      "note_on channel=0 note=70 velocity=0 time=124\n",
      "note_on channel=0 note=70 velocity=0 time=0\n",
      "note_on channel=0 note=73 velocity=68 time=393\n",
      "note_on channel=0 note=73 velocity=68 time=0\n",
      "note_on channel=0 note=71 velocity=0 time=80\n",
      "note_on channel=0 note=71 velocity=0 time=0\n",
      "note_on channel=0 note=70 velocity=76 time=105\n",
      "note_on channel=0 note=70 velocity=76 time=0\n",
      "note_on channel=0 note=73 velocity=0 time=79\n",
      "note_on channel=0 note=73 velocity=0 time=0\n",
      "note_on channel=0 note=70 velocity=0 time=464\n",
      "note_on channel=0 note=70 velocity=0 time=0\n",
      "note_on channel=0 note=70 velocity=68 time=243\n",
      "note_on channel=0 note=70 velocity=68 time=0\n",
      "note_on channel=0 note=70 velocity=0 time=3926\n",
      "note_on channel=0 note=70 velocity=0 time=0\n",
      "note_on channel=0 note=66 velocity=76 time=408\n",
      "note_on channel=0 note=66 velocity=76 time=0\n",
      "note_on channel=0 note=70 velocity=87 time=379\n",
      "note_on channel=0 note=70 velocity=87 time=0\n",
      "note_on channel=0 note=66 velocity=0 time=75\n",
      "note_on channel=0 note=66 velocity=0 time=0\n",
      "note_on channel=0 note=71 velocity=76 time=310\n",
      "note_on channel=0 note=71 velocity=76 time=0\n",
      "note_on channel=0 note=70 velocity=0 time=66\n",
      "note_on channel=0 note=70 velocity=0 time=0\n",
      "note_on channel=0 note=73 velocity=72 time=318\n",
      "note_on channel=0 note=73 velocity=72 time=0\n",
      "note_on channel=0 note=71 velocity=0 time=99\n",
      "note_on channel=0 note=71 velocity=0 time=0\n",
      "note_on channel=0 note=75 velocity=70 time=369\n",
      "note_on channel=0 note=75 velocity=70 time=0\n",
      "note_on channel=0 note=73 velocity=0 time=113\n",
      "note_on channel=0 note=73 velocity=0 time=0\n",
      "note_on channel=0 note=73 velocity=74 time=341\n",
      "note_on channel=0 note=73 velocity=74 time=0\n",
      "note_on channel=0 note=75 velocity=0 time=1\n",
      "note_on channel=0 note=75 velocity=0 time=0\n",
      "note_on channel=0 note=71 velocity=84 time=34\n",
      "note_on channel=0 note=71 velocity=84 time=0\n",
      "note_on channel=0 note=70 velocity=87 time=176\n",
      "note_on channel=0 note=70 velocity=87 time=0\n",
      "note_on channel=0 note=73 velocity=0 time=11\n",
      "note_on channel=0 note=73 velocity=0 time=0\n",
      "note_on channel=0 note=71 velocity=0 time=83\n",
      "note_on channel=0 note=71 velocity=0 time=0\n",
      "note_on channel=0 note=71 velocity=72 time=165\n",
      "note_on channel=0 note=71 velocity=72 time=0\n",
      "note_on channel=0 note=70 velocity=0 time=43\n",
      "note_on channel=0 note=70 velocity=0 time=0\n",
      "note_on channel=0 note=70 velocity=55 time=535\n",
      "note_on channel=0 note=70 velocity=55 time=0\n",
      "note_on channel=0 note=71 velocity=0 time=75\n",
      "note_on channel=0 note=71 velocity=0 time=0\n",
      "note_on channel=0 note=68 velocity=62 time=1146\n",
      "note_on channel=0 note=68 velocity=62 time=0\n",
      "note_on channel=0 note=70 velocity=0 time=90\n",
      "note_on channel=0 note=70 velocity=0 time=0\n",
      "note_on channel=0 note=66 velocity=72 time=22\n",
      "note_on channel=0 note=66 velocity=72 time=0\n",
      "note_on channel=0 note=68 velocity=0 time=158\n",
      "note_on channel=0 note=68 velocity=0 time=0\n",
      "note_on channel=0 note=68 velocity=51 time=760\n",
      "note_on channel=0 note=68 velocity=51 time=0\n",
      "note_on channel=0 note=70 velocity=59 time=89\n",
      "note_on channel=0 note=70 velocity=59 time=0\n",
      "note_on channel=0 note=66 velocity=0 time=26\n",
      "note_on channel=0 note=66 velocity=0 time=0\n",
      "note_on channel=0 note=71 velocity=82 time=141\n",
      "note_on channel=0 note=71 velocity=82 time=0\n",
      "note_on channel=0 note=68 velocity=0 time=10\n",
      "note_on channel=0 note=68 velocity=0 time=0\n",
      "note_on channel=0 note=70 velocity=0 time=77\n",
      "note_on channel=0 note=70 velocity=0 time=0\n",
      "note_on channel=0 note=70 velocity=49 time=626\n",
      "note_on channel=0 note=70 velocity=49 time=0\n",
      "note_on channel=0 note=71 velocity=0 time=197\n",
      "note_on channel=0 note=71 velocity=0 time=0\n",
      "note_on channel=0 note=68 velocity=61 time=2735\n",
      "note_on channel=0 note=68 velocity=61 time=0\n",
      "note_on channel=0 note=70 velocity=0 time=54\n",
      "note_on channel=0 note=70 velocity=0 time=0\n",
      "note_on channel=0 note=70 velocity=70 time=246\n",
      "note_on channel=0 note=70 velocity=70 time=0\n",
      "note_on channel=0 note=68 velocity=0 time=32\n",
      "note_on channel=0 note=68 velocity=0 time=0\n",
      "note_on channel=0 note=68 velocity=62 time=1423\n",
      "note_on channel=0 note=68 velocity=62 time=0\n",
      "note_on channel=0 note=70 velocity=0 time=84\n",
      "note_on channel=0 note=70 velocity=0 time=0\n",
      "note_on channel=0 note=70 velocity=70 time=264\n",
      "note_on channel=0 note=70 velocity=70 time=0\n",
      "note_on channel=0 note=68 velocity=0 time=88\n",
      "note_on channel=0 note=68 velocity=0 time=0\n",
      "note_on channel=0 note=70 velocity=0 time=1294\n",
      "note_on channel=0 note=70 velocity=0 time=0\n",
      "note_on channel=0 note=66 velocity=78 time=302\n",
      "note_on channel=0 note=66 velocity=78 time=0\n",
      "pitchwheel channel=0 pitch=-1 time=341\n",
      "pitchwheel channel=0 pitch=-1 time=0\n",
      "pitchwheel channel=0 pitch=-458 time=25\n",
      "pitchwheel channel=0 pitch=-458 time=0\n",
      "pitchwheel channel=0 pitch=-820 time=27\n",
      "pitchwheel channel=0 pitch=-820 time=0\n",
      "pitchwheel channel=0 pitch=-1229 time=26\n",
      "pitchwheel channel=0 pitch=-1229 time=0\n",
      "pitchwheel channel=0 pitch=-1446 time=25\n",
      "pitchwheel channel=0 pitch=-1446 time=0\n",
      "pitchwheel channel=0 pitch=-1759 time=26\n",
      "pitchwheel channel=0 pitch=-1759 time=0\n",
      "pitchwheel channel=0 pitch=-2193 time=26\n",
      "pitchwheel channel=0 pitch=-2193 time=0\n",
      "pitchwheel channel=0 pitch=-2699 time=25\n",
      "pitchwheel channel=0 pitch=-2699 time=0\n",
      "pitchwheel channel=0 pitch=-2916 time=26\n",
      "pitchwheel channel=0 pitch=-2916 time=0\n",
      "pitchwheel channel=0 pitch=-3253 time=25\n",
      "pitchwheel channel=0 pitch=-3253 time=0\n",
      "pitchwheel channel=0 pitch=-3518 time=25\n",
      "pitchwheel channel=0 pitch=-3518 time=0\n",
      "pitchwheel channel=0 pitch=-3686 time=25\n",
      "pitchwheel channel=0 pitch=-3686 time=0\n",
      "pitchwheel channel=0 pitch=-3783 time=26\n",
      "pitchwheel channel=0 pitch=-3783 time=0\n",
      "pitchwheel channel=0 pitch=-3927 time=25\n",
      "pitchwheel channel=0 pitch=-3927 time=0\n",
      "pitchwheel channel=0 pitch=-4168 time=26\n",
      "pitchwheel channel=0 pitch=-4168 time=0\n",
      "pitchwheel channel=0 pitch=-4265 time=51\n",
      "pitchwheel channel=0 pitch=-4265 time=0\n",
      "pitchwheel channel=0 pitch=-4578 time=26\n",
      "pitchwheel channel=0 pitch=-4578 time=0\n",
      "pitchwheel channel=0 pitch=-4843 time=25\n",
      "pitchwheel channel=0 pitch=-4843 time=0\n",
      "pitchwheel channel=0 pitch=-5060 time=24\n",
      "pitchwheel channel=0 pitch=-5060 time=0\n",
      "pitchwheel channel=0 pitch=-5228 time=53\n",
      "pitchwheel channel=0 pitch=-5228 time=0\n",
      "pitchwheel channel=0 pitch=-5349 time=53\n",
      "pitchwheel channel=0 pitch=-5349 time=0\n",
      "pitchwheel channel=0 pitch=-5638 time=51\n",
      "pitchwheel channel=0 pitch=-5638 time=0\n",
      "pitchwheel channel=0 pitch=-5855 time=26\n",
      "pitchwheel channel=0 pitch=-5855 time=0\n",
      "pitchwheel channel=0 pitch=-5975 time=25\n",
      "pitchwheel channel=0 pitch=-5975 time=0\n",
      "pitchwheel channel=0 pitch=-6168 time=26\n",
      "pitchwheel channel=0 pitch=-6168 time=0\n",
      "pitchwheel channel=0 pitch=-6361 time=51\n",
      "pitchwheel channel=0 pitch=-6361 time=0\n",
      "pitchwheel channel=0 pitch=-6481 time=76\n",
      "pitchwheel channel=0 pitch=-6481 time=0\n",
      "pitchwheel channel=0 pitch=-6674 time=25\n",
      "pitchwheel channel=0 pitch=-6674 time=0\n",
      "pitchwheel channel=0 pitch=-6770 time=26\n",
      "pitchwheel channel=0 pitch=-6770 time=0\n",
      "pitchwheel channel=0 pitch=-6939 time=26\n",
      "pitchwheel channel=0 pitch=-6939 time=0\n",
      "pitchwheel channel=0 pitch=-7035 time=24\n",
      "pitchwheel channel=0 pitch=-7035 time=0\n",
      "pitchwheel channel=0 pitch=-7228 time=25\n",
      "pitchwheel channel=0 pitch=-7228 time=0\n",
      "pitchwheel channel=0 pitch=-7324 time=53\n",
      "pitchwheel channel=0 pitch=-7324 time=0\n",
      "pitchwheel channel=0 pitch=-7421 time=27\n",
      "pitchwheel channel=0 pitch=-7421 time=0\n",
      "pitchwheel channel=0 pitch=-7565 time=51\n",
      "pitchwheel channel=0 pitch=-7565 time=0\n",
      "pitchwheel channel=0 pitch=-7686 time=25\n",
      "pitchwheel channel=0 pitch=-7686 time=0\n",
      "pitchwheel channel=0 pitch=-7830 time=26\n",
      "pitchwheel channel=0 pitch=-7830 time=0\n",
      "pitchwheel channel=0 pitch=-7975 time=26\n",
      "pitchwheel channel=0 pitch=-7975 time=0\n",
      "pitchwheel channel=0 pitch=-7878 time=51\n",
      "pitchwheel channel=0 pitch=-7878 time=0\n",
      "pitchwheel channel=0 pitch=-7999 time=25\n",
      "pitchwheel channel=0 pitch=-7999 time=0\n",
      "pitchwheel channel=0 pitch=-8143 time=26\n",
      "pitchwheel channel=0 pitch=-8143 time=0\n",
      "pitchwheel channel=0 pitch=-7926 time=50\n",
      "pitchwheel channel=0 pitch=-7926 time=0\n",
      "pitchwheel channel=0 pitch=-7782 time=100\n",
      "pitchwheel channel=0 pitch=-7782 time=0\n",
      "pitchwheel channel=0 pitch=-7348 time=26\n",
      "pitchwheel channel=0 pitch=-7348 time=0\n",
      "pitchwheel channel=0 pitch=-6866 time=26\n",
      "pitchwheel channel=0 pitch=-6866 time=0\n",
      "pitchwheel channel=0 pitch=-6192 time=25\n",
      "pitchwheel channel=0 pitch=-6192 time=0\n",
      "pitchwheel channel=0 pitch=-5397 time=26\n",
      "pitchwheel channel=0 pitch=-5397 time=0\n",
      "pitchwheel channel=0 pitch=-4361 time=27\n",
      "pitchwheel channel=0 pitch=-4361 time=0\n",
      "note_on channel=0 note=66 velocity=0 time=10\n",
      "note_on channel=0 note=66 velocity=0 time=0\n",
      "pitchwheel channel=0 pitch=-3084 time=15\n",
      "pitchwheel channel=0 pitch=-3084 time=0\n",
      "pitchwheel channel=0 pitch=-1422 time=26\n",
      "pitchwheel channel=0 pitch=-1422 time=0\n",
      "pitchwheel channel=0 pitch=0 time=25\n",
      "pitchwheel channel=0 pitch=0 time=0\n",
      "note_on channel=0 note=66 velocity=82 time=109\n",
      "note_on channel=0 note=66 velocity=82 time=0\n",
      "pitchwheel channel=0 pitch=-458 time=380\n",
      "pitchwheel channel=0 pitch=-458 time=0\n",
      "pitchwheel channel=0 pitch=-1085 time=26\n",
      "pitchwheel channel=0 pitch=-1085 time=0\n",
      "pitchwheel channel=0 pitch=-1687 time=25\n",
      "pitchwheel channel=0 pitch=-1687 time=0\n",
      "pitchwheel channel=0 pitch=-2000 time=26\n",
      "pitchwheel channel=0 pitch=-2000 time=0\n",
      "pitchwheel channel=0 pitch=-2241 time=25\n",
      "pitchwheel channel=0 pitch=-2241 time=0\n",
      "pitchwheel channel=0 pitch=-2554 time=26\n",
      "pitchwheel channel=0 pitch=-2554 time=0\n",
      "pitchwheel channel=0 pitch=-2819 time=26\n",
      "pitchwheel channel=0 pitch=-2819 time=0\n",
      "pitchwheel channel=0 pitch=-3205 time=25\n",
      "pitchwheel channel=0 pitch=-3205 time=0\n",
      "pitchwheel channel=0 pitch=-3470 time=24\n",
      "pitchwheel channel=0 pitch=-3470 time=0\n",
      "pitchwheel channel=0 pitch=-3783 time=26\n",
      "pitchwheel channel=0 pitch=-3783 time=0\n",
      "pitchwheel channel=0 pitch=-3879 time=25\n",
      "pitchwheel channel=0 pitch=-3879 time=0\n",
      "pitchwheel channel=0 pitch=-4072 time=26\n",
      "pitchwheel channel=0 pitch=-4072 time=0\n",
      "pitchwheel channel=0 pitch=-4216 time=26\n",
      "pitchwheel channel=0 pitch=-4216 time=0\n",
      "pitchwheel channel=0 pitch=-4457 time=25\n",
      "pitchwheel channel=0 pitch=-4457 time=0\n",
      "pitchwheel channel=0 pitch=-4650 time=26\n",
      "pitchwheel channel=0 pitch=-4650 time=0\n",
      "pitchwheel channel=0 pitch=-4987 time=25\n",
      "pitchwheel channel=0 pitch=-4987 time=0\n",
      "pitchwheel channel=0 pitch=-5108 time=24\n",
      "pitchwheel channel=0 pitch=-5108 time=0\n",
      "pitchwheel channel=0 pitch=-5325 time=28\n",
      "pitchwheel channel=0 pitch=-5325 time=0\n",
      "pitchwheel channel=0 pitch=-5566 time=25\n",
      "pitchwheel channel=0 pitch=-5566 time=0\n",
      "pitchwheel channel=0 pitch=-5806 time=26\n",
      "pitchwheel channel=0 pitch=-5806 time=0\n",
      "pitchwheel channel=0 pitch=-6144 time=25\n",
      "pitchwheel channel=0 pitch=-6144 time=0\n",
      "pitchwheel channel=0 pitch=-6409 time=51\n",
      "pitchwheel channel=0 pitch=-6409 time=0\n",
      "pitchwheel channel=0 pitch=-6553 time=26\n",
      "pitchwheel channel=0 pitch=-6553 time=0\n",
      "pitchwheel channel=0 pitch=-6818 time=25\n",
      "pitchwheel channel=0 pitch=-6818 time=0\n",
      "pitchwheel channel=0 pitch=-7107 time=51\n",
      "pitchwheel channel=0 pitch=-7107 time=0\n",
      "pitchwheel channel=0 pitch=-7252 time=26\n",
      "pitchwheel channel=0 pitch=-7252 time=0\n",
      "pitchwheel channel=0 pitch=-7541 time=26\n",
      "pitchwheel channel=0 pitch=-7541 time=0\n",
      "pitchwheel channel=0 pitch=-7782 time=49\n",
      "pitchwheel channel=0 pitch=-7782 time=0\n",
      "pitchwheel channel=0 pitch=-7878 time=79\n",
      "pitchwheel channel=0 pitch=-7878 time=0\n",
      "pitchwheel channel=0 pitch=-8023 time=51\n",
      "pitchwheel channel=0 pitch=-8023 time=0\n",
      "pitchwheel channel=0 pitch=-8192 time=27\n",
      "pitchwheel channel=0 pitch=-8192 time=0\n",
      "pitchwheel channel=0 pitch=-8071 time=3658\n",
      "pitchwheel channel=0 pitch=-8071 time=0\n",
      "pitchwheel channel=0 pitch=-7782 time=26\n",
      "pitchwheel channel=0 pitch=-7782 time=0\n",
      "pitchwheel channel=0 pitch=-7083 time=25\n",
      "pitchwheel channel=0 pitch=-7083 time=0\n",
      "note_on channel=0 note=66 velocity=0 time=26\n",
      "note_on channel=0 note=66 velocity=0 time=0\n",
      "pitchwheel channel=0 pitch=-6336 time=2\n",
      "pitchwheel channel=0 pitch=-6336 time=0\n",
      "pitchwheel channel=0 pitch=-5349 time=24\n",
      "pitchwheel channel=0 pitch=-5349 time=0\n",
      "pitchwheel channel=0 pitch=-4313 time=25\n",
      "pitchwheel channel=0 pitch=-4313 time=0\n",
      "pitchwheel channel=0 pitch=-3325 time=26\n",
      "pitchwheel channel=0 pitch=-3325 time=0\n",
      "pitchwheel channel=0 pitch=-2410 time=25\n",
      "pitchwheel channel=0 pitch=-2410 time=0\n",
      "pitchwheel channel=0 pitch=-1566 time=26\n",
      "pitchwheel channel=0 pitch=-1566 time=0\n",
      "pitchwheel channel=0 pitch=-747 time=27\n",
      "pitchwheel channel=0 pitch=-747 time=0\n",
      "pitchwheel channel=0 pitch=-217 time=26\n",
      "pitchwheel channel=0 pitch=-217 time=0\n",
      "pitchwheel channel=0 pitch=0 time=25\n",
      "pitchwheel channel=0 pitch=0 time=0\n",
      "note_on channel=0 note=61 velocity=61 time=421\n",
      "note_on channel=0 note=61 velocity=61 time=0\n",
      "note_on channel=0 note=63 velocity=74 time=295\n",
      "note_on channel=0 note=63 velocity=74 time=0\n",
      "note_on channel=0 note=61 velocity=0 time=78\n",
      "note_on channel=0 note=61 velocity=0 time=0\n",
      "note_on channel=0 note=61 velocity=68 time=1754\n",
      "note_on channel=0 note=61 velocity=68 time=0\n",
      "note_on channel=0 note=63 velocity=0 time=41\n",
      "note_on channel=0 note=63 velocity=0 time=0\n",
      "note_on channel=0 note=63 velocity=78 time=120\n",
      "note_on channel=0 note=63 velocity=78 time=0\n",
      "note_on channel=0 note=61 velocity=0 time=51\n",
      "note_on channel=0 note=61 velocity=0 time=0\n",
      "note_on channel=0 note=63 velocity=0 time=1948\n",
      "note_on channel=0 note=63 velocity=0 time=0\n",
      "note_on channel=0 note=61 velocity=74 time=584\n",
      "note_on channel=0 note=61 velocity=74 time=0\n",
      "pitchwheel channel=0 pitch=-579 time=264\n",
      "pitchwheel channel=0 pitch=-579 time=0\n",
      "pitchwheel channel=0 pitch=-1205 time=25\n",
      "pitchwheel channel=0 pitch=-1205 time=0\n",
      "pitchwheel channel=0 pitch=-1856 time=27\n",
      "pitchwheel channel=0 pitch=-1856 time=0\n",
      "pitchwheel channel=0 pitch=-2482 time=26\n",
      "pitchwheel channel=0 pitch=-2482 time=0\n",
      "pitchwheel channel=0 pitch=-3253 time=26\n",
      "pitchwheel channel=0 pitch=-3253 time=0\n",
      "pitchwheel channel=0 pitch=-4024 time=25\n",
      "pitchwheel channel=0 pitch=-4024 time=0\n",
      "pitchwheel channel=0 pitch=-4554 time=26\n",
      "pitchwheel channel=0 pitch=-4554 time=0\n",
      "pitchwheel channel=0 pitch=-5132 time=25\n",
      "pitchwheel channel=0 pitch=-5132 time=0\n",
      "pitchwheel channel=0 pitch=-5614 time=25\n",
      "pitchwheel channel=0 pitch=-5614 time=0\n",
      "pitchwheel channel=0 pitch=-5975 time=26\n",
      "pitchwheel channel=0 pitch=-5975 time=0\n",
      "pitchwheel channel=0 pitch=-6409 time=24\n",
      "pitchwheel channel=0 pitch=-6409 time=0\n",
      "pitchwheel channel=0 pitch=-6698 time=26\n",
      "pitchwheel channel=0 pitch=-6698 time=0\n",
      "pitchwheel channel=0 pitch=-7035 time=25\n",
      "pitchwheel channel=0 pitch=-7035 time=0\n",
      "pitchwheel channel=0 pitch=-7204 time=26\n",
      "pitchwheel channel=0 pitch=-7204 time=0\n",
      "pitchwheel channel=0 pitch=-7396 time=26\n",
      "pitchwheel channel=0 pitch=-7396 time=0\n",
      "pitchwheel channel=0 pitch=-7661 time=26\n",
      "pitchwheel channel=0 pitch=-7661 time=0\n",
      "pitchwheel channel=0 pitch=-7830 time=51\n",
      "pitchwheel channel=0 pitch=-7830 time=0\n",
      "pitchwheel channel=0 pitch=-7951 time=25\n",
      "pitchwheel channel=0 pitch=-7951 time=0\n",
      "pitchwheel channel=0 pitch=-8071 time=26\n",
      "pitchwheel channel=0 pitch=-8071 time=0\n",
      "pitchwheel channel=0 pitch=-8192 time=26\n",
      "pitchwheel channel=0 pitch=-8192 time=0\n",
      "pitchwheel channel=0 pitch=-7613 time=257\n",
      "pitchwheel channel=0 pitch=-7613 time=0\n",
      "pitchwheel channel=0 pitch=-6818 time=24\n",
      "pitchwheel channel=0 pitch=-6818 time=0\n",
      "pitchwheel channel=0 pitch=-5806 time=26\n",
      "pitchwheel channel=0 pitch=-5806 time=0\n",
      "pitchwheel channel=0 pitch=-4674 time=25\n",
      "pitchwheel channel=0 pitch=-4674 time=0\n",
      "pitchwheel channel=0 pitch=-3253 time=26\n",
      "pitchwheel channel=0 pitch=-3253 time=0\n",
      "note_on channel=0 note=61 velocity=0 time=21\n",
      "note_on channel=0 note=61 velocity=0 time=0\n",
      "pitchwheel channel=0 pitch=-1831 time=3\n",
      "pitchwheel channel=0 pitch=-1831 time=0\n",
      "pitchwheel channel=0 pitch=-603 time=27\n",
      "pitchwheel channel=0 pitch=-603 time=0\n",
      "pitchwheel channel=0 pitch=0 time=26\n",
      "pitchwheel channel=0 pitch=0 time=0\n",
      "note_on channel=0 note=61 velocity=76 time=69\n",
      "note_on channel=0 note=61 velocity=76 time=0\n",
      "pitchwheel channel=0 pitch=-169 time=161\n",
      "pitchwheel channel=0 pitch=-169 time=0\n",
      "pitchwheel channel=0 pitch=-796 time=27\n",
      "pitchwheel channel=0 pitch=-796 time=0\n",
      "pitchwheel channel=0 pitch=-1615 time=24\n",
      "pitchwheel channel=0 pitch=-1615 time=0\n",
      "pitchwheel channel=0 pitch=-2169 time=25\n",
      "pitchwheel channel=0 pitch=-2169 time=0\n",
      "pitchwheel channel=0 pitch=-2747 time=26\n",
      "pitchwheel channel=0 pitch=-2747 time=0\n",
      "pitchwheel channel=0 pitch=-3229 time=26\n",
      "pitchwheel channel=0 pitch=-3229 time=0\n",
      "pitchwheel channel=0 pitch=-3759 time=25\n",
      "pitchwheel channel=0 pitch=-3759 time=0\n",
      "pitchwheel channel=0 pitch=-4313 time=26\n",
      "pitchwheel channel=0 pitch=-4313 time=0\n",
      "pitchwheel channel=0 pitch=-4915 time=26\n",
      "pitchwheel channel=0 pitch=-4915 time=0\n",
      "pitchwheel channel=0 pitch=-5421 time=26\n",
      "pitchwheel channel=0 pitch=-5421 time=0\n",
      "pitchwheel channel=0 pitch=-6096 time=25\n",
      "pitchwheel channel=0 pitch=-6096 time=0\n",
      "pitchwheel channel=0 pitch=-6288 time=26\n",
      "pitchwheel channel=0 pitch=-6288 time=0\n",
      "pitchwheel channel=0 pitch=-6674 time=25\n",
      "pitchwheel channel=0 pitch=-6674 time=0\n",
      "pitchwheel channel=0 pitch=-6794 time=26\n",
      "pitchwheel channel=0 pitch=-6794 time=0\n",
      "pitchwheel channel=0 pitch=-6987 time=26\n",
      "pitchwheel channel=0 pitch=-6987 time=0\n",
      "pitchwheel channel=0 pitch=-7180 time=27\n",
      "pitchwheel channel=0 pitch=-7180 time=0\n",
      "pitchwheel channel=0 pitch=-7300 time=25\n",
      "pitchwheel channel=0 pitch=-7300 time=0\n",
      "pitchwheel channel=0 pitch=-7637 time=24\n",
      "pitchwheel channel=0 pitch=-7637 time=0\n",
      "pitchwheel channel=0 pitch=-7782 time=26\n",
      "pitchwheel channel=0 pitch=-7782 time=0\n",
      "pitchwheel channel=0 pitch=-8023 time=26\n",
      "pitchwheel channel=0 pitch=-8023 time=0\n",
      "pitchwheel channel=0 pitch=-8167 time=51\n",
      "pitchwheel channel=0 pitch=-8167 time=0\n",
      "pitchwheel channel=0 pitch=-8192 time=25\n",
      "pitchwheel channel=0 pitch=-8192 time=0\n",
      "pitchwheel channel=0 pitch=-7854 time=310\n",
      "pitchwheel channel=0 pitch=-7854 time=0\n",
      "pitchwheel channel=0 pitch=-7348 time=24\n",
      "pitchwheel channel=0 pitch=-7348 time=0\n",
      "pitchwheel channel=0 pitch=-6866 time=27\n",
      "pitchwheel channel=0 pitch=-6866 time=0\n",
      "pitchwheel channel=0 pitch=-6288 time=25\n",
      "pitchwheel channel=0 pitch=-6288 time=0\n",
      "pitchwheel channel=0 pitch=-5758 time=24\n",
      "pitchwheel channel=0 pitch=-5758 time=0\n",
      "pitchwheel channel=0 pitch=-5180 time=26\n",
      "pitchwheel channel=0 pitch=-5180 time=0\n",
      "pitchwheel channel=0 pitch=-4891 time=26\n",
      "pitchwheel channel=0 pitch=-4891 time=0\n",
      "pitchwheel channel=0 pitch=-4481 time=25\n",
      "pitchwheel channel=0 pitch=-4481 time=0\n",
      "pitchwheel channel=0 pitch=-4216 time=24\n",
      "pitchwheel channel=0 pitch=-4216 time=0\n",
      "pitchwheel channel=0 pitch=-3903 time=26\n",
      "pitchwheel channel=0 pitch=-3903 time=0\n",
      "pitchwheel channel=0 pitch=-3590 time=25\n",
      "pitchwheel channel=0 pitch=-3590 time=0\n",
      "pitchwheel channel=0 pitch=-3229 time=26\n",
      "pitchwheel channel=0 pitch=-3229 time=0\n",
      "pitchwheel channel=0 pitch=-2795 time=26\n",
      "pitchwheel channel=0 pitch=-2795 time=0\n",
      "pitchwheel channel=0 pitch=-2482 time=25\n",
      "pitchwheel channel=0 pitch=-2482 time=0\n",
      "pitchwheel channel=0 pitch=-1952 time=27\n",
      "pitchwheel channel=0 pitch=-1952 time=0\n",
      "pitchwheel channel=0 pitch=-1470 time=26\n",
      "pitchwheel channel=0 pitch=-1470 time=0\n",
      "pitchwheel channel=0 pitch=-820 time=25\n",
      "pitchwheel channel=0 pitch=-820 time=0\n",
      "pitchwheel channel=0 pitch=-338 time=26\n",
      "pitchwheel channel=0 pitch=-338 time=0\n",
      "pitchwheel channel=0 pitch=0 time=25\n",
      "pitchwheel channel=0 pitch=0 time=0\n",
      "note_on channel=0 note=61 velocity=0 time=8095\n",
      "note_on channel=0 note=61 velocity=0 time=0\n",
      "note_on channel=0 note=64 velocity=64 time=423\n",
      "note_on channel=0 note=64 velocity=64 time=0\n",
      "note_on channel=0 note=66 velocity=84 time=503\n",
      "note_on channel=0 note=66 velocity=84 time=0\n",
      "note_on channel=0 note=64 velocity=0 time=123\n",
      "note_on channel=0 note=64 velocity=0 time=0\n",
      "note_on channel=0 note=70 velocity=78 time=323\n",
      "note_on channel=0 note=70 velocity=78 time=0\n",
      "note_on channel=0 note=66 velocity=0 time=130\n",
      "note_on channel=0 note=66 velocity=0 time=0\n",
      "note_on channel=0 note=71 velocity=78 time=411\n",
      "note_on channel=0 note=71 velocity=78 time=0\n",
      "note_on channel=0 note=70 velocity=0 time=69\n",
      "note_on channel=0 note=70 velocity=0 time=0\n",
      "note_on channel=0 note=73 velocity=72 time=385\n",
      "note_on channel=0 note=73 velocity=72 time=0\n",
      "note_on channel=0 note=71 velocity=0 time=150\n",
      "note_on channel=0 note=71 velocity=0 time=0\n",
      "note_on channel=0 note=71 velocity=70 time=2602\n",
      "note_on channel=0 note=71 velocity=70 time=0\n",
      "note_on channel=0 note=73 velocity=0 time=87\n",
      "note_on channel=0 note=73 velocity=0 time=0\n",
      "note_on channel=0 note=70 velocity=72 time=351\n",
      "note_on channel=0 note=70 velocity=72 time=0\n",
      "note_on channel=0 note=71 velocity=0 time=85\n",
      "note_on channel=0 note=71 velocity=0 time=0\n",
      "note_on channel=0 note=66 velocity=62 time=345\n",
      "note_on channel=0 note=66 velocity=62 time=0\n",
      "note_on channel=0 note=70 velocity=0 time=142\n",
      "note_on channel=0 note=70 velocity=0 time=0\n",
      "note_on channel=0 note=64 velocity=64 time=1915\n",
      "note_on channel=0 note=64 velocity=64 time=0\n",
      "note_on channel=0 note=66 velocity=0 time=106\n",
      "note_on channel=0 note=66 velocity=0 time=0\n",
      "note_on channel=0 note=66 velocity=62 time=378\n",
      "note_on channel=0 note=66 velocity=62 time=0\n",
      "note_on channel=0 note=64 velocity=0 time=107\n",
      "note_on channel=0 note=64 velocity=0 time=0\n",
      "note_on channel=0 note=64 velocity=64 time=199\n",
      "note_on channel=0 note=64 velocity=64 time=0\n",
      "note_on channel=0 note=66 velocity=0 time=82\n",
      "note_on channel=0 note=66 velocity=0 time=0\n",
      "note_on channel=0 note=63 velocity=72 time=317\n",
      "note_on channel=0 note=63 velocity=72 time=0\n",
      "note_on channel=0 note=64 velocity=0 time=84\n",
      "note_on channel=0 note=64 velocity=0 time=0\n",
      "note_on channel=0 note=61 velocity=78 time=361\n",
      "note_on channel=0 note=61 velocity=78 time=0\n",
      "note_on channel=0 note=63 velocity=0 time=130\n",
      "note_on channel=0 note=63 velocity=0 time=0\n",
      "note_on channel=0 note=66 velocity=68 time=1459\n",
      "note_on channel=0 note=66 velocity=68 time=0\n",
      "note_on channel=0 note=61 velocity=0 time=213\n",
      "note_on channel=0 note=61 velocity=0 time=0\n",
      "note_on channel=0 note=66 velocity=0 time=460\n",
      "note_on channel=0 note=66 velocity=0 time=0\n",
      "note_on channel=0 note=66 velocity=68 time=156\n",
      "note_on channel=0 note=66 velocity=68 time=0\n",
      "note_on channel=0 note=66 velocity=0 time=625\n",
      "note_on channel=0 note=66 velocity=0 time=0\n",
      "note_on channel=0 note=66 velocity=80 time=150\n",
      "note_on channel=0 note=66 velocity=80 time=0\n",
      "note_on channel=0 note=66 velocity=0 time=632\n",
      "note_on channel=0 note=66 velocity=0 time=0\n",
      "note_on channel=0 note=66 velocity=72 time=152\n",
      "note_on channel=0 note=66 velocity=72 time=0\n",
      "note_on channel=0 note=64 velocity=62 time=786\n",
      "note_on channel=0 note=64 velocity=62 time=0\n",
      "note_on channel=0 note=66 velocity=0 time=91\n",
      "note_on channel=0 note=66 velocity=0 time=0\n",
      "note_on channel=0 note=66 velocity=68 time=372\n",
      "note_on channel=0 note=66 velocity=68 time=0\n",
      "note_on channel=0 note=64 velocity=0 time=84\n",
      "note_on channel=0 note=64 velocity=0 time=0\n",
      "note_on channel=0 note=64 velocity=62 time=220\n",
      "note_on channel=0 note=64 velocity=62 time=0\n",
      "note_on channel=0 note=66 velocity=0 time=56\n",
      "note_on channel=0 note=66 velocity=0 time=0\n",
      "note_on channel=0 note=63 velocity=62 time=304\n",
      "note_on channel=0 note=63 velocity=62 time=0\n",
      "note_on channel=0 note=64 velocity=0 time=55\n",
      "note_on channel=0 note=64 velocity=0 time=0\n",
      "note_on channel=0 note=61 velocity=78 time=319\n",
      "note_on channel=0 note=61 velocity=78 time=0\n",
      "note_on channel=0 note=63 velocity=0 time=165\n",
      "note_on channel=0 note=63 velocity=0 time=0\n",
      "note_on channel=0 note=61 velocity=0 time=1256\n",
      "note_on channel=0 note=61 velocity=0 time=0\n",
      "note_on channel=0 note=66 velocity=76 time=162\n",
      "note_on channel=0 note=66 velocity=76 time=0\n",
      "note_on channel=0 note=66 velocity=0 time=1429\n",
      "note_on channel=0 note=66 velocity=0 time=0\n",
      "note_on channel=0 note=66 velocity=78 time=158\n",
      "note_on channel=0 note=66 velocity=78 time=0\n",
      "pitchwheel channel=0 pitch=-1 time=32\n",
      "pitchwheel channel=0 pitch=-1 time=0\n",
      "pitchwheel channel=0 pitch=-1229 time=24\n",
      "pitchwheel channel=0 pitch=-1229 time=0\n",
      "pitchwheel channel=0 pitch=-2241 time=27\n",
      "pitchwheel channel=0 pitch=-2241 time=0\n",
      "pitchwheel channel=0 pitch=-2867 time=24\n",
      "pitchwheel channel=0 pitch=-2867 time=0\n",
      "pitchwheel channel=0 pitch=-3446 time=26\n",
      "pitchwheel channel=0 pitch=-3446 time=0\n",
      "pitchwheel channel=0 pitch=-3807 time=25\n",
      "pitchwheel channel=0 pitch=-3807 time=0\n",
      "pitchwheel channel=0 pitch=-3951 time=27\n",
      "pitchwheel channel=0 pitch=-3951 time=0\n",
      "pitchwheel channel=0 pitch=-3349 time=76\n",
      "pitchwheel channel=0 pitch=-3349 time=0\n",
      "pitchwheel channel=0 pitch=-1952 time=25\n",
      "pitchwheel channel=0 pitch=-1952 time=0\n",
      "pitchwheel channel=0 pitch=-193 time=26\n",
      "pitchwheel channel=0 pitch=-193 time=0\n",
      "pitchwheel channel=0 pitch=0 time=25\n",
      "pitchwheel channel=0 pitch=0 time=0\n",
      "note_on channel=0 note=66 velocity=0 time=1116\n",
      "note_on channel=0 note=66 velocity=0 time=0\n",
      "note_on channel=0 note=66 velocity=78 time=142\n",
      "note_on channel=0 note=66 velocity=78 time=0\n",
      "note_on channel=0 note=66 velocity=0 time=619\n",
      "note_on channel=0 note=66 velocity=0 time=0\n",
      "note_on channel=0 note=66 velocity=87 time=141\n",
      "note_on channel=0 note=66 velocity=87 time=0\n",
      "note_on channel=0 note=70 velocity=80 time=805\n",
      "note_on channel=0 note=70 velocity=80 time=0\n",
      "note_on channel=0 note=66 velocity=0 time=64\n",
      "note_on channel=0 note=66 velocity=0 time=0\n",
      "note_on channel=0 note=66 velocity=76 time=662\n",
      "note_on channel=0 note=66 velocity=76 time=0\n",
      "note_on channel=0 note=70 velocity=0 time=85\n",
      "note_on channel=0 note=70 velocity=0 time=0\n",
      "note_on channel=0 note=70 velocity=74 time=698\n",
      "note_on channel=0 note=70 velocity=74 time=0\n",
      "note_on channel=0 note=66 velocity=0 time=90\n",
      "note_on channel=0 note=66 velocity=0 time=0\n",
      "note_on channel=0 note=70 velocity=0 time=593\n",
      "note_on channel=0 note=70 velocity=0 time=0\n",
      "note_on channel=0 note=70 velocity=80 time=135\n",
      "note_on channel=0 note=70 velocity=80 time=0\n",
      "note_on channel=0 note=70 velocity=0 time=1097\n",
      "note_on channel=0 note=70 velocity=0 time=0\n",
      "note_on channel=0 note=70 velocity=61 time=105\n",
      "note_on channel=0 note=70 velocity=61 time=0\n",
      "note_on channel=0 note=70 velocity=0 time=393\n",
      "note_on channel=0 note=70 velocity=0 time=0\n",
      "note_on channel=0 note=70 velocity=72 time=151\n",
      "note_on channel=0 note=70 velocity=72 time=0\n",
      "note_on channel=0 note=70 velocity=0 time=642\n",
      "note_on channel=0 note=70 velocity=0 time=0\n",
      "note_on channel=0 note=70 velocity=76 time=122\n",
      "note_on channel=0 note=70 velocity=76 time=0\n",
      "note_on channel=0 note=70 velocity=0 time=670\n",
      "note_on channel=0 note=70 velocity=0 time=0\n",
      "note_on channel=0 note=70 velocity=70 time=112\n",
      "note_on channel=0 note=70 velocity=70 time=0\n",
      "note_on channel=0 note=70 velocity=0 time=640\n",
      "note_on channel=0 note=70 velocity=0 time=0\n",
      "pitchwheel channel=0 pitch=702 time=159\n",
      "pitchwheel channel=0 pitch=702 time=0\n",
      "pitchwheel channel=0 pitch=1943 time=26\n",
      "pitchwheel channel=0 pitch=1943 time=0\n",
      "pitchwheel channel=0 pitch=3101 time=26\n",
      "pitchwheel channel=0 pitch=3101 time=0\n",
      "note_on channel=0 note=71 velocity=84 time=30\n",
      "note_on channel=0 note=71 velocity=84 time=0\n",
      "pitchwheel channel=0 pitch=4384 time=2\n",
      "pitchwheel channel=0 pitch=4384 time=0\n",
      "pitchwheel channel=0 pitch=5542 time=19\n",
      "pitchwheel channel=0 pitch=5542 time=0\n",
      "pitchwheel channel=0 pitch=6493 time=25\n",
      "pitchwheel channel=0 pitch=6493 time=0\n",
      "pitchwheel channel=0 pitch=7197 time=26\n",
      "pitchwheel channel=0 pitch=7197 time=0\n",
      "pitchwheel channel=0 pitch=7631 time=26\n",
      "pitchwheel channel=0 pitch=7631 time=0\n",
      "pitchwheel channel=0 pitch=7817 time=25\n",
      "pitchwheel channel=0 pitch=7817 time=0\n",
      "pitchwheel channel=0 pitch=7693 time=78\n",
      "pitchwheel channel=0 pitch=7693 time=0\n",
      "pitchwheel channel=0 pitch=6824 time=26\n",
      "pitchwheel channel=0 pitch=6824 time=0\n",
      "pitchwheel channel=0 pitch=5335 time=25\n",
      "pitchwheel channel=0 pitch=5335 time=0\n",
      "pitchwheel channel=0 pitch=3618 time=26\n",
      "pitchwheel channel=0 pitch=3618 time=0\n",
      "pitchwheel channel=0 pitch=1860 time=27\n",
      "pitchwheel channel=0 pitch=1860 time=0\n",
      "pitchwheel channel=0 pitch=392 time=26\n",
      "pitchwheel channel=0 pitch=392 time=0\n",
      "pitchwheel channel=0 pitch=0 time=24\n",
      "pitchwheel channel=0 pitch=0 time=0\n",
      "pitchwheel channel=0 pitch=267 time=381\n",
      "pitchwheel channel=0 pitch=267 time=0\n",
      "pitchwheel channel=0 pitch=950 time=26\n",
      "pitchwheel channel=0 pitch=950 time=0\n",
      "pitchwheel channel=0 pitch=1571 time=27\n",
      "pitchwheel channel=0 pitch=1571 time=0\n",
      "note_on channel=0 note=71 velocity=0 time=11\n",
      "note_on channel=0 note=71 velocity=0 time=0\n",
      "pitchwheel channel=0 pitch=2026 time=15\n",
      "pitchwheel channel=0 pitch=2026 time=0\n",
      "pitchwheel channel=0 pitch=2274 time=25\n",
      "pitchwheel channel=0 pitch=2274 time=0\n",
      "note_on channel=0 note=71 velocity=84 time=48\n",
      "note_on channel=0 note=71 velocity=84 time=0\n",
      "pitchwheel channel=0 pitch=2026 time=57\n",
      "pitchwheel channel=0 pitch=2026 time=0\n",
      "pitchwheel channel=0 pitch=1364 time=25\n",
      "pitchwheel channel=0 pitch=1364 time=0\n",
      "pitchwheel channel=0 pitch=702 time=26\n",
      "pitchwheel channel=0 pitch=702 time=0\n",
      "pitchwheel channel=0 pitch=61 time=25\n",
      "pitchwheel channel=0 pitch=61 time=0\n",
      "pitchwheel channel=0 pitch=0 time=26\n",
      "pitchwheel channel=0 pitch=0 time=0\n",
      "pitchwheel channel=0 pitch=598 time=461\n",
      "pitchwheel channel=0 pitch=598 time=0\n",
      "pitchwheel channel=0 pitch=1364 time=25\n",
      "pitchwheel channel=0 pitch=1364 time=0\n",
      "pitchwheel channel=0 pitch=1901 time=26\n",
      "pitchwheel channel=0 pitch=1901 time=0\n",
      "pitchwheel channel=0 pitch=2315 time=26\n",
      "pitchwheel channel=0 pitch=2315 time=0\n",
      "note_on channel=0 note=71 velocity=0 time=3\n",
      "note_on channel=0 note=71 velocity=0 time=0\n",
      "pitchwheel channel=0 pitch=2584 time=21\n",
      "pitchwheel channel=0 pitch=2584 time=0\n",
      "pitchwheel channel=0 pitch=2998 time=27\n",
      "pitchwheel channel=0 pitch=2998 time=0\n",
      "pitchwheel channel=0 pitch=3225 time=26\n",
      "pitchwheel channel=0 pitch=3225 time=0\n",
      "pitchwheel channel=0 pitch=3391 time=25\n",
      "pitchwheel channel=0 pitch=3391 time=0\n",
      "note_on channel=0 note=71 velocity=87 time=21\n",
      "note_on channel=0 note=71 velocity=87 time=0\n",
      "pitchwheel channel=0 pitch=3287 time=80\n",
      "pitchwheel channel=0 pitch=3287 time=0\n",
      "pitchwheel channel=0 pitch=3039 time=26\n",
      "pitchwheel channel=0 pitch=3039 time=0\n",
      "pitchwheel channel=0 pitch=2439 time=27\n",
      "pitchwheel channel=0 pitch=2439 time=0\n",
      "pitchwheel channel=0 pitch=1674 time=26\n",
      "pitchwheel channel=0 pitch=1674 time=0\n",
      "pitchwheel channel=0 pitch=785 time=25\n",
      "pitchwheel channel=0 pitch=785 time=0\n",
      "pitchwheel channel=0 pitch=143 time=23\n",
      "pitchwheel channel=0 pitch=143 time=0\n",
      "pitchwheel channel=0 pitch=0 time=28\n",
      "pitchwheel channel=0 pitch=0 time=0\n",
      "pitchwheel channel=0 pitch=516 time=461\n",
      "pitchwheel channel=0 pitch=516 time=0\n",
      "pitchwheel channel=0 pitch=1405 time=25\n",
      "pitchwheel channel=0 pitch=1405 time=0\n",
      "pitchwheel channel=0 pitch=2253 time=26\n",
      "pitchwheel channel=0 pitch=2253 time=0\n",
      "note_on channel=0 note=71 velocity=0 time=21\n",
      "note_on channel=0 note=71 velocity=0 time=0\n",
      "pitchwheel channel=0 pitch=2936 time=1\n",
      "pitchwheel channel=0 pitch=2936 time=0\n",
      "pitchwheel channel=0 pitch=3370 time=28\n",
      "pitchwheel channel=0 pitch=3370 time=0\n",
      "pitchwheel channel=0 pitch=3577 time=25\n",
      "pitchwheel channel=0 pitch=3577 time=0\n",
      "note_on channel=0 note=71 velocity=82 time=58\n",
      "note_on channel=0 note=71 velocity=82 time=0\n",
      "pitchwheel channel=0 pitch=3080 time=45\n",
      "pitchwheel channel=0 pitch=3080 time=0\n",
      "pitchwheel channel=0 pitch=2005 time=25\n",
      "pitchwheel channel=0 pitch=2005 time=0\n",
      "pitchwheel channel=0 pitch=640 time=26\n",
      "pitchwheel channel=0 pitch=640 time=0\n",
      "pitchwheel channel=0 pitch=0 time=25\n",
      "pitchwheel channel=0 pitch=0 time=0\n",
      "note_on channel=0 note=71 velocity=0 time=596\n",
      "note_on channel=0 note=71 velocity=0 time=0\n",
      "note_on channel=0 note=71 velocity=84 time=150\n",
      "note_on channel=0 note=71 velocity=84 time=0\n",
      "note_on channel=0 note=70 velocity=66 time=768\n",
      "note_on channel=0 note=70 velocity=66 time=0\n",
      "note_on channel=0 note=71 velocity=0 time=124\n",
      "note_on channel=0 note=71 velocity=0 time=0\n",
      "note_on channel=0 note=70 velocity=0 time=587\n",
      "note_on channel=0 note=70 velocity=0 time=0\n",
      "note_on channel=0 note=70 velocity=78 time=150\n",
      "note_on channel=0 note=70 velocity=78 time=0\n",
      "note_on channel=0 note=66 velocity=90 time=731\n",
      "note_on channel=0 note=66 velocity=90 time=0\n",
      "note_on channel=0 note=70 velocity=0 time=80\n",
      "note_on channel=0 note=70 velocity=0 time=0\n",
      "note_on channel=0 note=66 velocity=0 time=547\n",
      "note_on channel=0 note=66 velocity=0 time=0\n",
      "note_on channel=0 note=66 velocity=82 time=165\n",
      "note_on channel=0 note=66 velocity=82 time=0\n",
      "note_on channel=0 note=70 velocity=80 time=684\n",
      "note_on channel=0 note=70 velocity=80 time=0\n",
      "note_on channel=0 note=66 velocity=0 time=58\n",
      "note_on channel=0 note=66 velocity=0 time=0\n",
      "note_on channel=0 note=70 velocity=0 time=567\n",
      "note_on channel=0 note=70 velocity=0 time=0\n",
      "pitchwheel channel=0 pitch=412 time=69\n",
      "pitchwheel channel=0 pitch=412 time=0\n",
      "pitchwheel channel=0 pitch=1550 time=26\n",
      "pitchwheel channel=0 pitch=1550 time=0\n",
      "pitchwheel channel=0 pitch=2874 time=25\n",
      "pitchwheel channel=0 pitch=2874 time=0\n",
      "pitchwheel channel=0 pitch=4404 time=26\n",
      "pitchwheel channel=0 pitch=4404 time=0\n",
      "pitchwheel channel=0 pitch=5894 time=25\n",
      "pitchwheel channel=0 pitch=5894 time=0\n",
      "note_on channel=0 note=71 velocity=87 time=28\n",
      "note_on channel=0 note=71 velocity=87 time=0\n",
      "pitchwheel channel=0 pitch=7176 time=1\n",
      "pitchwheel channel=0 pitch=7176 time=0\n",
      "pitchwheel channel=0 pitch=7983 time=19\n",
      "pitchwheel channel=0 pitch=7983 time=0\n",
      "pitchwheel channel=0 pitch=8191 time=28\n",
      "pitchwheel channel=0 pitch=8191 time=0\n",
      "pitchwheel channel=0 pitch=7941 time=76\n",
      "pitchwheel channel=0 pitch=7941 time=0\n",
      "pitchwheel channel=0 pitch=7321 time=26\n",
      "pitchwheel channel=0 pitch=7321 time=0\n",
      "pitchwheel channel=0 pitch=6328 time=26\n",
      "pitchwheel channel=0 pitch=6328 time=0\n",
      "pitchwheel channel=0 pitch=4921 time=27\n",
      "pitchwheel channel=0 pitch=4921 time=0\n",
      "pitchwheel channel=0 pitch=3494 time=24\n",
      "pitchwheel channel=0 pitch=3494 time=0\n",
      "pitchwheel channel=0 pitch=2088 time=25\n",
      "pitchwheel channel=0 pitch=2088 time=0\n",
      "pitchwheel channel=0 pitch=950 time=26\n",
      "pitchwheel channel=0 pitch=950 time=0\n",
      "pitchwheel channel=0 pitch=0 time=25\n",
      "pitchwheel channel=0 pitch=0 time=0\n",
      "pitchwheel channel=0 pitch=392 time=384\n",
      "pitchwheel channel=0 pitch=392 time=0\n",
      "pitchwheel channel=0 pitch=1260 time=27\n",
      "pitchwheel channel=0 pitch=1260 time=0\n",
      "note_on channel=0 note=71 velocity=0 time=16\n",
      "note_on channel=0 note=71 velocity=0 time=0\n",
      "pitchwheel channel=0 pitch=2067 time=9\n",
      "pitchwheel channel=0 pitch=2067 time=0\n",
      "pitchwheel channel=0 pitch=2563 time=26\n",
      "pitchwheel channel=0 pitch=2563 time=0\n",
      "pitchwheel channel=0 pitch=3143 time=26\n",
      "pitchwheel channel=0 pitch=3143 time=0\n",
      "pitchwheel channel=0 pitch=3329 time=25\n",
      "pitchwheel channel=0 pitch=3329 time=0\n",
      "note_on channel=0 note=71 velocity=84 time=56\n",
      "note_on channel=0 note=71 velocity=84 time=0\n",
      "pitchwheel channel=0 pitch=3163 time=46\n",
      "pitchwheel channel=0 pitch=3163 time=0\n",
      "pitchwheel channel=0 pitch=2481 time=26\n",
      "pitchwheel channel=0 pitch=2481 time=0\n",
      "pitchwheel channel=0 pitch=1281 time=24\n",
      "pitchwheel channel=0 pitch=1281 time=0\n",
      "pitchwheel channel=0 pitch=0 time=27\n",
      "pitchwheel channel=0 pitch=0 time=0\n",
      "pitchwheel channel=0 pitch=536 time=535\n",
      "pitchwheel channel=0 pitch=536 time=0\n",
      "pitchwheel channel=0 pitch=1095 time=26\n",
      "pitchwheel channel=0 pitch=1095 time=0\n",
      "note_on channel=0 note=71 velocity=0 time=22\n",
      "note_on channel=0 note=71 velocity=0 time=0\n",
      "pitchwheel channel=0 pitch=1488 time=5\n",
      "pitchwheel channel=0 pitch=1488 time=0\n",
      "pitchwheel channel=0 pitch=1839 time=25\n",
      "pitchwheel channel=0 pitch=1839 time=0\n",
      "pitchwheel channel=0 pitch=2067 time=25\n",
      "pitchwheel channel=0 pitch=2067 time=0\n",
      "pitchwheel channel=0 pitch=2170 time=26\n",
      "pitchwheel channel=0 pitch=2170 time=0\n",
      "pitchwheel channel=0 pitch=2067 time=53\n",
      "pitchwheel channel=0 pitch=2067 time=0\n",
      "note_on channel=0 note=71 velocity=84 time=9\n",
      "note_on channel=0 note=71 velocity=84 time=0\n",
      "pitchwheel channel=0 pitch=1260 time=15\n",
      "pitchwheel channel=0 pitch=1260 time=0\n",
      "pitchwheel channel=0 pitch=0 time=27\n",
      "pitchwheel channel=0 pitch=0 time=0\n",
      "note_on channel=0 note=70 velocity=84 time=718\n",
      "note_on channel=0 note=70 velocity=84 time=0\n",
      "note_on channel=0 note=71 velocity=0 time=140\n",
      "note_on channel=0 note=71 velocity=0 time=0\n",
      "note_on channel=0 note=70 velocity=0 time=437\n",
      "note_on channel=0 note=70 velocity=0 time=0\n",
      "note_on channel=0 note=71 velocity=93 time=195\n",
      "note_on channel=0 note=71 velocity=93 time=0\n",
      "pitchwheel channel=0 pitch=433 time=147\n",
      "pitchwheel channel=0 pitch=433 time=0\n",
      "pitchwheel channel=0 pitch=1674 time=27\n",
      "pitchwheel channel=0 pitch=1674 time=0\n",
      "pitchwheel channel=0 pitch=2708 time=25\n",
      "pitchwheel channel=0 pitch=2708 time=0\n",
      "pitchwheel channel=0 pitch=3660 time=26\n",
      "pitchwheel channel=0 pitch=3660 time=0\n",
      "pitchwheel channel=0 pitch=4384 time=24\n",
      "pitchwheel channel=0 pitch=4384 time=0\n",
      "pitchwheel channel=0 pitch=4839 time=26\n",
      "pitchwheel channel=0 pitch=4839 time=0\n",
      "pitchwheel channel=0 pitch=5252 time=25\n",
      "pitchwheel channel=0 pitch=5252 time=0\n",
      "pitchwheel channel=0 pitch=5666 time=26\n",
      "pitchwheel channel=0 pitch=5666 time=0\n",
      "pitchwheel channel=0 pitch=6018 time=25\n",
      "pitchwheel channel=0 pitch=6018 time=0\n",
      "pitchwheel channel=0 pitch=6390 time=26\n",
      "pitchwheel channel=0 pitch=6390 time=0\n",
      "pitchwheel channel=0 pitch=6555 time=26\n",
      "pitchwheel channel=0 pitch=6555 time=0\n",
      "pitchwheel channel=0 pitch=6804 time=25\n",
      "pitchwheel channel=0 pitch=6804 time=0\n",
      "pitchwheel channel=0 pitch=7052 time=26\n",
      "pitchwheel channel=0 pitch=7052 time=0\n",
      "pitchwheel channel=0 pitch=7259 time=27\n",
      "pitchwheel channel=0 pitch=7259 time=0\n",
      "pitchwheel channel=0 pitch=7424 time=26\n",
      "pitchwheel channel=0 pitch=7424 time=0\n",
      "pitchwheel channel=0 pitch=7672 time=25\n",
      "pitchwheel channel=0 pitch=7672 time=0\n",
      "pitchwheel channel=0 pitch=7921 time=25\n",
      "pitchwheel channel=0 pitch=7921 time=0\n",
      "pitchwheel channel=0 pitch=8169 time=26\n",
      "pitchwheel channel=0 pitch=8169 time=0\n",
      "pitchwheel channel=0 pitch=8191 time=26\n",
      "pitchwheel channel=0 pitch=8191 time=0\n",
      "note_on channel=0 note=71 velocity=0 time=777\n",
      "note_on channel=0 note=71 velocity=0 time=0\n",
      "note_on channel=0 note=71 velocity=78 time=182\n",
      "note_on channel=0 note=71 velocity=78 time=0\n",
      "note_on channel=0 note=71 velocity=0 time=687\n",
      "note_on channel=0 note=71 velocity=0 time=0\n",
      "note_on channel=0 note=71 velocity=62 time=163\n",
      "note_on channel=0 note=71 velocity=62 time=0\n",
      "note_on channel=0 note=71 velocity=0 time=612\n",
      "note_on channel=0 note=71 velocity=0 time=0\n",
      "note_on channel=0 note=71 velocity=74 time=165\n",
      "note_on channel=0 note=71 velocity=74 time=0\n",
      "note_on channel=0 note=71 velocity=0 time=584\n",
      "note_on channel=0 note=71 velocity=0 time=0\n",
      "note_on channel=0 note=71 velocity=68 time=199\n",
      "note_on channel=0 note=71 velocity=68 time=0\n",
      "note_on channel=0 note=71 velocity=0 time=579\n",
      "note_on channel=0 note=71 velocity=0 time=0\n",
      "note_on channel=0 note=71 velocity=68 time=210\n",
      "note_on channel=0 note=71 velocity=68 time=0\n",
      "note_on channel=0 note=71 velocity=0 time=579\n",
      "note_on channel=0 note=71 velocity=0 time=0\n",
      "note_on channel=0 note=71 velocity=78 time=173\n",
      "note_on channel=0 note=71 velocity=78 time=0\n",
      "note_on channel=0 note=71 velocity=0 time=1427\n",
      "note_on channel=0 note=71 velocity=0 time=0\n",
      "note_on channel=0 note=71 velocity=72 time=187\n",
      "note_on channel=0 note=71 velocity=72 time=0\n",
      "note_on channel=0 note=71 velocity=0 time=862\n",
      "note_on channel=0 note=71 velocity=0 time=0\n",
      "pitchwheel channel=0 pitch=7714 time=61\n",
      "pitchwheel channel=0 pitch=7714 time=0\n",
      "pitchwheel channel=0 pitch=5935 time=26\n",
      "pitchwheel channel=0 pitch=5935 time=0\n",
      "pitchwheel channel=0 pitch=4135 time=25\n",
      "pitchwheel channel=0 pitch=4135 time=0\n",
      "pitchwheel channel=0 pitch=2170 time=26\n",
      "pitchwheel channel=0 pitch=2170 time=0\n",
      "pitchwheel channel=0 pitch=309 time=25\n",
      "pitchwheel channel=0 pitch=309 time=0\n",
      "pitchwheel channel=0 pitch=0 time=26\n",
      "pitchwheel channel=0 pitch=0 time=0\n",
      "note_on channel=0 note=73 velocity=87 time=396\n",
      "note_on channel=0 note=73 velocity=87 time=0\n",
      "note_on channel=0 note=75 velocity=72 time=365\n",
      "note_on channel=0 note=75 velocity=72 time=0\n",
      "note_on channel=0 note=73 velocity=0 time=80\n",
      "note_on channel=0 note=73 velocity=0 time=0\n",
      "note_on channel=0 note=73 velocity=80 time=236\n",
      "note_on channel=0 note=73 velocity=80 time=0\n",
      "note_on channel=0 note=75 velocity=0 time=22\n",
      "note_on channel=0 note=75 velocity=0 time=0\n",
      "note_on channel=0 note=75 velocity=66 time=304\n",
      "note_on channel=0 note=75 velocity=66 time=0\n",
      "note_on channel=0 note=73 velocity=0 time=51\n",
      "note_on channel=0 note=73 velocity=0 time=0\n",
      "note_on channel=0 note=73 velocity=78 time=258\n",
      "note_on channel=0 note=73 velocity=78 time=0\n",
      "note_on channel=0 note=75 velocity=0 time=107\n",
      "note_on channel=0 note=75 velocity=0 time=0\n",
      "note_on channel=0 note=71 velocity=82 time=210\n",
      "note_on channel=0 note=71 velocity=82 time=0\n",
      "note_on channel=0 note=73 velocity=0 time=78\n",
      "note_on channel=0 note=73 velocity=0 time=0\n",
      "note_on channel=0 note=73 velocity=78 time=294\n",
      "note_on channel=0 note=73 velocity=78 time=0\n",
      "note_on channel=0 note=71 velocity=0 time=62\n",
      "note_on channel=0 note=71 velocity=0 time=0\n",
      "note_on channel=0 note=71 velocity=80 time=270\n",
      "note_on channel=0 note=71 velocity=80 time=0\n",
      "note_on channel=0 note=73 velocity=0 time=37\n",
      "note_on channel=0 note=73 velocity=0 time=0\n",
      "note_on channel=0 note=71 velocity=0 time=231\n",
      "note_on channel=0 note=71 velocity=0 time=0\n",
      "note_on channel=0 note=70 velocity=82 time=108\n",
      "note_on channel=0 note=70 velocity=82 time=0\n",
      "note_on channel=0 note=71 velocity=61 time=776\n",
      "note_on channel=0 note=71 velocity=61 time=0\n",
      "note_on channel=0 note=70 velocity=0 time=80\n",
      "note_on channel=0 note=70 velocity=0 time=0\n",
      "note_on channel=0 note=70 velocity=78 time=303\n",
      "note_on channel=0 note=70 velocity=78 time=0\n",
      "note_on channel=0 note=71 velocity=0 time=91\n",
      "note_on channel=0 note=71 velocity=0 time=0\n",
      "note_on channel=0 note=66 velocity=72 time=789\n",
      "note_on channel=0 note=66 velocity=72 time=0\n",
      "note_on channel=0 note=70 velocity=0 time=139\n",
      "note_on channel=0 note=70 velocity=0 time=0\n",
      "note_on channel=0 note=66 velocity=0 time=1076\n",
      "note_on channel=0 note=66 velocity=0 time=0\n",
      "note_on channel=0 note=66 velocity=76 time=207\n",
      "note_on channel=0 note=66 velocity=76 time=0\n",
      "note_on channel=0 note=70 velocity=80 time=659\n",
      "note_on channel=0 note=70 velocity=80 time=0\n",
      "note_on channel=0 note=66 velocity=0 time=114\n",
      "note_on channel=0 note=66 velocity=0 time=0\n",
      "note_on channel=0 note=66 velocity=78 time=570\n",
      "note_on channel=0 note=66 velocity=78 time=0\n",
      "note_on channel=0 note=70 velocity=0 time=38\n",
      "note_on channel=0 note=70 velocity=0 time=0\n",
      "note_on channel=0 note=70 velocity=72 time=323\n",
      "note_on channel=0 note=70 velocity=72 time=0\n",
      "note_on channel=0 note=66 velocity=0 time=73\n",
      "note_on channel=0 note=66 velocity=0 time=0\n",
      "note_on channel=0 note=71 velocity=76 time=278\n",
      "note_on channel=0 note=71 velocity=76 time=0\n",
      "note_on channel=0 note=70 velocity=0 time=3\n",
      "note_on channel=0 note=70 velocity=0 time=0\n",
      "note_on channel=0 note=73 velocity=72 time=324\n",
      "note_on channel=0 note=73 velocity=72 time=0\n",
      "note_on channel=0 note=71 velocity=0 time=98\n",
      "note_on channel=0 note=71 velocity=0 time=0\n",
      "note_on channel=0 note=71 velocity=82 time=274\n",
      "note_on channel=0 note=71 velocity=82 time=0\n",
      "note_on channel=0 note=70 velocity=82 time=29\n",
      "note_on channel=0 note=70 velocity=82 time=0\n",
      "note_on channel=0 note=73 velocity=0 time=6\n",
      "note_on channel=0 note=73 velocity=0 time=0\n",
      "note_on channel=0 note=71 velocity=0 time=114\n",
      "note_on channel=0 note=71 velocity=0 time=0\n",
      "note_on channel=0 note=71 velocity=62 time=126\n",
      "note_on channel=0 note=71 velocity=62 time=0\n",
      "note_on channel=0 note=70 velocity=0 time=50\n",
      "note_on channel=0 note=70 velocity=0 time=0\n",
      "note_on channel=0 note=70 velocity=61 time=457\n",
      "note_on channel=0 note=70 velocity=61 time=0\n",
      "note_on channel=0 note=71 velocity=0 time=31\n",
      "note_on channel=0 note=71 velocity=0 time=0\n",
      "note_on channel=0 note=66 velocity=84 time=377\n",
      "note_on channel=0 note=66 velocity=84 time=0\n",
      "note_on channel=0 note=70 velocity=0 time=90\n",
      "note_on channel=0 note=70 velocity=0 time=0\n",
      "note_on channel=0 note=66 velocity=0 time=2321\n",
      "note_on channel=0 note=66 velocity=0 time=0\n",
      "note_on channel=0 note=66 velocity=74 time=210\n",
      "note_on channel=0 note=66 velocity=74 time=0\n",
      "pitchwheel channel=0 pitch=-386 time=178\n",
      "pitchwheel channel=0 pitch=-386 time=0\n",
      "pitchwheel channel=0 pitch=-1470 time=25\n",
      "pitchwheel channel=0 pitch=-1470 time=0\n",
      "pitchwheel channel=0 pitch=-2337 time=27\n",
      "pitchwheel channel=0 pitch=-2337 time=0\n",
      "pitchwheel channel=0 pitch=-2940 time=26\n",
      "pitchwheel channel=0 pitch=-2940 time=0\n",
      "pitchwheel channel=0 pitch=-3421 time=24\n",
      "pitchwheel channel=0 pitch=-3421 time=0\n",
      "pitchwheel channel=0 pitch=-3711 time=27\n",
      "pitchwheel channel=0 pitch=-3711 time=0\n",
      "pitchwheel channel=0 pitch=-4000 time=24\n",
      "pitchwheel channel=0 pitch=-4000 time=0\n",
      "pitchwheel channel=0 pitch=-4241 time=25\n",
      "pitchwheel channel=0 pitch=-4241 time=0\n",
      "pitchwheel channel=0 pitch=-4433 time=26\n",
      "pitchwheel channel=0 pitch=-4433 time=0\n",
      "pitchwheel channel=0 pitch=-4602 time=25\n",
      "pitchwheel channel=0 pitch=-4602 time=0\n",
      "pitchwheel channel=0 pitch=-4746 time=26\n",
      "pitchwheel channel=0 pitch=-4746 time=0\n",
      "pitchwheel channel=0 pitch=-4891 time=53\n",
      "pitchwheel channel=0 pitch=-4891 time=0\n",
      "pitchwheel channel=0 pitch=-4987 time=25\n",
      "pitchwheel channel=0 pitch=-4987 time=0\n",
      "pitchwheel channel=0 pitch=-5084 time=51\n",
      "pitchwheel channel=0 pitch=-5084 time=0\n",
      "pitchwheel channel=0 pitch=-4385 time=155\n",
      "pitchwheel channel=0 pitch=-4385 time=0\n",
      "note_on channel=0 note=66 velocity=0 time=2\n",
      "note_on channel=0 note=66 velocity=0 time=0\n",
      "pitchwheel channel=0 pitch=-3494 time=22\n",
      "pitchwheel channel=0 pitch=-3494 time=0\n",
      "pitchwheel channel=0 pitch=-2265 time=27\n",
      "pitchwheel channel=0 pitch=-2265 time=0\n",
      "pitchwheel channel=0 pitch=-844 time=24\n",
      "pitchwheel channel=0 pitch=-844 time=0\n",
      "pitchwheel channel=0 pitch=0 time=26\n",
      "pitchwheel channel=0 pitch=0 time=0\n",
      "note_on channel=0 note=66 velocity=78 time=44\n",
      "note_on channel=0 note=66 velocity=78 time=0\n",
      "pitchwheel channel=0 pitch=-916 time=288\n",
      "pitchwheel channel=0 pitch=-916 time=0\n",
      "pitchwheel channel=0 pitch=-1952 time=26\n",
      "pitchwheel channel=0 pitch=-1952 time=0\n",
      "pitchwheel channel=0 pitch=-3084 time=26\n",
      "pitchwheel channel=0 pitch=-3084 time=0\n",
      "pitchwheel channel=0 pitch=-4048 time=27\n",
      "pitchwheel channel=0 pitch=-4048 time=0\n",
      "pitchwheel channel=0 pitch=-4843 time=25\n",
      "pitchwheel channel=0 pitch=-4843 time=0\n",
      "pitchwheel channel=0 pitch=-5469 time=26\n",
      "pitchwheel channel=0 pitch=-5469 time=0\n",
      "pitchwheel channel=0 pitch=-6120 time=26\n",
      "pitchwheel channel=0 pitch=-6120 time=0\n",
      "pitchwheel channel=0 pitch=-6601 time=25\n",
      "pitchwheel channel=0 pitch=-6601 time=0\n",
      "pitchwheel channel=0 pitch=-7107 time=26\n",
      "pitchwheel channel=0 pitch=-7107 time=0\n",
      "pitchwheel channel=0 pitch=-7661 time=23\n",
      "pitchwheel channel=0 pitch=-7661 time=0\n",
      "pitchwheel channel=0 pitch=-7926 time=25\n",
      "pitchwheel channel=0 pitch=-7926 time=0\n",
      "pitchwheel channel=0 pitch=-8095 time=26\n",
      "pitchwheel channel=0 pitch=-8095 time=0\n",
      "pitchwheel channel=0 pitch=-8192 time=27\n",
      "pitchwheel channel=0 pitch=-8192 time=0\n",
      "pitchwheel channel=0 pitch=-8143 time=50\n",
      "pitchwheel channel=0 pitch=-8143 time=0\n",
      "pitchwheel channel=0 pitch=-8047 time=26\n",
      "pitchwheel channel=0 pitch=-8047 time=0\n",
      "pitchwheel channel=0 pitch=-7854 time=26\n",
      "pitchwheel channel=0 pitch=-7854 time=0\n",
      "pitchwheel channel=0 pitch=-7372 time=26\n",
      "pitchwheel channel=0 pitch=-7372 time=0\n",
      "pitchwheel channel=0 pitch=-6770 time=25\n",
      "pitchwheel channel=0 pitch=-6770 time=0\n",
      "note_on channel=0 note=66 velocity=0 time=10\n",
      "note_on channel=0 note=66 velocity=0 time=0\n",
      "pitchwheel channel=0 pitch=-5951 time=16\n",
      "pitchwheel channel=0 pitch=-5951 time=0\n",
      "pitchwheel channel=0 pitch=-4578 time=25\n",
      "pitchwheel channel=0 pitch=-4578 time=0\n",
      "pitchwheel channel=0 pitch=-3084 time=26\n",
      "pitchwheel channel=0 pitch=-3084 time=0\n",
      "pitchwheel channel=0 pitch=-1494 time=27\n",
      "pitchwheel channel=0 pitch=-1494 time=0\n",
      "pitchwheel channel=0 pitch=0 time=26\n",
      "pitchwheel channel=0 pitch=0 time=0\n",
      "note_on channel=0 note=66 velocity=82 time=51\n",
      "note_on channel=0 note=66 velocity=82 time=0\n",
      "pitchwheel channel=0 pitch=-1036 time=100\n",
      "pitchwheel channel=0 pitch=-1036 time=0\n",
      "pitchwheel channel=0 pitch=-2193 time=26\n",
      "pitchwheel channel=0 pitch=-2193 time=0\n",
      "pitchwheel channel=0 pitch=-3253 time=25\n",
      "pitchwheel channel=0 pitch=-3253 time=0\n",
      "pitchwheel channel=0 pitch=-4385 time=26\n",
      "pitchwheel channel=0 pitch=-4385 time=0\n",
      "pitchwheel channel=0 pitch=-5469 time=26\n",
      "pitchwheel channel=0 pitch=-5469 time=0\n",
      "pitchwheel channel=0 pitch=-6385 time=25\n",
      "pitchwheel channel=0 pitch=-6385 time=0\n",
      "pitchwheel channel=0 pitch=-7204 time=26\n",
      "pitchwheel channel=0 pitch=-7204 time=0\n",
      "pitchwheel channel=0 pitch=-7758 time=25\n",
      "pitchwheel channel=0 pitch=-7758 time=0\n",
      "pitchwheel channel=0 pitch=-8143 time=26\n",
      "pitchwheel channel=0 pitch=-8143 time=0\n",
      "pitchwheel channel=0 pitch=-8192 time=26\n",
      "pitchwheel channel=0 pitch=-8192 time=0\n",
      "pitchwheel channel=0 pitch=-7758 time=181\n",
      "pitchwheel channel=0 pitch=-7758 time=0\n",
      "pitchwheel channel=0 pitch=-7156 time=26\n",
      "pitchwheel channel=0 pitch=-7156 time=0\n",
      "pitchwheel channel=0 pitch=-6433 time=25\n",
      "pitchwheel channel=0 pitch=-6433 time=0\n",
      "pitchwheel channel=0 pitch=-5614 time=24\n",
      "pitchwheel channel=0 pitch=-5614 time=0\n",
      "pitchwheel channel=0 pitch=-4674 time=26\n",
      "pitchwheel channel=0 pitch=-4674 time=0\n",
      "pitchwheel channel=0 pitch=-3494 time=26\n",
      "pitchwheel channel=0 pitch=-3494 time=0\n",
      "pitchwheel channel=0 pitch=-2145 time=25\n",
      "pitchwheel channel=0 pitch=-2145 time=0\n",
      "note_on channel=0 note=66 velocity=0 time=13\n",
      "note_on channel=0 note=66 velocity=0 time=0\n",
      "pitchwheel channel=0 pitch=-1229 time=13\n",
      "pitchwheel channel=0 pitch=-1229 time=0\n",
      "pitchwheel channel=0 pitch=-988 time=26\n",
      "pitchwheel channel=0 pitch=-988 time=0\n",
      "pitchwheel channel=0 pitch=-1109 time=25\n",
      "pitchwheel channel=0 pitch=-1109 time=0\n",
      "pitchwheel channel=0 pitch=-2145 time=26\n",
      "pitchwheel channel=0 pitch=-2145 time=0\n",
      "pitchwheel channel=0 pitch=-3446 time=25\n",
      "pitchwheel channel=0 pitch=-3446 time=0\n",
      "note_on channel=0 note=66 velocity=80 time=11\n",
      "note_on channel=0 note=66 velocity=80 time=0\n",
      "pitchwheel channel=0 pitch=-4602 time=13\n",
      "pitchwheel channel=0 pitch=-4602 time=0\n",
      "pitchwheel channel=0 pitch=-5686 time=29\n",
      "pitchwheel channel=0 pitch=-5686 time=0\n",
      "pitchwheel channel=0 pitch=-6361 time=24\n",
      "pitchwheel channel=0 pitch=-6361 time=0\n",
      "pitchwheel channel=0 pitch=-6770 time=25\n",
      "pitchwheel channel=0 pitch=-6770 time=0\n",
      "pitchwheel channel=0 pitch=-7035 time=28\n",
      "pitchwheel channel=0 pitch=-7035 time=0\n",
      "pitchwheel channel=0 pitch=-7324 time=25\n",
      "pitchwheel channel=0 pitch=-7324 time=0\n",
      "pitchwheel channel=0 pitch=-7661 time=26\n",
      "pitchwheel channel=0 pitch=-7661 time=0\n",
      "pitchwheel channel=0 pitch=-7926 time=25\n",
      "pitchwheel channel=0 pitch=-7926 time=0\n",
      "pitchwheel channel=0 pitch=-8192 time=26\n",
      "pitchwheel channel=0 pitch=-8192 time=0\n",
      "pitchwheel channel=0 pitch=-8047 time=357\n",
      "pitchwheel channel=0 pitch=-8047 time=0\n",
      "pitchwheel channel=0 pitch=-7830 time=27\n",
      "pitchwheel channel=0 pitch=-7830 time=0\n",
      "pitchwheel channel=0 pitch=-7565 time=27\n",
      "pitchwheel channel=0 pitch=-7565 time=0\n",
      "pitchwheel channel=0 pitch=-7204 time=26\n",
      "pitchwheel channel=0 pitch=-7204 time=0\n",
      "pitchwheel channel=0 pitch=-6818 time=25\n",
      "pitchwheel channel=0 pitch=-6818 time=0\n",
      "pitchwheel channel=0 pitch=-6336 time=26\n",
      "pitchwheel channel=0 pitch=-6336 time=0\n",
      "pitchwheel channel=0 pitch=-5855 time=26\n",
      "pitchwheel channel=0 pitch=-5855 time=0\n",
      "pitchwheel channel=0 pitch=-5084 time=25\n",
      "pitchwheel channel=0 pitch=-5084 time=0\n",
      "pitchwheel channel=0 pitch=-4265 time=24\n",
      "pitchwheel channel=0 pitch=-4265 time=0\n",
      "pitchwheel channel=0 pitch=-3205 time=26\n",
      "pitchwheel channel=0 pitch=-3205 time=0\n",
      "pitchwheel channel=0 pitch=-2024 time=25\n",
      "pitchwheel channel=0 pitch=-2024 time=0\n",
      "pitchwheel channel=0 pitch=-988 time=25\n",
      "pitchwheel channel=0 pitch=-988 time=0\n",
      "note_on channel=0 note=66 velocity=0 time=21\n",
      "note_on channel=0 note=66 velocity=0 time=0\n",
      "pitchwheel channel=0 pitch=-1 time=4\n",
      "pitchwheel channel=0 pitch=-1 time=0\n",
      "pitchwheel channel=0 pitch=0 time=26\n",
      "pitchwheel channel=0 pitch=0 time=0\n",
      "note_on channel=0 note=62 velocity=68 time=245\n",
      "note_on channel=0 note=62 velocity=68 time=0\n",
      "note_on channel=0 note=62 velocity=0 time=114\n",
      "note_on channel=0 note=62 velocity=0 time=0\n",
      "pitchwheel channel=0 pitch=-1229 time=2\n",
      "pitchwheel channel=0 pitch=-1229 time=0\n",
      "pitchwheel channel=0 pitch=-2843 time=24\n",
      "pitchwheel channel=0 pitch=-2843 time=0\n",
      "note_on channel=0 note=64 velocity=64 time=19\n",
      "note_on channel=0 note=64 velocity=64 time=0\n",
      "pitchwheel channel=0 pitch=-3807 time=5\n",
      "pitchwheel channel=0 pitch=-3807 time=0\n",
      "pitchwheel channel=0 pitch=-4361 time=27\n",
      "pitchwheel channel=0 pitch=-4361 time=0\n",
      "pitchwheel channel=0 pitch=-4626 time=24\n",
      "pitchwheel channel=0 pitch=-4626 time=0\n",
      "note_on channel=0 note=64 velocity=0 time=51\n",
      "note_on channel=0 note=64 velocity=0 time=0\n",
      "pitchwheel channel=0 pitch=-4481 time=2\n",
      "pitchwheel channel=0 pitch=-4481 time=0\n",
      "pitchwheel channel=0 pitch=-4289 time=24\n",
      "pitchwheel channel=0 pitch=-4289 time=0\n",
      "pitchwheel channel=0 pitch=-3590 time=25\n",
      "pitchwheel channel=0 pitch=-3590 time=0\n",
      "pitchwheel channel=0 pitch=-2771 time=27\n",
      "pitchwheel channel=0 pitch=-2771 time=0\n",
      "pitchwheel channel=0 pitch=-1783 time=24\n",
      "pitchwheel channel=0 pitch=-1783 time=0\n",
      "pitchwheel channel=0 pitch=-916 time=26\n",
      "pitchwheel channel=0 pitch=-916 time=0\n",
      "pitchwheel channel=0 pitch=-1 time=26\n",
      "pitchwheel channel=0 pitch=-1 time=0\n",
      "pitchwheel channel=0 pitch=0 time=25\n",
      "pitchwheel channel=0 pitch=0 time=0\n",
      "note_on channel=0 note=63 velocity=80 time=78\n",
      "note_on channel=0 note=63 velocity=80 time=0\n",
      "note_on channel=0 note=63 velocity=0 time=1282\n",
      "note_on channel=0 note=63 velocity=0 time=0\n",
      "note_on channel=0 note=63 velocity=76 time=120\n",
      "note_on channel=0 note=63 velocity=76 time=0\n",
      "note_on channel=0 note=63 velocity=0 time=637\n",
      "note_on channel=0 note=63 velocity=0 time=0\n",
      "note_on channel=0 note=63 velocity=72 time=117\n",
      "note_on channel=0 note=63 velocity=72 time=0\n",
      "note_on channel=0 note=63 velocity=0 time=1342\n",
      "note_on channel=0 note=63 velocity=0 time=0\n",
      "note_on channel=0 note=61 velocity=87 time=185\n",
      "note_on channel=0 note=61 velocity=87 time=0\n",
      "pitchwheel channel=0 pitch=-25 time=106\n",
      "pitchwheel channel=0 pitch=-25 time=0\n",
      "pitchwheel channel=0 pitch=-964 time=25\n",
      "pitchwheel channel=0 pitch=-964 time=0\n",
      "pitchwheel channel=0 pitch=-1928 time=24\n",
      "pitchwheel channel=0 pitch=-1928 time=0\n",
      "pitchwheel channel=0 pitch=-2795 time=26\n",
      "pitchwheel channel=0 pitch=-2795 time=0\n",
      "pitchwheel channel=0 pitch=-3638 time=26\n",
      "pitchwheel channel=0 pitch=-3638 time=0\n",
      "pitchwheel channel=0 pitch=-4313 time=25\n",
      "pitchwheel channel=0 pitch=-4313 time=0\n",
      "pitchwheel channel=0 pitch=-4891 time=26\n",
      "pitchwheel channel=0 pitch=-4891 time=0\n",
      "pitchwheel channel=0 pitch=-5469 time=27\n",
      "pitchwheel channel=0 pitch=-5469 time=0\n",
      "pitchwheel channel=0 pitch=-6120 time=26\n",
      "pitchwheel channel=0 pitch=-6120 time=0\n",
      "pitchwheel channel=0 pitch=-6674 time=25\n",
      "pitchwheel channel=0 pitch=-6674 time=0\n",
      "pitchwheel channel=0 pitch=-6963 time=26\n",
      "pitchwheel channel=0 pitch=-6963 time=0\n",
      "pitchwheel channel=0 pitch=-7300 time=25\n",
      "pitchwheel channel=0 pitch=-7300 time=0\n",
      "pitchwheel channel=0 pitch=-7565 time=26\n",
      "pitchwheel channel=0 pitch=-7565 time=0\n",
      "pitchwheel channel=0 pitch=-7710 time=25\n",
      "pitchwheel channel=0 pitch=-7710 time=0\n",
      "pitchwheel channel=0 pitch=-7565 time=77\n",
      "pitchwheel channel=0 pitch=-7565 time=0\n",
      "pitchwheel channel=0 pitch=-7300 time=25\n",
      "pitchwheel channel=0 pitch=-7300 time=0\n",
      "pitchwheel channel=0 pitch=-6698 time=26\n",
      "pitchwheel channel=0 pitch=-6698 time=0\n",
      "pitchwheel channel=0 pitch=-6047 time=26\n",
      "pitchwheel channel=0 pitch=-6047 time=0\n",
      "pitchwheel channel=0 pitch=-5252 time=25\n",
      "pitchwheel channel=0 pitch=-5252 time=0\n",
      "pitchwheel channel=0 pitch=-4072 time=26\n",
      "pitchwheel channel=0 pitch=-4072 time=0\n",
      "pitchwheel channel=0 pitch=-2530 time=24\n",
      "pitchwheel channel=0 pitch=-2530 time=0\n",
      "pitchwheel channel=0 pitch=-820 time=28\n",
      "pitchwheel channel=0 pitch=-820 time=0\n",
      "note_on channel=0 note=61 velocity=0 time=2\n",
      "note_on channel=0 note=61 velocity=0 time=0\n",
      "pitchwheel channel=0 pitch=0 time=22\n",
      "pitchwheel channel=0 pitch=0 time=0\n",
      "note_on channel=0 note=61 velocity=80 time=103\n",
      "note_on channel=0 note=61 velocity=80 time=0\n",
      "pitchwheel channel=0 pitch=-1253 time=77\n",
      "pitchwheel channel=0 pitch=-1253 time=0\n",
      "pitchwheel channel=0 pitch=-2530 time=26\n",
      "pitchwheel channel=0 pitch=-2530 time=0\n",
      "pitchwheel channel=0 pitch=-3638 time=25\n",
      "pitchwheel channel=0 pitch=-3638 time=0\n",
      "pitchwheel channel=0 pitch=-4265 time=27\n",
      "pitchwheel channel=0 pitch=-4265 time=0\n",
      "pitchwheel channel=0 pitch=-4963 time=24\n",
      "pitchwheel channel=0 pitch=-4963 time=0\n",
      "pitchwheel channel=0 pitch=-5493 time=26\n",
      "pitchwheel channel=0 pitch=-5493 time=0\n",
      "pitchwheel channel=0 pitch=-6288 time=25\n",
      "pitchwheel channel=0 pitch=-6288 time=0\n",
      "pitchwheel channel=0 pitch=-6963 time=26\n",
      "pitchwheel channel=0 pitch=-6963 time=0\n",
      "pitchwheel channel=0 pitch=-7565 time=26\n",
      "pitchwheel channel=0 pitch=-7565 time=0\n",
      "pitchwheel channel=0 pitch=-7975 time=25\n",
      "pitchwheel channel=0 pitch=-7975 time=0\n",
      "pitchwheel channel=0 pitch=-8192 time=26\n",
      "pitchwheel channel=0 pitch=-8192 time=0\n",
      "pitchwheel channel=0 pitch=-8095 time=180\n",
      "pitchwheel channel=0 pitch=-8095 time=0\n",
      "pitchwheel channel=0 pitch=-7613 time=26\n",
      "pitchwheel channel=0 pitch=-7613 time=0\n",
      "pitchwheel channel=0 pitch=-6891 time=24\n",
      "pitchwheel channel=0 pitch=-6891 time=0\n",
      "note_on channel=0 note=61 velocity=0 time=13\n",
      "note_on channel=0 note=61 velocity=0 time=0\n",
      "pitchwheel channel=0 pitch=-5951 time=11\n",
      "pitchwheel channel=0 pitch=-5951 time=0\n",
      "pitchwheel channel=0 pitch=-4554 time=27\n",
      "pitchwheel channel=0 pitch=-4554 time=0\n",
      "pitchwheel channel=0 pitch=-3181 time=26\n",
      "pitchwheel channel=0 pitch=-3181 time=0\n",
      "pitchwheel channel=0 pitch=-1422 time=25\n",
      "pitchwheel channel=0 pitch=-1422 time=0\n",
      "note_on channel=0 note=61 velocity=78 time=26\n",
      "note_on channel=0 note=61 velocity=78 time=0\n",
      "pitchwheel channel=0 pitch=-97 time=1\n",
      "pitchwheel channel=0 pitch=-97 time=0\n",
      "pitchwheel channel=0 pitch=0 time=24\n",
      "pitchwheel channel=0 pitch=0 time=0\n",
      "pitchwheel channel=0 pitch=-699 time=179\n",
      "pitchwheel channel=0 pitch=-699 time=0\n",
      "pitchwheel channel=0 pitch=-1639 time=25\n",
      "pitchwheel channel=0 pitch=-1639 time=0\n",
      "pitchwheel channel=0 pitch=-2578 time=26\n",
      "pitchwheel channel=0 pitch=-2578 time=0\n",
      "pitchwheel channel=0 pitch=-3542 time=27\n",
      "pitchwheel channel=0 pitch=-3542 time=0\n",
      "pitchwheel channel=0 pitch=-4265 time=25\n",
      "pitchwheel channel=0 pitch=-4265 time=0\n",
      "pitchwheel channel=0 pitch=-4915 time=24\n",
      "pitchwheel channel=0 pitch=-4915 time=0\n",
      "pitchwheel channel=0 pitch=-5301 time=26\n",
      "pitchwheel channel=0 pitch=-5301 time=0\n",
      "pitchwheel channel=0 pitch=-5782 time=26\n",
      "pitchwheel channel=0 pitch=-5782 time=0\n",
      "pitchwheel channel=0 pitch=-6096 time=25\n",
      "pitchwheel channel=0 pitch=-6096 time=0\n",
      "pitchwheel channel=0 pitch=-6288 time=26\n",
      "pitchwheel channel=0 pitch=-6288 time=0\n",
      "pitchwheel channel=0 pitch=-6409 time=27\n",
      "pitchwheel channel=0 pitch=-6409 time=0\n",
      "pitchwheel channel=0 pitch=-6553 time=24\n",
      "pitchwheel channel=0 pitch=-6553 time=0\n",
      "pitchwheel channel=0 pitch=-6457 time=104\n",
      "pitchwheel channel=0 pitch=-6457 time=0\n",
      "pitchwheel channel=0 pitch=-5951 time=24\n",
      "pitchwheel channel=0 pitch=-5951 time=0\n",
      "pitchwheel channel=0 pitch=-5228 time=27\n",
      "pitchwheel channel=0 pitch=-5228 time=0\n",
      "pitchwheel channel=0 pitch=-3976 time=25\n",
      "pitchwheel channel=0 pitch=-3976 time=0\n",
      "pitchwheel channel=0 pitch=-2386 time=26\n",
      "pitchwheel channel=0 pitch=-2386 time=0\n",
      "pitchwheel channel=0 pitch=-796 time=26\n",
      "pitchwheel channel=0 pitch=-796 time=0\n",
      "pitchwheel channel=0 pitch=0 time=24\n",
      "pitchwheel channel=0 pitch=0 time=0\n",
      "note_on channel=0 note=61 velocity=0 time=20\n",
      "note_on channel=0 note=61 velocity=0 time=0\n",
      "note_on channel=0 note=61 velocity=80 time=94\n",
      "note_on channel=0 note=61 velocity=80 time=0\n",
      "pitchwheel channel=0 pitch=-506 time=67\n",
      "pitchwheel channel=0 pitch=-506 time=0\n",
      "pitchwheel channel=0 pitch=-1711 time=26\n",
      "pitchwheel channel=0 pitch=-1711 time=0\n",
      "pitchwheel channel=0 pitch=-2867 time=25\n",
      "pitchwheel channel=0 pitch=-2867 time=0\n",
      "pitchwheel channel=0 pitch=-3373 time=26\n",
      "pitchwheel channel=0 pitch=-3373 time=0\n",
      "pitchwheel channel=0 pitch=-3879 time=25\n",
      "pitchwheel channel=0 pitch=-3879 time=0\n",
      "pitchwheel channel=0 pitch=-4457 time=26\n",
      "pitchwheel channel=0 pitch=-4457 time=0\n",
      "pitchwheel channel=0 pitch=-4987 time=25\n",
      "pitchwheel channel=0 pitch=-4987 time=0\n",
      "pitchwheel channel=0 pitch=-5638 time=26\n",
      "pitchwheel channel=0 pitch=-5638 time=0\n",
      "pitchwheel channel=0 pitch=-6288 time=26\n",
      "pitchwheel channel=0 pitch=-6288 time=0\n",
      "pitchwheel channel=0 pitch=-6866 time=25\n",
      "pitchwheel channel=0 pitch=-6866 time=0\n",
      "pitchwheel channel=0 pitch=-7156 time=26\n",
      "pitchwheel channel=0 pitch=-7156 time=0\n",
      "pitchwheel channel=0 pitch=-7493 time=24\n",
      "pitchwheel channel=0 pitch=-7493 time=0\n",
      "pitchwheel channel=0 pitch=-7613 time=26\n",
      "pitchwheel channel=0 pitch=-7613 time=0\n",
      "pitchwheel channel=0 pitch=-7493 time=155\n",
      "pitchwheel channel=0 pitch=-7493 time=0\n",
      "note_on channel=0 note=61 velocity=0 time=22\n",
      "note_on channel=0 note=61 velocity=0 time=0\n",
      "pitchwheel channel=0 pitch=-6529 time=29\n",
      "pitchwheel channel=0 pitch=-6529 time=0\n",
      "pitchwheel channel=0 pitch=-5349 time=26\n",
      "pitchwheel channel=0 pitch=-5349 time=0\n",
      "pitchwheel channel=0 pitch=-3783 time=25\n",
      "pitchwheel channel=0 pitch=-3783 time=0\n",
      "pitchwheel channel=0 pitch=-2048 time=26\n",
      "pitchwheel channel=0 pitch=-2048 time=0\n",
      "note_on channel=0 note=61 velocity=72 time=29\n",
      "note_on channel=0 note=61 velocity=72 time=0\n",
      "pitchwheel channel=0 pitch=-892 time=1\n",
      "pitchwheel channel=0 pitch=-892 time=0\n",
      "pitchwheel channel=0 pitch=-314 time=21\n",
      "pitchwheel channel=0 pitch=-314 time=0\n",
      "pitchwheel channel=0 pitch=0 time=25\n",
      "pitchwheel channel=0 pitch=0 time=0\n",
      "pitchwheel channel=0 pitch=-699 time=129\n",
      "pitchwheel channel=0 pitch=-699 time=0\n",
      "pitchwheel channel=0 pitch=-2434 time=26\n",
      "pitchwheel channel=0 pitch=-2434 time=0\n",
      "pitchwheel channel=0 pitch=-4120 time=24\n",
      "pitchwheel channel=0 pitch=-4120 time=0\n",
      "pitchwheel channel=0 pitch=-5349 time=28\n",
      "pitchwheel channel=0 pitch=-5349 time=0\n",
      "pitchwheel channel=0 pitch=-6023 time=24\n",
      "pitchwheel channel=0 pitch=-6023 time=0\n",
      "pitchwheel channel=0 pitch=-6553 time=26\n",
      "pitchwheel channel=0 pitch=-6553 time=0\n",
      "pitchwheel channel=0 pitch=-6770 time=27\n",
      "pitchwheel channel=0 pitch=-6770 time=0\n",
      "pitchwheel channel=0 pitch=-6674 time=177\n",
      "pitchwheel channel=0 pitch=-6674 time=0\n",
      "pitchwheel channel=0 pitch=-6577 time=26\n",
      "pitchwheel channel=0 pitch=-6577 time=0\n",
      "pitchwheel channel=0 pitch=-6288 time=27\n",
      "pitchwheel channel=0 pitch=-6288 time=0\n",
      "pitchwheel channel=0 pitch=-5855 time=22\n",
      "pitchwheel channel=0 pitch=-5855 time=0\n",
      "pitchwheel channel=0 pitch=-5036 time=28\n",
      "pitchwheel channel=0 pitch=-5036 time=0\n",
      "pitchwheel channel=0 pitch=-4120 time=25\n",
      "pitchwheel channel=0 pitch=-4120 time=0\n",
      "pitchwheel channel=0 pitch=-3108 time=26\n",
      "pitchwheel channel=0 pitch=-3108 time=0\n",
      "pitchwheel channel=0 pitch=-2361 time=26\n",
      "pitchwheel channel=0 pitch=-2361 time=0\n",
      "pitchwheel channel=0 pitch=-1783 time=25\n",
      "pitchwheel channel=0 pitch=-1783 time=0\n",
      "pitchwheel channel=0 pitch=-1350 time=27\n",
      "pitchwheel channel=0 pitch=-1350 time=0\n",
      "pitchwheel channel=0 pitch=-892 time=26\n",
      "pitchwheel channel=0 pitch=-892 time=0\n",
      "pitchwheel channel=0 pitch=-290 time=25\n",
      "pitchwheel channel=0 pitch=-290 time=0\n",
      "pitchwheel channel=0 pitch=0 time=26\n",
      "pitchwheel channel=0 pitch=0 time=0\n",
      "note_on channel=0 note=61 velocity=0 time=7022\n",
      "note_on channel=0 note=61 velocity=0 time=0\n",
      "control_change channel=0 control=99 value=0 time=1298\n",
      "control_change channel=0 control=98 value=2 time=1\n",
      "control_change channel=0 control=6 value=127 time=1\n",
      "control_change channel=0 control=38 value=0 time=1\n",
      "control_change channel=0 control=99 value=0 time=0\n",
      "control_change channel=0 control=98 value=2 time=1\n",
      "control_change channel=0 control=6 value=127 time=1\n",
      "control_change channel=0 control=38 value=0 time=1\n",
      "sysex data=(66,48,99,65,0,0,8,0,1,0,1) time=4\n",
      "sysex data=(66,48,99,65,0,0,8,0,1,0,1) time=0\n",
      "sysex data=(66,48,99,35) time=21\n",
      "sysex data=(66,48,99,35) time=0\n",
      "note_on channel=0 note=29 velocity=72 time=604\n",
      "note_on channel=0 note=29 velocity=72 time=0\n",
      "note_on channel=0 note=29 velocity=0 time=189\n",
      "note_on channel=0 note=29 velocity=0 time=0\n",
      "note_on channel=0 note=61 velocity=82 time=4405\n",
      "note_on channel=0 note=61 velocity=82 time=0\n",
      "note_on channel=0 note=66 velocity=74 time=988\n",
      "note_on channel=0 note=66 velocity=74 time=0\n",
      "note_on channel=0 note=61 velocity=0 time=191\n",
      "note_on channel=0 note=61 velocity=0 time=0\n",
      "note_on channel=0 note=64 velocity=76 time=433\n",
      "note_on channel=0 note=64 velocity=76 time=0\n",
      "note_on channel=0 note=66 velocity=0 time=115\n",
      "note_on channel=0 note=66 velocity=0 time=0\n",
      "note_on channel=0 note=66 velocity=90 time=499\n",
      "note_on channel=0 note=66 velocity=90 time=0\n",
      "note_on channel=0 note=64 velocity=0 time=124\n",
      "note_on channel=0 note=64 velocity=0 time=0\n",
      "note_on channel=0 note=66 velocity=0 time=1898\n",
      "note_on channel=0 note=66 velocity=0 time=0\n",
      "note_on channel=0 note=66 velocity=84 time=291\n",
      "note_on channel=0 note=66 velocity=84 time=0\n",
      "note_on channel=0 note=64 velocity=59 time=53\n",
      "note_on channel=0 note=64 velocity=59 time=0\n",
      "note_on channel=0 note=66 velocity=0 time=157\n",
      "note_on channel=0 note=66 velocity=0 time=0\n",
      "note_on channel=0 note=66 velocity=61 time=553\n",
      "note_on channel=0 note=66 velocity=61 time=0\n",
      "note_on channel=0 note=64 velocity=0 time=103\n",
      "note_on channel=0 note=64 velocity=0 time=0\n",
      "note_on channel=0 note=64 velocity=70 time=210\n",
      "note_on channel=0 note=64 velocity=70 time=0\n",
      "note_on channel=0 note=66 velocity=0 time=121\n",
      "note_on channel=0 note=66 velocity=0 time=0\n",
      "note_on channel=0 note=63 velocity=68 time=379\n",
      "note_on channel=0 note=63 velocity=68 time=0\n",
      "note_on channel=0 note=64 velocity=0 time=123\n",
      "note_on channel=0 note=64 velocity=0 time=0\n",
      "note_on channel=0 note=61 velocity=84 time=422\n",
      "note_on channel=0 note=61 velocity=84 time=0\n",
      "note_on channel=0 note=63 velocity=0 time=162\n",
      "note_on channel=0 note=63 velocity=0 time=0\n",
      "note_on channel=0 note=61 velocity=0 time=1908\n",
      "note_on channel=0 note=61 velocity=0 time=0\n",
      "note_on channel=0 note=61 velocity=90 time=237\n",
      "note_on channel=0 note=61 velocity=90 time=0\n",
      "note_on channel=0 note=66 velocity=74 time=1132\n",
      "note_on channel=0 note=66 velocity=74 time=0\n",
      "note_on channel=0 note=64 velocity=76 time=77\n",
      "note_on channel=0 note=64 velocity=76 time=0\n",
      "note_on channel=0 note=61 velocity=0 time=26\n",
      "note_on channel=0 note=61 velocity=0 time=0\n",
      "note_on channel=0 note=66 velocity=0 time=80\n",
      "note_on channel=0 note=66 velocity=0 time=0\n",
      "note_on channel=0 note=66 velocity=70 time=390\n",
      "note_on channel=0 note=66 velocity=70 time=0\n",
      "note_on channel=0 note=64 velocity=0 time=132\n",
      "note_on channel=0 note=64 velocity=0 time=0\n",
      "note_on channel=0 note=70 velocity=96 time=442\n",
      "note_on channel=0 note=70 velocity=96 time=0\n",
      "note_on channel=0 note=66 velocity=0 time=139\n",
      "note_on channel=0 note=66 velocity=0 time=0\n",
      "note_on channel=0 note=71 velocity=78 time=1057\n",
      "note_on channel=0 note=71 velocity=78 time=0\n",
      "note_on channel=0 note=70 velocity=0 time=94\n",
      "note_on channel=0 note=70 velocity=0 time=0\n",
      "note_on channel=0 note=70 velocity=72 time=406\n",
      "note_on channel=0 note=70 velocity=72 time=0\n",
      "note_on channel=0 note=71 velocity=0 time=103\n",
      "note_on channel=0 note=71 velocity=0 time=0\n",
      "note_on channel=0 note=73 velocity=84 time=463\n",
      "note_on channel=0 note=73 velocity=84 time=0\n",
      "note_on channel=0 note=70 velocity=0 time=32\n",
      "note_on channel=0 note=70 velocity=0 time=0\n",
      "note_on channel=0 note=71 velocity=74 time=73\n",
      "note_on channel=0 note=71 velocity=74 time=0\n",
      "note_on channel=0 note=73 velocity=0 time=163\n",
      "note_on channel=0 note=73 velocity=0 time=0\n",
      "note_on channel=0 note=70 velocity=82 time=19\n",
      "note_on channel=0 note=70 velocity=82 time=0\n",
      "note_on channel=0 note=71 velocity=0 time=114\n",
      "note_on channel=0 note=71 velocity=0 time=0\n",
      "note_on channel=0 note=71 velocity=61 time=125\n",
      "note_on channel=0 note=71 velocity=61 time=0\n",
      "note_on channel=0 note=70 velocity=0 time=56\n",
      "note_on channel=0 note=70 velocity=0 time=0\n",
      "note_on channel=0 note=70 velocity=84 time=377\n",
      "note_on channel=0 note=70 velocity=84 time=0\n",
      "note_on channel=0 note=71 velocity=0 time=114\n",
      "note_on channel=0 note=71 velocity=0 time=0\n",
      "note_on channel=0 note=66 velocity=84 time=512\n",
      "note_on channel=0 note=66 velocity=84 time=0\n",
      "note_on channel=0 note=70 velocity=0 time=109\n",
      "note_on channel=0 note=70 velocity=0 time=0\n",
      "note_on channel=0 note=66 velocity=0 time=334\n",
      "note_on channel=0 note=66 velocity=0 time=0\n",
      "note_on channel=0 note=64 velocity=78 time=138\n",
      "note_on channel=0 note=64 velocity=78 time=0\n",
      "note_on channel=0 note=66 velocity=74 time=273\n",
      "note_on channel=0 note=66 velocity=74 time=0\n",
      "note_on channel=0 note=64 velocity=0 time=79\n",
      "note_on channel=0 note=64 velocity=0 time=0\n",
      "note_on channel=0 note=64 velocity=74 time=182\n",
      "note_on channel=0 note=64 velocity=74 time=0\n",
      "note_on channel=0 note=66 velocity=0 time=37\n",
      "note_on channel=0 note=66 velocity=0 time=0\n",
      "note_on channel=0 note=63 velocity=78 time=214\n",
      "note_on channel=0 note=63 velocity=78 time=0\n",
      "note_on channel=0 note=64 velocity=0 time=59\n",
      "note_on channel=0 note=64 velocity=0 time=0\n",
      "note_on channel=0 note=61 velocity=87 time=226\n",
      "note_on channel=0 note=61 velocity=87 time=0\n",
      "note_on channel=0 note=63 velocity=0 time=112\n",
      "note_on channel=0 note=63 velocity=0 time=0\n",
      "note_on channel=0 note=63 velocity=68 time=460\n",
      "note_on channel=0 note=63 velocity=68 time=0\n",
      "note_on channel=0 note=61 velocity=0 time=118\n",
      "note_on channel=0 note=61 velocity=0 time=0\n",
      "note_on channel=0 note=63 velocity=0 time=279\n",
      "note_on channel=0 note=63 velocity=0 time=0\n",
      "note_on channel=0 note=59 velocity=87 time=275\n",
      "note_on channel=0 note=59 velocity=87 time=0\n",
      "note_on channel=0 note=61 velocity=80 time=33\n",
      "note_on channel=0 note=61 velocity=80 time=0\n",
      "note_on channel=0 note=58 velocity=84 time=166\n",
      "note_on channel=0 note=58 velocity=84 time=0\n",
      "note_on channel=0 note=61 velocity=0 time=72\n",
      "note_on channel=0 note=61 velocity=0 time=0\n",
      "note_on channel=0 note=59 velocity=0 time=95\n",
      "note_on channel=0 note=59 velocity=0 time=0\n",
      "note_on channel=0 note=59 velocity=39 time=61\n",
      "note_on channel=0 note=59 velocity=39 time=0\n",
      "note_on channel=0 note=58 velocity=0 time=81\n",
      "note_on channel=0 note=58 velocity=0 time=0\n",
      "note_on channel=0 note=59 velocity=0 time=288\n",
      "note_on channel=0 note=59 velocity=0 time=0\n",
      "note_on channel=0 note=61 velocity=84 time=56\n",
      "note_on channel=0 note=61 velocity=84 time=0\n",
      "note_on channel=0 note=58 velocity=55 time=93\n",
      "note_on channel=0 note=58 velocity=55 time=0\n",
      "note_on channel=0 note=61 velocity=0 time=217\n",
      "note_on channel=0 note=61 velocity=0 time=0\n",
      "note_on channel=0 note=59 velocity=78 time=521\n",
      "note_on channel=0 note=59 velocity=78 time=0\n",
      "note_on channel=0 note=58 velocity=0 time=132\n",
      "note_on channel=0 note=58 velocity=0 time=0\n",
      "note_on channel=0 note=61 velocity=96 time=406\n",
      "note_on channel=0 note=61 velocity=96 time=0\n",
      "note_on channel=0 note=59 velocity=0 time=130\n",
      "note_on channel=0 note=59 velocity=0 time=0\n",
      "note_on channel=0 note=66 velocity=72 time=397\n",
      "note_on channel=0 note=66 velocity=72 time=0\n",
      "note_on channel=0 note=61 velocity=0 time=202\n",
      "note_on channel=0 note=61 velocity=0 time=0\n",
      "note_on channel=0 note=64 velocity=68 time=408\n",
      "note_on channel=0 note=64 velocity=68 time=0\n",
      "note_on channel=0 note=66 velocity=0 time=123\n",
      "note_on channel=0 note=66 velocity=0 time=0\n",
      "note_on channel=0 note=66 velocity=84 time=496\n",
      "note_on channel=0 note=66 velocity=84 time=0\n",
      "note_on channel=0 note=64 velocity=0 time=89\n",
      "note_on channel=0 note=64 velocity=0 time=0\n",
      "note_on channel=0 note=70 velocity=87 time=444\n",
      "note_on channel=0 note=70 velocity=87 time=0\n",
      "note_on channel=0 note=66 velocity=0 time=126\n",
      "note_on channel=0 note=66 velocity=0 time=0\n",
      "note_on channel=0 note=70 velocity=0 time=845\n",
      "note_on channel=0 note=70 velocity=0 time=0\n",
      "note_on channel=0 note=68 velocity=96 time=184\n",
      "note_on channel=0 note=68 velocity=96 time=0\n",
      "note_on channel=0 note=70 velocity=87 time=534\n",
      "note_on channel=0 note=70 velocity=87 time=0\n",
      "note_on channel=0 note=68 velocity=0 time=35\n",
      "note_on channel=0 note=68 velocity=0 time=0\n",
      "note_on channel=0 note=70 velocity=0 time=522\n",
      "note_on channel=0 note=70 velocity=0 time=0\n",
      "note_on channel=0 note=70 velocity=44 time=61\n",
      "note_on channel=0 note=70 velocity=44 time=0\n",
      "note_on channel=0 note=71 velocity=87 time=50\n",
      "note_on channel=0 note=71 velocity=87 time=0\n",
      "note_on channel=0 note=70 velocity=0 time=81\n",
      "note_on channel=0 note=70 velocity=0 time=0\n",
      "note_on channel=0 note=70 velocity=82 time=949\n",
      "note_on channel=0 note=70 velocity=82 time=0\n",
      "note_on channel=0 note=71 velocity=0 time=152\n",
      "note_on channel=0 note=71 velocity=0 time=0\n",
      "note_on channel=0 note=70 velocity=0 time=1888\n",
      "note_on channel=0 note=70 velocity=0 time=0\n",
      "note_on channel=0 note=70 velocity=87 time=147\n",
      "note_on channel=0 note=70 velocity=87 time=0\n",
      "note_on channel=0 note=70 velocity=0 time=395\n",
      "note_on channel=0 note=70 velocity=0 time=0\n",
      "note_on channel=0 note=70 velocity=76 time=148\n",
      "note_on channel=0 note=70 velocity=76 time=0\n",
      "note_on channel=0 note=70 velocity=0 time=433\n",
      "note_on channel=0 note=70 velocity=0 time=0\n",
      "note_on channel=0 note=71 velocity=87 time=213\n",
      "note_on channel=0 note=71 velocity=87 time=0\n",
      "pitchwheel channel=0 pitch=-820 time=68\n",
      "pitchwheel channel=0 pitch=-820 time=0\n",
      "pitchwheel channel=0 pitch=-1591 time=25\n",
      "pitchwheel channel=0 pitch=-1591 time=0\n",
      "pitchwheel channel=0 pitch=-2000 time=26\n",
      "pitchwheel channel=0 pitch=-2000 time=0\n",
      "pitchwheel channel=0 pitch=-1566 time=78\n",
      "pitchwheel channel=0 pitch=-1566 time=0\n",
      "pitchwheel channel=0 pitch=-1061 time=26\n",
      "pitchwheel channel=0 pitch=-1061 time=0\n",
      "pitchwheel channel=0 pitch=-627 time=27\n",
      "pitchwheel channel=0 pitch=-627 time=0\n",
      "pitchwheel channel=0 pitch=0 time=24\n",
      "pitchwheel channel=0 pitch=0 time=0\n",
      "note_on channel=0 note=71 velocity=0 time=788\n",
      "note_on channel=0 note=71 velocity=0 time=0\n",
      "note_on channel=0 note=71 velocity=84 time=115\n",
      "note_on channel=0 note=71 velocity=84 time=0\n",
      "note_on channel=0 note=71 velocity=0 time=958\n",
      "note_on channel=0 note=71 velocity=0 time=0\n",
      "note_on channel=0 note=71 velocity=84 time=142\n",
      "note_on channel=0 note=71 velocity=84 time=0\n",
      "note_on channel=0 note=71 velocity=0 time=864\n",
      "note_on channel=0 note=71 velocity=0 time=0\n",
      "note_on channel=0 note=71 velocity=82 time=208\n",
      "note_on channel=0 note=71 velocity=82 time=0\n",
      "note_on channel=0 note=71 velocity=0 time=334\n",
      "note_on channel=0 note=71 velocity=0 time=0\n",
      "note_on channel=0 note=71 velocity=80 time=179\n",
      "note_on channel=0 note=71 velocity=80 time=0\n",
      "note_on channel=0 note=71 velocity=0 time=428\n",
      "note_on channel=0 note=71 velocity=0 time=0\n",
      "pitchwheel channel=0 pitch=329 time=128\n",
      "pitchwheel channel=0 pitch=329 time=0\n",
      "pitchwheel channel=0 pitch=1839 time=25\n",
      "pitchwheel channel=0 pitch=1839 time=0\n",
      "pitchwheel channel=0 pitch=3536 time=26\n",
      "pitchwheel channel=0 pitch=3536 time=0\n",
      "pitchwheel channel=0 pitch=5149 time=26\n",
      "pitchwheel channel=0 pitch=5149 time=0\n",
      "pitchwheel channel=0 pitch=6493 time=25\n",
      "pitchwheel channel=0 pitch=6493 time=0\n",
      "pitchwheel channel=0 pitch=7341 time=26\n",
      "pitchwheel channel=0 pitch=7341 time=0\n",
      "note_on channel=0 note=71 velocity=87 time=9\n",
      "note_on channel=0 note=71 velocity=87 time=0\n",
      "pitchwheel channel=0 pitch=7859 time=21\n",
      "pitchwheel channel=0 pitch=7859 time=0\n",
      "pitchwheel channel=0 pitch=8190 time=24\n",
      "pitchwheel channel=0 pitch=8190 time=0\n",
      "pitchwheel channel=0 pitch=8191 time=23\n",
      "pitchwheel channel=0 pitch=8191 time=0\n",
      "pitchwheel channel=0 pitch=8086 time=76\n",
      "pitchwheel channel=0 pitch=8086 time=0\n",
      "pitchwheel channel=0 pitch=7403 time=28\n",
      "pitchwheel channel=0 pitch=7403 time=0\n",
      "pitchwheel channel=0 pitch=6349 time=25\n",
      "pitchwheel channel=0 pitch=6349 time=0\n",
      "pitchwheel channel=0 pitch=4673 time=26\n",
      "pitchwheel channel=0 pitch=4673 time=0\n",
      "pitchwheel channel=0 pitch=2998 time=25\n",
      "pitchwheel channel=0 pitch=2998 time=0\n",
      "pitchwheel channel=0 pitch=1508 time=26\n",
      "pitchwheel channel=0 pitch=1508 time=0\n",
      "pitchwheel channel=0 pitch=433 time=24\n",
      "pitchwheel channel=0 pitch=433 time=0\n",
      "pitchwheel channel=0 pitch=0 time=28\n",
      "pitchwheel channel=0 pitch=0 time=0\n",
      "pitchwheel channel=0 pitch=1178 time=614\n",
      "pitchwheel channel=0 pitch=1178 time=0\n",
      "pitchwheel channel=0 pitch=2481 time=25\n",
      "pitchwheel channel=0 pitch=2481 time=0\n",
      "pitchwheel channel=0 pitch=3680 time=26\n",
      "pitchwheel channel=0 pitch=3680 time=0\n",
      "pitchwheel channel=0 pitch=4652 time=25\n",
      "pitchwheel channel=0 pitch=4652 time=0\n",
      "pitchwheel channel=0 pitch=5273 time=27\n",
      "pitchwheel channel=0 pitch=5273 time=0\n",
      "note_on channel=0 note=71 velocity=0 time=5\n",
      "note_on channel=0 note=71 velocity=0 time=0\n",
      "pitchwheel channel=0 pitch=5625 time=19\n",
      "pitchwheel channel=0 pitch=5625 time=0\n",
      "pitchwheel channel=0 pitch=5769 time=27\n",
      "pitchwheel channel=0 pitch=5769 time=0\n",
      "pitchwheel channel=0 pitch=5542 time=48\n",
      "pitchwheel channel=0 pitch=5542 time=0\n",
      "note_on channel=0 note=71 velocity=84 time=20\n",
      "note_on channel=0 note=71 velocity=84 time=0\n",
      "pitchwheel channel=0 pitch=4466 time=6\n",
      "pitchwheel channel=0 pitch=4466 time=0\n",
      "pitchwheel channel=0 pitch=2419 time=27\n",
      "pitchwheel channel=0 pitch=2419 time=0\n",
      "pitchwheel channel=0 pitch=102 time=29\n",
      "pitchwheel channel=0 pitch=102 time=0\n",
      "pitchwheel channel=0 pitch=0 time=24\n",
      "pitchwheel channel=0 pitch=0 time=0\n",
      "pitchwheel channel=0 pitch=267 time=254\n",
      "pitchwheel channel=0 pitch=267 time=0\n",
      "pitchwheel channel=0 pitch=1198 time=26\n",
      "pitchwheel channel=0 pitch=1198 time=0\n",
      "note_on channel=0 note=71 velocity=0 time=6\n",
      "note_on channel=0 note=71 velocity=0 time=0\n",
      "pitchwheel channel=0 pitch=2129 time=20\n",
      "pitchwheel channel=0 pitch=2129 time=0\n",
      "pitchwheel channel=0 pitch=2936 time=25\n",
      "pitchwheel channel=0 pitch=2936 time=0\n",
      "pitchwheel channel=0 pitch=3391 time=26\n",
      "pitchwheel channel=0 pitch=3391 time=0\n",
      "note_on channel=0 note=71 velocity=84 time=38\n",
      "note_on channel=0 note=71 velocity=84 time=0\n",
      "pitchwheel channel=0 pitch=2253 time=16\n",
      "pitchwheel channel=0 pitch=2253 time=0\n",
      "pitchwheel channel=0 pitch=247 time=25\n",
      "pitchwheel channel=0 pitch=247 time=0\n",
      "pitchwheel channel=0 pitch=0 time=27\n",
      "pitchwheel channel=0 pitch=0 time=0\n",
      "pitchwheel channel=0 pitch=-482 time=77\n",
      "pitchwheel channel=0 pitch=-482 time=0\n",
      "pitchwheel channel=0 pitch=-49 time=51\n",
      "pitchwheel channel=0 pitch=-49 time=0\n",
      "pitchwheel channel=0 pitch=0 time=26\n",
      "pitchwheel channel=0 pitch=0 time=0\n",
      "pitchwheel channel=0 pitch=536 time=75\n",
      "pitchwheel channel=0 pitch=536 time=0\n",
      "pitchwheel channel=0 pitch=1529 time=24\n",
      "pitchwheel channel=0 pitch=1529 time=0\n",
      "pitchwheel channel=0 pitch=2026 time=25\n",
      "pitchwheel channel=0 pitch=2026 time=0\n",
      "pitchwheel channel=0 pitch=1819 time=75\n",
      "pitchwheel channel=0 pitch=1819 time=0\n",
      "pitchwheel channel=0 pitch=1115 time=27\n",
      "pitchwheel channel=0 pitch=1115 time=0\n",
      "pitchwheel channel=0 pitch=164 time=26\n",
      "pitchwheel channel=0 pitch=164 time=0\n",
      "pitchwheel channel=0 pitch=0 time=24\n",
      "pitchwheel channel=0 pitch=0 time=0\n",
      "note_on channel=0 note=70 velocity=96 time=93\n",
      "note_on channel=0 note=70 velocity=96 time=0\n",
      "note_on channel=0 note=71 velocity=0 time=86\n",
      "note_on channel=0 note=71 velocity=0 time=0\n",
      "note_on channel=0 note=70 velocity=0 time=780\n",
      "note_on channel=0 note=70 velocity=0 time=0\n",
      "note_on channel=0 note=70 velocity=80 time=145\n",
      "note_on channel=0 note=70 velocity=80 time=0\n",
      "note_on channel=0 note=66 velocity=82 time=557\n",
      "note_on channel=0 note=66 velocity=82 time=0\n",
      "note_on channel=0 note=70 velocity=0 time=185\n",
      "note_on channel=0 note=70 velocity=0 time=0\n",
      "note_on channel=0 note=66 velocity=0 time=276\n",
      "note_on channel=0 note=66 velocity=0 time=0\n",
      "note_on channel=0 note=66 velocity=82 time=178\n",
      "note_on channel=0 note=66 velocity=82 time=0\n",
      "note_on channel=0 note=70 velocity=84 time=511\n",
      "note_on channel=0 note=70 velocity=84 time=0\n",
      "note_on channel=0 note=66 velocity=0 time=77\n",
      "note_on channel=0 note=66 velocity=0 time=0\n",
      "note_on channel=0 note=71 velocity=72 time=507\n",
      "note_on channel=0 note=71 velocity=72 time=0\n",
      "note_on channel=0 note=70 velocity=0 time=102\n",
      "note_on channel=0 note=70 velocity=0 time=0\n",
      "note_on channel=0 note=73 velocity=82 time=441\n",
      "note_on channel=0 note=73 velocity=82 time=0\n",
      "note_on channel=0 note=71 velocity=0 time=118\n",
      "note_on channel=0 note=71 velocity=0 time=0\n",
      "note_on channel=0 note=73 velocity=0 time=297\n",
      "note_on channel=0 note=73 velocity=0 time=0\n",
      "note_on channel=0 note=73 velocity=68 time=190\n",
      "note_on channel=0 note=73 velocity=68 time=0\n",
      "note_on channel=0 note=71 velocity=84 time=7\n",
      "note_on channel=0 note=71 velocity=84 time=0\n",
      "note_on channel=0 note=70 velocity=99 time=192\n",
      "note_on channel=0 note=70 velocity=99 time=0\n",
      "note_on channel=0 note=71 velocity=0 time=61\n",
      "note_on channel=0 note=71 velocity=0 time=0\n",
      "note_on channel=0 note=73 velocity=0 time=3\n",
      "note_on channel=0 note=73 velocity=0 time=0\n",
      "note_on channel=0 note=71 velocity=74 time=168\n",
      "note_on channel=0 note=71 velocity=74 time=0\n",
      "note_on channel=0 note=70 velocity=0 time=72\n",
      "note_on channel=0 note=70 velocity=0 time=0\n",
      "note_on channel=0 note=70 velocity=84 time=442\n",
      "note_on channel=0 note=70 velocity=84 time=0\n",
      "note_on channel=0 note=71 velocity=0 time=69\n",
      "note_on channel=0 note=71 velocity=0 time=0\n",
      "note_on channel=0 note=66 velocity=90 time=778\n",
      "note_on channel=0 note=66 velocity=90 time=0\n",
      "note_on channel=0 note=70 velocity=0 time=92\n",
      "note_on channel=0 note=70 velocity=0 time=0\n",
      "note_on channel=0 note=66 velocity=0 time=310\n",
      "note_on channel=0 note=66 velocity=0 time=0\n",
      "note_on channel=0 note=64 velocity=90 time=128\n",
      "note_on channel=0 note=64 velocity=90 time=0\n",
      "note_on channel=0 note=66 velocity=74 time=295\n",
      "note_on channel=0 note=66 velocity=74 time=0\n",
      "note_on channel=0 note=64 velocity=0 time=63\n",
      "note_on channel=0 note=64 velocity=0 time=0\n",
      "note_on channel=0 note=64 velocity=78 time=182\n",
      "note_on channel=0 note=64 velocity=78 time=0\n",
      "note_on channel=0 note=66 velocity=0 time=74\n",
      "note_on channel=0 note=66 velocity=0 time=0\n",
      "note_on channel=0 note=66 velocity=76 time=193\n",
      "note_on channel=0 note=66 velocity=76 time=0\n",
      "note_on channel=0 note=64 velocity=0 time=81\n",
      "note_on channel=0 note=64 velocity=0 time=0\n",
      "note_on channel=0 note=64 velocity=76 time=203\n",
      "note_on channel=0 note=64 velocity=76 time=0\n",
      "note_on channel=0 note=66 velocity=0 time=19\n",
      "note_on channel=0 note=66 velocity=0 time=0\n",
      "note_on channel=0 note=63 velocity=82 time=237\n",
      "note_on channel=0 note=63 velocity=82 time=0\n",
      "note_on channel=0 note=64 velocity=0 time=71\n",
      "note_on channel=0 note=64 velocity=0 time=0\n",
      "note_on channel=0 note=61 velocity=78 time=205\n",
      "note_on channel=0 note=61 velocity=78 time=0\n",
      "note_on channel=0 note=63 velocity=0 time=91\n",
      "note_on channel=0 note=63 velocity=0 time=0\n",
      "note_on channel=0 note=59 velocity=84 time=195\n",
      "note_on channel=0 note=59 velocity=84 time=0\n",
      "note_on channel=0 note=61 velocity=0 time=74\n",
      "note_on channel=0 note=61 velocity=0 time=0\n",
      "note_on channel=0 note=63 velocity=90 time=257\n",
      "note_on channel=0 note=63 velocity=90 time=0\n",
      "note_on channel=0 note=61 velocity=102 time=8\n",
      "note_on channel=0 note=61 velocity=102 time=0\n",
      "note_on channel=0 note=59 velocity=0 time=141\n",
      "note_on channel=0 note=59 velocity=0 time=0\n",
      "note_on channel=0 note=63 velocity=0 time=34\n",
      "note_on channel=0 note=63 velocity=0 time=0\n",
      "note_on channel=0 note=61 velocity=0 time=512\n",
      "note_on channel=0 note=61 velocity=0 time=0\n",
      "note_on channel=0 note=66 velocity=90 time=152\n",
      "note_on channel=0 note=66 velocity=90 time=0\n",
      "note_on channel=0 note=64 velocity=72 time=296\n",
      "note_on channel=0 note=64 velocity=72 time=0\n",
      "note_on channel=0 note=66 velocity=0 time=147\n",
      "note_on channel=0 note=66 velocity=0 time=0\n",
      "note_on channel=0 note=66 velocity=90 time=360\n",
      "note_on channel=0 note=66 velocity=90 time=0\n",
      "note_on channel=0 note=64 velocity=0 time=107\n",
      "note_on channel=0 note=64 velocity=0 time=0\n",
      "note_on channel=0 note=64 velocity=82 time=532\n",
      "note_on channel=0 note=64 velocity=82 time=0\n",
      "note_on channel=0 note=64 velocity=0 time=165\n",
      "note_on channel=0 note=64 velocity=0 time=0\n",
      "note_on channel=0 note=66 velocity=0 time=732\n",
      "note_on channel=0 note=66 velocity=0 time=0\n",
      "note_on channel=0 note=66 velocity=87 time=149\n",
      "note_on channel=0 note=66 velocity=87 time=0\n",
      "note_on channel=0 note=64 velocity=62 time=67\n",
      "note_on channel=0 note=64 velocity=62 time=0\n",
      "note_on channel=0 note=66 velocity=0 time=192\n",
      "note_on channel=0 note=66 velocity=0 time=0\n",
      "note_on channel=0 note=66 velocity=99 time=330\n",
      "note_on channel=0 note=66 velocity=99 time=0\n",
      "note_on channel=0 note=64 velocity=0 time=109\n",
      "note_on channel=0 note=64 velocity=0 time=0\n",
      "note_on channel=0 note=66 velocity=0 time=333\n",
      "note_on channel=0 note=66 velocity=0 time=0\n",
      "note_on channel=0 note=66 velocity=70 time=140\n",
      "note_on channel=0 note=66 velocity=70 time=0\n",
      "note_on channel=0 note=70 velocity=96 time=10\n",
      "note_on channel=0 note=70 velocity=96 time=0\n",
      "note_on channel=0 note=66 velocity=0 time=156\n",
      "note_on channel=0 note=66 velocity=0 time=0\n",
      "note_on channel=0 note=66 velocity=78 time=665\n",
      "note_on channel=0 note=66 velocity=78 time=0\n",
      "note_on channel=0 note=70 velocity=0 time=71\n",
      "note_on channel=0 note=70 velocity=0 time=0\n",
      "note_on channel=0 note=70 velocity=76 time=210\n",
      "note_on channel=0 note=70 velocity=76 time=0\n",
      "note_on channel=0 note=66 velocity=0 time=88\n",
      "note_on channel=0 note=66 velocity=0 time=0\n",
      "note_on channel=0 note=73 velocity=76 time=484\n",
      "note_on channel=0 note=73 velocity=76 time=0\n",
      "note_on channel=0 note=70 velocity=0 time=68\n",
      "note_on channel=0 note=70 velocity=0 time=0\n",
      "note_on channel=0 note=72 velocity=76 time=93\n",
      "note_on channel=0 note=72 velocity=76 time=0\n",
      "note_on channel=0 note=73 velocity=0 time=93\n",
      "note_on channel=0 note=73 velocity=0 time=0\n",
      "note_on channel=0 note=72 velocity=0 time=262\n",
      "note_on channel=0 note=72 velocity=0 time=0\n",
      "note_on channel=0 note=70 velocity=90 time=59\n",
      "note_on channel=0 note=70 velocity=90 time=0\n",
      "note_on channel=0 note=66 velocity=99 time=1775\n",
      "note_on channel=0 note=66 velocity=99 time=0\n",
      "note_on channel=0 note=70 velocity=0 time=156\n",
      "note_on channel=0 note=70 velocity=0 time=0\n",
      "note_on channel=0 note=66 velocity=0 time=249\n",
      "note_on channel=0 note=66 velocity=0 time=0\n",
      "note_on channel=0 note=66 velocity=90 time=134\n",
      "note_on channel=0 note=66 velocity=90 time=0\n",
      "note_on channel=0 note=70 velocity=80 time=510\n",
      "note_on channel=0 note=70 velocity=80 time=0\n",
      "note_on channel=0 note=66 velocity=0 time=82\n",
      "note_on channel=0 note=66 velocity=0 time=0\n",
      "note_on channel=0 note=73 velocity=78 time=443\n",
      "note_on channel=0 note=73 velocity=78 time=0\n",
      "note_on channel=0 note=71 velocity=84 time=72\n",
      "note_on channel=0 note=71 velocity=84 time=0\n",
      "note_on channel=0 note=70 velocity=0 time=4\n",
      "note_on channel=0 note=70 velocity=0 time=0\n",
      "note_on channel=0 note=73 velocity=0 time=126\n",
      "note_on channel=0 note=73 velocity=0 time=0\n",
      "note_on channel=0 note=73 velocity=96 time=388\n",
      "note_on channel=0 note=73 velocity=96 time=0\n",
      "note_on channel=0 note=71 velocity=0 time=68\n",
      "note_on channel=0 note=71 velocity=0 time=0\n",
      "note_on channel=0 note=73 velocity=0 time=342\n",
      "note_on channel=0 note=73 velocity=0 time=0\n",
      "note_on channel=0 note=73 velocity=82 time=176\n",
      "note_on channel=0 note=73 velocity=82 time=0\n",
      "note_on channel=0 note=71 velocity=87 time=136\n",
      "note_on channel=0 note=71 velocity=87 time=0\n",
      "note_on channel=0 note=73 velocity=0 time=111\n",
      "note_on channel=0 note=73 velocity=0 time=0\n",
      "note_on channel=0 note=70 velocity=87 time=32\n",
      "note_on channel=0 note=70 velocity=87 time=0\n",
      "note_on channel=0 note=71 velocity=0 time=83\n",
      "note_on channel=0 note=71 velocity=0 time=0\n",
      "note_on channel=0 note=71 velocity=76 time=123\n",
      "note_on channel=0 note=71 velocity=76 time=0\n",
      "note_on channel=0 note=70 velocity=0 time=53\n",
      "note_on channel=0 note=70 velocity=0 time=0\n",
      "note_on channel=0 note=70 velocity=96 time=425\n",
      "note_on channel=0 note=70 velocity=96 time=0\n",
      "note_on channel=0 note=71 velocity=0 time=85\n",
      "note_on channel=0 note=71 velocity=0 time=0\n",
      "note_on channel=0 note=66 velocity=82 time=611\n",
      "note_on channel=0 note=66 velocity=82 time=0\n",
      "note_on channel=0 note=70 velocity=0 time=152\n",
      "note_on channel=0 note=70 velocity=0 time=0\n",
      "note_on channel=0 note=70 velocity=87 time=429\n",
      "note_on channel=0 note=70 velocity=87 time=0\n",
      "note_on channel=0 note=71 velocity=84 time=71\n",
      "note_on channel=0 note=71 velocity=84 time=0\n",
      "note_on channel=0 note=66 velocity=0 time=58\n",
      "note_on channel=0 note=66 velocity=0 time=0\n",
      "note_on channel=0 note=70 velocity=0 time=93\n",
      "note_on channel=0 note=70 velocity=0 time=0\n",
      "note_on channel=0 note=70 velocity=82 time=344\n",
      "note_on channel=0 note=70 velocity=82 time=0\n",
      "note_on channel=0 note=71 velocity=0 time=112\n",
      "note_on channel=0 note=71 velocity=0 time=0\n",
      "note_on channel=0 note=66 velocity=90 time=444\n",
      "note_on channel=0 note=66 velocity=90 time=0\n",
      "note_on channel=0 note=70 velocity=0 time=120\n",
      "note_on channel=0 note=70 velocity=0 time=0\n",
      "note_on channel=0 note=64 velocity=74 time=420\n",
      "note_on channel=0 note=64 velocity=74 time=0\n",
      "note_on channel=0 note=66 velocity=0 time=130\n",
      "note_on channel=0 note=66 velocity=0 time=0\n",
      "note_on channel=0 note=64 velocity=0 time=396\n",
      "note_on channel=0 note=64 velocity=0 time=0\n",
      "note_on channel=0 note=66 velocity=102 time=82\n",
      "note_on channel=0 note=66 velocity=102 time=0\n",
      "note_on channel=0 note=64 velocity=76 time=6\n",
      "note_on channel=0 note=64 velocity=76 time=0\n",
      "note_on channel=0 note=64 velocity=0 time=235\n",
      "note_on channel=0 note=64 velocity=0 time=0\n",
      "note_on channel=0 note=64 velocity=82 time=351\n",
      "note_on channel=0 note=64 velocity=82 time=0\n",
      "note_on channel=0 note=66 velocity=0 time=37\n",
      "note_on channel=0 note=66 velocity=0 time=0\n",
      "note_on channel=0 note=63 velocity=84 time=219\n",
      "note_on channel=0 note=63 velocity=84 time=0\n",
      "note_on channel=0 note=64 velocity=0 time=100\n",
      "note_on channel=0 note=64 velocity=0 time=0\n",
      "note_on channel=0 note=61 velocity=90 time=208\n",
      "note_on channel=0 note=61 velocity=90 time=0\n",
      "note_on channel=0 note=63 velocity=0 time=120\n",
      "note_on channel=0 note=63 velocity=0 time=0\n",
      "note_on channel=0 note=61 velocity=0 time=836\n",
      "note_on channel=0 note=61 velocity=0 time=0\n",
      "note_on channel=0 note=61 velocity=80 time=134\n",
      "note_on channel=0 note=61 velocity=80 time=0\n",
      "note_on channel=0 note=63 velocity=78 time=628\n",
      "note_on channel=0 note=63 velocity=78 time=0\n",
      "note_on channel=0 note=61 velocity=0 time=80\n",
      "note_on channel=0 note=61 velocity=0 time=0\n",
      "note_on channel=0 note=61 velocity=80 time=172\n",
      "note_on channel=0 note=61 velocity=80 time=0\n",
      "note_on channel=0 note=63 velocity=0 time=118\n",
      "note_on channel=0 note=63 velocity=0 time=0\n",
      "note_on channel=0 note=59 velocity=78 time=133\n",
      "note_on channel=0 note=59 velocity=78 time=0\n",
      "note_on channel=0 note=61 velocity=0 time=152\n",
      "note_on channel=0 note=61 velocity=0 time=0\n",
      "note_on channel=0 note=58 velocity=80 time=385\n",
      "note_on channel=0 note=58 velocity=80 time=0\n",
      "note_on channel=0 note=59 velocity=0 time=157\n",
      "note_on channel=0 note=59 velocity=0 time=0\n",
      "note_on channel=0 note=59 velocity=84 time=486\n",
      "note_on channel=0 note=59 velocity=84 time=0\n",
      "note_on channel=0 note=58 velocity=0 time=151\n",
      "note_on channel=0 note=58 velocity=0 time=0\n",
      "note_on channel=0 note=61 velocity=87 time=541\n",
      "note_on channel=0 note=61 velocity=87 time=0\n",
      "note_on channel=0 note=59 velocity=0 time=232\n",
      "note_on channel=0 note=59 velocity=0 time=0\n",
      "note_on channel=0 note=61 velocity=0 time=601\n",
      "note_on channel=0 note=61 velocity=0 time=0\n",
      "note_on channel=0 note=61 velocity=84 time=170\n",
      "note_on channel=0 note=61 velocity=84 time=0\n",
      "note_on channel=0 note=61 velocity=0 time=452\n",
      "note_on channel=0 note=61 velocity=0 time=0\n",
      "note_on channel=0 note=61 velocity=70 time=85\n",
      "note_on channel=0 note=61 velocity=70 time=0\n",
      "note_on channel=0 note=66 velocity=108 time=6\n",
      "note_on channel=0 note=66 velocity=108 time=0\n",
      "note_on channel=0 note=61 velocity=0 time=253\n",
      "note_on channel=0 note=61 velocity=0 time=0\n",
      "note_on channel=0 note=64 velocity=72 time=752\n",
      "note_on channel=0 note=64 velocity=72 time=0\n",
      "note_on channel=0 note=66 velocity=0 time=173\n",
      "note_on channel=0 note=66 velocity=0 time=0\n",
      "note_on channel=0 note=66 velocity=87 time=486\n",
      "note_on channel=0 note=66 velocity=87 time=0\n",
      "note_on channel=0 note=64 velocity=0 time=91\n",
      "note_on channel=0 note=64 velocity=0 time=0\n",
      "note_on channel=0 note=64 velocity=87 time=512\n",
      "note_on channel=0 note=64 velocity=87 time=0\n",
      "note_on channel=0 note=66 velocity=0 time=63\n",
      "note_on channel=0 note=66 velocity=0 time=0\n",
      "note_on channel=0 note=66 velocity=78 time=228\n",
      "note_on channel=0 note=66 velocity=78 time=0\n",
      "note_on channel=0 note=64 velocity=0 time=73\n",
      "note_on channel=0 note=64 velocity=0 time=0\n",
      "note_on channel=0 note=64 velocity=78 time=180\n",
      "note_on channel=0 note=64 velocity=78 time=0\n",
      "note_on channel=0 note=66 velocity=0 time=40\n",
      "note_on channel=0 note=66 velocity=0 time=0\n",
      "note_on channel=0 note=63 velocity=78 time=217\n",
      "note_on channel=0 note=63 velocity=78 time=0\n",
      "note_on channel=0 note=64 velocity=0 time=53\n",
      "note_on channel=0 note=64 velocity=0 time=0\n",
      "note_on channel=0 note=61 velocity=90 time=208\n",
      "note_on channel=0 note=61 velocity=90 time=0\n",
      "note_on channel=0 note=63 velocity=0 time=117\n",
      "note_on channel=0 note=63 velocity=0 time=0\n",
      "note_on channel=0 note=61 velocity=0 time=993\n",
      "note_on channel=0 note=61 velocity=0 time=0\n",
      "note_on channel=0 note=61 velocity=96 time=119\n",
      "note_on channel=0 note=61 velocity=96 time=0\n",
      "note_on channel=0 note=66 velocity=82 time=545\n",
      "note_on channel=0 note=66 velocity=82 time=0\n",
      "note_on channel=0 note=61 velocity=0 time=126\n",
      "note_on channel=0 note=61 velocity=0 time=0\n",
      "note_on channel=0 note=64 velocity=59 time=385\n",
      "note_on channel=0 note=64 velocity=59 time=0\n",
      "note_on channel=0 note=66 velocity=0 time=121\n",
      "note_on channel=0 note=66 velocity=0 time=0\n",
      "note_on channel=0 note=66 velocity=99 time=488\n",
      "note_on channel=0 note=66 velocity=99 time=0\n",
      "note_on channel=0 note=64 velocity=0 time=110\n",
      "note_on channel=0 note=64 velocity=0 time=0\n",
      "note_on channel=0 note=70 velocity=90 time=396\n",
      "note_on channel=0 note=70 velocity=90 time=0\n",
      "note_on channel=0 note=66 velocity=0 time=110\n",
      "note_on channel=0 note=66 velocity=0 time=0\n",
      "note_on channel=0 note=71 velocity=82 time=461\n",
      "note_on channel=0 note=71 velocity=82 time=0\n",
      "note_on channel=0 note=70 velocity=0 time=71\n",
      "note_on channel=0 note=70 velocity=0 time=0\n",
      "note_on channel=0 note=70 velocity=96 time=448\n",
      "note_on channel=0 note=70 velocity=96 time=0\n",
      "note_on channel=0 note=71 velocity=0 time=102\n",
      "note_on channel=0 note=71 velocity=0 time=0\n",
      "note_on channel=0 note=66 velocity=96 time=438\n",
      "note_on channel=0 note=66 velocity=96 time=0\n",
      "note_on channel=0 note=70 velocity=0 time=93\n",
      "note_on channel=0 note=70 velocity=0 time=0\n",
      "note_on channel=0 note=66 velocity=0 time=326\n",
      "note_on channel=0 note=66 velocity=0 time=0\n",
      "note_on channel=0 note=66 velocity=70 time=215\n",
      "note_on channel=0 note=66 velocity=70 time=0\n",
      "note_on channel=0 note=70 velocity=70 time=249\n",
      "note_on channel=0 note=70 velocity=70 time=0\n",
      "note_on channel=0 note=66 velocity=0 time=81\n",
      "note_on channel=0 note=66 velocity=0 time=0\n",
      "note_on channel=0 note=71 velocity=80 time=261\n",
      "note_on channel=0 note=71 velocity=80 time=0\n",
      "note_on channel=0 note=70 velocity=0 time=24\n",
      "note_on channel=0 note=70 velocity=0 time=0\n",
      "note_on channel=0 note=73 velocity=90 time=259\n",
      "note_on channel=0 note=73 velocity=90 time=0\n",
      "note_on channel=0 note=71 velocity=0 time=61\n",
      "note_on channel=0 note=71 velocity=0 time=0\n",
      "note_on channel=0 note=75 velocity=80 time=223\n",
      "note_on channel=0 note=75 velocity=80 time=0\n",
      "note_on channel=0 note=73 velocity=0 time=76\n",
      "note_on channel=0 note=73 velocity=0 time=0\n",
      "note_on channel=0 note=76 velocity=80 time=185\n",
      "note_on channel=0 note=76 velocity=80 time=0\n",
      "note_on channel=0 note=75 velocity=0 time=86\n",
      "note_on channel=0 note=75 velocity=0 time=0\n",
      "note_on channel=0 note=75 velocity=84 time=197\n",
      "note_on channel=0 note=75 velocity=84 time=0\n",
      "note_on channel=0 note=76 velocity=0 time=78\n",
      "note_on channel=0 note=76 velocity=0 time=0\n",
      "note_on channel=0 note=73 velocity=87 time=159\n",
      "note_on channel=0 note=73 velocity=87 time=0\n",
      "note_on channel=0 note=75 velocity=0 time=97\n",
      "note_on channel=0 note=75 velocity=0 time=0\n",
      "note_on channel=0 note=75 velocity=78 time=230\n",
      "note_on channel=0 note=75 velocity=78 time=0\n",
      "note_on channel=0 note=73 velocity=0 time=65\n",
      "note_on channel=0 note=73 velocity=0 time=0\n",
      "note_on channel=0 note=73 velocity=78 time=179\n",
      "note_on channel=0 note=73 velocity=78 time=0\n",
      "note_on channel=0 note=75 velocity=0 time=74\n",
      "note_on channel=0 note=75 velocity=0 time=0\n",
      "note_on channel=0 note=71 velocity=84 time=238\n",
      "note_on channel=0 note=71 velocity=84 time=0\n",
      "note_on channel=0 note=73 velocity=0 time=42\n",
      "note_on channel=0 note=73 velocity=0 time=0\n",
      "note_on channel=0 note=73 velocity=80 time=220\n",
      "note_on channel=0 note=73 velocity=80 time=0\n",
      "note_on channel=0 note=71 velocity=0 time=93\n",
      "note_on channel=0 note=71 velocity=0 time=0\n",
      "note_on channel=0 note=71 velocity=80 time=197\n",
      "note_on channel=0 note=71 velocity=80 time=0\n",
      "note_on channel=0 note=73 velocity=0 time=36\n",
      "note_on channel=0 note=73 velocity=0 time=0\n",
      "note_on channel=0 note=70 velocity=84 time=216\n",
      "note_on channel=0 note=70 velocity=84 time=0\n",
      "note_on channel=0 note=71 velocity=0 time=60\n",
      "note_on channel=0 note=71 velocity=0 time=0\n",
      "note_on channel=0 note=71 velocity=78 time=246\n",
      "note_on channel=0 note=71 velocity=78 time=0\n",
      "note_on channel=0 note=70 velocity=0 time=34\n",
      "note_on channel=0 note=70 velocity=0 time=0\n",
      "note_on channel=0 note=70 velocity=96 time=232\n",
      "note_on channel=0 note=70 velocity=96 time=0\n",
      "note_on channel=0 note=71 velocity=0 time=37\n",
      "note_on channel=0 note=71 velocity=0 time=0\n",
      "note_on channel=0 note=66 velocity=90 time=234\n",
      "note_on channel=0 note=66 velocity=90 time=0\n",
      "note_on channel=0 note=70 velocity=0 time=77\n",
      "note_on channel=0 note=70 velocity=0 time=0\n",
      "note_on channel=0 note=70 velocity=80 time=222\n",
      "note_on channel=0 note=70 velocity=80 time=0\n",
      "note_on channel=0 note=66 velocity=0 time=80\n",
      "note_on channel=0 note=66 velocity=0 time=0\n",
      "note_on channel=0 note=71 velocity=78 time=190\n",
      "note_on channel=0 note=71 velocity=78 time=0\n",
      "note_on channel=0 note=70 velocity=0 time=58\n",
      "note_on channel=0 note=70 velocity=0 time=0\n",
      "note_on channel=0 note=73 velocity=90 time=202\n",
      "note_on channel=0 note=73 velocity=90 time=0\n",
      "note_on channel=0 note=71 velocity=0 time=81\n",
      "note_on channel=0 note=71 velocity=0 time=0\n",
      "note_on channel=0 note=71 velocity=87 time=223\n",
      "note_on channel=0 note=71 velocity=87 time=0\n",
      "note_on channel=0 note=73 velocity=0 time=8\n",
      "note_on channel=0 note=73 velocity=0 time=0\n",
      "note_on channel=0 note=70 velocity=96 time=242\n",
      "note_on channel=0 note=70 velocity=96 time=0\n",
      "note_on channel=0 note=71 velocity=0 time=75\n",
      "note_on channel=0 note=71 velocity=0 time=0\n",
      "note_on channel=0 note=71 velocity=80 time=244\n",
      "note_on channel=0 note=71 velocity=80 time=0\n",
      "note_on channel=0 note=70 velocity=0 time=27\n",
      "note_on channel=0 note=70 velocity=0 time=0\n",
      "note_on channel=0 note=70 velocity=87 time=215\n",
      "note_on channel=0 note=70 velocity=87 time=0\n",
      "note_on channel=0 note=71 velocity=0 time=55\n",
      "note_on channel=0 note=71 velocity=0 time=0\n",
      "note_on channel=0 note=66 velocity=82 time=259\n",
      "note_on channel=0 note=66 velocity=82 time=0\n",
      "note_on channel=0 note=70 velocity=0 time=58\n",
      "note_on channel=0 note=70 velocity=0 time=0\n",
      "note_on channel=0 note=70 velocity=76 time=250\n",
      "note_on channel=0 note=70 velocity=76 time=0\n",
      "note_on channel=0 note=66 velocity=0 time=51\n",
      "note_on channel=0 note=66 velocity=0 time=0\n",
      "note_on channel=0 note=66 velocity=90 time=198\n",
      "note_on channel=0 note=66 velocity=90 time=0\n",
      "note_on channel=0 note=70 velocity=0 time=66\n",
      "note_on channel=0 note=70 velocity=0 time=0\n",
      "note_on channel=0 note=64 velocity=84 time=283\n",
      "note_on channel=0 note=64 velocity=84 time=0\n",
      "note_on channel=0 note=66 velocity=0 time=32\n",
      "note_on channel=0 note=66 velocity=0 time=0\n",
      "note_on channel=0 note=66 velocity=78 time=274\n",
      "note_on channel=0 note=66 velocity=78 time=0\n",
      "note_on channel=0 note=64 velocity=0 time=59\n",
      "note_on channel=0 note=64 velocity=0 time=0\n",
      "note_on channel=0 note=64 velocity=72 time=189\n",
      "note_on channel=0 note=64 velocity=72 time=0\n",
      "note_on channel=0 note=66 velocity=0 time=11\n",
      "note_on channel=0 note=66 velocity=0 time=0\n",
      "note_on channel=0 note=63 velocity=84 time=211\n",
      "note_on channel=0 note=63 velocity=84 time=0\n",
      "note_on channel=0 note=64 velocity=0 time=78\n",
      "note_on channel=0 note=64 velocity=0 time=0\n",
      "note_on channel=0 note=61 velocity=96 time=187\n",
      "note_on channel=0 note=61 velocity=96 time=0\n",
      "note_on channel=0 note=63 velocity=0 time=78\n",
      "note_on channel=0 note=63 velocity=0 time=0\n",
      "note_on channel=0 note=61 velocity=0 time=124\n",
      "note_on channel=0 note=61 velocity=0 time=0\n",
      "note_on channel=0 note=61 velocity=99 time=149\n",
      "note_on channel=0 note=61 velocity=99 time=0\n",
      "note_on channel=0 note=66 velocity=99 time=787\n",
      "note_on channel=0 note=66 velocity=99 time=0\n",
      "note_on channel=0 note=61 velocity=0 time=124\n",
      "note_on channel=0 note=61 velocity=0 time=0\n",
      "note_on channel=0 note=64 velocity=84 time=219\n",
      "note_on channel=0 note=64 velocity=84 time=0\n",
      "note_on channel=0 note=66 velocity=0 time=94\n",
      "note_on channel=0 note=66 velocity=0 time=0\n",
      "note_on channel=0 note=66 velocity=82 time=523\n",
      "note_on channel=0 note=66 velocity=82 time=0\n",
      "note_on channel=0 note=64 velocity=0 time=160\n",
      "note_on channel=0 note=64 velocity=0 time=0\n",
      "note_on channel=0 note=66 velocity=0 time=263\n",
      "note_on channel=0 note=66 velocity=0 time=0\n",
      "note_on channel=0 note=66 velocity=76 time=129\n",
      "note_on channel=0 note=66 velocity=76 time=0\n",
      "note_on channel=0 note=64 velocity=84 time=117\n",
      "note_on channel=0 note=64 velocity=84 time=0\n",
      "note_on channel=0 note=63 velocity=80 time=128\n",
      "note_on channel=0 note=63 velocity=80 time=0\n",
      "note_on channel=0 note=66 velocity=0 time=19\n",
      "note_on channel=0 note=66 velocity=0 time=0\n",
      "note_on channel=0 note=64 velocity=0 time=117\n",
      "note_on channel=0 note=64 velocity=0 time=0\n",
      "note_on channel=0 note=64 velocity=59 time=86\n",
      "note_on channel=0 note=64 velocity=59 time=0\n",
      "note_on channel=0 note=63 velocity=0 time=78\n",
      "note_on channel=0 note=63 velocity=0 time=0\n",
      "note_on channel=0 note=63 velocity=87 time=385\n",
      "note_on channel=0 note=63 velocity=87 time=0\n",
      "note_on channel=0 note=64 velocity=0 time=166\n",
      "note_on channel=0 note=64 velocity=0 time=0\n",
      "note_on channel=0 note=63 velocity=0 time=432\n",
      "note_on channel=0 note=63 velocity=0 time=0\n",
      "note_on channel=0 note=63 velocity=72 time=132\n",
      "note_on channel=0 note=63 velocity=72 time=0\n",
      "note_on channel=0 note=61 velocity=96 time=38\n",
      "note_on channel=0 note=61 velocity=96 time=0\n",
      "note_on channel=0 note=63 velocity=0 time=272\n",
      "note_on channel=0 note=63 velocity=0 time=0\n",
      "note_on channel=0 note=61 velocity=0 time=125\n",
      "note_on channel=0 note=61 velocity=0 time=0\n",
      "note_on channel=0 note=61 velocity=90 time=168\n",
      "note_on channel=0 note=61 velocity=90 time=0\n",
      "note_on channel=0 note=63 velocity=78 time=190\n",
      "note_on channel=0 note=63 velocity=78 time=0\n",
      "note_on channel=0 note=61 velocity=0 time=157\n",
      "note_on channel=0 note=61 velocity=0 time=0\n",
      "note_on channel=0 note=61 velocity=76 time=465\n",
      "note_on channel=0 note=61 velocity=76 time=0\n",
      "note_on channel=0 note=63 velocity=0 time=146\n",
      "note_on channel=0 note=63 velocity=0 time=0\n",
      "note_on channel=0 note=59 velocity=90 time=139\n",
      "note_on channel=0 note=59 velocity=90 time=0\n",
      "note_on channel=0 note=58 velocity=96 time=8\n",
      "note_on channel=0 note=58 velocity=96 time=0\n",
      "note_on channel=0 note=61 velocity=0 time=103\n",
      "note_on channel=0 note=61 velocity=0 time=0\n",
      "note_on channel=0 note=59 velocity=0 time=147\n",
      "note_on channel=0 note=59 velocity=0 time=0\n",
      "note_on channel=0 note=59 velocity=82 time=353\n",
      "note_on channel=0 note=59 velocity=82 time=0\n",
      "note_on channel=0 note=58 velocity=0 time=120\n",
      "note_on channel=0 note=58 velocity=0 time=0\n",
      "note_on channel=0 note=63 velocity=96 time=414\n",
      "note_on channel=0 note=63 velocity=96 time=0\n",
      "note_on channel=0 note=61 velocity=99 time=25\n",
      "note_on channel=0 note=61 velocity=99 time=0\n",
      "note_on channel=0 note=63 velocity=0 time=101\n",
      "note_on channel=0 note=63 velocity=0 time=0\n",
      "note_on channel=0 note=59 velocity=0 time=21\n",
      "note_on channel=0 note=59 velocity=0 time=0\n",
      "note_on channel=0 note=66 velocity=78 time=440\n",
      "note_on channel=0 note=66 velocity=78 time=0\n",
      "note_on channel=0 note=61 velocity=0 time=216\n",
      "note_on channel=0 note=61 velocity=0 time=0\n",
      "note_on channel=0 note=61 velocity=59 time=279\n",
      "note_on channel=0 note=61 velocity=59 time=0\n",
      "note_on channel=0 note=61 velocity=0 time=229\n",
      "note_on channel=0 note=61 velocity=0 time=0\n",
      "note_on channel=0 note=61 velocity=61 time=347\n",
      "note_on channel=0 note=61 velocity=61 time=0\n",
      "note_on channel=0 note=61 velocity=0 time=117\n",
      "note_on channel=0 note=61 velocity=0 time=0\n",
      "note_on channel=0 note=61 velocity=70 time=474\n",
      "note_on channel=0 note=61 velocity=70 time=0\n",
      "note_on channel=0 note=66 velocity=0 time=141\n",
      "note_on channel=0 note=66 velocity=0 time=0\n",
      "note_on channel=0 note=66 velocity=82 time=442\n",
      "note_on channel=0 note=66 velocity=82 time=0\n",
      "note_on channel=0 note=61 velocity=0 time=112\n",
      "note_on channel=0 note=61 velocity=0 time=0\n",
      "note_on channel=0 note=64 velocity=87 time=420\n",
      "note_on channel=0 note=64 velocity=87 time=0\n",
      "note_on channel=0 note=66 velocity=0 time=140\n",
      "note_on channel=0 note=66 velocity=0 time=0\n",
      "note_on channel=0 note=66 velocity=80 time=417\n",
      "note_on channel=0 note=66 velocity=80 time=0\n",
      "note_on channel=0 note=64 velocity=0 time=53\n",
      "note_on channel=0 note=64 velocity=0 time=0\n",
      "note_on channel=0 note=68 velocity=70 time=91\n",
      "note_on channel=0 note=68 velocity=70 time=0\n",
      "note_on channel=0 note=66 velocity=0 time=61\n",
      "note_on channel=0 note=66 velocity=0 time=0\n",
      "note_on channel=0 note=66 velocity=72 time=85\n",
      "note_on channel=0 note=66 velocity=72 time=0\n",
      "note_on channel=0 note=68 velocity=0 time=91\n",
      "note_on channel=0 note=68 velocity=0 time=0\n",
      "note_on channel=0 note=64 velocity=90 time=256\n",
      "note_on channel=0 note=64 velocity=90 time=0\n",
      "note_on channel=0 note=63 velocity=78 time=99\n",
      "note_on channel=0 note=63 velocity=78 time=0\n",
      "note_on channel=0 note=66 velocity=0 time=9\n",
      "note_on channel=0 note=66 velocity=0 time=0\n",
      "note_on channel=0 note=64 velocity=0 time=132\n",
      "note_on channel=0 note=64 velocity=0 time=0\n",
      "note_on channel=0 note=64 velocity=68 time=109\n",
      "note_on channel=0 note=64 velocity=68 time=0\n",
      "note_on channel=0 note=63 velocity=0 time=73\n",
      "note_on channel=0 note=63 velocity=0 time=0\n",
      "note_on channel=0 note=63 velocity=87 time=491\n",
      "note_on channel=0 note=63 velocity=87 time=0\n",
      "note_on channel=0 note=61 velocity=99 time=98\n",
      "note_on channel=0 note=61 velocity=99 time=0\n",
      "note_on channel=0 note=63 velocity=0 time=70\n",
      "note_on channel=0 note=63 velocity=0 time=0\n",
      "note_on channel=0 note=64 velocity=0 time=2\n",
      "note_on channel=0 note=64 velocity=0 time=0\n",
      "note_on channel=0 note=63 velocity=78 time=123\n",
      "note_on channel=0 note=63 velocity=78 time=0\n",
      "note_on channel=0 note=61 velocity=0 time=61\n",
      "note_on channel=0 note=61 velocity=0 time=0\n",
      "note_on channel=0 note=61 velocity=96 time=478\n",
      "note_on channel=0 note=61 velocity=96 time=0\n",
      "note_on channel=0 note=63 velocity=0 time=123\n",
      "note_on channel=0 note=63 velocity=0 time=0\n",
      "note_on channel=0 note=61 velocity=0 time=266\n",
      "note_on channel=0 note=61 velocity=0 time=0\n",
      "note_on channel=0 note=61 velocity=90 time=172\n",
      "note_on channel=0 note=61 velocity=90 time=0\n",
      "note_on channel=0 note=63 velocity=90 time=209\n",
      "note_on channel=0 note=63 velocity=90 time=0\n",
      "note_on channel=0 note=61 velocity=0 time=94\n",
      "note_on channel=0 note=61 velocity=0 time=0\n",
      "note_on channel=0 note=61 velocity=87 time=458\n",
      "note_on channel=0 note=61 velocity=87 time=0\n",
      "note_on channel=0 note=63 velocity=0 time=104\n",
      "note_on channel=0 note=63 velocity=0 time=0\n",
      "note_on channel=0 note=59 velocity=90 time=182\n",
      "note_on channel=0 note=59 velocity=90 time=0\n",
      "note_on channel=0 note=58 velocity=102 time=21\n",
      "note_on channel=0 note=58 velocity=102 time=0\n",
      "note_on channel=0 note=61 velocity=0 time=74\n",
      "note_on channel=0 note=61 velocity=0 time=0\n",
      "note_on channel=0 note=59 velocity=0 time=67\n",
      "note_on channel=0 note=59 velocity=0 time=0\n",
      "note_on channel=0 note=59 velocity=84 time=398\n",
      "note_on channel=0 note=59 velocity=84 time=0\n",
      "note_on channel=0 note=58 velocity=0 time=105\n",
      "note_on channel=0 note=58 velocity=0 time=0\n",
      "note_on channel=0 note=63 velocity=90 time=460\n",
      "note_on channel=0 note=63 velocity=90 time=0\n",
      "note_on channel=0 note=61 velocity=102 time=40\n",
      "note_on channel=0 note=61 velocity=102 time=0\n",
      "note_on channel=0 note=59 velocity=0 time=109\n",
      "note_on channel=0 note=59 velocity=0 time=0\n",
      "note_on channel=0 note=63 velocity=0 time=16\n",
      "note_on channel=0 note=63 velocity=0 time=0\n",
      "note_on channel=0 note=66 velocity=87 time=437\n",
      "note_on channel=0 note=66 velocity=87 time=0\n",
      "note_on channel=0 note=61 velocity=0 time=215\n",
      "note_on channel=0 note=61 velocity=0 time=0\n",
      "note_on channel=0 note=66 velocity=0 time=718\n",
      "note_on channel=0 note=66 velocity=0 time=0\n",
      "note_on channel=0 note=66 velocity=80 time=177\n",
      "note_on channel=0 note=66 velocity=80 time=0\n",
      "note_on channel=0 note=66 velocity=0 time=341\n",
      "note_on channel=0 note=66 velocity=0 time=0\n",
      "note_on channel=0 note=66 velocity=90 time=206\n",
      "note_on channel=0 note=66 velocity=90 time=0\n",
      "note_on channel=0 note=64 velocity=80 time=186\n",
      "note_on channel=0 note=64 velocity=80 time=0\n",
      "note_on channel=0 note=66 velocity=0 time=162\n",
      "note_on channel=0 note=66 velocity=0 time=0\n",
      "note_on channel=0 note=66 velocity=80 time=198\n",
      "note_on channel=0 note=66 velocity=80 time=0\n",
      "note_on channel=0 note=64 velocity=0 time=62\n",
      "note_on channel=0 note=64 velocity=0 time=0\n",
      "note_on channel=0 note=64 velocity=80 time=148\n",
      "note_on channel=0 note=64 velocity=80 time=0\n",
      "note_on channel=0 note=66 velocity=0 time=92\n",
      "note_on channel=0 note=66 velocity=0 time=0\n",
      "note_on channel=0 note=66 velocity=96 time=303\n",
      "note_on channel=0 note=66 velocity=96 time=0\n",
      "note_on channel=0 note=64 velocity=0 time=139\n",
      "note_on channel=0 note=64 velocity=0 time=0\n",
      "note_on channel=0 note=66 velocity=0 time=280\n",
      "note_on channel=0 note=66 velocity=0 time=0\n",
      "note_on channel=0 note=66 velocity=90 time=156\n",
      "note_on channel=0 note=66 velocity=90 time=0\n",
      "note_on channel=0 note=66 velocity=0 time=420\n",
      "note_on channel=0 note=66 velocity=0 time=0\n",
      "note_on channel=0 note=70 velocity=96 time=120\n",
      "note_on channel=0 note=70 velocity=96 time=0\n",
      "note_on channel=0 note=66 velocity=76 time=8\n",
      "note_on channel=0 note=66 velocity=76 time=0\n",
      "note_on channel=0 note=66 velocity=0 time=117\n",
      "note_on channel=0 note=66 velocity=0 time=0\n",
      "note_on channel=0 note=70 velocity=0 time=264\n",
      "note_on channel=0 note=70 velocity=0 time=0\n",
      "note_on channel=0 note=70 velocity=82 time=139\n",
      "note_on channel=0 note=70 velocity=82 time=0\n",
      "note_on channel=0 note=73 velocity=78 time=533\n",
      "note_on channel=0 note=73 velocity=78 time=0\n",
      "note_on channel=0 note=71 velocity=84 time=97\n",
      "note_on channel=0 note=71 velocity=84 time=0\n",
      "note_on channel=0 note=70 velocity=0 time=28\n",
      "note_on channel=0 note=70 velocity=0 time=0\n",
      "note_on channel=0 note=73 velocity=0 time=107\n",
      "note_on channel=0 note=73 velocity=0 time=0\n",
      "note_on channel=0 note=70 velocity=90 time=417\n",
      "note_on channel=0 note=70 velocity=90 time=0\n",
      "note_on channel=0 note=71 velocity=0 time=117\n",
      "note_on channel=0 note=71 velocity=0 time=0\n",
      "note_on channel=0 note=70 velocity=0 time=279\n",
      "note_on channel=0 note=70 velocity=0 time=0\n",
      "note_on channel=0 note=66 velocity=80 time=251\n",
      "note_on channel=0 note=66 velocity=80 time=0\n",
      "note_on channel=0 note=64 velocity=37 time=254\n",
      "note_on channel=0 note=64 velocity=37 time=0\n",
      "note_on channel=0 note=66 velocity=0 time=323\n",
      "note_on channel=0 note=66 velocity=0 time=0\n",
      "note_on channel=0 note=64 velocity=0 time=253\n",
      "note_on channel=0 note=64 velocity=0 time=0\n",
      "note_on channel=0 note=66 velocity=78 time=72\n",
      "note_on channel=0 note=66 velocity=78 time=0\n",
      "note_on channel=0 note=64 velocity=78 time=155\n",
      "note_on channel=0 note=64 velocity=78 time=0\n",
      "note_on channel=0 note=66 velocity=0 time=128\n",
      "note_on channel=0 note=66 velocity=0 time=0\n",
      "note_on channel=0 note=66 velocity=90 time=433\n",
      "note_on channel=0 note=66 velocity=90 time=0\n",
      "note_on channel=0 note=64 velocity=0 time=99\n",
      "note_on channel=0 note=64 velocity=0 time=0\n",
      "note_on channel=0 note=66 velocity=0 time=368\n",
      "note_on channel=0 note=66 velocity=0 time=0\n",
      "note_on channel=0 note=64 velocity=87 time=78\n",
      "note_on channel=0 note=64 velocity=87 time=0\n",
      "note_on channel=0 note=66 velocity=80 time=281\n",
      "note_on channel=0 note=66 velocity=80 time=0\n",
      "note_on channel=0 note=64 velocity=0 time=51\n",
      "note_on channel=0 note=64 velocity=0 time=0\n",
      "note_on channel=0 note=64 velocity=80 time=192\n",
      "note_on channel=0 note=64 velocity=80 time=0\n",
      "note_on channel=0 note=66 velocity=0 time=38\n",
      "note_on channel=0 note=66 velocity=0 time=0\n",
      "note_on channel=0 note=63 velocity=90 time=200\n",
      "note_on channel=0 note=63 velocity=90 time=0\n",
      "note_on channel=0 note=64 velocity=0 time=70\n",
      "note_on channel=0 note=64 velocity=0 time=0\n",
      "note_on channel=0 note=61 velocity=99 time=208\n",
      "note_on channel=0 note=61 velocity=99 time=0\n",
      "note_on channel=0 note=63 velocity=0 time=139\n",
      "note_on channel=0 note=63 velocity=0 time=0\n",
      "note_on channel=0 note=66 velocity=87 time=1583\n",
      "note_on channel=0 note=66 velocity=87 time=0\n",
      "note_on channel=0 note=61 velocity=0 time=48\n",
      "note_on channel=0 note=61 velocity=0 time=0\n",
      "note_on channel=0 note=64 velocity=78 time=51\n",
      "note_on channel=0 note=64 velocity=78 time=0\n",
      "note_on channel=0 note=66 velocity=0 time=130\n",
      "note_on channel=0 note=66 velocity=0 time=0\n",
      "note_on channel=0 note=66 velocity=87 time=412\n",
      "note_on channel=0 note=66 velocity=87 time=0\n",
      "note_on channel=0 note=66 velocity=0 time=81\n",
      "note_on channel=0 note=66 velocity=0 time=0\n",
      "note_on channel=0 note=66 velocity=96 time=415\n",
      "note_on channel=0 note=66 velocity=96 time=0\n",
      "note_on channel=0 note=64 velocity=0 time=98\n",
      "note_on channel=0 note=64 velocity=0 time=0\n",
      "note_on channel=0 note=70 velocity=90 time=437\n",
      "note_on channel=0 note=70 velocity=90 time=0\n",
      "note_on channel=0 note=66 velocity=0 time=164\n",
      "note_on channel=0 note=66 velocity=0 time=0\n",
      "note_on channel=0 note=66 velocity=82 time=428\n",
      "note_on channel=0 note=66 velocity=82 time=0\n",
      "note_on channel=0 note=66 velocity=0 time=100\n",
      "note_on channel=0 note=66 velocity=0 time=0\n",
      "note_on channel=0 note=73 velocity=76 time=460\n",
      "note_on channel=0 note=73 velocity=76 time=0\n",
      "note_on channel=0 note=71 velocity=82 time=72\n",
      "note_on channel=0 note=71 velocity=82 time=0\n",
      "note_on channel=0 note=70 velocity=0 time=68\n",
      "note_on channel=0 note=70 velocity=0 time=0\n",
      "note_on channel=0 note=73 velocity=0 time=109\n",
      "note_on channel=0 note=73 velocity=0 time=0\n",
      "note_on channel=0 note=70 velocity=84 time=341\n",
      "note_on channel=0 note=70 velocity=84 time=0\n",
      "note_on channel=0 note=71 velocity=0 time=111\n",
      "note_on channel=0 note=71 velocity=0 time=0\n",
      "note_on channel=0 note=70 velocity=0 time=49\n",
      "note_on channel=0 note=70 velocity=0 time=0\n",
      "note_on channel=0 note=71 velocity=76 time=11\n",
      "note_on channel=0 note=71 velocity=76 time=0\n",
      "note_on channel=0 note=71 velocity=0 time=90\n",
      "note_on channel=0 note=71 velocity=0 time=0\n",
      "note_on channel=0 note=66 velocity=82 time=350\n",
      "note_on channel=0 note=66 velocity=82 time=0\n",
      "pitchwheel channel=0 pitch=-603 time=172\n",
      "pitchwheel channel=0 pitch=-603 time=0\n",
      "pitchwheel channel=0 pitch=-1591 time=22\n",
      "pitchwheel channel=0 pitch=-1591 time=0\n",
      "pitchwheel channel=0 pitch=-2313 time=26\n",
      "pitchwheel channel=0 pitch=-2313 time=0\n",
      "pitchwheel channel=0 pitch=-2843 time=25\n",
      "pitchwheel channel=0 pitch=-2843 time=0\n",
      "pitchwheel channel=0 pitch=-3277 time=26\n",
      "pitchwheel channel=0 pitch=-3277 time=0\n",
      "pitchwheel channel=0 pitch=-3735 time=32\n",
      "pitchwheel channel=0 pitch=-3735 time=0\n",
      "pitchwheel channel=0 pitch=-4096 time=22\n",
      "pitchwheel channel=0 pitch=-4096 time=0\n",
      "pitchwheel channel=0 pitch=-4409 time=23\n",
      "pitchwheel channel=0 pitch=-4409 time=0\n",
      "pitchwheel channel=0 pitch=-4674 time=25\n",
      "pitchwheel channel=0 pitch=-4674 time=0\n",
      "pitchwheel channel=0 pitch=-4915 time=29\n",
      "pitchwheel channel=0 pitch=-4915 time=0\n",
      "pitchwheel channel=0 pitch=-5301 time=24\n",
      "pitchwheel channel=0 pitch=-5301 time=0\n",
      "pitchwheel channel=0 pitch=-5662 time=26\n",
      "pitchwheel channel=0 pitch=-5662 time=0\n",
      "pitchwheel channel=0 pitch=-5903 time=25\n",
      "pitchwheel channel=0 pitch=-5903 time=0\n",
      "pitchwheel channel=0 pitch=-6336 time=26\n",
      "pitchwheel channel=0 pitch=-6336 time=0\n",
      "pitchwheel channel=0 pitch=-6650 time=26\n",
      "pitchwheel channel=0 pitch=-6650 time=0\n",
      "pitchwheel channel=0 pitch=-6842 time=25\n",
      "pitchwheel channel=0 pitch=-6842 time=0\n",
      "pitchwheel channel=0 pitch=-7180 time=30\n",
      "pitchwheel channel=0 pitch=-7180 time=0\n",
      "pitchwheel channel=0 pitch=-7396 time=23\n",
      "pitchwheel channel=0 pitch=-7396 time=0\n",
      "pitchwheel channel=0 pitch=-7661 time=47\n",
      "pitchwheel channel=0 pitch=-7661 time=0\n",
      "pitchwheel channel=0 pitch=-7830 time=26\n",
      "pitchwheel channel=0 pitch=-7830 time=0\n",
      "pitchwheel channel=0 pitch=-8023 time=54\n",
      "pitchwheel channel=0 pitch=-8023 time=0\n",
      "pitchwheel channel=0 pitch=-8119 time=52\n",
      "pitchwheel channel=0 pitch=-8119 time=0\n",
      "pitchwheel channel=0 pitch=-7541 time=101\n",
      "pitchwheel channel=0 pitch=-7541 time=0\n",
      "pitchwheel channel=0 pitch=-6818 time=25\n",
      "pitchwheel channel=0 pitch=-6818 time=0\n",
      "pitchwheel channel=0 pitch=-5927 time=26\n",
      "pitchwheel channel=0 pitch=-5927 time=0\n",
      "pitchwheel channel=0 pitch=-4457 time=27\n",
      "pitchwheel channel=0 pitch=-4457 time=0\n",
      "pitchwheel channel=0 pitch=-2843 time=25\n",
      "pitchwheel channel=0 pitch=-2843 time=0\n",
      "pitchwheel channel=0 pitch=-1133 time=26\n",
      "pitchwheel channel=0 pitch=-1133 time=0\n",
      "note_on channel=0 note=66 velocity=0 time=21\n",
      "note_on channel=0 note=66 velocity=0 time=0\n",
      "pitchwheel channel=0 pitch=0 time=5\n",
      "pitchwheel channel=0 pitch=0 time=0\n",
      "note_on channel=0 note=66 velocity=90 time=91\n",
      "note_on channel=0 note=66 velocity=90 time=0\n",
      "pitchwheel channel=0 pitch=-25 time=36\n",
      "pitchwheel channel=0 pitch=-25 time=0\n",
      "pitchwheel channel=0 pitch=-1398 time=26\n",
      "pitchwheel channel=0 pitch=-1398 time=0\n",
      "pitchwheel channel=0 pitch=-2771 time=24\n",
      "pitchwheel channel=0 pitch=-2771 time=0\n",
      "pitchwheel channel=0 pitch=-3855 time=25\n",
      "pitchwheel channel=0 pitch=-3855 time=0\n",
      "pitchwheel channel=0 pitch=-4650 time=26\n",
      "pitchwheel channel=0 pitch=-4650 time=0\n",
      "pitchwheel channel=0 pitch=-5204 time=24\n",
      "pitchwheel channel=0 pitch=-5204 time=0\n",
      "pitchwheel channel=0 pitch=-5782 time=29\n",
      "pitchwheel channel=0 pitch=-5782 time=0\n",
      "pitchwheel channel=0 pitch=-6192 time=25\n",
      "pitchwheel channel=0 pitch=-6192 time=0\n",
      "pitchwheel channel=0 pitch=-6601 time=26\n",
      "pitchwheel channel=0 pitch=-6601 time=0\n",
      "pitchwheel channel=0 pitch=-7107 time=26\n",
      "pitchwheel channel=0 pitch=-7107 time=0\n",
      "pitchwheel channel=0 pitch=-7469 time=28\n",
      "pitchwheel channel=0 pitch=-7469 time=0\n",
      "pitchwheel channel=0 pitch=-7734 time=21\n",
      "pitchwheel channel=0 pitch=-7734 time=0\n",
      "pitchwheel channel=0 pitch=-7854 time=26\n",
      "pitchwheel channel=0 pitch=-7854 time=0\n",
      "pitchwheel channel=0 pitch=-7517 time=77\n",
      "pitchwheel channel=0 pitch=-7517 time=0\n",
      "pitchwheel channel=0 pitch=-6505 time=25\n",
      "pitchwheel channel=0 pitch=-6505 time=0\n",
      "pitchwheel channel=0 pitch=-5276 time=26\n",
      "pitchwheel channel=0 pitch=-5276 time=0\n",
      "pitchwheel channel=0 pitch=-3759 time=24\n",
      "pitchwheel channel=0 pitch=-3759 time=0\n",
      "pitchwheel channel=0 pitch=-2193 time=26\n",
      "pitchwheel channel=0 pitch=-2193 time=0\n",
      "pitchwheel channel=0 pitch=-964 time=26\n",
      "pitchwheel channel=0 pitch=-964 time=0\n",
      "pitchwheel channel=0 pitch=-121 time=25\n",
      "pitchwheel channel=0 pitch=-121 time=0\n",
      "pitchwheel channel=0 pitch=0 time=27\n",
      "pitchwheel channel=0 pitch=0 time=0\n",
      "note_on channel=0 note=66 velocity=0 time=455\n",
      "note_on channel=0 note=66 velocity=0 time=0\n",
      "note_on channel=0 note=64 velocity=87 time=39\n",
      "note_on channel=0 note=64 velocity=87 time=0\n",
      "note_on channel=0 note=63 velocity=87 time=513\n",
      "note_on channel=0 note=63 velocity=87 time=0\n",
      "note_on channel=0 note=64 velocity=0 time=112\n",
      "note_on channel=0 note=64 velocity=0 time=0\n",
      "note_on channel=0 note=61 velocity=96 time=401\n",
      "note_on channel=0 note=61 velocity=96 time=0\n",
      "note_on channel=0 note=63 velocity=0 time=161\n",
      "note_on channel=0 note=63 velocity=0 time=0\n",
      "note_on channel=0 note=61 velocity=0 time=900\n",
      "note_on channel=0 note=61 velocity=0 time=0\n",
      "note_on channel=0 note=61 velocity=87 time=121\n",
      "note_on channel=0 note=61 velocity=87 time=0\n",
      "note_on channel=0 note=61 velocity=0 time=427\n",
      "note_on channel=0 note=61 velocity=0 time=0\n",
      "pitchwheel channel=0 pitch=-1 time=151\n",
      "pitchwheel channel=0 pitch=-1 time=0\n",
      "pitchwheel channel=0 pitch=247 time=23\n",
      "pitchwheel channel=0 pitch=247 time=0\n",
      "note_on channel=0 note=66 velocity=84 time=52\n",
      "note_on channel=0 note=66 velocity=84 time=0\n",
      "pitchwheel channel=0 pitch=123 time=2\n",
      "pitchwheel channel=0 pitch=123 time=0\n",
      "pitchwheel channel=0 pitch=0 time=26\n",
      "pitchwheel channel=0 pitch=0 time=0\n",
      "pitchwheel channel=0 pitch=-723 time=123\n",
      "pitchwheel channel=0 pitch=-723 time=0\n",
      "pitchwheel channel=0 pitch=-1446 time=26\n",
      "pitchwheel channel=0 pitch=-1446 time=0\n",
      "pitchwheel channel=0 pitch=-2145 time=26\n",
      "pitchwheel channel=0 pitch=-2145 time=0\n",
      "pitchwheel channel=0 pitch=-2795 time=25\n",
      "pitchwheel channel=0 pitch=-2795 time=0\n",
      "pitchwheel channel=0 pitch=-3421 time=27\n",
      "pitchwheel channel=0 pitch=-3421 time=0\n",
      "pitchwheel channel=0 pitch=-4048 time=26\n",
      "pitchwheel channel=0 pitch=-4048 time=0\n",
      "pitchwheel channel=0 pitch=-4578 time=24\n",
      "pitchwheel channel=0 pitch=-4578 time=0\n",
      "pitchwheel channel=0 pitch=-5011 time=27\n",
      "pitchwheel channel=0 pitch=-5011 time=0\n",
      "pitchwheel channel=0 pitch=-5445 time=25\n",
      "pitchwheel channel=0 pitch=-5445 time=0\n",
      "pitchwheel channel=0 pitch=-5831 time=26\n",
      "pitchwheel channel=0 pitch=-5831 time=0\n",
      "pitchwheel channel=0 pitch=-5999 time=27\n",
      "pitchwheel channel=0 pitch=-5999 time=0\n",
      "pitchwheel channel=0 pitch=-6385 time=24\n",
      "pitchwheel channel=0 pitch=-6385 time=0\n",
      "pitchwheel channel=0 pitch=-6770 time=26\n",
      "pitchwheel channel=0 pitch=-6770 time=0\n",
      "pitchwheel channel=0 pitch=-7180 time=25\n",
      "pitchwheel channel=0 pitch=-7180 time=0\n",
      "pitchwheel channel=0 pitch=-7758 time=26\n",
      "pitchwheel channel=0 pitch=-7758 time=0\n",
      "pitchwheel channel=0 pitch=-8192 time=25\n",
      "pitchwheel channel=0 pitch=-8192 time=0\n",
      "pitchwheel channel=0 pitch=-7348 time=411\n",
      "pitchwheel channel=0 pitch=-7348 time=0\n",
      "pitchwheel channel=0 pitch=-6312 time=24\n",
      "pitchwheel channel=0 pitch=-6312 time=0\n",
      "pitchwheel channel=0 pitch=-5011 time=27\n",
      "pitchwheel channel=0 pitch=-5011 time=0\n",
      "pitchwheel channel=0 pitch=-3566 time=23\n",
      "pitchwheel channel=0 pitch=-3566 time=0\n",
      "note_on channel=0 note=66 velocity=0 time=20\n",
      "note_on channel=0 note=66 velocity=0 time=0\n",
      "pitchwheel channel=0 pitch=-1783 time=6\n",
      "pitchwheel channel=0 pitch=-1783 time=0\n",
      "pitchwheel channel=0 pitch=-73 time=27\n",
      "pitchwheel channel=0 pitch=-73 time=0\n",
      "pitchwheel channel=0 pitch=0 time=23\n",
      "pitchwheel channel=0 pitch=0 time=0\n",
      "note_on channel=0 note=66 velocity=87 time=86\n",
      "note_on channel=0 note=66 velocity=87 time=0\n",
      "note_on channel=0 note=66 velocity=0 time=253\n",
      "note_on channel=0 note=66 velocity=0 time=0\n",
      "note_on channel=0 note=70 velocity=102 time=266\n",
      "note_on channel=0 note=70 velocity=102 time=0\n",
      "note_on channel=0 note=70 velocity=0 time=891\n",
      "note_on channel=0 note=70 velocity=0 time=0\n",
      "note_on channel=0 note=73 velocity=99 time=152\n",
      "note_on channel=0 note=73 velocity=99 time=0\n",
      "note_on channel=0 note=71 velocity=90 time=18\n",
      "note_on channel=0 note=71 velocity=90 time=0\n",
      "note_on channel=0 note=73 velocity=0 time=244\n",
      "note_on channel=0 note=73 velocity=0 time=0\n",
      "note_on channel=0 note=73 velocity=84 time=299\n",
      "note_on channel=0 note=73 velocity=84 time=0\n",
      "note_on channel=0 note=70 velocity=84 time=7\n",
      "note_on channel=0 note=70 velocity=84 time=0\n",
      "note_on channel=0 note=73 velocity=0 time=123\n",
      "note_on channel=0 note=73 velocity=0 time=0\n",
      "note_on channel=0 note=71 velocity=0 time=8\n",
      "note_on channel=0 note=71 velocity=0 time=0\n",
      "note_on channel=0 note=71 velocity=82 time=1008\n",
      "note_on channel=0 note=71 velocity=82 time=0\n",
      "note_on channel=0 note=70 velocity=0 time=123\n",
      "note_on channel=0 note=70 velocity=0 time=0\n",
      "note_on channel=0 note=73 velocity=78 time=421\n",
      "note_on channel=0 note=73 velocity=78 time=0\n",
      "note_on channel=0 note=75 velocity=96 time=26\n",
      "note_on channel=0 note=75 velocity=96 time=0\n",
      "note_on channel=0 note=76 velocity=68 time=70\n",
      "note_on channel=0 note=76 velocity=68 time=0\n",
      "note_on channel=0 note=71 velocity=0 time=27\n",
      "note_on channel=0 note=71 velocity=0 time=0\n",
      "note_on channel=0 note=73 velocity=0 time=36\n",
      "note_on channel=0 note=73 velocity=0 time=0\n",
      "note_on channel=0 note=75 velocity=0 time=94\n",
      "note_on channel=0 note=75 velocity=0 time=0\n",
      "note_on channel=0 note=75 velocity=62 time=374\n",
      "note_on channel=0 note=75 velocity=62 time=0\n",
      "note_on channel=0 note=76 velocity=0 time=101\n",
      "note_on channel=0 note=76 velocity=0 time=0\n",
      "note_on channel=0 note=73 velocity=87 time=437\n",
      "note_on channel=0 note=73 velocity=87 time=0\n",
      "note_on channel=0 note=75 velocity=0 time=157\n",
      "note_on channel=0 note=75 velocity=0 time=0\n",
      "note_on channel=0 note=73 velocity=0 time=1987\n",
      "note_on channel=0 note=73 velocity=0 time=0\n",
      "note_on channel=0 note=73 velocity=84 time=177\n",
      "note_on channel=0 note=73 velocity=84 time=0\n",
      "note_on channel=0 note=73 velocity=0 time=2003\n",
      "note_on channel=0 note=73 velocity=0 time=0\n",
      "note_on channel=0 note=73 velocity=87 time=151\n",
      "note_on channel=0 note=73 velocity=87 time=0\n",
      "pitchwheel channel=0 pitch=185 time=242\n",
      "pitchwheel channel=0 pitch=185 time=0\n",
      "pitchwheel channel=0 pitch=1322 time=26\n",
      "pitchwheel channel=0 pitch=1322 time=0\n",
      "pitchwheel channel=0 pitch=2646 time=27\n",
      "pitchwheel channel=0 pitch=2646 time=0\n",
      "pitchwheel channel=0 pitch=4322 time=26\n",
      "pitchwheel channel=0 pitch=4322 time=0\n",
      "pitchwheel channel=0 pitch=5894 time=25\n",
      "pitchwheel channel=0 pitch=5894 time=0\n",
      "pitchwheel channel=0 pitch=7300 time=26\n",
      "pitchwheel channel=0 pitch=7300 time=0\n",
      "pitchwheel channel=0 pitch=8191 time=24\n",
      "pitchwheel channel=0 pitch=8191 time=0\n",
      "pitchwheel channel=0 pitch=7776 time=153\n",
      "pitchwheel channel=0 pitch=7776 time=0\n",
      "pitchwheel channel=0 pitch=5956 time=26\n",
      "pitchwheel channel=0 pitch=5956 time=0\n",
      "pitchwheel channel=0 pitch=3970 time=25\n",
      "pitchwheel channel=0 pitch=3970 time=0\n",
      "pitchwheel channel=0 pitch=2088 time=24\n",
      "pitchwheel channel=0 pitch=2088 time=0\n",
      "pitchwheel channel=0 pitch=454 time=27\n",
      "pitchwheel channel=0 pitch=454 time=0\n",
      "pitchwheel channel=0 pitch=0 time=26\n",
      "pitchwheel channel=0 pitch=0 time=0\n",
      "pitchwheel channel=0 pitch=1074 time=104\n",
      "pitchwheel channel=0 pitch=1074 time=0\n",
      "pitchwheel channel=0 pitch=2336 time=26\n",
      "pitchwheel channel=0 pitch=2336 time=0\n",
      "pitchwheel channel=0 pitch=3536 time=25\n",
      "pitchwheel channel=0 pitch=3536 time=0\n",
      "pitchwheel channel=0 pitch=4446 time=24\n",
      "pitchwheel channel=0 pitch=4446 time=0\n",
      "pitchwheel channel=0 pitch=5108 time=26\n",
      "pitchwheel channel=0 pitch=5108 time=0\n",
      "pitchwheel channel=0 pitch=5604 time=25\n",
      "pitchwheel channel=0 pitch=5604 time=0\n",
      "pitchwheel channel=0 pitch=5831 time=26\n",
      "pitchwheel channel=0 pitch=5831 time=0\n",
      "pitchwheel channel=0 pitch=5418 time=104\n",
      "pitchwheel channel=0 pitch=5418 time=0\n",
      "pitchwheel channel=0 pitch=4156 time=25\n",
      "pitchwheel channel=0 pitch=4156 time=0\n",
      "pitchwheel channel=0 pitch=2067 time=26\n",
      "pitchwheel channel=0 pitch=2067 time=0\n",
      "pitchwheel channel=0 pitch=0 time=25\n",
      "pitchwheel channel=0 pitch=0 time=0\n",
      "note_on channel=0 note=71 velocity=68 time=553\n",
      "note_on channel=0 note=71 velocity=68 time=0\n",
      "note_on channel=0 note=73 velocity=0 time=109\n",
      "note_on channel=0 note=73 velocity=0 time=0\n",
      "note_on channel=0 note=71 velocity=0 time=396\n",
      "note_on channel=0 note=71 velocity=0 time=0\n",
      "note_on channel=0 note=71 velocity=90 time=146\n",
      "note_on channel=0 note=71 velocity=90 time=0\n",
      "note_on channel=0 note=71 velocity=0 time=1064\n",
      "note_on channel=0 note=71 velocity=0 time=0\n",
      "note_on channel=0 note=71 velocity=84 time=99\n",
      "note_on channel=0 note=71 velocity=84 time=0\n",
      "note_on channel=0 note=71 velocity=0 time=381\n",
      "note_on channel=0 note=71 velocity=0 time=0\n",
      "note_on channel=0 note=71 velocity=87 time=130\n",
      "note_on channel=0 note=71 velocity=87 time=0\n",
      "note_on channel=0 note=71 velocity=0 time=473\n",
      "note_on channel=0 note=71 velocity=0 time=0\n",
      "note_on channel=0 note=71 velocity=87 time=120\n",
      "note_on channel=0 note=71 velocity=87 time=0\n",
      "pitchwheel channel=0 pitch=598 time=294\n",
      "pitchwheel channel=0 pitch=598 time=0\n",
      "pitchwheel channel=0 pitch=2315 time=28\n",
      "pitchwheel channel=0 pitch=2315 time=0\n",
      "pitchwheel channel=0 pitch=4053 time=21\n",
      "pitchwheel channel=0 pitch=4053 time=0\n",
      "pitchwheel channel=0 pitch=5852 time=25\n",
      "pitchwheel channel=0 pitch=5852 time=0\n",
      "pitchwheel channel=0 pitch=7383 time=26\n",
      "pitchwheel channel=0 pitch=7383 time=0\n",
      "pitchwheel channel=0 pitch=8191 time=25\n",
      "pitchwheel channel=0 pitch=8191 time=0\n",
      "pitchwheel channel=0 pitch=8065 time=154\n",
      "pitchwheel channel=0 pitch=8065 time=0\n",
      "pitchwheel channel=0 pitch=5894 time=33\n",
      "pitchwheel channel=0 pitch=5894 time=0\n",
      "pitchwheel channel=0 pitch=2874 time=16\n",
      "pitchwheel channel=0 pitch=2874 time=0\n",
      "pitchwheel channel=0 pitch=81 time=26\n",
      "pitchwheel channel=0 pitch=81 time=0\n",
      "pitchwheel channel=0 pitch=0 time=25\n",
      "pitchwheel channel=0 pitch=0 time=0\n",
      "pitchwheel channel=0 pitch=722 time=181\n",
      "pitchwheel channel=0 pitch=722 time=0\n",
      "pitchwheel channel=0 pitch=1715 time=28\n",
      "pitchwheel channel=0 pitch=1715 time=0\n",
      "pitchwheel channel=0 pitch=2667 time=23\n",
      "pitchwheel channel=0 pitch=2667 time=0\n",
      "pitchwheel channel=0 pitch=3866 time=27\n",
      "pitchwheel channel=0 pitch=3866 time=0\n",
      "pitchwheel channel=0 pitch=5108 time=22\n",
      "pitchwheel channel=0 pitch=5108 time=0\n",
      "pitchwheel channel=0 pitch=6349 time=26\n",
      "pitchwheel channel=0 pitch=6349 time=0\n",
      "pitchwheel channel=0 pitch=7321 time=26\n",
      "pitchwheel channel=0 pitch=7321 time=0\n",
      "pitchwheel channel=0 pitch=7962 time=27\n",
      "pitchwheel channel=0 pitch=7962 time=0\n",
      "pitchwheel channel=0 pitch=8191 time=26\n",
      "pitchwheel channel=0 pitch=8191 time=0\n",
      "pitchwheel channel=0 pitch=7714 time=52\n",
      "pitchwheel channel=0 pitch=7714 time=0\n",
      "pitchwheel channel=0 pitch=5956 time=25\n",
      "pitchwheel channel=0 pitch=5956 time=0\n",
      "pitchwheel channel=0 pitch=3018 time=34\n",
      "pitchwheel channel=0 pitch=3018 time=0\n",
      "pitchwheel channel=0 pitch=0 time=17\n",
      "pitchwheel channel=0 pitch=0 time=0\n",
      "note_on channel=0 note=70 velocity=78 time=532\n",
      "note_on channel=0 note=70 velocity=78 time=0\n",
      "note_on channel=0 note=71 velocity=0 time=159\n",
      "note_on channel=0 note=71 velocity=0 time=0\n",
      "note_on channel=0 note=70 velocity=0 time=364\n",
      "note_on channel=0 note=70 velocity=0 time=0\n",
      "note_on channel=0 note=70 velocity=99 time=111\n",
      "note_on channel=0 note=70 velocity=99 time=0\n",
      "note_on channel=0 note=70 velocity=0 time=906\n",
      "note_on channel=0 note=70 velocity=0 time=0\n",
      "note_on channel=0 note=70 velocity=87 time=68\n",
      "note_on channel=0 note=70 velocity=87 time=0\n",
      "note_on channel=0 note=73 velocity=90 time=575\n",
      "note_on channel=0 note=73 velocity=90 time=0\n",
      "note_on channel=0 note=70 velocity=0 time=90\n",
      "note_on channel=0 note=70 velocity=0 time=0\n",
      "note_on channel=0 note=73 velocity=0 time=441\n",
      "note_on channel=0 note=73 velocity=0 time=0\n",
      "note_on channel=0 note=73 velocity=96 time=137\n",
      "note_on channel=0 note=73 velocity=96 time=0\n",
      "pitchwheel channel=0 pitch=143 time=283\n",
      "pitchwheel channel=0 pitch=143 time=0\n",
      "pitchwheel channel=0 pitch=2419 time=20\n",
      "pitchwheel channel=0 pitch=2419 time=0\n",
      "pitchwheel channel=0 pitch=5294 time=28\n",
      "pitchwheel channel=0 pitch=5294 time=0\n",
      "pitchwheel channel=0 pitch=7879 time=24\n",
      "pitchwheel channel=0 pitch=7879 time=0\n",
      "pitchwheel channel=0 pitch=8191 time=25\n",
      "pitchwheel channel=0 pitch=8191 time=0\n",
      "pitchwheel channel=0 pitch=8065 time=104\n",
      "pitchwheel channel=0 pitch=8065 time=0\n",
      "pitchwheel channel=0 pitch=6266 time=25\n",
      "pitchwheel channel=0 pitch=6266 time=0\n",
      "pitchwheel channel=0 pitch=4280 time=26\n",
      "pitchwheel channel=0 pitch=4280 time=0\n",
      "pitchwheel channel=0 pitch=2398 time=25\n",
      "pitchwheel channel=0 pitch=2398 time=0\n",
      "pitchwheel channel=0 pitch=1012 time=26\n",
      "pitchwheel channel=0 pitch=1012 time=0\n",
      "pitchwheel channel=0 pitch=0 time=27\n",
      "pitchwheel channel=0 pitch=0 time=0\n",
      "pitchwheel channel=0 pitch=826 time=204\n",
      "pitchwheel channel=0 pitch=826 time=0\n",
      "pitchwheel channel=0 pitch=2667 time=22\n",
      "pitchwheel channel=0 pitch=2667 time=0\n",
      "pitchwheel channel=0 pitch=4673 time=26\n",
      "pitchwheel channel=0 pitch=4673 time=0\n",
      "pitchwheel channel=0 pitch=6328 time=30\n",
      "pitchwheel channel=0 pitch=6328 time=0\n",
      "pitchwheel channel=0 pitch=7155 time=21\n",
      "pitchwheel channel=0 pitch=7155 time=0\n",
      "pitchwheel channel=0 pitch=7321 time=26\n",
      "pitchwheel channel=0 pitch=7321 time=0\n",
      "pitchwheel channel=0 pitch=7176 time=51\n",
      "pitchwheel channel=0 pitch=7176 time=0\n",
      "pitchwheel channel=0 pitch=6638 time=29\n",
      "pitchwheel channel=0 pitch=6638 time=0\n",
      "pitchwheel channel=0 pitch=5956 time=25\n",
      "pitchwheel channel=0 pitch=5956 time=0\n",
      "pitchwheel channel=0 pitch=5025 time=26\n",
      "pitchwheel channel=0 pitch=5025 time=0\n",
      "pitchwheel channel=0 pitch=3639 time=27\n",
      "pitchwheel channel=0 pitch=3639 time=0\n",
      "pitchwheel channel=0 pitch=1757 time=24\n",
      "pitchwheel channel=0 pitch=1757 time=0\n",
      "pitchwheel channel=0 pitch=0 time=27\n",
      "pitchwheel channel=0 pitch=0 time=0\n",
      "note_on channel=0 note=71 velocity=84 time=541\n",
      "note_on channel=0 note=71 velocity=84 time=0\n",
      "note_on channel=0 note=73 velocity=0 time=58\n",
      "note_on channel=0 note=73 velocity=0 time=0\n",
      "note_on channel=0 note=71 velocity=0 time=358\n",
      "note_on channel=0 note=71 velocity=0 time=0\n",
      "note_on channel=0 note=71 velocity=96 time=164\n",
      "note_on channel=0 note=71 velocity=96 time=0\n",
      "pitchwheel channel=0 pitch=205 time=259\n",
      "pitchwheel channel=0 pitch=205 time=0\n",
      "pitchwheel channel=0 pitch=2150 time=27\n",
      "pitchwheel channel=0 pitch=2150 time=0\n",
      "pitchwheel channel=0 pitch=4425 time=24\n",
      "pitchwheel channel=0 pitch=4425 time=0\n",
      "pitchwheel channel=0 pitch=6721 time=29\n",
      "pitchwheel channel=0 pitch=6721 time=0\n",
      "pitchwheel channel=0 pitch=8191 time=25\n",
      "pitchwheel channel=0 pitch=8191 time=0\n",
      "pitchwheel channel=0 pitch=7073 time=154\n",
      "pitchwheel channel=0 pitch=7073 time=0\n",
      "pitchwheel channel=0 pitch=5190 time=22\n",
      "pitchwheel channel=0 pitch=5190 time=0\n",
      "pitchwheel channel=0 pitch=3267 time=29\n",
      "pitchwheel channel=0 pitch=3267 time=0\n",
      "pitchwheel channel=0 pitch=1508 time=24\n",
      "pitchwheel channel=0 pitch=1508 time=0\n",
      "pitchwheel channel=0 pitch=205 time=27\n",
      "pitchwheel channel=0 pitch=205 time=0\n",
      "pitchwheel channel=0 pitch=0 time=24\n",
      "pitchwheel channel=0 pitch=0 time=0\n",
      "pitchwheel channel=0 pitch=454 time=152\n",
      "pitchwheel channel=0 pitch=454 time=0\n",
      "pitchwheel channel=0 pitch=2108 time=26\n",
      "pitchwheel channel=0 pitch=2108 time=0\n",
      "pitchwheel channel=0 pitch=3784 time=27\n",
      "pitchwheel channel=0 pitch=3784 time=0\n",
      "pitchwheel channel=0 pitch=5397 time=29\n",
      "pitchwheel channel=0 pitch=5397 time=0\n",
      "pitchwheel channel=0 pitch=6617 time=22\n",
      "pitchwheel channel=0 pitch=6617 time=0\n",
      "pitchwheel channel=0 pitch=7321 time=25\n",
      "pitchwheel channel=0 pitch=7321 time=0\n",
      "pitchwheel channel=0 pitch=7403 time=26\n",
      "pitchwheel channel=0 pitch=7403 time=0\n",
      "pitchwheel channel=0 pitch=7135 time=51\n",
      "pitchwheel channel=0 pitch=7135 time=0\n",
      "pitchwheel channel=0 pitch=6266 time=26\n",
      "pitchwheel channel=0 pitch=6266 time=0\n",
      "pitchwheel channel=0 pitch=4797 time=25\n",
      "pitchwheel channel=0 pitch=4797 time=0\n",
      "pitchwheel channel=0 pitch=3101 time=26\n",
      "pitchwheel channel=0 pitch=3101 time=0\n",
      "pitchwheel channel=0 pitch=1281 time=25\n",
      "pitchwheel channel=0 pitch=1281 time=0\n",
      "pitchwheel channel=0 pitch=0 time=24\n",
      "pitchwheel channel=0 pitch=0 time=0\n",
      "note_on channel=0 note=70 velocity=80 time=476\n",
      "note_on channel=0 note=70 velocity=80 time=0\n",
      "note_on channel=0 note=71 velocity=0 time=128\n",
      "note_on channel=0 note=71 velocity=0 time=0\n",
      "note_on channel=0 note=70 velocity=0 time=301\n",
      "note_on channel=0 note=70 velocity=0 time=0\n",
      "note_on channel=0 note=66 velocity=99 time=142\n",
      "note_on channel=0 note=66 velocity=99 time=0\n",
      "note_on channel=0 note=70 velocity=82 time=528\n",
      "note_on channel=0 note=70 velocity=82 time=0\n",
      "note_on channel=0 note=66 velocity=0 time=151\n",
      "note_on channel=0 note=66 velocity=0 time=0\n",
      "note_on channel=0 note=71 velocity=80 time=397\n",
      "note_on channel=0 note=71 velocity=80 time=0\n",
      "note_on channel=0 note=70 velocity=0 time=125\n",
      "note_on channel=0 note=70 velocity=0 time=0\n",
      "note_on channel=0 note=73 velocity=90 time=423\n",
      "note_on channel=0 note=73 velocity=90 time=0\n",
      "note_on channel=0 note=71 velocity=0 time=130\n",
      "note_on channel=0 note=71 velocity=0 time=0\n",
      "note_on channel=0 note=71 velocity=84 time=466\n",
      "note_on channel=0 note=71 velocity=84 time=0\n",
      "note_on channel=0 note=73 velocity=0 time=58\n",
      "note_on channel=0 note=73 velocity=0 time=0\n",
      "note_on channel=0 note=73 velocity=90 time=250\n",
      "note_on channel=0 note=73 velocity=90 time=0\n",
      "note_on channel=0 note=71 velocity=0 time=76\n",
      "note_on channel=0 note=71 velocity=0 time=0\n",
      "note_on channel=0 note=73 velocity=0 time=190\n",
      "note_on channel=0 note=73 velocity=0 time=0\n",
      "note_on channel=0 note=71 velocity=84 time=19\n",
      "note_on channel=0 note=71 velocity=84 time=0\n",
      "note_on channel=0 note=70 velocity=84 time=258\n",
      "note_on channel=0 note=70 velocity=84 time=0\n",
      "note_on channel=0 note=71 velocity=0 time=104\n",
      "note_on channel=0 note=71 velocity=0 time=0\n",
      "note_on channel=0 note=71 velocity=66 time=223\n",
      "note_on channel=0 note=71 velocity=66 time=0\n",
      "note_on channel=0 note=70 velocity=0 time=2\n",
      "note_on channel=0 note=70 velocity=0 time=0\n",
      "note_on channel=0 note=70 velocity=84 time=173\n",
      "note_on channel=0 note=70 velocity=84 time=0\n",
      "note_on channel=0 note=71 velocity=0 time=57\n",
      "note_on channel=0 note=71 velocity=0 time=0\n",
      "note_on channel=0 note=66 velocity=87 time=250\n",
      "note_on channel=0 note=66 velocity=87 time=0\n",
      "note_on channel=0 note=70 velocity=0 time=48\n",
      "note_on channel=0 note=70 velocity=0 time=0\n",
      "note_on channel=0 note=70 velocity=84 time=254\n",
      "note_on channel=0 note=70 velocity=84 time=0\n",
      "note_on channel=0 note=66 velocity=0 time=74\n",
      "note_on channel=0 note=66 velocity=0 time=0\n",
      "note_on channel=0 note=66 velocity=84 time=175\n",
      "note_on channel=0 note=66 velocity=84 time=0\n",
      "note_on channel=0 note=70 velocity=0 time=81\n",
      "note_on channel=0 note=70 velocity=0 time=0\n",
      "note_on channel=0 note=64 velocity=84 time=185\n",
      "note_on channel=0 note=64 velocity=84 time=0\n",
      "note_on channel=0 note=66 velocity=0 time=78\n",
      "note_on channel=0 note=66 velocity=0 time=0\n",
      "note_on channel=0 note=66 velocity=80 time=233\n",
      "note_on channel=0 note=66 velocity=80 time=0\n",
      "note_on channel=0 note=64 velocity=0 time=84\n",
      "note_on channel=0 note=64 velocity=0 time=0\n",
      "note_on channel=0 note=64 velocity=76 time=194\n",
      "note_on channel=0 note=64 velocity=76 time=0\n",
      "note_on channel=0 note=66 velocity=0 time=24\n",
      "note_on channel=0 note=66 velocity=0 time=0\n",
      "note_on channel=0 note=63 velocity=90 time=254\n",
      "note_on channel=0 note=63 velocity=90 time=0\n",
      "note_on channel=0 note=64 velocity=0 time=65\n",
      "note_on channel=0 note=64 velocity=0 time=0\n",
      "note_on channel=0 note=64 velocity=76 time=240\n",
      "note_on channel=0 note=64 velocity=76 time=0\n",
      "note_on channel=0 note=63 velocity=0 time=63\n",
      "note_on channel=0 note=63 velocity=0 time=0\n",
      "note_on channel=0 note=63 velocity=84 time=219\n",
      "note_on channel=0 note=63 velocity=84 time=0\n",
      "note_on channel=0 note=64 velocity=0 time=78\n",
      "note_on channel=0 note=64 velocity=0 time=0\n",
      "note_on channel=0 note=61 velocity=87 time=177\n",
      "note_on channel=0 note=61 velocity=87 time=0\n",
      "note_on channel=0 note=63 velocity=0 time=71\n",
      "note_on channel=0 note=63 velocity=0 time=0\n",
      "note_on channel=0 note=63 velocity=78 time=271\n",
      "note_on channel=0 note=63 velocity=78 time=0\n",
      "note_on channel=0 note=61 velocity=0 time=81\n",
      "note_on channel=0 note=61 velocity=0 time=0\n",
      "note_on channel=0 note=61 velocity=76 time=186\n",
      "note_on channel=0 note=61 velocity=76 time=0\n",
      "note_on channel=0 note=63 velocity=0 time=80\n",
      "note_on channel=0 note=63 velocity=0 time=0\n",
      "note_on channel=0 note=59 velocity=74 time=208\n",
      "note_on channel=0 note=59 velocity=74 time=0\n",
      "note_on channel=0 note=61 velocity=0 time=59\n",
      "note_on channel=0 note=61 velocity=0 time=0\n",
      "note_on channel=0 note=61 velocity=76 time=256\n",
      "note_on channel=0 note=61 velocity=76 time=0\n",
      "note_on channel=0 note=59 velocity=0 time=75\n",
      "note_on channel=0 note=59 velocity=0 time=0\n",
      "note_on channel=0 note=59 velocity=78 time=203\n",
      "note_on channel=0 note=59 velocity=78 time=0\n",
      "note_on channel=0 note=61 velocity=0 time=104\n",
      "note_on channel=0 note=61 velocity=0 time=0\n",
      "note_on channel=0 note=58 velocity=82 time=135\n",
      "note_on channel=0 note=58 velocity=82 time=0\n",
      "note_on channel=0 note=59 velocity=0 time=112\n",
      "note_on channel=0 note=59 velocity=0 time=0\n",
      "note_on channel=0 note=59 velocity=76 time=492\n",
      "note_on channel=0 note=59 velocity=76 time=0\n",
      "note_on channel=0 note=58 velocity=0 time=52\n",
      "note_on channel=0 note=58 velocity=0 time=0\n",
      "note_on channel=0 note=61 velocity=99 time=230\n",
      "note_on channel=0 note=61 velocity=99 time=0\n",
      "note_on channel=0 note=59 velocity=0 time=117\n",
      "note_on channel=0 note=59 velocity=0 time=0\n",
      "note_on channel=0 note=66 velocity=84 time=458\n",
      "note_on channel=0 note=66 velocity=84 time=0\n",
      "note_on channel=0 note=61 velocity=0 time=118\n",
      "note_on channel=0 note=61 velocity=0 time=0\n",
      "note_on channel=0 note=66 velocity=0 time=360\n",
      "note_on channel=0 note=66 velocity=0 time=0\n",
      "note_on channel=0 note=66 velocity=76 time=128\n",
      "note_on channel=0 note=66 velocity=76 time=0\n",
      "note_on channel=0 note=64 velocity=87 time=6\n",
      "note_on channel=0 note=64 velocity=87 time=0\n",
      "note_on channel=0 note=66 velocity=0 time=149\n",
      "note_on channel=0 note=66 velocity=0 time=0\n",
      "note_on channel=0 note=66 velocity=78 time=397\n",
      "note_on channel=0 note=66 velocity=78 time=0\n",
      "note_on channel=0 note=64 velocity=0 time=115\n",
      "note_on channel=0 note=64 velocity=0 time=0\n",
      "note_on channel=0 note=66 velocity=0 time=3133\n",
      "note_on channel=0 note=66 velocity=0 time=0\n",
      "note_on channel=0 note=66 velocity=78 time=104\n",
      "note_on channel=0 note=66 velocity=78 time=0\n",
      "note_on channel=0 note=66 velocity=0 time=481\n",
      "note_on channel=0 note=66 velocity=0 time=0\n",
      "note_on channel=0 note=66 velocity=78 time=124\n",
      "note_on channel=0 note=66 velocity=78 time=0\n",
      "note_on channel=0 note=64 velocity=78 time=51\n",
      "note_on channel=0 note=64 velocity=78 time=0\n",
      "note_on channel=0 note=66 velocity=0 time=200\n",
      "note_on channel=0 note=66 velocity=0 time=0\n",
      "note_on channel=0 note=66 velocity=96 time=352\n",
      "note_on channel=0 note=66 velocity=96 time=0\n",
      "note_on channel=0 note=64 velocity=0 time=99\n",
      "note_on channel=0 note=64 velocity=0 time=0\n",
      "note_on channel=0 note=66 velocity=0 time=290\n",
      "note_on channel=0 note=66 velocity=0 time=0\n",
      "note_on channel=0 note=66 velocity=78 time=136\n",
      "note_on channel=0 note=66 velocity=78 time=0\n",
      "note_on channel=0 note=64 velocity=82 time=22\n",
      "note_on channel=0 note=64 velocity=82 time=0\n",
      "note_on channel=0 note=66 velocity=0 time=227\n",
      "note_on channel=0 note=66 velocity=0 time=0\n",
      "note_on channel=0 note=63 velocity=96 time=324\n",
      "note_on channel=0 note=63 velocity=96 time=0\n",
      "note_on channel=0 note=64 velocity=0 time=123\n",
      "note_on channel=0 note=64 velocity=0 time=0\n",
      "note_on channel=0 note=63 velocity=0 time=345\n",
      "note_on channel=0 note=63 velocity=0 time=0\n",
      "note_on channel=0 note=63 velocity=68 time=125\n",
      "note_on channel=0 note=63 velocity=68 time=0\n",
      "note_on channel=0 note=61 velocity=102 time=7\n",
      "note_on channel=0 note=61 velocity=102 time=0\n",
      "note_on channel=0 note=63 velocity=0 time=52\n",
      "note_on channel=0 note=63 velocity=0 time=0\n",
      "note_on channel=0 note=63 velocity=62 time=241\n",
      "note_on channel=0 note=63 velocity=62 time=0\n",
      "note_on channel=0 note=61 velocity=0 time=113\n",
      "note_on channel=0 note=61 velocity=0 time=0\n",
      "note_on channel=0 note=61 velocity=61 time=208\n",
      "note_on channel=0 note=61 velocity=61 time=0\n",
      "note_on channel=0 note=63 velocity=0 time=126\n",
      "note_on channel=0 note=63 velocity=0 time=0\n",
      "note_on channel=0 note=61 velocity=0 time=82\n",
      "note_on channel=0 note=61 velocity=0 time=0\n",
      "note_on channel=0 note=59 velocity=90 time=109\n",
      "note_on channel=0 note=59 velocity=90 time=0\n",
      "note_on channel=0 note=61 velocity=90 time=30\n",
      "note_on channel=0 note=61 velocity=90 time=0\n",
      "note_on channel=0 note=58 velocity=74 time=16\n",
      "note_on channel=0 note=58 velocity=74 time=0\n",
      "note_on channel=0 note=61 velocity=0 time=51\n",
      "note_on channel=0 note=61 velocity=0 time=0\n",
      "note_on channel=0 note=58 velocity=0 time=270\n",
      "note_on channel=0 note=58 velocity=0 time=0\n",
      "note_on channel=0 note=59 velocity=0 time=119\n",
      "note_on channel=0 note=59 velocity=0 time=0\n",
      "note_on channel=0 note=58 velocity=108 time=203\n",
      "note_on channel=0 note=58 velocity=108 time=0\n",
      "note_on channel=0 note=59 velocity=84 time=228\n",
      "note_on channel=0 note=59 velocity=84 time=0\n",
      "note_on channel=0 note=58 velocity=0 time=105\n",
      "note_on channel=0 note=58 velocity=0 time=0\n",
      "note_on channel=0 note=61 velocity=108 time=261\n",
      "note_on channel=0 note=61 velocity=108 time=0\n",
      "note_on channel=0 note=63 velocity=99 time=6\n",
      "note_on channel=0 note=63 velocity=99 time=0\n",
      "note_on channel=0 note=63 velocity=0 time=125\n",
      "note_on channel=0 note=63 velocity=0 time=0\n",
      "note_on channel=0 note=59 velocity=0 time=14\n",
      "note_on channel=0 note=59 velocity=0 time=0\n",
      "note_on channel=0 note=66 velocity=87 time=903\n",
      "note_on channel=0 note=66 velocity=87 time=0\n",
      "note_on channel=0 note=61 velocity=0 time=298\n",
      "note_on channel=0 note=61 velocity=0 time=0\n",
      "note_on channel=0 note=66 velocity=0 time=321\n",
      "note_on channel=0 note=66 velocity=0 time=0\n",
      "note_on channel=0 note=66 velocity=99 time=135\n",
      "note_on channel=0 note=66 velocity=99 time=0\n",
      "note_on channel=0 note=70 velocity=108 time=526\n",
      "note_on channel=0 note=70 velocity=108 time=0\n",
      "note_on channel=0 note=66 velocity=0 time=136\n",
      "note_on channel=0 note=66 velocity=0 time=0\n",
      "note_on channel=0 note=70 velocity=0 time=689\n",
      "note_on channel=0 note=70 velocity=0 time=0\n",
      "note_on channel=0 note=70 velocity=78 time=161\n",
      "note_on channel=0 note=70 velocity=78 time=0\n",
      "note_on channel=0 note=66 velocity=82 time=40\n",
      "note_on channel=0 note=66 velocity=82 time=0\n",
      "note_on channel=0 note=70 velocity=0 time=265\n",
      "note_on channel=0 note=70 velocity=0 time=0\n",
      "note_on channel=0 note=70 velocity=52 time=285\n",
      "note_on channel=0 note=70 velocity=52 time=0\n",
      "note_on channel=0 note=70 velocity=0 time=167\n",
      "note_on channel=0 note=70 velocity=0 time=0\n",
      "note_on channel=0 note=66 velocity=0 time=308\n",
      "note_on channel=0 note=66 velocity=0 time=0\n",
      "note_on channel=0 note=66 velocity=87 time=145\n",
      "note_on channel=0 note=66 velocity=87 time=0\n",
      "note_on channel=0 note=70 velocity=78 time=8\n",
      "note_on channel=0 note=70 velocity=78 time=0\n",
      "note_on channel=0 note=64 velocity=68 time=91\n",
      "note_on channel=0 note=64 velocity=68 time=0\n",
      "note_on channel=0 note=70 velocity=0 time=22\n",
      "note_on channel=0 note=70 velocity=0 time=0\n",
      "note_on channel=0 note=66 velocity=0 time=176\n",
      "note_on channel=0 note=66 velocity=0 time=0\n",
      "note_on channel=0 note=66 velocity=90 time=244\n",
      "note_on channel=0 note=66 velocity=90 time=0\n",
      "note_on channel=0 note=64 velocity=0 time=77\n",
      "note_on channel=0 note=64 velocity=0 time=0\n",
      "note_on channel=0 note=64 velocity=57 time=64\n",
      "note_on channel=0 note=64 velocity=57 time=0\n",
      "note_on channel=0 note=66 velocity=0 time=98\n",
      "note_on channel=0 note=66 velocity=0 time=0\n",
      "note_on channel=0 note=66 velocity=99 time=321\n",
      "note_on channel=0 note=66 velocity=99 time=0\n",
      "note_on channel=0 note=64 velocity=0 time=140\n",
      "note_on channel=0 note=64 velocity=0 time=0\n",
      "note_on channel=0 note=66 velocity=0 time=283\n",
      "note_on channel=0 note=66 velocity=0 time=0\n",
      "note_on channel=0 note=66 velocity=82 time=168\n",
      "note_on channel=0 note=66 velocity=82 time=0\n",
      "note_on channel=0 note=66 velocity=0 time=453\n",
      "note_on channel=0 note=66 velocity=0 time=0\n",
      "note_on channel=0 note=70 velocity=78 time=83\n",
      "note_on channel=0 note=70 velocity=78 time=0\n",
      "note_on channel=0 note=71 velocity=76 time=149\n",
      "note_on channel=0 note=71 velocity=76 time=0\n",
      "note_on channel=0 note=70 velocity=0 time=108\n",
      "note_on channel=0 note=70 velocity=0 time=0\n",
      "note_on channel=0 note=71 velocity=0 time=215\n",
      "note_on channel=0 note=71 velocity=0 time=0\n",
      "note_on channel=0 note=71 velocity=59 time=70\n",
      "note_on channel=0 note=71 velocity=59 time=0\n",
      "note_on channel=0 note=70 velocity=78 time=7\n",
      "note_on channel=0 note=70 velocity=78 time=0\n",
      "note_on channel=0 note=70 velocity=0 time=110\n",
      "note_on channel=0 note=70 velocity=0 time=0\n",
      "note_on channel=0 note=70 velocity=96 time=565\n",
      "note_on channel=0 note=70 velocity=96 time=0\n",
      "note_on channel=0 note=71 velocity=0 time=94\n",
      "note_on channel=0 note=71 velocity=0 time=0\n",
      "note_on channel=0 note=70 velocity=0 time=245\n",
      "note_on channel=0 note=70 velocity=0 time=0\n",
      "note_on channel=0 note=70 velocity=90 time=157\n",
      "note_on channel=0 note=70 velocity=90 time=0\n",
      "note_on channel=0 note=71 velocity=90 time=550\n",
      "note_on channel=0 note=71 velocity=90 time=0\n",
      "note_on channel=0 note=73 velocity=102 time=7\n",
      "note_on channel=0 note=73 velocity=102 time=0\n",
      "note_on channel=0 note=70 velocity=0 time=97\n",
      "note_on channel=0 note=70 velocity=0 time=0\n",
      "note_on channel=0 note=71 velocity=0 time=138\n",
      "note_on channel=0 note=71 velocity=0 time=0\n",
      "note_on channel=0 note=73 velocity=0 time=706\n",
      "note_on channel=0 note=73 velocity=0 time=0\n",
      "note_on channel=0 note=73 velocity=87 time=134\n",
      "note_on channel=0 note=73 velocity=87 time=0\n",
      "note_on channel=0 note=71 velocity=80 time=626\n",
      "note_on channel=0 note=71 velocity=80 time=0\n",
      "note_on channel=0 note=75 velocity=57 time=25\n",
      "note_on channel=0 note=75 velocity=57 time=0\n",
      "note_on channel=0 note=75 velocity=0 time=108\n",
      "note_on channel=0 note=75 velocity=0 time=0\n",
      "note_on channel=0 note=73 velocity=0 time=67\n",
      "note_on channel=0 note=73 velocity=0 time=0\n",
      "note_on channel=0 note=73 velocity=72 time=355\n",
      "note_on channel=0 note=73 velocity=72 time=0\n",
      "note_on channel=0 note=75 velocity=80 time=61\n",
      "note_on channel=0 note=75 velocity=80 time=0\n",
      "note_on channel=0 note=76 velocity=84 time=35\n",
      "note_on channel=0 note=76 velocity=84 time=0\n",
      "note_on channel=0 note=71 velocity=0 time=19\n",
      "note_on channel=0 note=71 velocity=0 time=0\n",
      "note_on channel=0 note=73 velocity=0 time=125\n",
      "note_on channel=0 note=73 velocity=0 time=0\n",
      "note_on channel=0 note=75 velocity=0 time=81\n",
      "note_on channel=0 note=75 velocity=0 time=0\n",
      "note_on channel=0 note=75 velocity=84 time=312\n",
      "note_on channel=0 note=75 velocity=84 time=0\n",
      "note_on channel=0 note=76 velocity=0 time=145\n",
      "note_on channel=0 note=76 velocity=0 time=0\n",
      "note_on channel=0 note=73 velocity=84 time=361\n",
      "note_on channel=0 note=73 velocity=84 time=0\n",
      "note_on channel=0 note=75 velocity=0 time=178\n",
      "note_on channel=0 note=75 velocity=0 time=0\n",
      "note_on channel=0 note=73 velocity=0 time=795\n",
      "note_on channel=0 note=73 velocity=0 time=0\n",
      "note_on channel=0 note=73 velocity=87 time=117\n",
      "note_on channel=0 note=73 velocity=87 time=0\n",
      "note_on channel=0 note=73 velocity=0 time=529\n",
      "note_on channel=0 note=73 velocity=0 time=0\n",
      "note_on channel=0 note=73 velocity=78 time=81\n",
      "note_on channel=0 note=73 velocity=78 time=0\n",
      "note_on channel=0 note=78 velocity=96 time=7\n",
      "note_on channel=0 note=78 velocity=96 time=0\n",
      "note_on channel=0 note=73 velocity=0 time=607\n",
      "note_on channel=0 note=73 velocity=0 time=0\n",
      "note_on channel=0 note=78 velocity=0 time=367\n",
      "note_on channel=0 note=78 velocity=0 time=0\n",
      "note_on channel=0 note=78 velocity=84 time=119\n",
      "note_on channel=0 note=78 velocity=84 time=0\n",
      "note_on channel=0 note=76 velocity=78 time=158\n",
      "note_on channel=0 note=76 velocity=78 time=0\n",
      "note_on channel=0 note=78 velocity=0 time=133\n",
      "note_on channel=0 note=78 velocity=0 time=0\n",
      "note_on channel=0 note=76 velocity=0 time=208\n",
      "note_on channel=0 note=76 velocity=0 time=0\n",
      "note_on channel=0 note=76 velocity=93 time=130\n",
      "note_on channel=0 note=76 velocity=93 time=0\n",
      "note_on channel=0 note=78 velocity=84 time=189\n",
      "note_on channel=0 note=78 velocity=84 time=0\n",
      "note_on channel=0 note=76 velocity=0 time=155\n",
      "note_on channel=0 note=76 velocity=0 time=0\n",
      "note_on channel=0 note=76 velocity=80 time=510\n",
      "note_on channel=0 note=76 velocity=80 time=0\n",
      "note_on channel=0 note=78 velocity=0 time=93\n",
      "note_on channel=0 note=78 velocity=0 time=0\n",
      "note_on channel=0 note=75 velocity=99 time=214\n",
      "note_on channel=0 note=75 velocity=99 time=0\n",
      "note_on channel=0 note=76 velocity=0 time=86\n",
      "note_on channel=0 note=76 velocity=0 time=0\n",
      "note_on channel=0 note=75 velocity=0 time=290\n",
      "note_on channel=0 note=75 velocity=0 time=0\n",
      "note_on channel=0 note=75 velocity=78 time=118\n",
      "note_on channel=0 note=75 velocity=78 time=0\n",
      "note_on channel=0 note=73 velocity=96 time=39\n",
      "note_on channel=0 note=73 velocity=96 time=0\n",
      "note_on channel=0 note=75 velocity=0 time=119\n",
      "note_on channel=0 note=75 velocity=0 time=0\n",
      "note_on channel=0 note=73 velocity=0 time=287\n",
      "note_on channel=0 note=73 velocity=0 time=0\n",
      "note_on channel=0 note=73 velocity=84 time=133\n",
      "note_on channel=0 note=73 velocity=84 time=0\n",
      "note_on channel=0 note=71 velocity=78 time=136\n",
      "note_on channel=0 note=71 velocity=78 time=0\n",
      "note_on channel=0 note=73 velocity=0 time=160\n",
      "note_on channel=0 note=73 velocity=0 time=0\n",
      "note_on channel=0 note=73 velocity=70 time=261\n",
      "note_on channel=0 note=73 velocity=70 time=0\n",
      "note_on channel=0 note=71 velocity=0 time=11\n",
      "note_on channel=0 note=71 velocity=0 time=0\n",
      "note_on channel=0 note=71 velocity=78 time=125\n",
      "note_on channel=0 note=71 velocity=78 time=0\n",
      "note_on channel=0 note=73 velocity=0 time=130\n",
      "note_on channel=0 note=73 velocity=0 time=0\n",
      "note_on channel=0 note=71 velocity=0 time=278\n",
      "note_on channel=0 note=71 velocity=0 time=0\n",
      "note_on channel=0 note=73 velocity=76 time=45\n",
      "note_on channel=0 note=73 velocity=76 time=0\n",
      "note_on channel=0 note=71 velocity=80 time=89\n",
      "note_on channel=0 note=71 velocity=80 time=0\n",
      "note_on channel=0 note=73 velocity=0 time=146\n",
      "note_on channel=0 note=73 velocity=0 time=0\n",
      "note_on channel=0 note=76 velocity=90 time=329\n",
      "note_on channel=0 note=76 velocity=90 time=0\n",
      "note_on channel=0 note=71 velocity=0 time=237\n",
      "note_on channel=0 note=71 velocity=0 time=0\n",
      "note_on channel=0 note=76 velocity=0 time=161\n",
      "note_on channel=0 note=76 velocity=0 time=0\n",
      "note_on channel=0 note=76 velocity=82 time=158\n",
      "note_on channel=0 note=76 velocity=82 time=0\n",
      "note_on channel=0 note=75 velocity=84 time=85\n",
      "note_on channel=0 note=75 velocity=84 time=0\n",
      "note_on channel=0 note=76 velocity=0 time=96\n",
      "note_on channel=0 note=76 velocity=0 time=0\n",
      "note_on channel=0 note=73 velocity=90 time=8\n",
      "note_on channel=0 note=73 velocity=90 time=0\n",
      "note_on channel=0 note=75 velocity=0 time=105\n",
      "note_on channel=0 note=75 velocity=0 time=0\n",
      "note_on channel=0 note=75 velocity=80 time=126\n",
      "note_on channel=0 note=75 velocity=80 time=0\n",
      "note_on channel=0 note=73 velocity=0 time=43\n",
      "note_on channel=0 note=73 velocity=0 time=0\n",
      "note_on channel=0 note=73 velocity=87 time=658\n",
      "note_on channel=0 note=73 velocity=87 time=0\n",
      "note_on channel=0 note=75 velocity=0 time=96\n",
      "note_on channel=0 note=75 velocity=0 time=0\n",
      "note_on channel=0 note=73 velocity=0 time=870\n",
      "note_on channel=0 note=73 velocity=0 time=0\n",
      "note_on channel=0 note=73 velocity=96 time=165\n",
      "note_on channel=0 note=73 velocity=96 time=0\n",
      "pitchwheel channel=0 pitch=-603 time=229\n",
      "pitchwheel channel=0 pitch=-603 time=0\n",
      "pitchwheel channel=0 pitch=-1326 time=26\n",
      "pitchwheel channel=0 pitch=-1326 time=0\n",
      "pitchwheel channel=0 pitch=-1807 time=39\n",
      "pitchwheel channel=0 pitch=-1807 time=0\n",
      "pitchwheel channel=0 pitch=-2482 time=16\n",
      "pitchwheel channel=0 pitch=-2482 time=0\n",
      "pitchwheel channel=0 pitch=-3108 time=27\n",
      "pitchwheel channel=0 pitch=-3108 time=0\n",
      "pitchwheel channel=0 pitch=-3783 time=26\n",
      "pitchwheel channel=0 pitch=-3783 time=0\n",
      "pitchwheel channel=0 pitch=-4265 time=25\n",
      "pitchwheel channel=0 pitch=-4265 time=0\n",
      "pitchwheel channel=0 pitch=-4939 time=24\n",
      "pitchwheel channel=0 pitch=-4939 time=0\n",
      "pitchwheel channel=0 pitch=-5421 time=26\n",
      "pitchwheel channel=0 pitch=-5421 time=0\n",
      "pitchwheel channel=0 pitch=-6071 time=26\n",
      "pitchwheel channel=0 pitch=-6071 time=0\n",
      "pitchwheel channel=0 pitch=-6505 time=25\n",
      "pitchwheel channel=0 pitch=-6505 time=0\n",
      "pitchwheel channel=0 pitch=-6818 time=26\n",
      "pitchwheel channel=0 pitch=-6818 time=0\n",
      "pitchwheel channel=0 pitch=-7372 time=27\n",
      "pitchwheel channel=0 pitch=-7372 time=0\n",
      "pitchwheel channel=0 pitch=-7782 time=34\n",
      "pitchwheel channel=0 pitch=-7782 time=0\n",
      "pitchwheel channel=0 pitch=-7951 time=16\n",
      "pitchwheel channel=0 pitch=-7951 time=0\n",
      "pitchwheel channel=0 pitch=-8192 time=25\n",
      "pitchwheel channel=0 pitch=-8192 time=0\n",
      "pitchwheel channel=0 pitch=-7637 time=435\n",
      "pitchwheel channel=0 pitch=-7637 time=0\n",
      "note_on channel=0 note=73 velocity=0 time=10\n",
      "note_on channel=0 note=73 velocity=0 time=0\n",
      "pitchwheel channel=0 pitch=-6288 time=18\n",
      "pitchwheel channel=0 pitch=-6288 time=0\n",
      "pitchwheel channel=0 pitch=-4746 time=25\n",
      "pitchwheel channel=0 pitch=-4746 time=0\n",
      "pitchwheel channel=0 pitch=-2819 time=27\n",
      "pitchwheel channel=0 pitch=-2819 time=0\n",
      "pitchwheel channel=0 pitch=-771 time=23\n",
      "pitchwheel channel=0 pitch=-771 time=0\n",
      "pitchwheel channel=0 pitch=0 time=24\n",
      "pitchwheel channel=0 pitch=0 time=0\n",
      "note_on channel=0 note=73 velocity=90 time=13\n",
      "note_on channel=0 note=73 velocity=90 time=0\n",
      "pitchwheel channel=0 pitch=-1181 time=169\n",
      "pitchwheel channel=0 pitch=-1181 time=0\n",
      "pitchwheel channel=0 pitch=-2337 time=24\n",
      "pitchwheel channel=0 pitch=-2337 time=0\n",
      "pitchwheel channel=0 pitch=-3494 time=25\n",
      "pitchwheel channel=0 pitch=-3494 time=0\n",
      "pitchwheel channel=0 pitch=-4409 time=26\n",
      "pitchwheel channel=0 pitch=-4409 time=0\n",
      "pitchwheel channel=0 pitch=-5373 time=26\n",
      "pitchwheel channel=0 pitch=-5373 time=0\n",
      "pitchwheel channel=0 pitch=-6216 time=25\n",
      "pitchwheel channel=0 pitch=-6216 time=0\n",
      "pitchwheel channel=0 pitch=-6601 time=27\n",
      "pitchwheel channel=0 pitch=-6601 time=0\n",
      "pitchwheel channel=0 pitch=-6698 time=27\n",
      "pitchwheel channel=0 pitch=-6698 time=0\n",
      "pitchwheel channel=0 pitch=-6794 time=26\n",
      "pitchwheel channel=0 pitch=-6794 time=0\n",
      "pitchwheel channel=0 pitch=-6601 time=49\n",
      "pitchwheel channel=0 pitch=-6601 time=0\n",
      "note_on channel=0 note=73 velocity=0 time=2\n",
      "note_on channel=0 note=73 velocity=0 time=0\n",
      "pitchwheel channel=0 pitch=-6096 time=25\n",
      "pitchwheel channel=0 pitch=-6096 time=0\n",
      "pitchwheel channel=0 pitch=-4987 time=25\n",
      "pitchwheel channel=0 pitch=-4987 time=0\n",
      "pitchwheel channel=0 pitch=-3566 time=26\n",
      "pitchwheel channel=0 pitch=-3566 time=0\n",
      "note_on channel=0 note=73 velocity=87 time=14\n",
      "note_on channel=0 note=73 velocity=87 time=0\n",
      "pitchwheel channel=0 pitch=-1856 time=19\n",
      "pitchwheel channel=0 pitch=-1856 time=0\n",
      "pitchwheel channel=0 pitch=-699 time=16\n",
      "pitchwheel channel=0 pitch=-699 time=0\n",
      "pitchwheel channel=0 pitch=-603 time=26\n",
      "pitchwheel channel=0 pitch=-603 time=0\n",
      "pitchwheel channel=0 pitch=-1904 time=25\n",
      "pitchwheel channel=0 pitch=-1904 time=0\n",
      "pitchwheel channel=0 pitch=-3879 time=26\n",
      "pitchwheel channel=0 pitch=-3879 time=0\n",
      "pitchwheel channel=0 pitch=-5927 time=26\n",
      "pitchwheel channel=0 pitch=-5927 time=0\n",
      "pitchwheel channel=0 pitch=-7661 time=25\n",
      "pitchwheel channel=0 pitch=-7661 time=0\n",
      "pitchwheel channel=0 pitch=-8192 time=26\n",
      "pitchwheel channel=0 pitch=-8192 time=0\n",
      "pitchwheel channel=0 pitch=-7999 time=129\n",
      "pitchwheel channel=0 pitch=-7999 time=0\n",
      "pitchwheel channel=0 pitch=-6866 time=28\n",
      "pitchwheel channel=0 pitch=-6866 time=0\n",
      "pitchwheel channel=0 pitch=-5493 time=25\n",
      "pitchwheel channel=0 pitch=-5493 time=0\n",
      "pitchwheel channel=0 pitch=-4024 time=26\n",
      "pitchwheel channel=0 pitch=-4024 time=0\n",
      "pitchwheel channel=0 pitch=-2699 time=25\n",
      "pitchwheel channel=0 pitch=-2699 time=0\n",
      "pitchwheel channel=0 pitch=-1470 time=26\n",
      "pitchwheel channel=0 pitch=-1470 time=0\n",
      "note_on channel=0 note=73 velocity=0 time=21\n",
      "note_on channel=0 note=73 velocity=0 time=0\n",
      "pitchwheel channel=0 pitch=-531 time=5\n",
      "pitchwheel channel=0 pitch=-531 time=0\n",
      "note_on channel=0 note=73 velocity=57 time=27\n",
      "note_on channel=0 note=73 velocity=57 time=0\n",
      "pitchwheel channel=0 pitch=-25 time=1\n",
      "pitchwheel channel=0 pitch=-25 time=0\n",
      "pitchwheel channel=0 pitch=-169 time=21\n",
      "pitchwheel channel=0 pitch=-169 time=0\n",
      "pitchwheel channel=0 pitch=-1253 time=24\n",
      "pitchwheel channel=0 pitch=-1253 time=0\n",
      "pitchwheel channel=0 pitch=-2699 time=25\n",
      "pitchwheel channel=0 pitch=-2699 time=0\n",
      "pitchwheel channel=0 pitch=-4241 time=26\n",
      "pitchwheel channel=0 pitch=-4241 time=0\n",
      "pitchwheel channel=0 pitch=-5614 time=27\n",
      "pitchwheel channel=0 pitch=-5614 time=0\n",
      "pitchwheel channel=0 pitch=-6529 time=22\n",
      "pitchwheel channel=0 pitch=-6529 time=0\n",
      "pitchwheel channel=0 pitch=-6987 time=26\n",
      "pitchwheel channel=0 pitch=-6987 time=0\n",
      "pitchwheel channel=0 pitch=-7107 time=26\n",
      "pitchwheel channel=0 pitch=-7107 time=0\n",
      "pitchwheel channel=0 pitch=-6891 time=76\n",
      "pitchwheel channel=0 pitch=-6891 time=0\n",
      "pitchwheel channel=0 pitch=-6722 time=29\n",
      "pitchwheel channel=0 pitch=-6722 time=0\n",
      "pitchwheel channel=0 pitch=-6192 time=27\n",
      "pitchwheel channel=0 pitch=-6192 time=0\n",
      "pitchwheel channel=0 pitch=-5734 time=25\n",
      "pitchwheel channel=0 pitch=-5734 time=0\n",
      "pitchwheel channel=0 pitch=-5180 time=23\n",
      "pitchwheel channel=0 pitch=-5180 time=0\n",
      "pitchwheel channel=0 pitch=-4843 time=29\n",
      "pitchwheel channel=0 pitch=-4843 time=0\n",
      "pitchwheel channel=0 pitch=-4265 time=22\n",
      "pitchwheel channel=0 pitch=-4265 time=0\n",
      "pitchwheel channel=0 pitch=-4120 time=29\n",
      "pitchwheel channel=0 pitch=-4120 time=0\n",
      "pitchwheel channel=0 pitch=-3903 time=27\n",
      "pitchwheel channel=0 pitch=-3903 time=0\n",
      "pitchwheel channel=0 pitch=-3759 time=25\n",
      "pitchwheel channel=0 pitch=-3759 time=0\n",
      "pitchwheel channel=0 pitch=-3349 time=26\n",
      "pitchwheel channel=0 pitch=-3349 time=0\n",
      "pitchwheel channel=0 pitch=-2699 time=24\n",
      "pitchwheel channel=0 pitch=-2699 time=0\n",
      "pitchwheel channel=0 pitch=-1735 time=24\n",
      "pitchwheel channel=0 pitch=-1735 time=0\n",
      "pitchwheel channel=0 pitch=-771 time=27\n",
      "pitchwheel channel=0 pitch=-771 time=0\n",
      "pitchwheel channel=0 pitch=0 time=26\n",
      "pitchwheel channel=0 pitch=0 time=0\n",
      "note_on channel=0 note=73 velocity=0 time=478\n",
      "note_on channel=0 note=73 velocity=0 time=0\n",
      "note_on channel=0 note=73 velocity=87 time=106\n",
      "note_on channel=0 note=73 velocity=87 time=0\n",
      "note_on channel=0 note=73 velocity=0 time=950\n",
      "note_on channel=0 note=73 velocity=0 time=0\n",
      "note_on channel=0 note=71 velocity=87 time=58\n",
      "note_on channel=0 note=71 velocity=87 time=0\n",
      "note_on channel=0 note=73 velocity=99 time=544\n",
      "note_on channel=0 note=73 velocity=99 time=0\n",
      "note_on channel=0 note=71 velocity=0 time=117\n",
      "note_on channel=0 note=71 velocity=0 time=0\n",
      "note_on channel=0 note=73 velocity=0 time=350\n",
      "note_on channel=0 note=73 velocity=0 time=0\n",
      "note_on channel=0 note=71 velocity=87 time=133\n",
      "note_on channel=0 note=71 velocity=87 time=0\n",
      "note_on channel=0 note=73 velocity=87 time=284\n",
      "note_on channel=0 note=73 velocity=87 time=0\n",
      "note_on channel=0 note=71 velocity=0 time=101\n",
      "note_on channel=0 note=71 velocity=0 time=0\n",
      "note_on channel=0 note=75 velocity=84 time=208\n",
      "note_on channel=0 note=75 velocity=84 time=0\n",
      "note_on channel=0 note=73 velocity=0 time=151\n",
      "note_on channel=0 note=73 velocity=0 time=0\n",
      "note_on channel=0 note=73 velocity=96 time=437\n",
      "note_on channel=0 note=73 velocity=96 time=0\n",
      "note_on channel=0 note=71 velocity=102 time=35\n",
      "note_on channel=0 note=71 velocity=102 time=0\n",
      "note_on channel=0 note=75 velocity=0 time=2\n",
      "note_on channel=0 note=75 velocity=0 time=0\n",
      "note_on channel=0 note=70 velocity=96 time=138\n",
      "note_on channel=0 note=70 velocity=96 time=0\n",
      "note_on channel=0 note=73 velocity=0 time=43\n",
      "note_on channel=0 note=73 velocity=0 time=0\n",
      "note_on channel=0 note=71 velocity=0 time=59\n",
      "note_on channel=0 note=71 velocity=0 time=0\n",
      "note_on channel=0 note=71 velocity=78 time=141\n",
      "note_on channel=0 note=71 velocity=78 time=0\n",
      "note_on channel=0 note=70 velocity=0 time=78\n",
      "note_on channel=0 note=70 velocity=0 time=0\n",
      "note_on channel=0 note=70 velocity=84 time=446\n",
      "note_on channel=0 note=70 velocity=84 time=0\n",
      "note_on channel=0 note=71 velocity=0 time=114\n",
      "note_on channel=0 note=71 velocity=0 time=0\n",
      "note_on channel=0 note=70 velocity=0 time=57\n",
      "note_on channel=0 note=70 velocity=0 time=0\n",
      "note_on channel=0 note=70 velocity=82 time=118\n",
      "note_on channel=0 note=70 velocity=82 time=0\n",
      "note_on channel=0 note=70 velocity=0 time=351\n",
      "note_on channel=0 note=70 velocity=0 time=0\n",
      "note_on channel=0 note=70 velocity=80 time=109\n",
      "note_on channel=0 note=70 velocity=80 time=0\n",
      "note_on channel=0 note=70 velocity=0 time=456\n",
      "note_on channel=0 note=70 velocity=0 time=0\n",
      "note_on channel=0 note=70 velocity=76 time=103\n",
      "note_on channel=0 note=70 velocity=76 time=0\n",
      "note_on channel=0 note=70 velocity=0 time=950\n",
      "note_on channel=0 note=70 velocity=0 time=0\n",
      "note_on channel=0 note=70 velocity=82 time=134\n",
      "note_on channel=0 note=70 velocity=82 time=0\n",
      "note_on channel=0 note=70 velocity=0 time=333\n",
      "note_on channel=0 note=70 velocity=0 time=0\n",
      "note_on channel=0 note=70 velocity=76 time=117\n",
      "note_on channel=0 note=70 velocity=76 time=0\n",
      "pitchwheel channel=0 pitch=40 time=620\n",
      "pitchwheel channel=0 pitch=40 time=0\n",
      "pitchwheel channel=0 pitch=454 time=23\n",
      "pitchwheel channel=0 pitch=454 time=0\n",
      "pitchwheel channel=0 pitch=764 time=24\n",
      "pitchwheel channel=0 pitch=764 time=0\n",
      "pitchwheel channel=0 pitch=1033 time=30\n",
      "pitchwheel channel=0 pitch=1033 time=0\n",
      "pitchwheel channel=0 pitch=929 time=21\n",
      "pitchwheel channel=0 pitch=929 time=0\n",
      "pitchwheel channel=0 pitch=226 time=25\n",
      "pitchwheel channel=0 pitch=226 time=0\n",
      "pitchwheel channel=0 pitch=0 time=29\n",
      "pitchwheel channel=0 pitch=0 time=0\n",
      "note_on channel=0 note=70 velocity=0 time=814\n",
      "note_on channel=0 note=70 velocity=0 time=0\n",
      "note_on channel=0 note=70 velocity=90 time=122\n",
      "note_on channel=0 note=70 velocity=90 time=0\n",
      "note_on channel=0 note=70 velocity=0 time=413\n",
      "note_on channel=0 note=70 velocity=0 time=0\n",
      "note_on channel=0 note=70 velocity=78 time=115\n",
      "note_on channel=0 note=70 velocity=78 time=0\n",
      "note_on channel=0 note=70 velocity=0 time=483\n",
      "note_on channel=0 note=70 velocity=0 time=0\n",
      "pitchwheel channel=0 pitch=805 time=175\n",
      "pitchwheel channel=0 pitch=805 time=0\n",
      "pitchwheel channel=0 pitch=1757 time=25\n",
      "pitchwheel channel=0 pitch=1757 time=0\n",
      "note_on channel=0 note=73 velocity=99 time=7\n",
      "note_on channel=0 note=73 velocity=99 time=0\n",
      "pitchwheel channel=0 pitch=2481 time=20\n",
      "pitchwheel channel=0 pitch=2481 time=0\n",
      "pitchwheel channel=0 pitch=3143 time=26\n",
      "pitchwheel channel=0 pitch=3143 time=0\n",
      "pitchwheel channel=0 pitch=3536 time=27\n",
      "pitchwheel channel=0 pitch=3536 time=0\n",
      "pitchwheel channel=0 pitch=3701 time=26\n",
      "pitchwheel channel=0 pitch=3701 time=0\n",
      "pitchwheel channel=0 pitch=3287 time=78\n",
      "pitchwheel channel=0 pitch=3287 time=0\n",
      "pitchwheel channel=0 pitch=2336 time=23\n",
      "pitchwheel channel=0 pitch=2336 time=0\n",
      "pitchwheel channel=0 pitch=1178 time=24\n",
      "pitchwheel channel=0 pitch=1178 time=0\n",
      "pitchwheel channel=0 pitch=0 time=25\n",
      "pitchwheel channel=0 pitch=0 time=0\n",
      "note_on channel=0 note=71 velocity=70 time=237\n",
      "note_on channel=0 note=71 velocity=70 time=0\n",
      "note_on channel=0 note=73 velocity=0 time=160\n",
      "note_on channel=0 note=73 velocity=0 time=0\n",
      "note_on channel=0 note=71 velocity=0 time=460\n",
      "note_on channel=0 note=71 velocity=0 time=0\n",
      "note_on channel=0 note=71 velocity=87 time=129\n",
      "note_on channel=0 note=71 velocity=87 time=0\n",
      "note_on channel=0 note=71 velocity=0 time=904\n",
      "note_on channel=0 note=71 velocity=0 time=0\n",
      "pitchwheel channel=0 pitch=991 time=82\n",
      "pitchwheel channel=0 pitch=991 time=0\n",
      "pitchwheel channel=0 pitch=2150 time=26\n",
      "pitchwheel channel=0 pitch=2150 time=0\n",
      "pitchwheel channel=0 pitch=3473 time=25\n",
      "pitchwheel channel=0 pitch=3473 time=0\n",
      "pitchwheel channel=0 pitch=4735 time=25\n",
      "pitchwheel channel=0 pitch=4735 time=0\n",
      "note_on channel=0 note=71 velocity=96 time=26\n",
      "note_on channel=0 note=71 velocity=96 time=0\n",
      "pitchwheel channel=0 pitch=6059 time=3\n",
      "pitchwheel channel=0 pitch=6059 time=0\n",
      "pitchwheel channel=0 pitch=7155 time=23\n",
      "pitchwheel channel=0 pitch=7155 time=0\n",
      "pitchwheel channel=0 pitch=7859 time=27\n",
      "pitchwheel channel=0 pitch=7859 time=0\n",
      "pitchwheel channel=0 pitch=8148 time=27\n",
      "pitchwheel channel=0 pitch=8148 time=0\n",
      "pitchwheel channel=0 pitch=7962 time=75\n",
      "pitchwheel channel=0 pitch=7962 time=0\n",
      "pitchwheel channel=0 pitch=7341 time=26\n",
      "pitchwheel channel=0 pitch=7341 time=0\n",
      "pitchwheel channel=0 pitch=6245 time=25\n",
      "pitchwheel channel=0 pitch=6245 time=0\n",
      "pitchwheel channel=0 pitch=4715 time=26\n",
      "pitchwheel channel=0 pitch=4715 time=0\n",
      "pitchwheel channel=0 pitch=3163 time=24\n",
      "pitchwheel channel=0 pitch=3163 time=0\n",
      "pitchwheel channel=0 pitch=1715 time=29\n",
      "pitchwheel channel=0 pitch=1715 time=0\n",
      "pitchwheel channel=0 pitch=495 time=24\n",
      "pitchwheel channel=0 pitch=495 time=0\n",
      "pitchwheel channel=0 pitch=0 time=25\n",
      "pitchwheel channel=0 pitch=0 time=0\n",
      "pitchwheel channel=0 pitch=929 time=590\n",
      "pitchwheel channel=0 pitch=929 time=0\n",
      "pitchwheel channel=0 pitch=1736 time=27\n",
      "pitchwheel channel=0 pitch=1736 time=0\n",
      "note_on channel=0 note=71 velocity=0 time=24\n",
      "note_on channel=0 note=71 velocity=0 time=0\n",
      "pitchwheel channel=0 pitch=2460 time=1\n",
      "pitchwheel channel=0 pitch=2460 time=0\n",
      "pitchwheel channel=0 pitch=3205 time=24\n",
      "pitchwheel channel=0 pitch=3205 time=0\n",
      "pitchwheel channel=0 pitch=3784 time=26\n",
      "pitchwheel channel=0 pitch=3784 time=0\n",
      "pitchwheel channel=0 pitch=4363 time=25\n",
      "pitchwheel channel=0 pitch=4363 time=0\n",
      "pitchwheel channel=0 pitch=4632 time=24\n",
      "pitchwheel channel=0 pitch=4632 time=0\n",
      "pitchwheel channel=0 pitch=4715 time=26\n",
      "pitchwheel channel=0 pitch=4715 time=0\n",
      "note_on channel=0 note=71 velocity=84 time=22\n",
      "note_on channel=0 note=71 velocity=84 time=0\n",
      "pitchwheel channel=0 pitch=4590 time=30\n",
      "pitchwheel channel=0 pitch=4590 time=0\n",
      "pitchwheel channel=0 pitch=3763 time=24\n",
      "pitchwheel channel=0 pitch=3763 time=0\n",
      "pitchwheel channel=0 pitch=2481 time=28\n",
      "pitchwheel channel=0 pitch=2481 time=0\n",
      "pitchwheel channel=0 pitch=888 time=24\n",
      "pitchwheel channel=0 pitch=888 time=0\n",
      "pitchwheel channel=0 pitch=0 time=25\n",
      "pitchwheel channel=0 pitch=0 time=0\n",
      "note_on channel=0 note=71 velocity=0 time=268\n",
      "note_on channel=0 note=71 velocity=0 time=0\n",
      "pitchwheel channel=0 pitch=371 time=14\n",
      "pitchwheel channel=0 pitch=371 time=0\n",
      "pitchwheel channel=0 pitch=826 time=27\n",
      "pitchwheel channel=0 pitch=826 time=0\n",
      "pitchwheel channel=0 pitch=1053 time=26\n",
      "pitchwheel channel=0 pitch=1053 time=0\n",
      "note_on channel=0 note=71 velocity=78 time=56\n",
      "note_on channel=0 note=71 velocity=78 time=0\n",
      "pitchwheel channel=0 pitch=536 time=19\n",
      "pitchwheel channel=0 pitch=536 time=0\n",
      "pitchwheel channel=0 pitch=0 time=27\n",
      "pitchwheel channel=0 pitch=0 time=0\n",
      "note_on channel=0 note=71 velocity=0 time=369\n",
      "note_on channel=0 note=71 velocity=0 time=0\n",
      "note_on channel=0 note=70 velocity=96 time=124\n",
      "note_on channel=0 note=70 velocity=96 time=0\n",
      "note_on channel=0 note=66 velocity=59 time=542\n",
      "note_on channel=0 note=66 velocity=59 time=0\n",
      "note_on channel=0 note=70 velocity=0 time=194\n",
      "note_on channel=0 note=70 velocity=0 time=0\n",
      "note_on channel=0 note=66 velocity=0 time=313\n",
      "note_on channel=0 note=66 velocity=0 time=0\n",
      "note_on channel=0 note=66 velocity=90 time=142\n",
      "note_on channel=0 note=66 velocity=90 time=0\n",
      "note_on channel=0 note=68 velocity=87 time=246\n",
      "note_on channel=0 note=68 velocity=87 time=0\n",
      "note_on channel=0 note=66 velocity=0 time=117\n",
      "note_on channel=0 note=66 velocity=0 time=0\n",
      "note_on channel=0 note=68 velocity=0 time=104\n",
      "note_on channel=0 note=68 velocity=0 time=0\n",
      "note_on channel=0 note=68 velocity=76 time=102\n",
      "note_on channel=0 note=68 velocity=76 time=0\n",
      "note_on channel=0 note=70 velocity=80 time=217\n",
      "note_on channel=0 note=70 velocity=80 time=0\n",
      "note_on channel=0 note=68 velocity=0 time=146\n",
      "note_on channel=0 note=68 velocity=0 time=0\n",
      "note_on channel=0 note=70 velocity=0 time=150\n",
      "note_on channel=0 note=70 velocity=0 time=0\n",
      "note_on channel=0 note=66 velocity=96 time=118\n",
      "note_on channel=0 note=66 velocity=96 time=0\n",
      "note_on channel=0 note=64 velocity=44 time=431\n",
      "note_on channel=0 note=64 velocity=44 time=0\n",
      "note_on channel=0 note=66 velocity=0 time=359\n",
      "note_on channel=0 note=66 velocity=0 time=0\n",
      "note_on channel=0 note=64 velocity=0 time=618\n",
      "note_on channel=0 note=64 velocity=0 time=0\n",
      "note_on channel=0 note=64 velocity=84 time=207\n",
      "note_on channel=0 note=64 velocity=84 time=0\n",
      "note_on channel=0 note=64 velocity=0 time=418\n",
      "note_on channel=0 note=64 velocity=0 time=0\n",
      "note_on channel=0 note=63 velocity=96 time=110\n",
      "note_on channel=0 note=63 velocity=96 time=0\n",
      "note_on channel=0 note=61 velocity=96 time=36\n",
      "note_on channel=0 note=61 velocity=96 time=0\n",
      "note_on channel=0 note=63 velocity=0 time=115\n",
      "note_on channel=0 note=63 velocity=0 time=0\n",
      "note_on channel=0 note=63 velocity=74 time=97\n",
      "note_on channel=0 note=63 velocity=74 time=0\n",
      "note_on channel=0 note=61 velocity=0 time=98\n",
      "note_on channel=0 note=61 velocity=0 time=0\n",
      "note_on channel=0 note=63 velocity=0 time=755\n",
      "note_on channel=0 note=63 velocity=0 time=0\n",
      "note_on channel=0 note=61 velocity=96 time=103\n",
      "note_on channel=0 note=61 velocity=96 time=0\n",
      "note_on channel=0 note=63 velocity=72 time=17\n",
      "note_on channel=0 note=63 velocity=72 time=0\n",
      "note_on channel=0 note=63 velocity=0 time=130\n",
      "note_on channel=0 note=63 velocity=0 time=0\n",
      "note_on channel=0 note=61 velocity=0 time=784\n",
      "note_on channel=0 note=61 velocity=0 time=0\n",
      "note_on channel=0 note=61 velocity=87 time=150\n",
      "note_on channel=0 note=61 velocity=87 time=0\n",
      "note_on channel=0 note=61 velocity=0 time=437\n",
      "note_on channel=0 note=61 velocity=0 time=0\n",
      "note_on channel=0 note=61 velocity=87 time=146\n",
      "note_on channel=0 note=61 velocity=87 time=0\n",
      "note_on channel=0 note=66 velocity=90 time=30\n",
      "note_on channel=0 note=66 velocity=90 time=0\n",
      "note_on channel=0 note=61 velocity=0 time=317\n",
      "note_on channel=0 note=61 velocity=0 time=0\n",
      "note_on channel=0 note=66 velocity=0 time=121\n",
      "note_on channel=0 note=66 velocity=0 time=0\n",
      "note_on channel=0 note=66 velocity=76 time=140\n",
      "note_on channel=0 note=66 velocity=76 time=0\n",
      "note_on channel=0 note=64 velocity=78 time=32\n",
      "note_on channel=0 note=64 velocity=78 time=0\n",
      "note_on channel=0 note=66 velocity=0 time=200\n",
      "note_on channel=0 note=66 velocity=0 time=0\n",
      "note_on channel=0 note=66 velocity=108 time=334\n",
      "note_on channel=0 note=66 velocity=108 time=0\n",
      "note_on channel=0 note=64 velocity=0 time=96\n",
      "note_on channel=0 note=64 velocity=0 time=0\n",
      "note_on channel=0 note=66 velocity=0 time=810\n",
      "note_on channel=0 note=66 velocity=0 time=0\n",
      "note_on channel=0 note=72 velocity=87 time=276\n",
      "note_on channel=0 note=72 velocity=87 time=0\n",
      "note_on channel=0 note=73 velocity=76 time=6\n",
      "note_on channel=0 note=73 velocity=76 time=0\n",
      "note_on channel=0 note=72 velocity=0 time=164\n",
      "note_on channel=0 note=72 velocity=0 time=0\n",
      "note_on channel=0 note=71 velocity=84 time=301\n",
      "note_on channel=0 note=71 velocity=84 time=0\n",
      "note_on channel=0 note=73 velocity=0 time=143\n",
      "note_on channel=0 note=73 velocity=0 time=0\n",
      "note_on channel=0 note=70 velocity=90 time=462\n",
      "note_on channel=0 note=70 velocity=90 time=0\n",
      "note_on channel=0 note=70 velocity=0 time=133\n",
      "note_on channel=0 note=70 velocity=0 time=0\n",
      "note_on channel=0 note=70 velocity=108 time=403\n",
      "note_on channel=0 note=70 velocity=108 time=0\n",
      "note_on channel=0 note=73 velocity=96 time=6\n",
      "note_on channel=0 note=73 velocity=96 time=0\n",
      "note_on channel=0 note=73 velocity=0 time=70\n",
      "note_on channel=0 note=73 velocity=0 time=0\n",
      "note_on channel=0 note=71 velocity=0 time=44\n",
      "note_on channel=0 note=71 velocity=0 time=0\n",
      "note_on channel=0 note=66 velocity=90 time=1496\n",
      "note_on channel=0 note=66 velocity=90 time=0\n",
      "note_on channel=0 note=70 velocity=0 time=85\n",
      "note_on channel=0 note=70 velocity=0 time=0\n",
      "note_on channel=0 note=66 velocity=0 time=355\n",
      "note_on channel=0 note=66 velocity=0 time=0\n",
      "note_on channel=0 note=64 velocity=90 time=174\n",
      "note_on channel=0 note=64 velocity=90 time=0\n",
      "note_on channel=0 note=66 velocity=80 time=300\n",
      "note_on channel=0 note=66 velocity=80 time=0\n",
      "note_on channel=0 note=64 velocity=0 time=94\n",
      "note_on channel=0 note=64 velocity=0 time=0\n",
      "note_on channel=0 note=64 velocity=84 time=197\n",
      "note_on channel=0 note=64 velocity=84 time=0\n",
      "note_on channel=0 note=66 velocity=0 time=79\n",
      "note_on channel=0 note=66 velocity=0 time=0\n",
      "note_on channel=0 note=66 velocity=84 time=152\n",
      "note_on channel=0 note=66 velocity=84 time=0\n",
      "note_on channel=0 note=64 velocity=0 time=34\n",
      "note_on channel=0 note=64 velocity=0 time=0\n",
      "note_on channel=0 note=64 velocity=54 time=301\n",
      "note_on channel=0 note=64 velocity=54 time=0\n",
      "note_on channel=0 note=66 velocity=0 time=42\n",
      "note_on channel=0 note=66 velocity=0 time=0\n",
      "note_on channel=0 note=63 velocity=84 time=205\n",
      "note_on channel=0 note=63 velocity=84 time=0\n",
      "note_on channel=0 note=64 velocity=0 time=77\n",
      "note_on channel=0 note=64 velocity=0 time=0\n",
      "note_on channel=0 note=61 velocity=102 time=209\n",
      "note_on channel=0 note=61 velocity=102 time=0\n",
      "note_on channel=0 note=63 velocity=0 time=115\n",
      "note_on channel=0 note=63 velocity=0 time=0\n",
      "note_on channel=0 note=61 velocity=0 time=345\n",
      "note_on channel=0 note=61 velocity=0 time=0\n",
      "note_on channel=0 note=61 velocity=96 time=168\n",
      "note_on channel=0 note=61 velocity=96 time=0\n",
      "note_on channel=0 note=61 velocity=0 time=289\n",
      "note_on channel=0 note=61 velocity=0 time=0\n",
      "note_on channel=0 note=66 velocity=72 time=291\n",
      "note_on channel=0 note=66 velocity=72 time=0\n",
      "note_on channel=0 note=66 velocity=0 time=134\n",
      "note_on channel=0 note=66 velocity=0 time=0\n",
      "note_on channel=0 note=66 velocity=99 time=88\n",
      "note_on channel=0 note=66 velocity=99 time=0\n",
      "note_on channel=0 note=64 velocity=87 time=240\n",
      "note_on channel=0 note=64 velocity=87 time=0\n",
      "note_on channel=0 note=66 velocity=0 time=103\n",
      "note_on channel=0 note=66 velocity=0 time=0\n",
      "note_on channel=0 note=66 velocity=108 time=489\n",
      "note_on channel=0 note=66 velocity=108 time=0\n",
      "note_on channel=0 note=64 velocity=0 time=103\n",
      "note_on channel=0 note=64 velocity=0 time=0\n",
      "note_on channel=0 note=66 velocity=0 time=741\n",
      "note_on channel=0 note=66 velocity=0 time=0\n",
      "note_on channel=0 note=73 velocity=87 time=257\n",
      "note_on channel=0 note=73 velocity=87 time=0\n",
      "note_on channel=0 note=71 velocity=84 time=510\n",
      "note_on channel=0 note=71 velocity=84 time=0\n",
      "note_on channel=0 note=73 velocity=0 time=57\n",
      "note_on channel=0 note=73 velocity=0 time=0\n",
      "note_on channel=0 note=70 velocity=87 time=19\n",
      "note_on channel=0 note=70 velocity=87 time=0\n",
      "note_on channel=0 note=71 velocity=0 time=140\n",
      "note_on channel=0 note=71 velocity=0 time=0\n",
      "note_on channel=0 note=71 velocity=80 time=378\n",
      "note_on channel=0 note=71 velocity=80 time=0\n",
      "note_on channel=0 note=70 velocity=0 time=112\n",
      "note_on channel=0 note=70 velocity=0 time=0\n",
      "note_on channel=0 note=70 velocity=108 time=510\n",
      "note_on channel=0 note=70 velocity=108 time=0\n",
      "note_on channel=0 note=71 velocity=0 time=76\n",
      "note_on channel=0 note=71 velocity=0 time=0\n",
      "note_on channel=0 note=70 velocity=0 time=1460\n",
      "note_on channel=0 note=70 velocity=0 time=0\n",
      "note_on channel=0 note=71 velocity=84 time=104\n",
      "note_on channel=0 note=71 velocity=84 time=0\n",
      "note_on channel=0 note=71 velocity=0 time=425\n",
      "note_on channel=0 note=71 velocity=0 time=0\n",
      "note_on channel=0 note=70 velocity=84 time=204\n",
      "note_on channel=0 note=70 velocity=84 time=0\n",
      "note_on channel=0 note=71 velocity=82 time=280\n",
      "note_on channel=0 note=71 velocity=82 time=0\n",
      "note_on channel=0 note=70 velocity=0 time=43\n",
      "note_on channel=0 note=70 velocity=0 time=0\n",
      "note_on channel=0 note=71 velocity=0 time=199\n",
      "note_on channel=0 note=71 velocity=0 time=0\n",
      "note_on channel=0 note=70 velocity=82 time=28\n",
      "note_on channel=0 note=70 velocity=82 time=0\n",
      "note_on channel=0 note=66 velocity=90 time=273\n",
      "note_on channel=0 note=66 velocity=90 time=0\n",
      "note_on channel=0 note=70 velocity=0 time=44\n",
      "note_on channel=0 note=70 velocity=0 time=0\n",
      "note_on channel=0 note=64 velocity=78 time=254\n",
      "note_on channel=0 note=64 velocity=78 time=0\n",
      "note_on channel=0 note=66 velocity=0 time=41\n",
      "note_on channel=0 note=66 velocity=0 time=0\n",
      "note_on channel=0 note=63 velocity=90 time=257\n",
      "note_on channel=0 note=63 velocity=90 time=0\n",
      "note_on channel=0 note=64 velocity=0 time=43\n",
      "note_on channel=0 note=64 velocity=0 time=0\n",
      "note_on channel=0 note=61 velocity=102 time=199\n",
      "note_on channel=0 note=61 velocity=102 time=0\n",
      "note_on channel=0 note=63 velocity=0 time=96\n",
      "note_on channel=0 note=63 velocity=0 time=0\n",
      "note_on channel=0 note=61 velocity=0 time=306\n",
      "note_on channel=0 note=61 velocity=0 time=0\n",
      "note_on channel=0 note=61 velocity=96 time=134\n",
      "note_on channel=0 note=61 velocity=96 time=0\n",
      "note_on channel=0 note=66 velocity=84 time=582\n",
      "note_on channel=0 note=66 velocity=84 time=0\n",
      "note_on channel=0 note=61 velocity=0 time=107\n",
      "note_on channel=0 note=61 velocity=0 time=0\n",
      "note_on channel=0 note=66 velocity=0 time=374\n",
      "note_on channel=0 note=66 velocity=0 time=0\n",
      "note_on channel=0 note=64 velocity=80 time=34\n",
      "note_on channel=0 note=64 velocity=80 time=0\n",
      "note_on channel=0 note=66 velocity=99 time=595\n",
      "note_on channel=0 note=66 velocity=99 time=0\n",
      "note_on channel=0 note=64 velocity=0 time=124\n",
      "note_on channel=0 note=64 velocity=0 time=0\n",
      "note_on channel=0 note=66 velocity=0 time=749\n",
      "note_on channel=0 note=66 velocity=0 time=0\n",
      "note_on channel=0 note=73 velocity=99 time=255\n",
      "note_on channel=0 note=73 velocity=99 time=0\n",
      "note_on channel=0 note=71 velocity=80 time=527\n",
      "note_on channel=0 note=71 velocity=80 time=0\n",
      "note_on channel=0 note=73 velocity=0 time=44\n",
      "note_on channel=0 note=73 velocity=0 time=0\n",
      "note_on channel=0 note=70 velocity=78 time=12\n",
      "note_on channel=0 note=70 velocity=78 time=0\n",
      "note_on channel=0 note=71 velocity=0 time=142\n",
      "note_on channel=0 note=71 velocity=0 time=0\n",
      "note_on channel=0 note=71 velocity=78 time=448\n",
      "note_on channel=0 note=71 velocity=78 time=0\n",
      "note_on channel=0 note=70 velocity=0 time=122\n",
      "note_on channel=0 note=70 velocity=0 time=0\n",
      "note_on channel=0 note=71 velocity=0 time=328\n",
      "note_on channel=0 note=71 velocity=0 time=0\n",
      "note_on channel=0 note=70 velocity=96 time=165\n",
      "note_on channel=0 note=70 velocity=96 time=0\n",
      "note_on channel=0 note=71 velocity=82 time=232\n",
      "note_on channel=0 note=71 velocity=82 time=0\n",
      "note_on channel=0 note=70 velocity=0 time=61\n",
      "note_on channel=0 note=70 velocity=0 time=0\n",
      "note_on channel=0 note=73 velocity=96 time=226\n",
      "note_on channel=0 note=73 velocity=96 time=0\n",
      "note_on channel=0 note=71 velocity=0 time=64\n",
      "note_on channel=0 note=71 velocity=0 time=0\n",
      "note_on channel=0 note=75 velocity=82 time=202\n",
      "note_on channel=0 note=75 velocity=82 time=0\n",
      "note_on channel=0 note=73 velocity=0 time=74\n",
      "note_on channel=0 note=73 velocity=0 time=0\n",
      "note_on channel=0 note=76 velocity=78 time=175\n",
      "note_on channel=0 note=76 velocity=78 time=0\n",
      "note_on channel=0 note=75 velocity=0 time=81\n",
      "note_on channel=0 note=75 velocity=0 time=0\n",
      "note_on channel=0 note=75 velocity=76 time=188\n",
      "note_on channel=0 note=75 velocity=76 time=0\n",
      "note_on channel=0 note=76 velocity=0 time=74\n",
      "note_on channel=0 note=76 velocity=0 time=0\n",
      "note_on channel=0 note=73 velocity=84 time=196\n",
      "note_on channel=0 note=73 velocity=84 time=0\n",
      "note_on channel=0 note=75 velocity=0 time=83\n",
      "note_on channel=0 note=75 velocity=0 time=0\n",
      "note_on channel=0 note=71 velocity=82 time=215\n",
      "note_on channel=0 note=71 velocity=82 time=0\n",
      "note_on channel=0 note=73 velocity=0 time=37\n",
      "note_on channel=0 note=73 velocity=0 time=0\n",
      "note_on channel=0 note=70 velocity=84 time=236\n",
      "note_on channel=0 note=70 velocity=84 time=0\n",
      "note_on channel=0 note=71 velocity=0 time=66\n",
      "note_on channel=0 note=71 velocity=0 time=0\n",
      "note_on channel=0 note=71 velocity=78 time=255\n",
      "note_on channel=0 note=71 velocity=78 time=0\n",
      "note_on channel=0 note=70 velocity=0 time=34\n",
      "note_on channel=0 note=70 velocity=0 time=0\n",
      "note_on channel=0 note=70 velocity=82 time=224\n",
      "note_on channel=0 note=70 velocity=82 time=0\n",
      "note_on channel=0 note=71 velocity=0 time=67\n",
      "note_on channel=0 note=71 velocity=0 time=0\n",
      "note_on channel=0 note=66 velocity=90 time=250\n",
      "note_on channel=0 note=66 velocity=90 time=0\n",
      "note_on channel=0 note=70 velocity=0 time=71\n",
      "note_on channel=0 note=70 velocity=0 time=0\n",
      "note_on channel=0 note=64 velocity=78 time=214\n",
      "note_on channel=0 note=64 velocity=78 time=0\n",
      "note_on channel=0 note=66 velocity=0 time=52\n",
      "note_on channel=0 note=66 velocity=0 time=0\n",
      "note_on channel=0 note=63 velocity=72 time=254\n",
      "note_on channel=0 note=63 velocity=72 time=0\n",
      "note_on channel=0 note=64 velocity=0 time=63\n",
      "note_on channel=0 note=64 velocity=0 time=0\n",
      "note_on channel=0 note=61 velocity=84 time=213\n",
      "note_on channel=0 note=61 velocity=84 time=0\n",
      "note_on channel=0 note=63 velocity=0 time=71\n",
      "note_on channel=0 note=63 velocity=0 time=0\n",
      "note_on channel=0 note=61 velocity=0 time=265\n",
      "note_on channel=0 note=61 velocity=0 time=0\n",
      "note_on channel=0 note=70 velocity=99 time=254\n",
      "note_on channel=0 note=70 velocity=99 time=0\n",
      "note_on channel=0 note=71 velocity=80 time=546\n",
      "note_on channel=0 note=71 velocity=80 time=0\n",
      "note_on channel=0 note=70 velocity=0 time=13\n",
      "note_on channel=0 note=70 velocity=0 time=0\n",
      "note_on channel=0 note=70 velocity=96 time=291\n",
      "note_on channel=0 note=70 velocity=96 time=0\n",
      "note_on channel=0 note=71 velocity=0 time=61\n",
      "note_on channel=0 note=71 velocity=0 time=0\n",
      "note_on channel=0 note=70 velocity=0 time=128\n",
      "note_on channel=0 note=70 velocity=0 time=0\n",
      "note_on channel=0 note=70 velocity=78 time=101\n",
      "note_on channel=0 note=70 velocity=78 time=0\n",
      "note_on channel=0 note=70 velocity=0 time=541\n",
      "note_on channel=0 note=70 velocity=0 time=0\n",
      "note_on channel=0 note=66 velocity=99 time=373\n",
      "note_on channel=0 note=66 velocity=99 time=0\n",
      "note_on channel=0 note=70 velocity=90 time=255\n",
      "note_on channel=0 note=70 velocity=90 time=0\n",
      "note_on channel=0 note=66 velocity=0 time=58\n",
      "note_on channel=0 note=66 velocity=0 time=0\n",
      "note_on channel=0 note=71 velocity=80 time=211\n",
      "note_on channel=0 note=71 velocity=80 time=0\n",
      "note_on channel=0 note=70 velocity=0 time=61\n",
      "note_on channel=0 note=70 velocity=0 time=0\n",
      "note_on channel=0 note=70 velocity=108 time=246\n",
      "note_on channel=0 note=70 velocity=108 time=0\n",
      "note_on channel=0 note=71 velocity=0 time=63\n",
      "note_on channel=0 note=71 velocity=0 time=0\n",
      "note_on channel=0 note=70 velocity=0 time=342\n",
      "note_on channel=0 note=70 velocity=0 time=0\n",
      "note_on channel=0 note=66 velocity=96 time=391\n",
      "note_on channel=0 note=66 velocity=96 time=0\n",
      "note_on channel=0 note=70 velocity=90 time=246\n",
      "note_on channel=0 note=70 velocity=90 time=0\n",
      "note_on channel=0 note=66 velocity=0 time=88\n",
      "note_on channel=0 note=66 velocity=0 time=0\n",
      "note_on channel=0 note=71 velocity=78 time=171\n",
      "note_on channel=0 note=71 velocity=78 time=0\n",
      "note_on channel=0 note=70 velocity=0 time=79\n",
      "note_on channel=0 note=70 velocity=0 time=0\n",
      "note_on channel=0 note=71 velocity=0 time=227\n",
      "note_on channel=0 note=71 velocity=0 time=0\n",
      "note_on channel=0 note=70 velocity=102 time=43\n",
      "note_on channel=0 note=70 velocity=102 time=0\n",
      "note_on channel=0 note=70 velocity=0 time=1608\n",
      "note_on channel=0 note=70 velocity=0 time=0\n",
      "note_on channel=0 note=66 velocity=99 time=13\n",
      "note_on channel=0 note=66 velocity=99 time=0\n",
      "note_on channel=0 note=64 velocity=80 time=502\n",
      "note_on channel=0 note=64 velocity=80 time=0\n",
      "note_on channel=0 note=66 velocity=0 time=61\n",
      "note_on channel=0 note=66 velocity=0 time=0\n",
      "note_on channel=0 note=66 velocity=78 time=240\n",
      "note_on channel=0 note=66 velocity=78 time=0\n",
      "note_on channel=0 note=64 velocity=0 time=75\n",
      "note_on channel=0 note=64 velocity=0 time=0\n",
      "note_on channel=0 note=64 velocity=82 time=195\n",
      "note_on channel=0 note=64 velocity=82 time=0\n",
      "note_on channel=0 note=66 velocity=0 time=49\n",
      "note_on channel=0 note=66 velocity=0 time=0\n",
      "note_on channel=0 note=63 velocity=87 time=206\n",
      "note_on channel=0 note=63 velocity=87 time=0\n",
      "note_on channel=0 note=64 velocity=0 time=73\n",
      "note_on channel=0 note=64 velocity=0 time=0\n",
      "note_on channel=0 note=61 velocity=96 time=224\n",
      "note_on channel=0 note=61 velocity=96 time=0\n",
      "note_on channel=0 note=63 velocity=0 time=155\n",
      "note_on channel=0 note=63 velocity=0 time=0\n",
      "note_on channel=0 note=66 velocity=70 time=1792\n",
      "note_on channel=0 note=66 velocity=70 time=0\n",
      "note_on channel=0 note=61 velocity=0 time=287\n",
      "note_on channel=0 note=61 velocity=0 time=0\n",
      "note_on channel=0 note=66 velocity=0 time=800\n",
      "note_on channel=0 note=66 velocity=0 time=0\n",
      "MetaMessage('end_of_track', time=0)\n"
     ]
    }
   ],
   "source": [
    "import mido\n",
    "midi = mido.MidiFile(\"C:\\\\Users\\\\DELL\\\\Audio_Data_Processing\\\\not final\\\\SI project\\\\MarkovMusicalChain\\\\_in_raga\\\\Bageshri.mid\")\n",
    "for i, track in enumerate(midi.tracks):\n",
    "    print(f'Track {i}:')\n",
    "\n",
    "    # Iterate through messages in the track\n",
    "    for msg in track:\n",
    "        print(msg)"
   ]
  },
  {
   "cell_type": "code",
   "execution_count": 80,
   "metadata": {},
   "outputs": [],
   "source": [
    "import mido\n",
    "\n",
    "class Parser:\n",
    "    \"\"\"\n",
    "    This class parses MIDI files and builds a second order Markov chain from them.\n",
    "    \"\"\"\n",
    "\n",
    "    def __init__(self, filename, verbose=False):\n",
    "        self.filename = filename\n",
    "        self.tempo = None\n",
    "        self.ticks_per_beat = None\n",
    "        self.markov_chain = SecondOrderMarkovChain()  # Using the SecondOrderMarkovChain class\n",
    "        self._parse(verbose=verbose)\n",
    "\n",
    "    def _parse(self, verbose=False):\n",
    "        \"\"\"\n",
    "        Reads the MIDI file, extracts note sequences, and adds them to the Markov chain.\n",
    "        \"\"\"\n",
    "        midi = mido.MidiFile(self.filename)\n",
    "        self.ticks_per_beat = midi.ticks_per_beat\n",
    "        previous_note1 = None\n",
    "        previous_note2 = None\n",
    "        for track in midi.tracks:\n",
    "            for message in track:\n",
    "                if verbose:\n",
    "                    print(message)\n",
    "                if message.type == \"set_tempo\":\n",
    "                    self.tempo = message.tempo\n",
    "                elif message.type == \"note_on\":\n",
    "                    if previous_note1 is not None and previous_note2 is not None:\n",
    "                        n1 = previous_note1\n",
    "                        n2 = previous_note2\n",
    "                        n3 = message.note\n",
    "                        duration = message.time\n",
    "                        self._sequence(n1, n2, n3, duration)\n",
    "                    previous_note1 = previous_note2\n",
    "                    previous_note2 = message.note\n",
    "\n",
    "    def _sequence(self, n1, n2, n3, duration):\n",
    "        \"\"\"\n",
    "        Adds a transition from notes (n1, n2) to note n3 to the Markov chain.\n",
    "        \"\"\"\n",
    "        self.markov_chain.add((n1, n2), n3, duration)\n",
    "\n",
    "    def _bucket_duration(self, ticks):\n",
    "        \"\"\"\n",
    "        Converts ticks into milliseconds.\n",
    "        \"\"\"\n",
    "        try:\n",
    "            ms = ((ticks / self.ticks_per_beat) * self.tempo) / 1000\n",
    "            return int(ms - (ms % 200) + 200)\n",
    "        except TypeError:\n",
    "            raise TypeError(\n",
    "                \"Could not read tempo and ticks_per_beat from MIDI file\")\n",
    "\n",
    "    def get_chain(self):\n",
    "        \"\"\"\n",
    "        Returns the Markov chain generated from the MIDI file.\n",
    "        \"\"\"\n",
    "        return self.markov_chain\n"
   ]
  },
  {
   "cell_type": "code",
   "execution_count": 81,
   "metadata": {},
   "outputs": [],
   "source": [
    "chain = Parser(\"C:\\\\Users\\\\DELL\\\\Audio_Data_Processing\\\\not final\\\\SI project\\\\MarkovMusicalChain\\\\_in_raga\\\\Bageshri.mid\", verbose=False)"
   ]
  },
  {
   "cell_type": "code",
   "execution_count": 82,
   "metadata": {},
   "outputs": [],
   "source": [
    "chain = chain.get_chain()"
   ]
  },
  {
   "cell_type": "code",
   "execution_count": 83,
   "metadata": {},
   "outputs": [
    {
     "name": "stdout",
     "output_type": "stream",
     "text": [
      "        64:4686 66:1853 61:3    61:0    61:24   61:7311 61:2684 61:2243 61:13   61:1108 \n",
      "61,61   1       1       2       54      1       1       1       1       2       1       \n",
      "61,64   0       0       0       0       0       0       0       0       0       0       \n",
      "64,64   0       0       0       0       0       0       0       0       0       0       \n",
      "64,61   0       0       0       18      0       0       0       0       0       0       \n",
      "61,66   0       0       0       0       0       0       0       0       0       0       \n",
      "66,66   0       0       0       0       0       0       0       0       0       0       \n",
      "66,64   0       0       0       0       0       0       0       0       0       0       \n",
      "64,70   0       0       0       0       0       0       0       0       0       0       \n",
      "70,70   0       0       0       0       0       0       0       0       0       0       \n",
      "70,66   0       0       0       0       0       0       0       0       0       0       \n",
      "66,70   0       0       0       0       0       0       0       0       0       0       \n",
      "70,71   0       0       0       0       0       0       0       0       0       0       \n",
      "71,71   0       0       0       0       0       0       0       0       0       0       \n",
      "71,70   0       0       0       0       0       0       0       0       0       0       \n",
      "70,68   0       0       0       0       0       0       0       0       0       0       \n",
      "68,68   0       0       0       0       0       0       0       0       0       0       \n",
      "68,66   0       0       0       0       0       0       0       0       0       0       \n",
      "68,70   0       0       0       0       0       0       0       0       0       0       \n",
      "66,63   0       0       0       0       0       0       0       0       0       0       \n",
      "63,63   0       0       0       0       0       0       0       0       0       0       \n",
      "63,61   0       0       0       37      0       0       0       0       0       0       \n",
      "61,59   0       0       0       0       0       0       0       0       0       0       \n",
      "59,59   0       0       0       0       0       0       0       0       0       0       \n",
      "59,58   0       0       0       0       0       0       0       0       0       0       \n",
      "58,58   0       0       0       0       0       0       0       0       0       0       \n",
      "58,59   0       0       0       0       0       0       0       0       0       0       \n",
      "58,61   0       0       0       10      0       0       0       0       0       0       \n",
      "61,58   0       0       0       0       0       0       0       0       0       0       \n",
      "59,61   0       0       0       9       0       0       0       0       0       0       \n",
      "59,64   0       0       0       0       0       0       0       0       0       0       \n",
      "64,66   0       0       0       0       0       0       0       0       0       0       \n",
      "66,71   0       0       0       0       0       0       0       0       0       0       \n",
      "70,73   0       0       0       0       0       0       0       0       0       0       \n",
      "73,73   0       0       0       0       0       0       0       0       0       0       \n",
      "73,71   0       0       0       0       0       0       0       0       0       0       \n",
      "71,73   0       0       0       0       0       0       0       0       0       0       \n",
      "73,70   0       0       0       0       0       0       0       0       0       0       \n",
      "73,68   0       0       0       0       0       0       0       0       0       0       \n",
      "66,68   0       0       0       0       0       0       0       0       0       0       \n",
      "61,63   0       0       0       0       0       0       0       0       0       0       \n",
      "71,75   0       0       0       0       0       0       0       0       0       0       \n",
      "75,75   0       0       0       0       0       0       0       0       0       0       \n",
      "75,73   0       0       0       0       0       0       0       0       0       0       \n",
      "73,75   0       0       0       0       0       0       0       0       0       0       \n",
      "75,71   0       0       0       0       0       0       0       0       0       0       \n",
      "71,68   0       0       0       0       0       0       0       0       0       0       \n",
      "66,61   0       0       0       16      0       0       0       0       0       0       \n",
      "71,66   0       0       0       0       0       0       0       0       0       0       \n",
      "70,64   0       0       0       0       0       0       0       0       0       0       \n",
      "63,64   0       0       0       0       0       0       0       0       0       0       \n",
      "63,66   0       0       0       0       0       0       0       0       0       0       \n",
      "66,62   0       0       0       0       0       0       0       0       0       0       \n",
      "62,62   0       0       0       0       0       0       0       0       0       0       \n",
      "62,64   0       0       0       0       0       0       0       0       0       0       \n",
      "64,63   0       0       0       0       0       0       0       0       0       0       \n",
      "61,29   0       0       0       0       0       0       0       0       0       0       \n",
      "29,29   0       0       0       0       0       0       0       0       0       0       \n",
      "29,61   0       0       0       1       0       0       0       0       0       0       \n",
      "63,59   0       0       0       0       0       0       0       0       0       0       \n",
      "59,66   0       0       0       0       0       0       0       0       0       0       \n",
      "59,63   0       0       0       0       0       0       0       0       0       0       \n",
      "66,73   0       0       0       0       0       0       0       0       0       0       \n",
      "70,72   0       0       0       0       0       0       0       0       0       0       \n",
      "72,72   0       0       0       0       0       0       0       0       0       0       \n",
      "72,73   0       0       0       0       0       0       0       0       0       0       \n",
      "73,72   0       0       0       0       0       0       0       0       0       0       \n",
      "72,70   0       0       0       0       0       0       0       0       0       0       \n",
      "73,76   0       0       0       0       0       0       0       0       0       0       \n",
      "76,76   0       0       0       0       0       0       0       0       0       0       \n",
      "76,75   0       0       0       0       0       0       0       0       0       0       \n",
      "75,76   0       0       0       0       0       0       0       0       0       0       \n",
      "76,73   0       0       0       0       0       0       0       0       0       0       \n",
      "58,63   0       0       0       0       0       0       0       0       0       0       \n",
      "64,68   0       0       0       0       0       0       0       0       0       0       \n",
      "68,64   0       0       0       0       0       0       0       0       0       0       \n",
      "76,71   0       0       0       0       0       0       0       0       0       0       \n",
      "73,78   0       0       0       0       0       0       0       0       0       0       \n",
      "78,78   0       0       0       0       0       0       0       0       0       0       \n",
      "78,73   0       0       0       0       0       0       0       0       0       0       \n",
      "78,76   0       0       0       0       0       0       0       0       0       0       \n",
      "76,78   0       0       0       0       0       0       0       0       0       0       \n",
      "78,75   0       0       0       0       0       0       0       0       0       0       \n",
      "71,76   0       0       0       0       0       0       0       0       0       0       \n",
      "75,70   0       0       0       0       0       0       0       0       0       0       \n",
      "66,72   0       0       0       0       0       0       0       0       0       0       \n",
      "72,71   0       0       0       0       0       0       0       0       0       0       \n",
      "61,70   0       0       0       0       0       0       0       0       0       0       \n",
      "\n"
     ]
    }
   ],
   "source": [
    "chain.print_as_matrix()"
   ]
  },
  {
   "cell_type": "code",
   "execution_count": 84,
   "metadata": {},
   "outputs": [],
   "source": [
    "class Generator:\n",
    "    def __init__(self, markov_chain):\n",
    "        self.markov_chain = markov_chain\n",
    "\n",
    "    @staticmethod\n",
    "    def load(markov_chain):\n",
    "        \"\"\"\n",
    "        loads markov chain into generator.\n",
    "        \"\"\"\n",
    "        assert isinstance(markov_chain, SecondOrderMarkovChain)\n",
    "        return Generator(markov_chain)\n",
    "    \n",
    "    def _note_to_information(self, note):\n",
    "        \"\"\"\n",
    "        new note and its duration are converted into their\n",
    "        required format.\n",
    "        \"\"\"\n",
    "        return [\n",
    "            mido.Message('note_on', note=note[0], velocity=127,\n",
    "                         time=0),\n",
    "            mido.Message('note_off', note=note[0], velocity=0,\n",
    "                         time=note[1])\n",
    "        ]\n",
    "    \n",
    "    def generate(self, filename):\n",
    "        \"\"\"\n",
    "        Given fixed number of notes are appended and new track is\n",
    "        generated with markov chains.\n",
    "        \"\"\"\n",
    "        with mido.midifiles.MidiFile() as midi:\n",
    "            track = mido.MidiTrack()\n",
    "            prev_notes = (None, None)\n",
    "            for i in range(100):\n",
    "                new_note = self.markov_chain.get_next(prev_notes)\n",
    "                track.extend(self._note_to_information(new_note))\n",
    "                prev_notes = (prev_notes[1], new_note)\n",
    "            midi.tracks.append(track)\n",
    "            midi.save(filename)\n"
   ]
  },
  {
   "cell_type": "code",
   "execution_count": 85,
   "metadata": {},
   "outputs": [],
   "source": [
    "generator = Generator.load(chain)"
   ]
  },
  {
   "cell_type": "code",
   "execution_count": 86,
   "metadata": {},
   "outputs": [],
   "source": [
    "generator.generate(\"out4.mid\")"
   ]
  },
  {
   "cell_type": "code",
   "execution_count": null,
   "metadata": {},
   "outputs": [],
   "source": []
  }
 ],
 "metadata": {
  "kernelspec": {
   "display_name": "Python 3",
   "language": "python",
   "name": "python3"
  },
  "language_info": {
   "codemirror_mode": {
    "name": "ipython",
    "version": 3
   },
   "file_extension": ".py",
   "mimetype": "text/x-python",
   "name": "python",
   "nbconvert_exporter": "python",
   "pygments_lexer": "ipython3",
   "version": "3.10.4"
  }
 },
 "nbformat": 4,
 "nbformat_minor": 2
}
